<?xml version="1.0" encoding="utf-8"?>
<!-- Generator: Adobe Illustrator 15.0.0, SVG Export Plug-In . SVG Version: 6.00 Build 0)  -->
<!DOCTYPE svg PUBLIC "-//W3C//DTD SVG 1.1//EN" "http://www.w3.org/Graphics/SVG/1.1/DTD/svg11.dtd">
<svg version="1.1" id="Layer_1" xmlns="http://www.w3.org/2000/svg" xmlns:xlink="http://www.w3.org/1999/xlink" x="0px" y="0px"
	 width="20px" height="14.687px" viewBox="0 0 20 14.687" enable-background="new 0 0 20 14.687" xml:space="preserve">
<path fill="#686868" d="M5.167,1.588c0,0.552-0.448,1-1,1H1c-0.552,0-1-0.448-1-1V1c0-0.552,0.448-1,1-1h3.167c0.552,0,1,0.448,1,1
	V1.588z"/>
<path fill="#686868" d="M17.787,8.84c0,0.553-0.448,1-1,1H6.368c-0.552,0-1-0.447-1-1V8.252c0-0.553,0.448-1,1-1h10.419
	c0.552,0,1,0.447,1,1V8.84z"/>
<path fill="#686868" d="M8.33,8.84c0,0.553-0.448,1-1,1H6.326c-0.552,0-0.805-0.411-1-1L3.154,1c0-0.552,0.448-1,1-1h1.003
	c0.552,0,0.835,0.451,1,1L8.33,8.84z"/>
<path fill="#686868" d="M14.815,8.84c0,0.553,0.448,1,1,1h1.004c0.553,0,0.835-0.45,1-1L19.991,1c0-0.552-0.447-1-1-1h-1.003
	c-0.552,0-0.835,0.451-1,1L14.815,8.84z"/>
<path fill="#686868" d="M15.614,2.157c0,0.238-0.193,0.432-0.432,0.432H7.898c-0.238,0-0.432-0.193-0.432-0.432l0,0
	c0-0.238,0.193-0.431,0.432-0.431h7.284C15.421,1.726,15.614,1.919,15.614,2.157L15.614,2.157z"/>
<path fill="#686868" d="M14.815,4.617c0,0.238-0.193,0.432-0.432,0.432H8.953c-0.238,0-0.432-0.193-0.432-0.432l0,0
	c0-0.238,0.193-0.431,0.432-0.431h5.431C14.622,4.186,14.815,4.379,14.815,4.617L14.815,4.617z"/>
<circle fill="#686868" cx="7.232" cy="12.823" r="1.864"/>
<circle fill="#686868" cx="15.923" cy="12.823" r="1.864"/>
</svg>
