<svg id="Logo_Japan_Photo" data-name="Logo_Japan Photo" xmlns="http://www.w3.org/2000/svg" width="100mm" height="55.22mm" viewBox="0 0 283.46 156.53"><defs><style>.cls-1{fill:#c30c15;}.cls-2{fill:#fff;}.cls-3{fill:#ed1c24;}.cls-4{fill:#fff200;}</style></defs><title>cewe_jp_logo</title><rect class="cls-1" width="283.46" height="156.53"/><path class="cls-2" d="M126,45.67c1.59-5.47,15.4-7,13.36-1.66-3.64,9.48-4.55,18.79-4.1,22.34.22,1.74,1.1,1.56,2.34.8,4.11-2.55,10.84-11.8,13.33-16,2.19-3.73,11.51-.51,11.54,4.61,0,4.26,1.7,20.68,8.49,20.68,9.12,0,11.79-23.86,6.71-35.84-2.21-5.23,9.13-9.35,10.83-5A37.49,37.49,0,0,0,202,52.71C205.83,43.2,214.29,35,225,35c9,0,16.45,7.93,12.11,19-2.82,7.19-10.27,12-19.54,12a36.4,36.4,0,0,1-5.29-.39c.29,6.34,4.45,9.55,10.67,9.55,9.88,0,18.89-7.66,22.65-11.68,2.32-2.48,5.89,2.85,2.7,7.39-2.7,3.83-13.79,13.69-28,13.69s-21.83-9.63-20.55-23a37.67,37.67,0,0,1-10.25-7.45c.13,9.66-3.44,33.47-19.37,33.47-11.6,0-17.34-11.54-19.05-21.84-3.85,5.38-11.29,15.24-17.42,15.24-7.79,0-10.93-6.07-10.91-15.21,0-6.16,1.84-15.39,3.24-20.2m87.47,11.56a27.34,27.34,0,0,0,4,.29c7,0,10.4-4.48,11.21-7.14,1-3.22-.27-6.72-3.62-6.72-4,0-9.22,5.22-11.58,13.57M61.84,33.86c6.45,0,10.75,2.68,12.53,4.89s-2.07,9.53-5.44,7a12.08,12.08,0,0,0-6.78-2.09c-5.87,0-13.36,7-14.55,17.37-1,8.36,3.75,13.89,12.63,13.89A46.7,46.7,0,0,0,77.73,71a26,26,0,0,1-.85-10.73C78.62,44.36,91.36,35.63,100,35.63c9.55,0,17.3,8.23,11.21,19.9-2.68,5.14-9.73,11.64-18.56,17.19a9.87,9.87,0,0,0,7.49,3c8.29,0,13.39-5.35,15.34-7.45,2.77-3,6.1,2,3.93,6.12C117.59,78,110.53,84.79,99.1,84.79c-6.47,0-12.7-2-16.94-6.34-8,3.71-16.65,6.18-24.39,6.18-17.64,0-26.2-10.85-23.39-26,3-16,17.67-24.82,27.47-24.82M89.33,64.79c6.47-4.34,11.41-9.31,13.08-13.35,2.21-5.34-2.35-8.39-6.65-5.05-4.81,3.74-7.27,11.71-6.43,18.4"/><path class="cls-3" d="M160.34,111.16a4.38,4.38,0,1,1-4.4,4.38A4.4,4.4,0,0,1,160.34,111.16Z"/><path class="cls-2" d="M185.05,120.08v.35s-.13,1.12,2.48.56c0,0-1.5,2.31-6.26,1.91,0,0,.13-1.17.1-1.42s0-2.15,0-2.15l-.08-3.62,0-9.26-2.2-.14s0-2.24,5.88-1.57l0,4.75s10.24-5.15,10.51,5c0,0,.22,8.08-5.55,9.18a12.61,12.61,0,0,0,1.94-9.17s-.46-4.87-5.1-4.37c0,0-1.79.34-1.79,1.37S185.05,120.08,185.05,120.08Z"/><path class="cls-2" d="M96.4,110.18l2-1.77a3.1,3.1,0,0,1,2.26-.63,2.32,2.32,0,0,1,2,1.21c.71,1.27,4.44,9.42,4.44,9.42s1,1.82,1.55,1.8c0,0,.53.43,1.29-.51,0,0,.32-.36.31-.6s-.11-7.28-.11-7.28-.19-1.68-2.54-1.58c0,0,4.72-4.12,6,.39,0,0,3.37-3.93,7.85-1.6a5.6,5.6,0,0,1,2.41,4.74c0,3.27-.77,4.21-1.26,4.93a8.82,8.82,0,0,1-4.41,3.63,6.35,6.35,0,0,1-4.65.36v3.22s0,.79,2,.65c0,0-4.32,4-5.36.95l0-7.1s-2.85,3.57-4.91,1.95a12.86,12.86,0,0,1-1.78-2.48c-.58-1.19-1.68-3.67-1.68-3.67l-2.7,3L98,120.35l-1.1,1s-2.44,2.46-3.78.84c0,0-.86-.81,0-2.33,0,0,1.61-3.2,7.87-5.79l-1.16-2.68s-1.57-2.25-2.84,0a4.52,4.52,0,0,0,.13,2.46l-1.5-1.26S94.75,111.76,96.4,110.18Zm4.49,5.29s-3.74.39-5.14,2.75a1.54,1.54,0,0,0,0,1.15s.32,1.09,1.24.54A17.59,17.59,0,0,0,100.88,115.48Zm12.8,3.94c4.35,3.1,6.06-.13,6.06-.13a7.86,7.86,0,0,0,.58-4.74c-1.8-5.95-6.67-3-6.67-3Z"/><path class="cls-2" d="M211.25,110.29a4.38,4.38,0,0,1,2.4-1.62h11.47c-.3,1.27-2.3,2.28-2.3,2.28.17-.92-1.87-.55-1.87-.55a10.14,10.14,0,0,1-2.6.07s0,8.91,0,9.87,2.39.29,2.39.29a3.86,3.86,0,0,1-2.11,1.77c-3.93,1-3.52-1-3.52-1V110.59c-3.29-.49-3.68,0-3.68,0a7.27,7.27,0,0,1-1.82,9.28C203,125.69,199,121.93,199,121.93c-7.08-7.79,3-12.85,3-12.85C208,106,211.25,110.29,211.25,110.29Zm-10.93,4.23a6.83,6.83,0,0,0,3,5.65c5.83,2.35,5.32-4.24,5.32-4.24-1-7.93-6.92-5.37-6.92-5.37C200,111.5,200.33,114.52,200.33,114.52Z"/><path class="cls-2" d="M236.39,118.09a13.19,13.19,0,0,1-6.18,4.69,5.57,5.57,0,0,1-6.51-1.95s-3-4.43-.69-7.91c0,0,1.11-2.61,5.32-4.57a6,6,0,0,1,7.7,1.49,10,10,0,0,1,1.52,3.32S238.26,114.74,236.39,118.09Zm-10.57-2.75a6.57,6.57,0,0,0,3.07,4.89c6.06,2.33,5.27-5,5.27-5-1.76-7.42-6.72-4.86-6.72-4.86C225.13,111.35,225.82,115.33,225.82,115.33Z"/><path class="cls-2" d="M163.35,110.29s4.41-4.29,6.46-.06c0,0,7.8-5.56,9.94,2.17a7.33,7.33,0,0,1-1.72,6.92,8.73,8.73,0,0,1-8.24,2.83v4.07s-.2,1,2.05.33c0,0-5.65,4.72-5.65.11s-.06-8.77-.06-8.77l-.07-6.55S166.29,110,163.35,110.29Zm6.65,8.84c5.29,2.87,6.38-.52,6.38-.52a8,8,0,0,0,.05-5.19c-1.77-4.39-6.44-2-6.44-2Z"/><path class="cls-2" d="M130.12,111.25c-.44-1.32-1.88-.83-1.88-.83-1.26.38-1.28,3.44-1.28,3.44l-.84-1.14a2,2,0,0,1,.67-2.61L130,107.8c2.14-1.14,2.64.36,3.19,1.2a7.85,7.85,0,0,1,.86,2c1,2.91,3.12,7.7,3.12,7.7,1.26,2.55,2.93.7,2.93.7a16.56,16.56,0,0,0-.17-5.67c-2.35-1.52,3-5.52,3-5.52l.07,2.67,9.33,6.11s0-3.44,0-4.65a1.59,1.59,0,0,0-1.12-1.52c1.69-2.4,3.31-2.11,3.31-2.11l.15,9.77c1.88,1.23-2.79,5.13-2.79,5.13l0-1.57c-5.67-6.16-8.67-6.28-8.67-6.28a8.09,8.09,0,0,1-.07,2.89c-1.21,5.48-4.23,5.74-4.23,5.74s-.39,0-.28-.13c1.44-1.31,1.61-4,1.61-4l-1.82,1.41c-3.52,3-4.94-1.69-4.94-1.69l-1.45-3.52c-7.83,8.65-8.78,5.73-8.78,5.73-1.42-4.33,8-8,8-8Zm.7,4.27s-5.63,1-4.65,3.67C126.17,119.19,127,122.19,130.82,115.52Z"/><path class="cls-2" d="M86.56,109.43s-.08-2,5.45-1.61l.19,10.92s.69,5.38-9.15,7.41c0,0-.14-.06.09-.18s.55-.18.8-.27c1.5-.5,5.15-2.59,5-8.73-.21-8.44-.14-7.44-.14-7.44Z"/><path class="cls-4" d="M65.44,113l3-.68.13,0,1-.18c.06,0,.06.06.12.11l1.18-.15a.18.18,0,0,1,.08,0,3.87,3.87,0,0,1,2.6.29,2.94,2.94,0,0,1,.36.31c.14.64.83,1,.75,1.77a6,6,0,0,1-.38,1.86h0l-.07-.06-.21.28c-.06,0-.08.14-.16.13l-.23.53s0,0,0,0l.25-.17s0,0,0,.06l-1.47,3.09h0l.08-.37-.27.48c.14.19-.08.31-.13.48-.57,1.14-1.21,2.09-1.83,3.14a5.26,5.26,0,0,0-.4.66,1.46,1.46,0,0,0,.06.16l-.18.28a.5.5,0,0,0,0,.16s0,0,0,0,0,0-.06,0l-.69,1a.55.55,0,0,0-.07.18l0,.13a5.17,5.17,0,0,0-.62.76,3.52,3.52,0,0,1-.27.45v.16l.11,0s0,0,0,0c-.13.3-.55.4-.64.76-.08.15-.17.26-.23.38a.24.24,0,0,0,.07.16l.05,0a.47.47,0,0,1,.18-.14l.14,0s0,0,.09,0c.21-.09.42-.37.7-.35.09,0,.1-.09.18-.09l.24-.22.18-.1a.34.34,0,0,1,.26-.21c.16,0,.36.12.48,0s0-.08.08-.09l.11.06h.21a.35.35,0,0,0,.16-.11l.14-.06s0,0,.06,0v0l-.09.13a1.11,1.11,0,0,1,.28-.16H71A39.81,39.81,0,0,0,74,124.45c0-.06,0,0,0-.1l0,0-.24.52-.5.58a21,21,0,0,0,1.35-1.65,11.54,11.54,0,0,0,1.07-1.62s0,0,0,0A.24.24,0,0,0,76,122c.38-.88,1-1.44,1.38-2.31a10.15,10.15,0,0,0,1-2s0,0,0,0,0,0,0,0l-.38,1.1c.07-.08.07-.22.12-.31s.14-.3.2-.42a13.71,13.71,0,0,0,.64-4,.83.83,0,0,1-.06-.12c-.1-.17-.08-.35-.16-.53a5.71,5.71,0,0,0-.33-.83,6.62,6.62,0,0,0-.47-.8,3.51,3.51,0,0,0-2.22-1.29c-.44-.14-.93-.2-1.38-.31a20.78,20.78,0,0,0-4.82.2c-.31,0-.58.11-.88.15-.14.08-.28,0-.44,0s-.26.11-.4.12-.28,0-.42,0l-.64.14a4.73,4.73,0,0,0-.69.17c-.27,0-.52.11-.72.16s-.22.12-.31.11,0,0-.09,0,0,0,0,0,0,0,0,0,.09,0,.16-.06l.41-1,0-.11.18-.37s0,0,0,0,.1-.1.16-.16-.06-.09-.07-.14c.11-.42.42-.76.55-1.26a11.28,11.28,0,0,0,.45-1.76s0,0-.09,0,0,0,0,0c-.07-.18,0-.37,0-.58s.07-.42-.07-.54l0-.33c-.18-.07-.22-.24-.29-.44l-.21-.14-.11.06-.48-.19s0,0-.08,0l-.14,0-.06,0a.63.63,0,0,0-.46-.17c-.06,0-.08,0-.1,0s-.06,0-.09,0l-.11-.06-.26.11c-.08,0-.06-.07-.15-.09l-1,0s0,.17,0,.18h.34s.07,0,.08.1l-.62,2.16a.17.17,0,0,0-.08.14.35.35,0,0,0,0,.1l-.14.38a.26.26,0,0,0-.08.17c0,.19-.1.27-.13.47a36.84,36.84,0,0,1-1.79,4.21.16.16,0,0,1,0,.11l-.53.79a.4.4,0,0,0,0,.25s0,0,0,0c-.26.06-.3.31-.41.5s0,.08,0,.11l-.15.29V114s.18,0,.21-.09,0-.06,0-.06,0,.06.06.12l-.17.34a.45.45,0,0,1,.17-.07l.08,0c.06,0,0,.1,0,.16l.13.2.3-.29s0,0,0,0a.28.28,0,0,0,.11,0s0,0,.06.06.08,0,.09.08l.2-.14.09,0s0,.07.07.08l.28-.06a.42.42,0,0,0,.39,0l.14.07.42-.43.09,0s0,0,0,.06.1-.16.23-.18.16.09.25.12,0,0,0,0A5.09,5.09,0,0,1,65.44,113Z"/><path class="cls-4" d="M68,115.71s-.2.12-.24.17-.1.17-.12.2v.23l-.06.06a.11.11,0,0,1,0,.09c0,.13-.12.14-.16.24s0,.08-.07.12a9.21,9.21,0,0,1-.22,2.11s-.06,0-.06,0c-.09,1.21-1.47,1.86-2.09,2.85,0,0,0,0,0,0-.3.28-.5.66-.8.94a15.11,15.11,0,0,0-1.23,1.33l.62-.53s0,0,0,0c-.41.53-1,.86-1.45,1.4,0,0,0,0,0,0s-.17.1-.22.17H62c.06,0,0,0,0,0l-.71,1s0,0,0,0l-.47.54s0,.09,0,.11l0,0,.34,0s0,0,.06-.08.07,0,.11,0l.13-.15c.07,0,0,.09.07.13l.2-.09.13,0,.08-.07.26,0s0-.1.08-.1l.42-.17a.16.16,0,0,1,.14,0l.44-.18,1.37-.92c.06,0,0,0,.06.06.3-.09.56-.4.91-.51a22.91,22.91,0,0,1,2-1.41s0,0,0,0l0,0a4.25,4.25,0,0,0,1.1-1.06l.12-.07a4.4,4.4,0,0,0,1.21-2.4c0-.81.2-1.87-.27-2.51-.16-.08-.3-.08-.41-.28a1.4,1.4,0,0,0-.51-.5l-.21-.3-.14,0,0,.09s0,0,0,0,0,0,0,0l0-.45-.24-.06s-.1-.07-.1-.14,0,0,0,0l-.08-.07Z"/><path class="cls-4" d="M67.69,115.87l.15-.27,0-.3,0-.44.1-.16a.48.48,0,0,0,0-.15h-.14c-.09-.08-.18-.09-.17-.25s0-.2,0-.25a.37.37,0,0,0-.16,0c-.07,0,0,0-.07-.09l-.16,0-.13-.13h-.28s0,0,0,0,0,0,0,0-.06-.05-.06-.12a.7.7,0,0,1-.22,0l0,0s0,0,0,0,0-.1,0-.18-.09-.11-.12-.14l-.11.06c-.08,0,0,0-.06-.1s-.18.07-.31,0,0,0,0,0-.07,0-.1,0-.06,0-.07,0,0,0,0,0a.13.13,0,0,1,0-.1,1.23,1.23,0,0,0-.15.06s0-.06,0-.09l-.22,0s-.25-.09-.26-.13h0c-.07,0-.13.13-.22.15-.3.72-.6,1.28-.94,1.93-.2.37-.38.78-.6,1.13v0c-.25.31-.69.54-.88.89,0,0,0,.07,0,.05l-.92.74s0,.09,0,.12l-1.11,1A8.94,8.94,0,0,0,59,120.77l-.26.18L59,121l.11-.07.14,0,.23-.22s0,0,.08.06v0l.72-.34s0,0,0,0-.06,0-.1.1.12.12.13.12l.14-.09c.06,0,0,.07.09.07s0-.08.07-.13l.29-.2a.44.44,0,0,0,.47-.11.26.26,0,0,1,.14-.12l.05,0c0,.08-.05.09,0,.17s.08,0,.13,0,.06-.06,0,0l-.15.13c.4-.18.71-.67,1.21-.64l.23-.12s0,0,0,0l0,.1c.07,0,.12-.12.21-.14a13,13,0,0,0,3.39-2.38A6.57,6.57,0,0,0,67.69,115.87Z"/><path class="cls-4" d="M55,127.45c0-.08.1-.13.17-.17l0,0c.07,0,.12,0,.18-.06s-.06,0,0,0l0,.14.13-.18c.09-.07.16,0,.27,0l.08.06a.22.22,0,0,0,.1,0s.1,0,.12,0a.24.24,0,0,0,0-.08s0-.06.06-.09.2.11.31.08l.25-.31.07,0a18.71,18.71,0,0,0,.1-2.13c-.06-.43,0-.88-.1-1.29l.16-.12-.11-.55c0-.07-.09-.1-.12-.18l.07-.38-.09-.59a.1.1,0,0,1,0-.07l0,0s0-.12,0-.14,0,0,0,0c0-.22-.1-.46-.09-.7s.09-.28,0-.44c0,0,0,0-.09,0s0,0,0-.05v-.5s0,0,0,0,0,0,0,0a10.86,10.86,0,0,1,0-1.62c.45-.54,1-1.12,1.38-1.65,0-.06,0-.09-.06-.15a14,14,0,0,1,1.28-1.44s.06,0,0,0l.17-.36a12.42,12.42,0,0,0-1.59,1.13l-.11,0-.42.29s0,0,0,0a2,2,0,0,1,.73-.72s-.06-.11-.1-.13l-.1,0-.16.06s0,0,0,0-.07,0-.1,0l-.67.44-.2.1h-.09l-.45.28s0,0,0,0l-.14-2.42s0,0,0,0c-.09-.24.07-.55-.08-.75s.12-.2.22-.25c.4-.15.65-.43,1.07-.53,0,0,.06,0,.09-.07s.19,0,.29-.06h-.18l0-.11s0,0,0,0l.25-.18.64-.18.07-.11v-.22a.3.3,0,0,1,.14-.2h.15l-1.79.41-.14.06s0,0-.06,0,0,0,0,0a2.73,2.73,0,0,1-.74,0l0-.31s0,0,0-.07l-.13-.61a7.39,7.39,0,0,1,0-1.74l-.06-2.2s0-.06-.09-.09a4,4,0,0,0-.25-1.87l-.38-.27c-.23,0-.31-.22-.58-.17-.5-.11-1,0-1.5-.16a3.24,3.24,0,0,1-1.07-.06,1.4,1.4,0,0,0-.28.08,1,1,0,0,0,0,.14c.44.14.4.57.56,1a52.16,52.16,0,0,1,.2,6c0,.13,0,.17.09.29a4.28,4.28,0,0,1,0,.78c-.53.38-1.08.58-1.68.92,0,0,0,0,0,0,.26-.31.74-.35,1.09-.6l-1.18.48s0,0,0,0,0,0,0-.08l.07-.23c-.12-.26-.17-.58-.29-.86,0-.44-.43-.7-.36-1.14,0,0-.06,0,0,0-.2-.16-.18-.38-.29-.56s0-.13,0-.17a2.72,2.72,0,0,0-1.13-.26c-.11,0-.14-.13-.22-.16l-.93,0a2.62,2.62,0,0,0-.86,0l-.44,0a.75.75,0,0,1,0,.15s0-.06,0,0l-.32.13s.16,0,.21,0c.1.22.4.14.63.26a1.75,1.75,0,0,1,.22.08l.3.6s0,0,0,.08l.62,1.84.11.16.56,1.56c0,.1.11.18,0,.27l-.48.45v.07l-.22.22a.66.66,0,0,1,0,.22c0,.14-.17.23-.25.33s.08.1.1.14,0-.06,0,0l-.34.45c0,.06,0,0,0,.06s0,0-.06,0a.65.65,0,0,0,.1.33l-.08.33.09.17s0,0,0,0,0,0,0,.09l-.1.21.1.18,0,.1s.12,0,.14,0-.06,0,0,0,0,0,0,0l-.14.36s.15,0,.17,0,.08-.09.11-.17-.06,0,0,0,0,0,.06.06l-.08,0s0,.1,0,.15l-.1.22s.08,0,.1,0l.26-.14.11.06.5-.26a.22.22,0,0,1,.08,0s.05,0,.1,0l1-.9c.68-.38,1.21-1,1.94-1.34.22,0,.35-.21.54-.3s0-.15.11-.18l.34-.3s-.06,0,0,0c.09.18,0,.35.12.54.09.69.09,1.37.2,2,0,.08,0,.08,0,.15-.65.4-1.21,1-1.92,1.36l-.67.42s0,0,0,0a10.75,10.75,0,0,1,1.31-1.1l.11-.17L47.84,121a10.78,10.78,0,0,1-1.23.83.4.4,0,0,1-.29.07.28.28,0,0,1-.18.13l-.15.12-.09.24s-.11.07-.14.1l.21.2.55.72.12,0s0,.09,0,.13l.22.06.12.18s0,0,0,0,.08.08.12.13l.14.17,0,.1.36.2s0,0,0,0-.07.13-.12.09.1,0,.14.06l.1.17s0,.06.08,0,0,0,.06.09h.11l.13.06.12,0c.06,0,0,0,0,0s.14.12.21.17,0,0,0,0-.09,0-.16.06,0,.18,0,.22l.19,0c.07,0,.15.14.23.15h.1l.06,0s0,0,0,0,0,.13,0,.14v.14A13.13,13.13,0,0,0,52.7,123a2.39,2.39,0,0,1,.54-.6s0,0,0,0l.08.18.09,1.69,0,1.23.14.17,0,.19.09,0L54,127l.21.1s0,.07,0,.11.13-.08.16-.11,0,0,0,0a.12.12,0,0,1,.06,0,.19.19,0,0,1,0,.08s.1-.08.14-.1h0a.23.23,0,0,1,.09.17c0-.07.07-.12.17-.17s.1.1.11.14,0,.14,0,.2Z"/><path class="cls-4" d="M56.7,122.62"/><path class="cls-4" d="M58.6,110.81l.14,0Z"/></svg>