<?xml version="1.0" standalone="no"?>
<!DOCTYPE svg PUBLIC "-//W3C//DTD SVG 1.1//EN" "http://www.w3.org/Graphics/SVG/1.1/DTD/svg11.dtd" >
<svg xmlns="http://www.w3.org/2000/svg" xmlns:xlink="http://www.w3.org/1999/xlink" version="1.1">
<metadata></metadata>
<defs>
<font id="lets_eatregular" horiz-adv-x="424" >
<font-face units-per-em="1000" ascent="783" descent="-217" />
<missing-glyph horiz-adv-x="227" />
<glyph unicode="&#xd;" horiz-adv-x="227" />
<glyph horiz-adv-x="227" />
<glyph unicode=" "  horiz-adv-x="227" />
<glyph unicode="&#x09;" horiz-adv-x="227" />
<glyph unicode="&#xa0;" horiz-adv-x="227" />
<glyph unicode="!" horiz-adv-x="183" d="M152 249q0 -29 -19.5 -45t-42.5 -16q-34 0 -49 19t-15 42v408q0 40 17.5 58t57.5 18v-8q0 -22 -7 -37q3 -4 4.5 -9t6.5 -8q11 3 19 13.5t19 10.5q9 0 9 -12v-434zM138 626q7 0 8 9q0 4 -0.5 10.5t-2.5 13t-5 11.5t-9 5q-11 0 -11 -9q0 -3 1 -5q14 -35 19 -35zM81 692 q8 2 8 10q0 10 -8 10q-7 0 -15 -4l-4 -3q-9 -3 -9 -13q0 -8 8 -8q4 0 6 1l8 5zM152 53q0 -30 -19.5 -45t-43.5 -15q-32 0 -48 18.5t-16 46.5q0 26 15 43t43 19q0 -13 4 -25t12 -29q5 9 15.5 17.5t19.5 11.5q8 -9 13 -18.5t5 -23.5zM130 44q0 23 -16 23q-10 0 -10 -10 q0 -3 3.5 -6t3.5 -8q0 -2 -0.5 -4t-0.5 -5q0 -8 10 -8t10 18z" />
<glyph unicode="&#x22;" horiz-adv-x="316" d="M143 549q0 -29 -19.5 -45t-42.5 -16q-34 0 -49 19t-15 42v108q0 40 17.5 58t57.5 18v-8q0 -22 -7 -37q3 -4 4.5 -9t6.5 -8q11 3 19 13.5t19 10.5q9 0 9 -12v-134zM129 626q7 0 8 9q0 4 -0.5 10.5t-2.5 13t-5 11.5t-9 5q-11 0 -11 -9q0 -3 1 -5q14 -35 19 -35zM72 692 q8 2 8 10q0 10 -8 10q-7 0 -15 -4l-4 -3q-9 -3 -9 -13q0 -8 8 -8q4 0 6 1l8 5zM301 549q0 -29 -19.5 -45t-42.5 -16q-34 0 -49 19t-15 42v108q0 40 17.5 58t57.5 18v-8q0 -22 -7 -37q3 -4 4.5 -9t6.5 -8q11 3 19 13.5t19 10.5q9 0 9 -12v-134zM287 626q7 0 8 9 q0 4 -0.5 10.5t-2.5 13t-5 11.5t-9 5q-11 0 -11 -9q0 -3 1 -5q14 -35 19 -35zM230 692q8 2 8 10q0 10 -8 10q-7 0 -15 -4l-4 -3q-9 -3 -9 -13q0 -8 8 -8q4 0 6 1l8 5z" />
<glyph unicode="#" horiz-adv-x="663" d="M271 553h116v117q0 33 14.5 48t47.5 15v-7q0 -17 -6 -30q2 -3 3 -7.5t6 -6.5q9 2 15.5 11t16.5 9q7 0 7 -10v-139h92q28 0 36 -8q-12 -7 -22.5 -17t-13.5 -19q5 1 10.5 1h11.5h17.5t20.5 -2q1 -5 1 -9v-8q0 -20 -15.5 -32.5t-44.5 -12.5h-93v-133h92q28 0 36 -8 q-12 -7 -22.5 -17t-13.5 -19q5 1 10.5 1h11.5h17.5t20.5 -2q1 -5 1 -9v-8q0 -20 -15.5 -32.5t-44.5 -12.5h-93v-163q0 -23 -16 -36.5t-35 -13.5q-28 0 -40.5 16t-12.5 34v163h-116v-163q0 -23 -16 -36.5t-35 -13.5q-28 0 -40.5 16t-12.5 34v163h-100q-53 0 -53 55 q0 23 14.5 37.5t37.5 14.5h101v133h-100q-53 0 -53 55q0 23 14.5 37.5t37.5 14.5h101v117q0 33 14.5 48t47.5 15v-7q0 -17 -6 -30q2 -3 3 -7.5t6 -6.5q9 2 15.5 11t16.5 9q7 0 7 -10v-139zM271 313h116v133h-116v-133zM558 272q10 0 10 10q0 9 -19.5 12t-43.5 3 q-10 0 -10 -10q0 -5 8.5 -8t19 -4.5t21 -2t14.5 -0.5zM558 512q10 0 10 10q0 9 -19.5 12t-43.5 3q-10 0 -10 -10q0 -5 8.5 -8t19 -4.5t21 -2t14.5 -0.5zM480 645q5 0 6 7q0 6 -2.5 19.5t-11.5 13.5t-9 -7q0 -3 1 -5q10 -28 16 -28zM260 645q5 0 6 7q0 6 -2.5 19.5 t-11.5 13.5t-9 -7q0 -3 1 -5q10 -28 16 -28zM432 699q7 1 7 8q0 9 -7 9q-5 0 -12 -4l-3 -2q-8 -3 -8 -11q0 -7 7 -7q3 0 5 1l6 4q1 0 2 0.5t2 0.5t1 1zM212 699q7 1 7 8q0 9 -7 9q-5 0 -12 -4l-3 -2q-8 -3 -8 -11q0 -7 7 -7q3 0 5 1l6 4q1 0 2 0.5t2 0.5t1 1z" />
<glyph unicode="$" horiz-adv-x="383" d="M241 576q13 -2 24.5 -4.5t18.5 -7.5q-8 -11 -20 -15t-12 -5q0 -5 5.5 -9t11.5 -4q3 0 9.5 2.5t15 6t17.5 6t18 2.5q2 -6 3 -12t1 -13q0 -20 -10.5 -38t-34.5 -18q-16 0 -39 7.5t-56 7.5q-20 0 -27 -4t-7 -15q0 -6 7 -14t15 -15.5t15 -13.5t7 -7q0 -5 -4.5 -11t-13.5 -9 q8 -8 25.5 -19.5t37 -24t36.5 -24t24 -19.5q16 15 45 15q0 -17 10 -27q-5 -53 -31.5 -88t-90.5 -47v-116q0 -23 -16 -36.5t-35 -13.5q-28 0 -40.5 16t-12.5 34v110q-60 3 -84 17.5t-24 36.5q0 17 9.5 29.5t26.5 12.5q26 0 56.5 -10.5t61.5 -10.5q17 0 24.5 11t7.5 25 q0 18 -13 30t-33.5 22.5t-45 22t-48.5 29.5q-47 35 -47 92q0 25 8.5 43.5t23.5 32t35 22t42 13.5v99q0 33 14.5 48t47.5 15v-7q0 -17 -6 -30q2 -3 3 -7.5t6 -6.5q9 2 15.5 11t16.5 9q7 0 7 -10v-116zM339 292q0 10 -11 10q-3 0 -7 -7t-7 -16t-5 -17t-2 -10q0 -10 10 -10 q6 0 14 13t8 37zM276 369q6 -5 6 -9q0 -10 -10 -10q0 1 -7 3.5t-15 6.5t-15 9.5t-7 12.5q0 5 6 7.5t11 2.5t14.5 -9t16.5 -14zM146 441q-10 0 -10 -10l2.5 -4.5t6.5 -10t10 -10t13 -4.5q10 0 10 11q0 4 -9 12q-13 10 -15.5 13t-7.5 3zM307 505q0 8 -2.5 16t-10.5 8 q-10 0 -10 -11q0 -2 1.5 -4.5t1.5 -6.5q0 -2 -0.5 -4.5t-0.5 -4.5q0 -9 10 -9q9 0 11 9v7zM230 645q5 0 6 7q0 6 -2.5 19.5t-11.5 13.5t-9 -7q0 -3 1 -5q10 -28 16 -28zM182 699q7 1 7 8q0 9 -7 9q-5 0 -12 -4l-3 -2q-8 -3 -8 -11q0 -7 7 -7q3 0 5 1l6 4q1 0 2 0.5t2 0.5 t1 1z" />
<glyph unicode="%" horiz-adv-x="695" d="M317 561q0 -31 -10.5 -59.5t-30.5 -50.5t-48 -35t-63 -13q-25 0 -51 9.5t-47.5 29t-35 49.5t-13.5 70q0 41 12.5 73t33 54t47 33.5t54.5 11.5q19 0 30 -5t18 -12q0 -2 -6 -6t-13 -10q15 -5 34.5 -20.5t41.5 -41.5q13 12 23 12q10 -12 17 -32t7 -57zM208 515q2 17 3.5 31 t1.5 22q0 10 -2 22.5t-6 23t-11 17.5t-16 7q-12 0 -21 -1.5t-16 -7t-11 -17t-6 -32.5l-2 -70q-1 -9 -4 -13.5t-8 -6.5q3 -10 9 -15.5t14 -7.5q4 6 14 11.5t21.5 11.5t22.5 12t17 13zM173 702q9 0 9 8t-9.5 9t-16.5 1q-5 0 -15 -2.5t-10 -9.5q0 -10 10 -10q3 0 5 3.5t10 3.5 t10 -1.5t7 -1.5zM113 549q0 8 -8 8t-8 -8v-32q0 -9 8 -9t8 9v32zM305 598q0 1 -2 7t-5 12.5t-6.5 11.5t-7.5 5q-7 0 -7 -8q2 -11 6 -20q3 -8 6.5 -13.5t8.5 -5.5q8 0 8 6q0 2 -1 5zM197 474q2 2 3 3.5t1 3.5q0 9 -8 9q-2 0 -6.5 -3t-9.5 -6q-8 -3 -14.5 -4.5t-6.5 -6.5 q0 -8 7 -8q13 0 34 12zM677 151q0 -31 -10.5 -59.5t-30.5 -50.5t-48 -35t-63 -13q-25 0 -51 9.5t-47.5 29t-35 49.5t-13.5 70q0 41 12.5 73t33 54t47 33.5t54.5 11.5q19 0 30 -5t18 -12q0 -2 -6 -6t-13 -10q15 -5 34.5 -20.5t41.5 -41.5q13 12 23 12q10 -12 17 -32t7 -57z M568 105q2 17 3.5 31t1.5 22q0 10 -2 22.5t-6 23t-11 17.5t-16 7q-12 0 -21 -1.5t-16 -7t-11 -17t-6 -32.5l-2 -70q-1 -9 -4 -13.5t-8 -6.5q3 -10 9 -15.5t14 -7.5q4 6 14 11.5t21.5 11.5t22.5 12t17 13zM533 292q9 0 9 8t-9.5 9t-16.5 1q-5 0 -15 -2.5t-10 -9.5 q0 -10 10 -10q3 0 5 3.5t10 3.5t10 -1.5t7 -1.5zM473 139q0 8 -8 8t-8 -8v-32q0 -9 8 -9t8 9v32zM665 188q0 1 -2 7t-5 12.5t-6.5 11.5t-7.5 5q-7 0 -7 -8q2 -11 6 -20q3 -8 6.5 -13.5t8.5 -5.5q8 0 8 6q0 2 -1 5zM557 64q2 2 3 3.5t1 3.5q0 9 -8 9q-2 0 -6.5 -3t-9.5 -6 q-8 -3 -14.5 -4.5t-6.5 -6.5q0 -8 7 -8q13 0 34 12zM625 709q3 -5 5.5 -10.5t2.5 -12.5q0 -5 -2 -12t-11 -21l-432 -628q-13 -18 -27 -25t-33 -7q-26 0 -38.5 18.5t-12.5 38.5q0 16 9 30l427 625q12 18 28.5 23t27.5 5q5 0 10 -1t10 -3q-4 -13 -4 -26q0 -10 3 -16 q5 7 16 13.5t21 8.5zM588 637q4 0 12.5 10.5t8.5 15.5q0 10 -12 10q-5 0 -13 -10.5t-8 -15.5q0 -10 12 -10z" />
<glyph unicode="&#x26;" horiz-adv-x="450" d="M410 146q0 -27 -15 -54t-41.5 -49t-61.5 -36t-75 -14q-45 0 -80.5 10t-60.5 31.5t-38.5 57t-13.5 86.5v414q0 30 14 56t37 45t52.5 29.5t61.5 10.5q21 0 29 -8q-8 -4 -11.5 -9.5t-3.5 -16.5q0 -6 3 -9q4 6 14 11t28 6q9 -14 9 -25q0 -15 -7 -24t-16.5 -15.5t-21 -12.5 t-20.5 -15q-21 -20 -28 -34t-7 -43q-16 -10 -16 -27q23 -18 63 -31q5 7 5 33q26 5 51 7t60 2q16 0 32.5 -3.5t27.5 -11.5q-12 -2 -25 -7.5t-19 -15.5q12 5 27.5 8.5t29.5 3.5q13 -7 13 -28t-9 -30t-25 -14q-21 -6 -47 -8.5t-50.5 -4t-45.5 -3.5t-31 -7q-28 -14 -40 -39 t-12 -67q0 -8 1.5 -26t3 -39t3 -40.5t1.5 -31.5q0 -10 -5 -16t-17 -18q0 -6 31 -37q17 0 30 22q5 -1 10.5 -1.5t10.5 -0.5q38 0 49 19.5t11 47.5q0 17 -1.5 34.5t-1.5 34.5q0 28 15 47.5t41 19.5q12 0 24 -4q-2 -12 -3.5 -22t-1.5 -18q0 -14 4 -19q4 4 18.5 10t23.5 6 q12 -13 14.5 -47t2.5 -70zM296 485q10 0 10 10q0 11 -10 11h-41q-10 0 -10 -11q0 -10 10 -10h41zM384 190q-1 2 -2.5 9t-3.5 15t-5.5 14.5t-8.5 6.5q-10 0 -10 -9v-2l-1 1v-2q0 -3 1.5 -10.5t4.5 -15.5t6.5 -14t7.5 -6q11 0 11 9v4zM133 162q-4 12 -4 23t-11 11 q-10 0 -10 -11q0 -4 0.5 -10t2 -12t4.5 -10t8 -4q11 0 11 7q0 4 -1 6zM223 666q0 10 -10 10q-8 0 -15 -9.5t-7 -12.5q0 -11 11 -11q4 0 7 4zM222 75q10 0 10 10t-10 10h-16q-10 0 -10 -10t10 -10h16z" />
<glyph unicode="'" horiz-adv-x="158" d="M143 549q0 -29 -19.5 -45t-42.5 -16q-34 0 -49 19t-15 42v108q0 40 17.5 58t57.5 18v-8q0 -22 -7 -37q3 -4 4.5 -9t6.5 -8q11 3 19 13.5t19 10.5q9 0 9 -12v-134zM129 626q7 0 8 9q0 4 -0.5 10.5t-2.5 13t-5 11.5t-9 5q-11 0 -11 -9q0 -3 1 -5q14 -35 19 -35zM72 692 q8 2 8 10q0 10 -8 10q-7 0 -15 -4l-4 -3q-9 -3 -9 -13q0 -8 8 -8q4 0 6 1l8 5z" />
<glyph unicode="(" horiz-adv-x="384" d="M365 786q-10 -17 -35.5 -22t-53.5 -5q-21 0 -37.5 -2t-28 -10t-18 -24t-9.5 -45v-594q0 -29 2.5 -44.5t5.5 -18.5q-8 -13 -13 -21.5t-7.5 -14t-3.5 -8.5t-1 -6q30 -27 62 -38t60 -11q34 0 51 27q1 -5 13 -20q0 -14 -9.5 -26t-24.5 -21t-33.5 -14t-36.5 -5q-47 0 -84 15.5 t-62.5 42t-39.5 61.5t-14 74v613q0 43 11 79t35.5 61.5t63.5 39.5t95 14q25 0 49 -3q3 -4 5 -18.5t11 -24.5q8 0 18.5 4t28.5 12v-47zM234 -39q7 -2 16.5 -3.5t18.5 -3t15 -4t6 -6.5q0 -7 -8 -7q-6 0 -15.5 1t-18 3t-15 5.5t-6.5 8.5q0 6 7 6zM278 827q11 0 11 10t-11 10 h-30q-11 0 -11 -10t11 -10h30zM176 19q-4 12 -4 20.5t-11 8.5q-10 0 -10 -11q0 -32 15 -32q11 0 11 8q0 4 -1 6z" />
<glyph unicode=")" horiz-adv-x="387" d="M344 75q-2 -44 -16 -83t-42 -67.5t-71.5 -45t-104.5 -16.5q-44 0 -59 11.5t-15 34.5q0 18 13 27t33 15t43 12.5t43 18t33 32t13 55.5v594q0 34 -15 54.5t-38.5 32t-52 15t-55.5 3.5q-22 0 -28.5 9t-6.5 26q0 27 40.5 43.5t115.5 16.5q9 -19 43 -53q63 -62 66 -66 q6 0 23 18q25 -8 31.5 -38.5t6.5 -70.5v-578zM323 704q-5 30 -17 30q-11 0 -11 -7q0 -8 3 -14.5t6.5 -11t6 -6.5l2.5 -2q10 0 10 9v2z" />
<glyph unicode="*" horiz-adv-x="341" d="M34 629q-8 7 -10.5 13t-2.5 14q0 11 9 22.5t23 11.5q16 0 34 -15l47 -43v57q0 44 43 44v-5q0 -12 -4 -21q2 -2 2.5 -4.5t3.5 -4.5q7 2 11 8t11 6q5 0 5 -7v-73l49 43q12 10 25 10q5 0 10 -1.5t10 -5.5q-2 -4 -4.5 -11t-2.5 -13q4 3 12 4.5t13 2.5q2 -6 2 -8 q0 -5 -3.5 -12t-9.5 -12l-85 -75l87 -77q5 -5 8 -12.5t3 -12.5q0 -14 -8 -23.5t-27 -9.5q-12 0 -25 11l-54 47v-83q0 -17 -11 -26t-24 -9q-20 0 -28.5 11t-8.5 24v83l-52 -47q-11 -11 -26 -11q-19 0 -26.5 9.5t-7.5 23.5q0 5 2.5 12.5t7.5 12.5l87 77zM199 672q3 0 4 5 q0 5 -2 14t-8 9t-6 -5q0 -6 2 -10t4 -7q3 -4 6 -6zM264 649q5 0 10 5.5t5 7.5q0 5 -6 5q-5 0 -9.5 -5.5t-4.5 -7.5q0 -4 5 -5zM165 709q5 1 5 6q0 6 -5 6q-4 0 -8 -3l-2 -1q-5 -2 -5 -8q0 -4 8 -4l4 3q1 0 1 0.5t1 0.5h1z" />
<glyph unicode="+" horiz-adv-x="383" d="M241 445h60q28 0 36 -8q-12 -7 -22.5 -17t-13.5 -19q5 1 10.5 1h11.5h17.5t20.5 -2q1 -5 1 -9v-8q0 -20 -15.5 -32.5t-44.5 -12.5h-61v-86q0 -23 -16 -36.5t-35 -13.5q-28 0 -40.5 16t-12.5 34v86h-62q-53 0 -53 55q0 23 14.5 37.5t37.5 14.5h63v67q0 33 14.5 48t47.5 15 v-7q0 -17 -6 -30q2 -3 3 -7.5t6 -6.5q9 2 15.5 11t16.5 9q7 0 7 -10v-89zM230 487q5 0 6 7q0 6 -2.5 19.5t-11.5 13.5t-9 -7q0 -3 1 -5q10 -28 16 -28zM182 541q7 1 7 8q0 9 -7 9q-5 0 -12 -4l-3 -2q-8 -3 -8 -11q0 -7 7 -7q3 0 5 1l6 4q1 0 2 0.5t2 0.5t1 1zM276 404 q10 0 10 10q0 9 -13 11.5t-37 2.5q-10 0 -10 -10q0 -5 6.5 -7.5t14.5 -4t16.5 -2t12.5 -0.5z" />
<glyph unicode="," horiz-adv-x="179" d="M136 95q11 -6 15.5 -19.5t4.5 -22.5q0 -30 -8.5 -55t-20.5 -42.5t-26 -27.5t-24 -10q-12 0 -16.5 5.5t-4.5 14.5q0 8 3 15t3 15q0 10 -7 18q-15 19 -20.5 34.5t-5.5 35.5t13 41.5t44 23.5q0 -2 -0.5 -4.5t-0.5 -4.5q0 -23 17 -46q3 11 13.5 20t20.5 9zM126 15 q10 0 11.5 13.5t1.5 21.5q0 10 -10 10q-8 0 -11 -10.5t-3 -27.5q0 -7 11 -7z" />
<glyph unicode="-" horiz-adv-x="383" d="M361 400q1 -5 1 -9v-8q0 -20 -15.5 -32.5t-44.5 -12.5h-227q-53 0 -53 55q0 23 14.5 37.5t37.5 14.5h227q28 0 36 -8q-12 -7 -22.5 -17t-13.5 -19q5 1 10.5 1h11.5h17.5t20.5 -2zM276 404q10 0 10 10q0 9 -19.5 12t-43.5 3q-10 0 -10 -10q0 -5 8.5 -8t19 -4.5t21 -2 t14.5 -0.5z" />
<glyph unicode="." horiz-adv-x="189" d="M161 53q0 -30 -19.5 -45t-43.5 -15q-32 0 -48 18.5t-16 46.5q0 26 15 43t43 19q0 -13 4 -25t12 -29q5 9 15.5 17.5t19.5 11.5q8 -9 13 -18.5t5 -23.5zM139 44q0 23 -16 23q-10 0 -10 -10q0 -3 3.5 -6t3.5 -8q0 -2 -0.5 -4t-0.5 -5q0 -8 10 -8t10 18z" />
<glyph unicode="/" horiz-adv-x="558" d="M550 709q3 -5 5.5 -10.5t2.5 -12.5q0 -5 -2 -12t-11 -21l-432 -628q-13 -18 -27 -25t-33 -7q-26 0 -38.5 18.5t-12.5 38.5q0 16 9 30l427 625q12 18 28.5 23t27.5 5q5 0 10 -1t10 -3q-4 -13 -4 -26q0 -10 3 -16q5 7 16 13.5t21 8.5zM513 637q4 0 12.5 10.5t8.5 15.5 q0 10 -12 10q-5 0 -13 -10.5t-8 -15.5q0 -10 12 -10z" />
<glyph unicode="0" d="M403 153q0 -43 -19 -73t-48 -49.5t-62.5 -28.5t-61.5 -9q-30 0 -63 7.5t-61 25t-46.5 47t-18.5 74.5v433q0 25 12.5 52t37 49.5t61 37t84.5 14.5q12 0 22 -5l20 -19q0 -4 -4.5 -12t-4.5 -12q59 -16 98 -82q16 16 26 16q11 -8 19.5 -25t8.5 -47v-394zM277 531 q-1 15 -5 29.5t-11.5 26t-19.5 19t-30 7.5t-29.5 -8t-19 -21t-10.5 -29.5t-3 -32.5q0 -86 1.5 -154.5t3 -117.5t3 -77t1.5 -32l-15 -16q-3 -2 -3 -5q0 -17 22 -36q18 9 44.5 24.5t61.5 37.5q3 7 4.5 17t3 35.5t2 71t0.5 122.5v66.5t-1 72.5zM391 491q0 6 0.5 12t0.5 11 q0 14 -2 29t-5.5 27t-9 20t-12.5 8q-10 0 -10 -10q0 -8 3 -14.5t8.5 -16.5t12 -26t13.5 -41q0 -1 0.5 -0.5t0.5 1.5zM144 157q-1 2 -2 13.5t-2 24t-2 23t-2 10.5q-7 -3 -11 -15t-4 -38q0 -33 14 -33q11 0 11 7q0 2 -2 8zM231 707q-19 8 -30 8q-17 0 -33 -6.5t-16 -13.5h5 q2 0 5.5 0.5t8.5 0.5q15 0 28.5 -5t30.5 -5q9 0 9 10q0 8 -8 11zM203 84q0 -8 8 -8q26 0 39 13t13 19q0 10 -10 10q-6 0 -19 -12q-14 -12 -22.5 -14t-8.5 -8z" />
<glyph unicode="1" horiz-adv-x="223" d="M64 553q0 22 -8 37t-17 28.5t-17 27t-8 33.5q0 26 11.5 40t30.5 14q7 0 16 -7q11 -46 57 -101q7 0 24 18q20 -10 29 -23.5t9 -42.5v-506q0 -11 -2 -24.5t-9 -25.5t-19 -20t-32 -8q-28 0 -46.5 17.5t-18.5 50.5v492zM166 595q0 5 -3.5 14.5t-11.5 9.5q-10 0 -10 -10 q0 -5 3 -14.5t11 -9.5q11 0 11 10z" />
<glyph unicode="2" horiz-adv-x="411" d="M385 523q0 -32 -11 -58.5t-35 -55.5q-18 -21 -38.5 -36.5t-43 -29.5t-46.5 -28.5t-48 -32.5q-11 -9 -15.5 -17.5t-4.5 -32.5q0 -37 11 -62q-10 -16 -34 -26q10 -28 35.5 -41.5t82.5 -13.5q10 0 20 2t22 4t27 4t35 2q-10 -10 -15.5 -23.5t-5.5 -24.5q3 3 8.5 6t12 6 t12.5 5t9 2q8 -4 8 -13q0 -11 -5.5 -23t-19.5 -21.5t-38.5 -15.5t-63.5 -6q-26 0 -54.5 1t-54 2.5t-45 4t-26.5 5.5q-14 6 -23.5 16t-15 32.5t-8 62.5t-2.5 107q0 30 7.5 59t23 54t40 45t58.5 31q25 8 46 18t37 24t25 33t9 45q0 30 -7.5 49t-20 30t-28.5 15t-33 4 q-23 0 -44.5 -5t-33.5 -5q-22 0 -28.5 9t-6.5 26q0 13 10.5 27t30.5 25t49 18t66 7q9 -19 43 -53q63 -62 66 -66q6 0 23 18q25 -8 31.5 -38.5t6.5 -70.5zM364 574q-5 30 -17 30q-11 0 -11 -7q0 -8 3 -14.5t6.5 -11t6 -6.5l2.5 -2q10 0 10 9v2zM132 196q-2 6 -9 6 q-11 0 -11 -7q0 -5 2 -8l8 -17q2 -5 9 -5q11 0 11 7q0 1 -2 7z" />
<glyph unicode="3" horiz-adv-x="339" d="M276 631q21 -17 28 -41t7 -54q0 -38 -8.5 -77.5t-42.5 -84.5q11 -9 21.5 -25.5t18 -37.5t12 -44.5t4.5 -46.5q0 -57 -20.5 -100t-53 -71t-74 -42t-83.5 -14q-29 0 -49 12t-20 38q0 25 18 37t42 19.5t49.5 15.5t40.5 25q11 12 16 28t5 45q0 32 -22 60q-12 14 -28 22.5 t-30.5 16t-24.5 17t-10 25.5t11.5 27t25.5 18q37 17 54 52.5t17 75.5q0 26 -8 48.5t-26 36.5q-25 20 -50 29.5t-44.5 15.5t-31.5 13t-12 23q0 22 23 31t54 9q27 0 47 -4t37 -16q-6 -6 -8 -13.5t-2 -11.5q62 -26 92 -74q4 5 12 11t13 6zM287 288q-5 42 -15 42t-10 -9v-2 q0 -2 0.5 -8.5t2 -14t4.5 -13.5t8 -6q10 0 10 9v2zM285 573q-1 6 -4.5 18t-12.5 12q-11 0 -11 -10q0 -8 6 -18.5t11 -10.5q11 0 11 9z" />
<glyph unicode="4" horiz-adv-x="461" d="M385 476q6 -13 17 -24.5t22 -24t19 -25.5t8 -29q0 -21 -8.5 -33.5t-18.5 -30t-18.5 -47.5t-8.5 -85v-108q0 -39 -16.5 -57.5t-38.5 -18.5q-33 0 -49.5 25t-16.5 65q0 16 0.5 36.5t0.5 52.5q0 11 -0.5 25t-2.5 27.5t-5.5 25.5t-9.5 20q-5 7 -14 14t-23.5 15.5t-35 18 t-49.5 22.5q-36 16 -59.5 30.5t-37 38.5t-18.5 63t-5 105q0 49 3 80t9 47.5t14 22.5t19 6q16 0 23.5 -7t7.5 -18q0 -27 6 -43q2 11 7.5 17.5t16.5 7.5q12 -9 20 -9v-21q0 -20 2 -46t4 -50t4 -42t2 -22q0 -43 -20 -75q22 -21 37 -21q11 11 28.5 17.5t38.5 17.5q19 10 28 23 t14.5 24.5t12 19.5t21.5 8t39 -11q0 -3 -4 -18t-4 -25q11 -13 22.5 -27t21.5 -14q0 1 -1 8t-1.5 16t-1.5 18t-1 15zM435 386q0 -1 -2.5 3.5t-6 10t-8 10.5t-7.5 5q-11 0 -11 -10q0 -5 3.5 -11t8 -10.5t9 -7.5t5.5 -3q10 0 10 7q0 4 -1 6zM128 630q-5 27 -14 27q-11 0 -11 -9 q0 -15 5.5 -22.5t9.5 -7.5q10 0 10 8v4zM222 386q10 0 10 11q0 10 -10 10h-14q-10 0 -10 -10q0 -11 10 -11h14z" />
<glyph unicode="5" horiz-adv-x="432" d="M378 371q17 -17 26 -53t9 -98q0 -39 -12.5 -79.5t-39.5 -73t-68 -53.5t-98 -21q-27 0 -51 1.5t-42.5 7.5t-29 17.5t-10.5 31.5q0 21 12.5 30.5t32.5 14.5q12 3 26 3.5t28 0.5t27 1.5t24 6.5q30 15 47 43t17 53q0 16 -3.5 36t-18.5 40q-8 10 -29 19.5t-53 23.5 q-39 17 -67 33t-46 33t-27 36t-10 43q-1 12 -1.5 31.5t-1 40t-0.5 37.5v25q0 46 8.5 70.5t31.5 38.5q10 6 23.5 10.5t39.5 7t69 3.5t113 1q14 0 29.5 -3.5t22.5 -8.5q-9 -5 -22 -12.5t-13 -17.5q2 0 11 1t19 2.5t19 2.5t11 1v-30q-27 -36 -91 -36h-63q-44 0 -61 -20.5 t-17 -68.5q0 -4 0.5 -13.5t1.5 -20t1.5 -19.5t0.5 -12q0 -36 -23 -44l40 -38l7 4.5t21.5 9.5t37 9.5t52.5 4.5q10 0 23 -7t20 -14q-4 -6 -6 -18t-2 -16l23 -23q7 0 32 25zM384 296q-4 34 -17 34q-12 0 -12 -9q0 -18 9.5 -27t8.5 -9q11 0 11 9v2zM282 692q9 1 9 11t-9 10 q-24 0 -30.5 -2.5t-6.5 -10.5q0 -10 10 -10q3 0 9.5 0.5t17.5 1.5z" />
<glyph unicode="6" horiz-adv-x="426" d="M372 318q38 -38 38 -96q0 -37 -10 -77.5t-32.5 -74t-59 -55.5t-88.5 -22q-36 0 -71 10t-63 33.5t-45.5 62.5t-17.5 97v345q0 38 14 73t41 61.5t67 42t93 15.5q5 0 23.5 -2.5t32.5 -11.5q-14 -1 -24 -4.5t-20 -10.5q8 -4 22 -4q13 0 26 2.5t26 3.5q-3 -38 -38 -53 q-30 -13 -54 -22.5t-40.5 -21.5t-25 -29.5t-8.5 -46.5t4 -45.5t4 -18.5q0 -12 -34 -31q14 -36 49 -47q25 -8 47 -14t42.5 -15.5t40 -23.5t39.5 -37q5 0 22 17zM277 215q0 15 -2 31t-9 29.5t-19 22.5t-31 9q-17 0 -28 -6t-18 -15t-9.5 -20t-2.5 -21q0 -23 0.5 -33.5 t0.5 -24.5q0 -38 -19 -67l30 -30q15 19 35 27t52 16q20 40 20 82zM139 155q-4 23 -4 35t-10 12t-10 -11q0 -4 1 -11.5t3 -14.5t4.5 -12.5t5.5 -5.5q10 0 10 8zM395 255q-1 11 -8 25.5t-16 14.5q-10 0 -10 -10q0 -4 3 -11t7 -13.5t8 -11.5t6 -5q10 0 10 9v2zM221 76q6 0 17 3 t11 12q0 11 -7 11t-11 -2.5t-8 -2.5q-3 0 -7 2.5t-11 2.5t-7 -11q0 -8 7.5 -11.5t15.5 -3.5zM228 693q10 0 10 11q0 10 -10 10h-15q-10 0 -10 -10q0 -11 10 -11h15zM209 414q6 0 14 -2t15.5 -4.5t12.5 -6t5 -6.5q0 -5 -5 -5q-6 0 -14.5 2t-16.5 4.5t-14 5.5t-6 6q0 6 9 6z " />
<glyph unicode="7" horiz-adv-x="370" d="M355 681q-3 -23 -10.5 -52t-15.5 -55q-47 -164 -92.5 -298.5t-87.5 -242.5q-16 -40 -57 -40q-34 0 -50 17.5t-16 45.5q0 19 7 39l121 372q4 14 7.5 26t6 24t3.5 25.5t1 31.5t-24 27.5t-53 18t-53 20.5t-24 37q0 20 10.5 31.5t29 17t43.5 6.5t54 1q16 0 39.5 -0.5 t48.5 -1.5t50 -3t44 -4q-21 -7 -37.5 -16t-16.5 -16q0 -6 3 -10q5 2 14.5 3.5t20.5 1.5q10 0 19 -1t15 -5zM335 663q0 10 -11 10q-6 0 -12 -12t-6 -33q0 -9 11 -9q4 0 7.5 5t6 12.5t3.5 14.5t1 12zM255 696q10 0 10 11q-2 8 -14 10t-21 2h-6q-10 0 -10 -10t15 -11.5t26 -1.5 z" />
<glyph unicode="8" horiz-adv-x="429" d="M370 628q16 -14 27 -38t11 -76q0 -28 -4 -49.5t-9.5 -38.5t-9.5 -30.5t-4 -25.5q0 -9 4.5 -19.5t10 -27t10 -40.5t4.5 -59q0 -52 -15 -94.5t-41 -73t-60.5 -47t-74.5 -16.5q-50 0 -87 16t-61 43.5t-35.5 64t-11.5 76.5q0 42 4.5 71t10.5 49.5t10.5 33t4.5 20.5 q0 11 -4.5 25.5t-9.5 35t-9.5 47.5t-4.5 62q0 41 11 77t35 62.5t61 41.5t88 15q14 0 26 -5.5t23 -14.5q-5 -5 -10 -14.5t-5 -13.5q29 -19 51.5 -37.5t39.5 -36.5q5 0 24 17zM261 457q13 32 13 70q0 13 -1.5 28t-7 27.5t-16 20.5t-29.5 8q-22 0 -35 -9t-19.5 -24t-8.5 -34.5 t-2 -40.5q0 -29 3 -51q-4 -4 -11.5 -5.5t-15.5 -1.5q0 -28 17.5 -38t39.5 -10q0 11 9.5 19.5t21.5 15.5t24 13t18 12zM263 136q5 23 9.5 41t4.5 30q0 47 -10.5 71.5t-38.5 24.5q-38 0 -53.5 -21.5t-15.5 -60.5v-8.5t1 -11.5v-22q0 -23 -7.5 -38.5t-7.5 -21.5q0 -15 22 -36 q12 8 36 21t60 32zM379 592q-2 6 -9 6q-11 0 -11 -7q0 -2 2 -6l11 -38q4 -7 11 -7q11 0 11 8q0 4 -1 6zM253 93q0 9 -10 11q-1 0 -7.5 -1t-14 -3t-14 -5t-6.5 -7q0 -10 11 -10q21 0 31 3t10 12zM246 400q7 1 7 9q0 9 -6 11q-1 0 -8.5 -1t-15.5 -2.5t-15 -4.5t-7 -8 q0 -10 11 -10q20 0 34 6zM145 173q0 10 -11 10q-10 0 -10 -10v-26q0 -10 10 -10q11 0 11 10v26zM145 494q0 10 -11 10q-10 0 -10 -10v-26q0 -10 10 -10q11 0 11 10v26zM213 710q-18 0 -18 -11q0 -12 8 -12q3 0 6 1t7 1q3 0 7 -0.5t9 -0.5q9 0 9 11t-28 11z" />
<glyph unicode="9" horiz-adv-x="426" d="M397 205q-2 -44 -15.5 -83t-41 -67.5t-70.5 -45t-104 -16.5q-44 0 -59 11.5t-15 34.5q0 18 13 27t33 15t43 12.5t43 18t33 32t13 55.5q0 24 -3.5 39t-14 27t-29 22.5t-48.5 24.5q-45 21 -75 39t-48.5 40t-26 52.5t-7.5 75.5q0 111 55 162.5t146 51.5q25 0 37 -6.5 t17 -12.5q0 -3 -3.5 -6.5t-8 -7.5t-8 -7t-3.5 -5q53 -31 89 -82q4 13 13.5 19t14.5 6q11 -12 18 -33t10.5 -47.5t4.5 -56.5t1 -59q0 -62 -0.5 -115t-3.5 -115zM269 511q0 33 -3 54.5t-9 34t-16 17.5t-24 5q-18 0 -30.5 -10t-20.5 -26t-12 -36t-4 -40v-32q0 -43 -17 -63 q22 -20 31 -20q2 3 11 10t21 14t26 12.5t28 6.5q19 32 19 73zM138 446q-1 3 -1.5 10t-2 14.5t-4 13t-7.5 5.5q-10 0 -10 -10q0 -17 3 -32.5t13 -15.5q11 0 11 7q0 2 -2 8zM236 400q2 4 2 6q0 11 -10 11q0 -1 -6.5 -3.5t-14 -5.5t-14 -7t-6.5 -7q0 -10 10 -10q24 0 39 16z M379 561q0 2 -1.5 8.5t-4 13t-6.5 12t-10 5.5q-10 0 -10 -10q0 -4 2.5 -10.5t6 -13t7.5 -11t6 -4.5q10 0 10 10zM231 714q-3 0 -6 0.5t-7 0.5q-8 0 -17.5 -2.5t-9.5 -8.5q0 -11 10 -11q5 0 9 0.5t7 0.5q5 0 8 -0.5t6 -0.5q9 0 9 11q0 8 -9 10z" />
<glyph unicode=":" horiz-adv-x="189" d="M161 153q0 -30 -19.5 -45t-43.5 -15q-32 0 -48 18.5t-16 46.5q0 26 15 43t43 19q0 -13 4 -25t12 -29q5 9 15.5 17.5t19.5 11.5q8 -9 13 -18.5t5 -23.5zM139 144q0 23 -16 23q-10 0 -10 -10q0 -3 3.5 -6t3.5 -8q0 -2 -0.5 -4t-0.5 -5q0 -8 10 -8t10 18zM161 453 q0 -30 -19.5 -45t-43.5 -15q-32 0 -48 18.5t-16 46.5q0 26 15 43t43 19q0 -13 4 -25t12 -29q5 9 15.5 17.5t19.5 11.5q8 -9 13 -18.5t5 -23.5zM139 444q0 23 -16 23q-10 0 -10 -10q0 -3 3.5 -6t3.5 -8q0 -2 -0.5 -4t-0.5 -5q0 -8 10 -8t10 18z" />
<glyph unicode=";" horiz-adv-x="179" d="M136 135q11 -6 15.5 -19.5t4.5 -22.5q0 -30 -8.5 -55t-20.5 -42.5t-26 -27.5t-24 -10q-12 0 -16.5 5.5t-4.5 14.5q0 8 3 15t3 15q0 10 -7 18q-15 19 -20.5 34.5t-5.5 35.5t13 41.5t44 23.5q0 -2 -0.5 -4.5t-0.5 -4.5q0 -23 17 -46q3 11 13.5 20t20.5 9zM126 55 q10 0 11.5 13.5t1.5 21.5q0 10 -10 10q-8 0 -11 -10.5t-3 -27.5q0 -7 11 -7zM161 453q0 -30 -19.5 -45t-43.5 -15q-32 0 -48 18.5t-16 46.5q0 26 15 43t43 19q0 -13 4 -25t12 -29q5 9 15.5 17.5t19.5 11.5q8 -9 13 -18.5t5 -23.5zM139 444q0 23 -16 23q-10 0 -10 -10 q0 -3 3.5 -6t3.5 -8q0 -2 -0.5 -4t-0.5 -5q0 -8 10 -8t10 18z" />
<glyph unicode="&#x3c;" horiz-adv-x="311" d="M40 339q-15 11 -21 24t-6 31q0 29 27 47l176 124q11 8 17 9.5t11 1.5q10 0 19 -7q-2 -8 -7.5 -17t-10.5 -14q4 -3 13 -3q11 0 22 4q2 -5 3 -8.5t1 -8.5q0 -9 -4.5 -23t-19.5 -24l-123 -85l123 -81q13 -8 17 -18q-1 -7 -9.5 -17.5t-20.5 -14.5q10 -2 15 -2q13 0 22 5 q0 -24 -12.5 -38t-29.5 -14q-13 0 -26 9zM203 538q0 -10 8 -10q5 0 13.5 6.5t8.5 11.5q0 10 -8 10q-4 0 -13 -7.5t-9 -10.5zM115 368q0 -2 18 -14.5t40.5 -27.5t41.5 -27t21 -12q8 0 8 10q0 4 -18 17t-40 27.5t-41.5 25.5t-21.5 11q-8 0 -8 -10z" />
<glyph unicode="=" horiz-adv-x="383" d="M361 520q1 -5 1 -9v-8q0 -20 -15.5 -32.5t-44.5 -12.5h-227q-53 0 -53 55q0 23 14.5 37.5t37.5 14.5h227q28 0 36 -8q-12 -7 -22.5 -17t-13.5 -19q5 1 10.5 1h11.5h17.5t20.5 -2zM276 524q10 0 10 10q0 9 -19.5 12t-43.5 3q-10 0 -10 -10q0 -5 8.5 -8t19 -4.5t21 -2 t14.5 -0.5zM361 280q1 -5 1 -9v-8q0 -20 -15.5 -32.5t-44.5 -12.5h-227q-53 0 -53 55q0 23 14.5 37.5t37.5 14.5h227q28 0 36 -8q-12 -7 -22.5 -17t-13.5 -19q5 1 10.5 1h11.5h17.5t20.5 -2zM276 284q10 0 10 10q0 9 -19.5 12t-43.5 3q-10 0 -10 -10q0 -5 8.5 -8t19 -4.5 t21 -2t14.5 -0.5z" />
<glyph unicode="&#x3e;" horiz-adv-x="300" d="M83 222q-14 -9 -26 -9q-17 0 -29.5 14t-12.5 38q0 17 9 30t15 17l125 84l-118 82q-15 10 -23 24t-8 23q0 8 2.5 17.5t8.5 17.5t15 13.5t21 5.5q5 0 11 -1.5t17 -9.5l171 -121q14 -10 20 -21.5t7 -25.5q0 -18 -6 -31t-21 -24zM79 542q0 -1 12 -10.5t30.5 -23t40 -28.5 t40.5 -28.5t32 -22t14 -8.5q8 0 8 10q0 3 -12 13t-30.5 23.5t-40 28.5t-40 27.5t-32 20.5t-14.5 8q-8 0 -8 -10z" />
<glyph unicode="?" horiz-adv-x="395" d="M340 628q19 -8 29.5 -37t10.5 -70q0 -24 -5.5 -49t-17.5 -44q-20 -32 -39.5 -47.5t-41.5 -26.5t-49 -24t-62 -41q-12 -10 -18 -23t-12.5 -25t-15.5 -20.5t-27 -8.5q-17 0 -28 6.5t-17 16.5t-8 22.5t-2 23.5q0 16 7.5 33t25 34.5t46 33.5t71.5 29q40 12 52.5 41t12.5 61 q0 27 -9 52.5t-32 43.5q-11 8 -21 13.5t-24.5 8.5t-36 4.5t-53.5 1.5q-31 0 -43.5 12t-12.5 29q0 27 19.5 41t79.5 14q68 0 93.5 -15t20.5 -30l84 -77q6 0 23 17zM356 528q1 4 1 12q0 4 -1 13t-4 18.5t-7 16.5t-10 7q-10 0 -10 -10q0 -2 6 -14t6 -26q0 -4 -1 -7.5t-1 -7.5 q0 -10 10 -10q8 0 11 8zM213 688q-26 13 -42 13q-9 0 -9 -11q0 -5 6.5 -8t14.5 -5.5t16 -4.5t10 -4q10 0 10 11q0 4 -6 9zM152 53q0 -30 -19.5 -45t-43.5 -15q-32 0 -48 18.5t-16 46.5q0 26 15 43t43 19q0 -13 4 -25t12 -29q5 9 15.5 17.5t19.5 11.5q8 -9 13 -18.5t5 -23.5z M130 44q0 23 -16 23q-10 0 -10 -10q0 -3 3.5 -6t3.5 -8q0 -2 -0.5 -4t-0.5 -5q0 -8 10 -8t10 18z" />
<glyph unicode="@" horiz-adv-x="522" d="M473 456q6 -7 10 -14.5t6.5 -25t4 -50t1.5 -89.5q0 -89 -41.5 -142.5t-119.5 -53.5q-54 0 -88.5 7t-54.5 26t-28 53t-8 88q0 12 3 24.5t9 23t16 17.5t24 7q11 0 19.5 -2.5t18.5 -9.5q-20 -27 -29.5 -47t-9.5 -40q0 -29 13.5 -45.5t38.5 -16.5q32 0 46.5 16t14.5 44 q0 67 -34 86q10 14 27 14q12 0 24.5 -6.5t22.5 -16.5t16.5 -21t6.5 -21h1q10 0 15.5 17t5.5 42q0 22 -5.5 46.5t-17.5 45t-32.5 34t-50.5 13.5q-56 0 -90.5 -5.5t-53.5 -18.5t-25 -33.5t-6 -50.5v-360q0 -18 8 -33.5t17 -16.5q2 4 5.5 9.5t8.5 13.5h241q-1 -2 -2 -6t-1 -18 v-13t2 -10q6 14 14 19t18 5q8 0 9.5 -4.5t1.5 -9.5q0 -22 -11.5 -35t-35 -19.5t-58.5 -8.5t-81 -2q-66 0 -111.5 7t-73.5 24t-40.5 47t-12.5 77v332q0 61 13.5 100t43.5 61.5t77.5 31t116.5 8.5q53 0 90 -8.5t42 -8.5q0 -5 -13 -17q18 -17 36 -37.5t25 -45.5q5 12 11.5 17.5 t9.5 5.5zM202 -75q8 0 8 9q0 4 -0.5 6t-4 3t-11.5 3t-23 8h-3q-7 0 -7 -10q0 -9 6 -10q28 -9 35 -9zM110 25q0 9 -8 9q-7 0 -8 -9v-24q0 -9 8 -9t8 9v24zM478 377q-1 5 -1.5 12.5t-1.5 14t-3 11.5t-6 5q-7 0 -7 -8q0 -3 0.5 -11t1.5 -15.5t3 -13.5t5 -6q9 0 9 9v2zM219 293 q2 6 2 7q0 9 -8 9q-3 0 -7 -4.5t-7.5 -10.5t-5.5 -12t-2 -10q0 -8 9 -8q8 0 10.5 11t8.5 18zM378 208q0 26 -9 37q-5 0 -17 -10q10 -29 22 -29q2 0 4 2zM381 -68q7 1 7 10t-7 9l-21 -2q-7 -2 -7 -9q0 -9 7 -9h2z" />
<glyph unicode="A" horiz-adv-x="437" d="M409 60q0 -30 -13 -48.5t-51 -18.5q-21 0 -33.5 10t-19 26t-8.5 36.5t-2 41.5v67q0 54 -14 87.5t-55 33.5q-22 0 -34.5 -12t-18.5 -30.5t-7.5 -41t-1.5 -43.5q0 -5 0.5 -12t0.5 -15v-32q0 -20 -2.5 -40.5t-9.5 -37.5t-19.5 -27.5t-33.5 -10.5q-22 0 -40 16t-18 47v506 q0 48 19.5 80.5t49.5 52.5t66 29t69 9q23 0 27.5 -12.5t4.5 -26.5v-5q29 -11 50.5 -30t38.5 -44q17 17 26 17q13 -5 21 -15.5t8 -21.5v-535zM264 447q16 33 16 79q0 23 -2.5 41t-10.5 31t-24 19.5t-43 6.5q-15 -5 -23.5 -15.5t-12.5 -25t-4.5 -32.5t-0.5 -39q0 -27 5 -52 l-7.5 -5t-10 -7t-10 -7.5t-5.5 -5.5q1 -8 8.5 -16t17.5 -15t21 -11.5t19 -4.5q0 26 8 34zM143 509q0 8 -10 8q-5 0 -8.5 -5t-3.5 -16v-31q0 -8 10 -8t11 6.5t1 11.5v34zM257 395q7 3 7 10q0 12 -9 12q-5 0 -12.5 -2t-14 -4.5t-11 -6t-4.5 -6.5q0 -10 10 -10q13 0 34 7z M388 573q0 1 -1 6t-3 11t-5 10.5t-8 4.5q-11 0 -11 -8q0 -4 1 -6l7 -18q0 -11 10 -11t10 11zM239 697q10 0 10 10t-10 10h-24q-10 0 -10 -10t10 -10h24z" />
<glyph unicode="B" horiz-adv-x="436" d="M377 632q17 -11 26.5 -32.5t9.5 -57.5q0 -63 -10 -107t-29 -79q19 -35 29 -73t10 -92q0 -45 -18.5 -82t-51 -62.5t-77 -39.5t-96.5 -14q-38 0 -72.5 4.5t-54.5 27.5q-12 14 -15 32.5t-3 38.5v531q0 9 0.5 20.5t2.5 24t7.5 24t15.5 19.5q7 6 18.5 9.5t32.5 5.5t54.5 2.5 t86.5 0.5q8 -3 15 -7t12 -12q0 -5 -4.5 -13t-4.5 -12q29 -19 51.5 -37.5t39.5 -36.5q4 0 13 8.5t12 8.5zM277 239q0 32 -5.5 51.5t-35.5 19.5h-39q-12 0 -24.5 -21t-12.5 -70q0 -14 1.5 -31t1.5 -30q0 -17 -3.5 -26t-23.5 -9q19 -41 38 -49q8 8 28 25.5t59 26.5 q8 29 12 57.5t4 55.5zM214 615q-16 0 -25.5 -6.5t-15 -17.5t-7.5 -24.5t-2 -27.5l-3 -85q-5 -11 -12.5 -14t-12.5 -3q4 -24 15 -35.5t21 -13.5q5 0 12.5 6.5t15.5 14.5q9 10 18 22q62 15 62 81q0 54 -12.5 78.5t-37.5 24.5h-16zM243 714q-23 9 -50 9q-11 0 -11 -10 q0 -5 7 -8.5t16.5 -5.5t20 -3.5t16.5 -1.5q7 0 7 11q0 6 -6 9zM378 546q8 0 10 9q0 1 -1 9.5t-3.5 18.5t-6 18t-8.5 8q-11 0 -11 -8q0 -3 1 -5q4 -17 5.5 -27t2.5 -15t2 -6.5t3 -1.5h6zM153 143q-2 5 -2.5 13.5t-1 16.5t-3 14.5t-8.5 6.5q-10 0 -10 -11q2 -7 2 -15.5 t0.5 -16t3 -13t8.5 -5.5q11 0 11 10zM254 88q2 4 2 6q0 9 -9 11q0 -1 -6.5 -3.5t-14.5 -6.5t-14.5 -9t-6.5 -9q0 -10 10 -10q11 0 22 7t17 14zM247 403q5 2 5 8q0 8 -10 10q0 -1 -5.5 -2.5t-11.5 -4.5t-11.5 -6.5t-5.5 -8.5q0 -11 8 -11q11 0 31 15zM150 466q-2 22 -3 27 t-9 5q-7 0 -8.5 -3.5t-1.5 -11.5q0 -7 2 -17.5t10 -10.5q10 0 10 8v3z" />
<glyph unicode="C" horiz-adv-x="392" d="M382 656q-10 -17 -35.5 -22t-53.5 -5q-27 0 -44.5 -2t-30.5 -4q-21 -4 -39 -23.5t-18 -51.5v-334q0 -55 8 -63q-8 -13 -13 -21.5t-7.5 -14t-3.5 -8.5t-1 -6q30 -27 66.5 -38t63.5 -11q13 0 20.5 5.5t13 12.5t10.5 12.5t14 5.5q11 0 18.5 -8t7.5 -21q0 -29 -37.5 -47.5 t-94.5 -18.5q-47 0 -84 15.5t-62.5 42t-39.5 61.5t-14 74v353q0 43 17 79t48.5 61.5t77 39.5t101.5 14q25 0 49 -3q3 -4 5 -18.5t11 -24.5q8 0 18.5 4t28.5 12v-47zM212 91q7 -2 19.5 -3.5l25 -3t22 -4t9.5 -6.5q0 -7 -8 -7q-6 0 -18.5 1t-25 3t-22 5.5t-9.5 8.5q0 6 7 6z M295 697q11 0 11 10t-11 10h-30q-11 0 -11 -10t11 -10h30zM154 149q-4 12 -4 20.5t-11 8.5q-10 0 -10 -11q0 -32 15 -32q11 0 11 8q0 4 -1 6z" />
<glyph unicode="D" horiz-adv-x="434" d="M406 158q0 -40 -17.5 -70.5t-50.5 -51.5t-79 -32t-103 -11q-23 0 -46 4t-41.5 14.5t-30 28t-11.5 45.5v584q0 64 114 64q83 0 121 -18q0 -4 -16 -19q32 -19 61 -44t45 -46q17 17 26 17q11 -9 19.5 -26.5t8.5 -57.5v-381zM222 613q-42 0 -55 -22.5t-13 -57.5v-352 q2 -18 5 -27.5t3 -10.5q-25 -25 -25 -36q26 -26 45 -26q1 0 3.5 4.5t6.5 10.5t10 12t13 9q17 8 29 13t20 11.5t12 16t5 25.5v347q0 16 -3 31t-9.5 26.5t-18 18.5t-28.5 7zM394 547q0 4 -1.5 12.5t-4.5 16.5t-7 14t-9 6q-10 0 -10 -11q0 -3 2.5 -11t6 -16t7 -14t6.5 -6 q10 0 10 9zM332 674q4 -3 4 -8q0 -10 -10 -10q-5 0 -10.5 4t-10.5 9.5t-8 10l-3 4.5q0 11 10 11q2 0 28 -21zM225 716q-18 3 -22 3q-11 0 -11 -11q0 -7 5.5 -9.5t27.5 -2.5q10 0 10 10q0 9 -10 10zM142 164q0 10 -10 10t-10 -10v-22q0 -10 10 -10t10 10v22zM235 93 q0 10 -11 10q-25 0 -25 -15q0 -10 10 -10q26 0 26 15z" />
<glyph unicode="E" horiz-adv-x="397" d="M390 682q-4 -15 -10 -24.5t-16 -15.5t-25.5 -8.5t-38.5 -2.5h-33q-34 0 -55.5 -5.5t-34 -17.5t-17.5 -30.5t-5 -43.5q0 -10 3 -26.5t3 -22.5q0 -25 -24 -41q1 -9 8 -19.5t17 -19.5t20.5 -15.5t18.5 -6.5q24 0 29 5q0 5 -8 14t-8 12q3 1 5.5 1.5t6.5 0.5q16 0 39 -12 q-7 -3 -13 -7.5t-6 -15.5q54 0 63 27q14 -14 14 -39q-9 -19 -36.5 -30t-57 -25t-52.5 -36.5t-23 -65.5q0 -25 9 -52q0 -14 -34 -45q14 -41 67 -45q9 6 9 23q23 5 46.5 8t48.5 3q20 0 25.5 -8t5.5 -36h59q0 -23 -10.5 -36.5t-34 -20t-61.5 -8.5t-92 -2q-164 0 -164 73v577 q0 37 23.5 56t63 26.5t90.5 7.5h106q14 0 21 -13q-7 -2 -12 -7t-5 -13q0 -11 11 -11q22 0 40 2t24 6v-15zM144 510q0 10 -10 10q-11 0 -11 -10v-39q0 -10 11 -10q10 0 10 10v39zM136 181q0 9 -10 9q-9 0 -11 -9.5t-2 -24.5q0 -19 10 -19q6 0 9.5 5.5t3.5 11.5v27zM369 674 q0 10 -10 10q-3 0 -7.5 -4t-8.5 -9t-7 -9.5t-3 -5.5q0 -10 10 -10q12 0 19 12.5t7 15.5zM251 68q10 0 10 11q0 10 -10 10h-24q-10 0 -10 -10q0 -11 10 -11h24zM265 721q-10 0 -10 -10q0 -9 10 -10l25 -2q9 0 9 10q0 8 -9 10z" />
<glyph unicode="F" horiz-adv-x="388" d="M386 668q-29 -35 -90 -35h-33q-33 0 -54.5 -6t-34.5 -18.5t-18 -33.5t-5 -51q0 -12 2.5 -28.5t2.5 -23.5q0 -22 -23 -39q0 -9 7 -19t16.5 -19.5t20.5 -16t20 -7.5q24 0 29 6q0 4 -8 12.5t-8 13.5q3 1 10 1q17 0 39 -11q-5 -5 -11.5 -9t-6.5 -14q55 0 64 26q14 -14 14 -39 q-2 -16 -14.5 -25t-30.5 -14.5t-38 -10.5t-38 -14q-14 -7 -23.5 -15t-15.5 -21.5t-8.5 -35.5t-2.5 -56v-43q0 -71 -14.5 -100t-52.5 -29q-27 0 -42 16t-15 47v613q0 6 1.5 13.5t5 15.5t10.5 14.5t19 9.5q29 8 95.5 9.5t151.5 1.5q7 -2 20 -12l-16 -17q0 -13 11 -13q7 0 17 1 t19.5 2.5t17.5 3t10 1.5v-31zM369 671q1 2 1 5q0 8 -12 8q-4 0 -11 -8.5t-7 -12.5q0 -11 11 -11t18 19zM295 709q0 11 -10 11l-7 -1t-15.5 -3t-15 -5.5t-6.5 -8.5q0 -10 10 -10q22 0 33 7t11 10zM142 485q0 10 -10 10t-10 -10v-23q0 -10 10 -10t10 10v23z" />
<glyph unicode="G" horiz-adv-x="427" d="M403 362q-2 -10 -2 -20.5v-23.5q0 -27 0.5 -51.5t1.5 -45t1.5 -34.5t0.5 -18q0 -42 -2 -72.5t-19 -54.5q-17 -25 -49.5 -37t-70.5 -12q-113 0 -177 46t-64 126v384q0 82 63 133t182 51q20 0 32.5 -3t26.5 -14l-17 -17q0 -12 15 -12q3 0 11.5 1t17.5 2l18 2t14 1 q-1 -16 -4.5 -27t-14.5 -18t-31.5 -11.5t-54.5 -7.5q-23 -2 -46 -10.5t-41 -24t-29 -38.5t-11 -56v-369q-12 -5 -12 -24q22 -22 36 -22q5 5 13.5 14t25.5 14q19 6 31 13.5t18.5 18.5t8.5 27t2 39q0 28 -5.5 46t-12 30.5t-12 23t-5.5 25.5q0 32 22.5 55t74.5 23q3 0 5 -9 t3 -21t2 -23.5t2 -15.5q5 0 31 27q13 -10 21 -10zM392 270q0 9 -0.5 22t-2 25.5t-4 21t-7.5 8.5q-11 0 -11 -11q0 -32 3 -54t12 -22q10 0 10 10zM283 697q10 0 10 10t-10 10q-4 0 -14 -0.5t-20.5 -3t-18.5 -6.5t-8 -10q0 -11 7 -11q16 0 29.5 5.5t24.5 5.5zM258 89q5 5 5 9 q0 11 -11 11q1 0 -8 -2.5t-20 -6t-20 -7.5t-9 -7q0 -10 11 -10q29 0 52 13zM142 137q-2 6 -3 14t-2 15.5t-3.5 12.5t-7.5 5q-10 0 -10 -11q0 -6 1 -15t3 -16.5t5 -13t8 -5.5q11 0 11 7q0 1 -2 7zM331 361q10 0 10 11q0 8 -9 10q-1 0 -7.5 -1.5t-14 -3.5t-14 -5.5t-6.5 -9.5 q0 -11 9 -11q17 0 25 5t7 5z" />
<glyph unicode="H" horiz-adv-x="439" d="M409 66q0 -42 -18 -57.5t-41 -15.5q-20 0 -33 11.5t-20 28.5t-9.5 37t-2.5 37q0 31 0.5 45.5t0.5 19.5q0 42 -2 67t-8.5 39t-20 18.5t-37.5 4.5q-18 0 -30.5 -6.5t-20.5 -21.5t-11.5 -40t-3.5 -63q0 -30 0.5 -44.5t0.5 -19.5q0 -26 -1.5 -47t-7.5 -35.5t-18 -22.5t-34 -8 q-18 0 -30 8t-19.5 18.5t-10.5 21t-3 15.5v612q0 29 19 47t56 18q0 -3 0.5 -6t0.5 -6q0 -16 -8 -32q3 -5 5.5 -12t7.5 -10q16 8 25 25q11 -10 19 -10q0 -69 2.5 -124.5t7.5 -98.5q-3 -4 -9 -7.5t-11.5 -7.5t-10 -8t-4.5 -8q0 -28 33 -32h22q13 24 41 39q19 10 30.5 20.5 t17.5 22.5t8 28t2 39v110q0 19 2 34t9.5 24.5t21.5 14.5t38 5q4 0 4 -8q0 -20 -8 -36q4 -5 6 -12t6 -10l24 25q7 4 13 4q10 0 10 -12v-618zM138 608q0 22 -2.5 38.5t-10.5 16.5q-10 0 -10 -10v-12t1.5 -18.5t4 -17t7.5 -7.5q10 0 10 10zM402 629q-1 3 -1 10v16q0 8 -1.5 14 t-8.5 6q-12 0 -12 -10v-14t1.5 -15t4 -12t7.5 -5q10 0 10 10zM335 696q6 1 6 9q0 10 -11 10q-8 0 -17.5 -7.5t-9.5 -22.5q0 -8 11 -8q8 0 10 7t11 12zM238 393q10 0 10 10t-10 10h-28q-11 0 -11 -10t11 -10h28zM149 480q0 11 -10 11t-10 -11v-19q0 -10 10 -10t10 10v19z M90 693q0 10 -10 10q-6 0 -14 -7t-8 -13q0 -10 11 -10q5 3 12 7.5t9 12.5z" />
<glyph unicode="I" horiz-adv-x="178" d="M152 54q0 -29 -19.5 -45t-42.5 -16q-34 0 -49 19t-15 42v603q0 40 17.5 58t57.5 18v-8q0 -22 -7 -37q3 -4 4.5 -9t6.5 -8q11 3 19 13.5t19 10.5q9 0 9 -12v-629zM138 626q7 0 8 9q0 4 -0.5 10.5t-2.5 13t-5 11.5t-9 5q-11 0 -11 -9q0 -3 1 -5q14 -35 19 -35zM81 692 q8 2 8 10q0 10 -8 10q-7 0 -15 -4l-4 -3q-9 -3 -9 -13q0 -8 8 -8q4 0 6 1l8 5z" />
<glyph unicode="J" horiz-adv-x="333" d="M308 174q0 -47 -20.5 -81.5t-50.5 -56.5t-65 -32.5t-64 -10.5q-46 0 -73 11t-27 37q0 19 7 29.5t20 16.5t32.5 10.5t44.5 11.5q40 11 55 32t15 59v479q0 25 19 39.5t55 14.5q0 -3 0.5 -6t0.5 -6q0 -16 -8 -32q4 -5 6.5 -11.5t5.5 -10.5l25 25q7 4 13 4q9 0 9 -13v-509z M301 631q0 12 -4 28.5t-15 16.5t-11 -10q0 -1 2 -8t5 -15.5t6.5 -15t6.5 -6.5q10 0 10 10zM244 699q0 10 -9 10l-20 -4q-7 -4 -7 -10q0 -12 8 -12q14 0 21 7t7 9z" />
<glyph unicode="K" horiz-adv-x="406" d="M395 80q5 -17 5 -26t-2 -20t-8 -20t-17 -15t-28 -6q-35 0 -76 56q-29 40 -48.5 66.5t-27.5 33.5q-22 -3 -32.5 -23.5t-15.5 -68.5q-3 -27 -19 -45.5t-41 -18.5q-39 0 -49.5 26t-10.5 66v551q0 47 19 72t64 25v-8q0 -22 -8 -37q7 -18 49 -81h22l5.5 16.5l8.5 25.5 q19 5 34 19t29.5 28.5t31 25.5t40.5 11q6 0 9 -7.5t4.5 -16.5t2.5 -16.5t5 -7.5t16.5 7t20.5 17q0 -22 -14 -55t-53 -89q-41 -58 -61 -96.5t-21 -64.5q4 -31 22 -70t49 -89q41 -66 65 -105t30 -60zM110 639q-6 8 -10.5 17t-10.5 9q-11 0 -11 -10l2 -5t5 -11t7 -11t10 -5 q11 0 11 10q0 3 -3 6zM356 668q0 10 -10 10q-7 0 -10 -4.5t-3 -18.5q0 -10 8 -10q5 0 10 4.5t5 13.5v5zM131 675q-10 0 -10 10q0 11 10 11h2q10 0 10 -11q0 -10 -10 -10h-2z" />
<glyph unicode="L" horiz-adv-x="334" d="M327 31q-5 -14 -14.5 -21.5t-27 -11.5t-43.5 -4.5t-64 -0.5q-155 0 -155 82v585q0 33 12 50.5t34 22.5q31 0 31 -13q-1 -6 -1 -11.5v-10.5q0 -23 5 -33l25 25q7 -5 15 -7t12 -2v-550q-17 0 -24 -15q13 -30 48 -45t91 -15q14 0 25 1.5t21 3.5q0 -4 5 -15t5 -15zM134 656 q-2 8 -10 8q-11 0 -12 -6q0 -3 1 -10t3.5 -14.5t6 -13t9.5 -5.5q10 0 10 10v3zM250 87q0 -11 -9 -11q-8 0 -21.5 5t-13.5 13q0 11 10 11q1 -2 6.5 -3.5t11.5 -3t11 -4t5 -7.5zM149 155q0 27 -13 27q-11 0 -11 -8q0 -11 3 -20t11 -9q10 0 10 10zM82 688q10 0 10 10 q0 11 -10 11q-24 0 -24 -15q0 -10 10 -10q2 0 6 2t8 2z" />
<glyph unicode="M" horiz-adv-x="686" d="M657 40q-5 -21 -18.5 -34t-34.5 -13q-27 0 -46 25.5t-19 64.5q0 70 -2.5 114t-7 68.5t-12.5 33t-18 8.5q-14 0 -23 -19t-17.5 -52.5t-19 -79t-26.5 -98.5q-9 -29 -22 -47t-40 -18q-29 0 -44.5 11t-25.5 34q-20 48 -31.5 96t-19.5 86.5t-17 62.5t-24 24q-12 0 -19 -7.5 t-10.5 -26t-4 -49.5t-0.5 -77q0 -9 1 -28t1 -28q0 -17 -1 -34t-7.5 -31.5t-19.5 -23.5t-37 -9q-21 0 -34 9t-20.5 22t-10 27t-2.5 24v559q0 45 24.5 72t80.5 27q14 0 21.5 -4t7.5 -17q0 -11 -7 -24q8 -5 16 -12t14 -19q14 0 33 17q31 -39 53 -130l34 -182q-16 0 -24 -8 q0 -4 2.5 -12.5t7 -16.5t10.5 -14.5t13 -6.5q13 0 25 12t21.5 29t16.5 34t11 28q8 35 15.5 74t15.5 77.5t18.5 74.5t24.5 65q9 18 32 26.5t56 8.5q22 0 43 -8q-4 -19 -4 -34q0 -12 3 -16h2q6 0 13 -7q7 0 32 25q12 -9 20 -9q1 -15 2.5 -52.5t2 -86.5t1 -104.5t0.5 -106.5 v-93.5v-65.5q0 -60 -1 -90t-4 -45zM569 715q-7 1 -13.5 1.5t-11.5 0.5q-12 0 -21.5 -3.5t-9.5 -11.5q0 -10 10 -10q3 0 8 2t13 2q5 0 11.5 -1t13.5 -1q10 0 10 11q0 9 -10 10zM651 618q0 17 -4.5 33.5t-15.5 16.5q-10 0 -10 -10q0 -1 2 -7q2 -3 3 -10t3 -14.5t4.5 -13 t7.5 -5.5q10 0 10 10zM283 386q-5 14 -9 29t-13 15q-11 0 -11 -8q0 -25 11 -36.5t16 -11.5q7 0 7 6q0 3 -1 6zM129 697q10 0 10 10q0 11 -10 11q-32 0 -41.5 -6t-9.5 -8q0 -7 51 -7zM223 629q-4 8 -10 16.5t-11 8.5q-10 0 -10 -10q0 -9 5 -16t10.5 -11.5t10 -6.5l4.5 -2 q6 0 6 9q0 6 -3 11z" />
<glyph unicode="N" horiz-adv-x="434" d="M412 87q0 -24 -1.5 -41.5t-7.5 -29t-18.5 -17.5t-34.5 -6q-19 0 -39 15t-31 46l-59 162q-13 35 -24 47.5t-26 12.5q-11 0 -16.5 -10t-7.5 -35t-2.5 -68.5t-0.5 -110.5q0 -32 -18 -45.5t-38 -13.5q-24 0 -37 8.5t-19 21t-7 26.5t-1 24v588q0 38 23.5 55t62.5 17q6 0 6 -6 q0 -22 -8 -38q9 -13 37 -31l2.5 4t6 8.5t6.5 8.5t5 4q26 -54 26 -74l-6 2q-2 1 -5 2t-6 1t-7 -4q0 -9 12.5 -28.5t29.5 -39t33.5 -34.5t24.5 -15q0 9 -1 36t-1 57q0 14 1.5 39t10 49t25.5 41.5t49 17.5q0 -49 7 -66l24 25q13 -10 20 -10q2 -76 5 -169q2 -80 3.5 -188.5 t1.5 -237.5zM396 605q0 3 -1.5 14t-4 23t-7 21t-10.5 9q-2 0 -4.5 -3.5t-2.5 -9.5q0 -3 0.5 -13.5t3 -22t6.5 -20t10 -8.5q10 0 10 10zM341 700q0 10 -9 10q-11 0 -23 -8t-12 -21q0 -4 3 -4q1 0 7.5 1.5t14 4.5t13.5 7t6 10zM85 690q9 1 9 10q0 10 -9 10q-5 0 -11.5 -2.5 t-12.5 -6.5t-10.5 -9.5t-4.5 -10.5q0 -3 4 -3q3 0 8 2t11 4t10.5 4t5.5 2z" />
<glyph unicode="O" d="M403 153q0 -43 -19 -73t-48 -49.5t-62.5 -28.5t-61.5 -9q-30 0 -63 7.5t-61 25t-46.5 47t-18.5 74.5v433q0 25 12.5 52t37 49.5t61 37t84.5 14.5q12 0 22 -5l20 -19q0 -4 -4.5 -12t-4.5 -12q59 -16 98 -82q16 16 26 16q11 -8 19.5 -25t8.5 -47v-394zM277 531 q-1 15 -5 29.5t-11.5 26t-19.5 19t-30 7.5t-29.5 -8t-19 -21t-10.5 -29.5t-3 -32.5q0 -86 1.5 -154.5t3 -117.5t3 -77t1.5 -32l-15 -16q-3 -2 -3 -5q0 -17 22 -36q18 9 44.5 24.5t61.5 37.5q3 7 4.5 17t3 35.5t2 71t0.5 122.5v66.5t-1 72.5zM391 491q0 6 0.5 12t0.5 11 q0 14 -2 29t-5.5 27t-9 20t-12.5 8q-10 0 -10 -10q0 -8 3 -14.5t8.5 -16.5t12 -26t13.5 -41q0 -1 0.5 -0.5t0.5 1.5zM144 157q-1 2 -2 13.5t-2 24t-2 23t-2 10.5q-7 -3 -11 -15t-4 -38q0 -33 14 -33q11 0 11 7q0 2 -2 8zM231 707q-19 8 -30 8q-17 0 -33 -6.5t-16 -13.5h5 q2 0 5.5 0.5t8.5 0.5q15 0 28.5 -5t30.5 -5q9 0 9 10q0 8 -8 11zM203 84q0 -8 8 -8q26 0 39 13t13 19q0 10 -10 10q-6 0 -19 -12q-14 -12 -22.5 -14t-8.5 -8z" />
<glyph unicode="P" horiz-adv-x="413" d="M371 619q8 -6 14.5 -13.5t11 -19.5t6.5 -30t2 -46q0 -43 -9.5 -74.5t-30.5 -55t-55 -40t-83 -30.5q-32 -9 -44 -21t-21 -35q-2 -3 -3 -11t-2.5 -28.5t-4 -58t-6.5 -100.5q-2 -29 -16.5 -46t-43.5 -17q-32 0 -46.5 18.5t-14.5 42.5v606q0 38 28.5 55.5t85.5 17.5 q23 0 40 -1t30.5 -3t25.5 -5.5t25 -9.5q0 -4 -16 -20q32 -17 61.5 -41.5t44.5 -46.5q14 13 21 13zM277 512q0 42 -12.5 71t-47.5 29q-26 0 -40 -16.5t-18 -61.5q2 2 2 -83q-3 -2 -8 -5.5t-10.5 -7.5t-10 -7.5t-6.5 -5.5q3 -6 6.5 -12.5t9 -12t15 -9t26.5 -3.5q1 25 36 33 q19 4 30.5 13t17.5 21t8 26.5t2 30.5zM141 458v11t-1 15.5t-3.5 13.5t-7.5 6q-11 0 -11 -10q0 -18 1.5 -33t11.5 -15t10 10v2zM388 561q-1 12 -5.5 28.5t-13.5 16.5q-11 0 -11 -7q0 -2 1.5 -10t4.5 -16.5t6.5 -15.5t7.5 -7q10 0 10 9v2zM241 395q6 1 6 9q0 11 -7 11 q-2 0 -8 -2q-18 -8 -27 -8t-9 -10t10 -10q14 0 35 10zM222 693q10 0 10 10q0 11 -10 11h-23q-10 0 -10 -11q0 -10 10 -10h23z" />
<glyph unicode="Q" horiz-adv-x="456" d="M451 81q0 -28 -15 -45t-38 -26.5t-49.5 -13t-49.5 -3.5q-132 0 -205 33.5t-73 117.5v398q0 52 17 88.5t46.5 59.5t69 33t84.5 10l20 -19q0 -5 -5 -13t-5 -12q57 -38 92 -74q5 0 22 17q19 -19 29 -19v1q2 -51 5 -117q2 -57 3.5 -136t1.5 -176q0 -11 8 -22t17 -24t17 -27 t8 -31zM275 536q0 19 -2.5 33.5t-10.5 24.5t-22.5 15.5t-38.5 5.5q-35 0 -46 -24t-11 -62q0 -70 0.5 -115.5t1 -77t1 -54t1.5 -46.5q1 -20 2.5 -42t5.5 -41q-5 -6 -11.5 -17t-6.5 -13q0 -16 22 -35q11 8 35 21t61 31q11 13 15 27.5t4 33.5v335zM255 90q8 3 8 10q0 11 -8 11 q-3 0 -11 -1.5t-16.5 -3.5t-14.5 -5.5t-6 -7.5q0 -11 10 -11h3zM395 110q-3 3 -8 3q-10 0 -10 -10q0 -4 10 -17q11 -13 12.5 -17.5t8.5 -4.5q10 0 10 10q0 5 -23 36zM381 575q-8 36 -22 36q-10 0 -10 -10q0 -5 2.5 -11.5t5.5 -12.5t6.5 -10.5t6.5 -4.5q11 0 11 10v3z M230 711q-12 6 -34 6q-10 0 -10 -10q0 -5 6 -8t14 -4.5t15 -2.5t9 -1q7 0 7 11q0 8 -7 9zM143 157q-3 25 -3.5 30.5t-9.5 5.5q-8 0 -9.5 -5t-1.5 -13t2.5 -18.5t10.5 -10.5q11 0 11 9v2z" />
<glyph unicode="R" horiz-adv-x="438" d="M380 630q20 -20 27 -48.5t7 -60.5q0 -23 -2 -45.5t-7 -45.5q-4 -17 -14.5 -36.5t-25 -38t-31.5 -35t-32 -27.5q13 -39 32.5 -101t39.5 -137q5 -17 5 -28q0 -15 -8 -24.5t-25 -9.5q-26 0 -41.5 10t-30 28t-31.5 43.5t-46 57.5q-16 -11 -25 -34l-18 -46t-22 -41t-37 -18 q-38 0 -52.5 23.5t-14.5 60.5v548q0 49 28 78.5t92 29.5q33 0 54.5 -1.5t35.5 -4.5t21.5 -6.5t13.5 -7.5q0 -5 -2.5 -13t-6.5 -12q29 -19 51.5 -38t39.5 -37q4 5 12 11t13 6zM278 465q2 5 2 12.5v15.5q0 26 -2 49t-8 39.5t-17.5 26t-30.5 9.5q-30 0 -43 -26.5t-13 -69.5v-66 q0 -42 -28 -42q13 -15 28 -21t29 -6q2 10 12.5 20t23.5 19.5t26 19.5t21 20zM236 710q-8 5 -18 8t-20 3q-9 0 -9 -13q0 -5 6 -7.5t13.5 -4t14.5 -2.5t9 -3q10 0 10 10q0 7 -6 9zM382 556q10 0 10 9v1l-1 7t-3.5 15.5t-6 15.5t-8.5 7q-11 0 -11 -7q0 -3 1 -5q1 -3 2.5 -10 t3.5 -14.5t5 -13t8 -5.5zM258 408q0 10 -10 10q0 -1 -5.5 -3t-12.5 -5.5t-12.5 -8t-5.5 -9.5q0 -11 11 -11q9 0 15.5 4.5t11 9.5t6.5 9zM363 49q-8 32 -18 32q-12 0 -12 -9q0 -17 7.5 -26.5t11.5 -9.5q11 0 11 9v4zM148 476q0 10 -11 10q-10 0 -10 -10v-26q0 -11 10 -11 q11 0 11 11v26z" />
<glyph unicode="S" horiz-adv-x="419" d="M393 147q-10 -33 -28.5 -61t-48.5 -48.5t-73 -32.5t-101 -12q-30 0 -49 2.5t-29.5 8.5t-14.5 15t-4 21q0 17 9 29.5t24.5 20t35.5 11.5t41 5q36 1 58.5 9t35 21t16.5 30t4 36q0 41 -13 69.5t-54 43.5q-38 13 -70.5 25.5t-57 33.5t-38.5 55t-14 91q0 17 1.5 37t5.5 39.5 t10 36.5t15 28q26 33 67.5 52.5t109.5 19.5q12 0 20 -2t24 -14l-17 -16q13 -6 31 -6q11 0 18.5 2t19.5 6q-1 -14 -3.5 -25.5t-10 -21.5t-21 -16.5t-36.5 -9.5q-24 -3 -43.5 -7.5t-33 -13t-21 -21t-7.5 -32.5v-100q-1 -17 -4 -22t-7 -15q3 -1 10.5 -6t16.5 -10t17 -9.5 t11 -4.5q13 0 24 15h30q3 -3 3 -9q0 -7 -0.5 -12.5t-1.5 -6.5q17 -11 42.5 -30.5t49.5 -50.5q17 17 26 17q14 -9 23.5 -30t9.5 -55q0 -5 -0.5 -16.5t-2 -23.5t-3 -23.5t-2.5 -16.5zM384 246q-1 12 -5 23q-3 9 -7.5 16.5t-11.5 7.5q-10 0 -10 -11q0 -8 6.5 -16.5t6.5 -15.5 v-4q0 -9 10 -9q9 0 11 9zM137 476q0 10 -10 10q-11 0 -11 -10v-29q0 -10 11 -10q10 0 10 10v29zM252 709q0 10 -10 10q-18 0 -25.5 -3t-7.5 -9q0 -12 8 -12q7 0 21 3t14 11z" />
<glyph unicode="T" horiz-adv-x="362" d="M353 686q0 -15 -3.5 -25t-11 -18t-19.5 -15t-29 -15q-16 -8 -25 -15.5t-13.5 -16t-6 -18t-1.5 -21.5v-488q0 -27 -15 -44t-50 -17q-32 0 -46.5 18.5t-14.5 42.5v495q0 29 -12 45.5t-43 30.5t-42.5 28.5t-11.5 29.5q0 16 7.5 25.5t24.5 15t44.5 7.5t68.5 2q25 0 45 -0.5 t36.5 -2t31 -4t28.5 -6.5q-5 -14 -16 -20q-1 -1 -1 -2q0 -3 6 -9q3 0 12 1t19.5 2.5t21 2.5t16.5 1v-10zM334 672q-2 8 -10 8q-12 0 -12 -8q0 -2 1 -4t1 -4q0 -4 -3 -6.5t-6.5 -4.5t-6.5 -5t-3 -7q0 -5 3 -6.5t6 -1.5q17 0 24 10t7 19q0 6 -1 10zM255 713q-13 1 -21.5 1.5 t-12.5 0.5q-11 0 -11 -10t9.5 -11.5t34.5 -1.5q10 0 10 10q0 9 -9 11z" />
<glyph unicode="U" horiz-adv-x="430" d="M404 178q0 -53 -18.5 -88t-47 -57t-62 -31t-64.5 -9t-64.5 10t-61 31t-45 53.5t-17.5 77.5v506q0 29 19.5 45.5t54.5 16.5q1 -5 1 -15q0 -17 -7 -30q4 -4 6 -10.5t6 -11.5l25 26q13 -10 21 -10v-500q0 -6 7 -20.5t7 -22.5q0 -20 -30 -29q27 -33 44 -33q27 11 49 26 q19 13 34.5 31t15.5 41v494q0 32 22.5 48t48.5 16q2 0 3 -3t1 -6q0 -23 -8 -36q5 -4 7 -10.5t6 -11.5l25 25q8 5 12 5q10 0 10 -13v-505zM393 593q5 20 5 33q0 11 -4.5 25.5t-12.5 14.5q-10 0 -10 -10q0 -6 3.5 -13.5t3.5 -15.5t-3 -16.5t-3 -16.5t11 -8q9 0 10 7zM138 656 q0 10 -10 10t-10 -10v-48q0 -10 10 -10t10 10v48zM271 91q4 3 4 8q0 8 -9 10q0 -1 -7.5 -3.5t-17 -6t-17 -8t-7.5 -9.5q0 -11 7 -11q13 0 26.5 7t20.5 13zM142 148q-1 3 -0.5 8t-0.5 9t-3 7t-8 3q-10 0 -10 -10q0 -16 4 -29.5t13 -13.5t10 8q-2 -2 -5 18zM77 689q4 3 4 9 q0 10 -10 10q-4 0 -9 -4.5t-9.5 -10.5t-7.5 -12t-3 -9q0 -8 11 -8q8 0 10 9t14 16zM328 688q11 0 11 10t-11 10t-20 -6l-5 -2q-4 -3 -4 -9q0 -10 10 -10q3 0 6 1l3 2q4 4 10 4z" />
<glyph unicode="V" horiz-adv-x="366" d="M363 677q-17 -109 -42.5 -266t-63.5 -372q-7 -26 -26.5 -36t-42.5 -10q-29 0 -44 10.5t-22 30.5q-26 120 -54 281.5t-57 359.5q-1 3 -1 10q0 21 10.5 34.5t24.5 13.5q16 0 24 -4.5t8 -10.5q0 -43 13 -55q18 8 33 8q6 0 10.5 -9.5t9 -23.5t9 -31t9.5 -33q-12 -26 -34 -36 q0 -1 1.5 -8t5.5 -15.5t11.5 -15t18.5 -6.5q18 13 35 46t30 68.5t22.5 64.5t12.5 34q11 19 26 23t30 4q0 -4 -1.5 -11.5t-3 -16t-2.5 -16t-1 -11.5q2 0 9.5 1.5t21.5 1.5q6 0 10.5 -1t9.5 -3zM130 622q-3 9 -9.5 21t-14.5 12q-11 0 -11 -10q0 -1 3 -7t6.5 -12.5t8 -12 t7.5 -5.5q11 0 11 8q0 4 -1 6zM349 662q0 8 -10 8q-6 0 -10.5 -9t-4.5 -31q0 -9 11 -9q7 0 9 8t5 29v4zM314 704q0 10 -9 10q-14 0 -21.5 -5.5t-7.5 -12.5q0 -13 10 -13h-1q0 1 4.5 3t10 5t10 6.5t4.5 6.5zM69 695q0 10 -10 10q-6 0 -15.5 -8.5t-9.5 -14.5q0 -10 10 -10 q5 0 15 8.5t10 14.5z" />
<glyph unicode="W" horiz-adv-x="688" d="M657 165q0 -53 -18 -86.5t-57 -52.5t-99 -26t-144 -7q-65 0 -122.5 6t-100 24.5t-67 53t-24.5 91.5v496q0 6 1.5 17.5t6 23t13.5 20t25 8.5q30 0 30 -10v-12q0 -27 6 -43l24 26q13 -10 21 -10q4 -10 6.5 -23.5t2.5 -35.5v-475q0 -7 -8.5 -19.5t-8.5 -21.5q22 -22 36 -22 l58 39q41 27 41 50v488q0 30 16 49.5t58 19.5q0 -47 7 -65l24 26q6 -5 15.5 -7.5t13.5 -2.5v-544q-12 -10 -18.5 -15.5t-6.5 -15.5q21 -20 46 -30l61 53q37 31 37 44v488q0 18 18 54q31 16 51 16h6q0 -47 6 -66l24 26q11 -10 20 -10v-519zM338 694q9 1 9 11t-9 10 q-16 0 -31.5 -12.5t-15.5 -27.5q0 -7 11 -7q4 0 7 4t7 8.5t9 8.5t13 5zM591 700q7 1 7 9q0 11 -7 11q-17 0 -29.5 -15.5t-12.5 -29.5q0 -9 10 -9q5 0 7.5 4t5 9.5t6.5 11.5t13 9zM651 626q0 6 -0.5 14t-2 15.5t-4.5 12.5t-7 5q-11 0 -11 -10q0 -32 5 -43.5t10 -11.5 q10 0 10 10v8zM519 110q0 11 -10 11q0 -1 -6.5 -5t-15 -9.5t-15 -10.5t-6.5 -7q0 -10 8 -10q13 0 29 9.5t16 21.5zM251 94q2 6 2 7q0 11 -10 11q0 -1 -7 -4t-15 -6.5t-15 -7.5t-7 -7q0 -11 11 -11q24 0 41 18zM147 188q0 10 -10 10q-5 0 -7.5 -8t-4 -17.5t-1.5 -17.5v-8 q0 -9 11 -9q7 0 9.5 9.5t2.5 40.5zM400 176q0 11 -10 11q-11 0 -11 -11v-33q0 -10 11 -10q8 0 10 9v34zM394 634q0 43 -12 43q-11 0 -11 -10q0 -43 13 -43q10 0 10 10zM145 630q0 15 -4 28t-11 13q-10 0 -10 -10q0 -21 5 -31.5t10 -10.5q10 0 10 11zM90 700q0 11 -7 11 q-16 0 -24 -11t-8 -16q0 -10 11 -10l4 2.5t9.5 6.5t10 8.5t4.5 8.5z" />
<glyph unicode="X" horiz-adv-x="349" d="M336 43q0 -16 -10 -33t-33 -17q-40 0 -105 88q-6 11 -14 11t-17 -11q-23 -31 -37 -48.5t-24 -26.5t-18.5 -11t-21.5 -2q-16 0 -25 3.5t-13 10t-4.5 15.5t-0.5 21q0 23 7 61t23 90q18 59 28.5 93t16 53.5t7.5 30.5t2 24q0 39 -43 149q-19 48 -28.5 83.5t-9.5 53.5 q0 26 16.5 39t41.5 13q-6 -17 -6 -30q0 -17 8.5 -31.5t20.5 -25.5t23.5 -18t17.5 -8q12 15 32.5 34.5t43 37t42.5 29.5t31 12q4 0 8 -2q-14 -20 -14 -34q0 -9 4 -13q9 4 17 8q7 3 14 5.5t12 2.5q-14 -48 -35 -124.5t-47 -170.5q2 -15 9 -44t17 -65.5t21 -76t21 -75t16 -63 t6 -38.5zM313 92q-3 7 -10 7q-11 0 -11 -8q0 -4 1 -6l15 -44q3 -7 10 -7q11 0 11 8q0 4 -1 6zM128 674q0 -10 -11 -10l-4 2.5t-9 6.5t-9.5 10t-4.5 13q0 10 10 10q5 0 8 -5q20 -26 20 -27zM304 665q0 9 -10 9q-2 0 -9 -6.5t-7 -20.5q0 -8 11 -8q12 0 15 24v2z" />
<glyph unicode="Y" d="M395 682q0 -8 2 -94t2 -254q0 -53 -1 -86t-2.5 -54t-4.5 -35.5t-6 -31.5q-6 -29 -23.5 -53.5t-44.5 -42.5t-63 -28t-78 -10q-32 0 -53.5 10t-21.5 36q0 20 12.5 31t31.5 18.5t41.5 14t41.5 17.5t31.5 29.5t12.5 49.5q0 34 -6.5 55.5t-18 35t-27.5 21.5t-36 15t-42.5 15.5 t-47.5 23.5q-30 18 -46 36.5t-23 42.5t-8 56t-1 77q0 25 1.5 52.5t6 50.5t14 38t24.5 15q32 0 32 -12q-1 -6 -1 -11.5v-10.5q0 -23 5 -33l24 25q13 -9 21 -9q0 -6 1 -27t2.5 -46t3 -49t1.5 -35q0 -67 -15 -98q21 -23 36 -23q4 11 15.5 16.5t25 9.5t25 9t14.5 15q18 20 23 55 t5 72q0 16 -0.5 34t-0.5 52q0 11 1.5 22.5t7.5 21t19.5 16t37.5 6.5q0 -48 6 -67l24 25q12 -9 20 -9zM139 623q0 1 -0.5 9.5t-2 18.5t-5 18t-9.5 8q-10 0 -10 -9v-3q7 -31 7 -41.5t10 -10.5t10 10zM390 615q-2 6 -2 15.5t-0.5 17.5t-2.5 14t-8 6q-11 0 -11 -10q2 -10 2 -19 q0 -2 -0.5 -3.5t-0.5 -3.5q0 -11 2 -19t10 -8q11 0 11 10zM201 411q-9 0 -9 -10q0 -5 9.5 -11.5t29.5 -6.5q7 0 7 11q0 8 -7 10t-27 7h-3zM85 705q0 10 -11 10q-28 0 -28 -19q0 -11 10 -11l5 2t10 4.5t9.5 6t4.5 7.5zM337 705q0 10 -9 10q-14 0 -21 -6t-7 -11q0 -10 9 -10 q8 0 14 3q5 2 9.5 5.5t4.5 8.5z" />
<glyph unicode="Z" horiz-adv-x="373" d="M358 61q0 -23 -13.5 -36t-36 -20.5t-51.5 -9.5t-60 -2q-42 0 -80.5 4.5t-75.5 15.5q-14 4 -17 27q0 65 49 228q22 74 38 127t26.5 87.5t15.5 53t5 24.5q0 15 -3.5 25t-14 18.5t-29 17t-49.5 19.5q-46 16 -46 46q0 14 6.5 23t21.5 14.5t40 7.5t62 2q23 0 41.5 -0.5 t35 -1.5t33 -3.5t35.5 -5.5q-17 -17 -17 -33l15 -14q31 15 52 15q-5 -42 -20.5 -106.5t-42.5 -153.5q-40 -129 -60.5 -191t-20.5 -68q0 -10 10 -28q-1 -3 -6.5 -8t-11.5 -11t-11 -12t-5 -10q12 -11 59 -31q10 6 10 25q49 0 49 -14q-6 -6 -6 -11q0 -8 8 -8t28 -2h37zM321 669 q-5 6 -9 6q-10 0 -10 -11q0 -2 2 -7.5t2 -11.5q0 -8 -4 -19l-7 -21q-1 -2 -1 -4q0 -8 11 -8q3 0 12.5 13t9.5 40q0 11 -6 23zM185 183q0 11 -10 11t-10 -11v-43q1 -9 10 -9q10 0 10 8v44zM248 692q10 0 10 10q0 3 -5.5 6t-13 4.5t-16.5 2.5t-15 1q-10 0 -10 -11 q0 -6 5.5 -8.5t13.5 -3t16.5 -0.5t14.5 -1z" />
<glyph unicode="\" horiz-adv-x="558" d="M10 709q10 -2 21 -8.5t16 -13.5q3 6 3 16q0 13 -4 26q5 2 10 3t10 1q11 0 27.5 -5t28.5 -23l427 -625q9 -14 9 -30q0 -20 -12.5 -38.5t-38.5 -18.5q-19 0 -33 7t-27 25l-432 628q-9 14 -11 21t-2 12q0 7 2.5 12.5t5.5 10.5zM47 637q12 0 12 10q0 5 -8 15.5t-13 10.5 q-12 0 -12 -10q0 -5 8.5 -15.5t12.5 -10.5z" />
<glyph unicode="^" horiz-adv-x="345" d="M186 694q5 5 13.5 11t16.5 8q1 -1 3 -3.5t11 -15t26.5 -38.5t50.5 -74q8 -11 8 -25q0 -17 -10.5 -32.5t-32.5 -15.5q-15 0 -27.5 6t-23.5 21l-49 70l-49 -70q-11 -15 -23 -21t-28 -6q-22 0 -32.5 15.5t-10.5 32.5q0 14 8 25l86 127q10 15 24 19.5t23 4.5q6 0 10 -1t7 -3 q-4 -11 -4 -22q0 -9 3 -13zM250 611q10 0 10 8q0 2 -6.5 14t-15 25.5t-17 24t-12.5 10.5q-10 0 -10 -8q0 -2 7.5 -13.5t16.5 -25t17 -24.5t10 -11z" />
<glyph unicode="_" horiz-adv-x="502" d="M492 -155q1 -5 1 -9v-8q0 -20 -15.5 -32.5t-44.5 -12.5h-368q-53 0 -53 55q0 23 14.5 37.5t37.5 14.5h368q28 0 36 -8q-12 -7 -22.5 -17t-13.5 -19q5 1 10.5 1h11.5h17.5t20.5 -2zM407 -151q10 0 10 10q0 9 -19.5 12t-43.5 3q-10 0 -10 -10q0 -5 8.5 -8t19 -4.5t21 -2 t14.5 -0.5z" />
<glyph unicode="`" horiz-adv-x="255" d="M43 600q-9 13 -9 26q0 17 14 29.5t38 12.5q-5 -9 -5 -22q0 -5 2 -15q4 12 14.5 20.5t17.5 9.5q10 -4 18 -17l86 -127q8 -11 8 -25q0 -17 -10.5 -32.5t-32.5 -15.5q-15 0 -27.5 6t-23.5 21zM162 546q10 0 10 8q0 2 -6.5 14t-15 25.5t-17 24t-12.5 10.5q-10 0 -10 -8 q0 -2 7.5 -13.5t16.5 -25t17 -24.5t10 -11z" />
<glyph unicode="a" horiz-adv-x="440" d="M387 368q3 -1 7 -3t7.5 -8t5.5 -16.5t2 -28.5q0 -67 -0.5 -109t-1.5 -69t-2.5 -43.5t-3.5 -32.5q-2 -19 -7.5 -31.5t-17.5 -20t-32 -10.5t-53 -3q-63 0 -112 9t-81 38q-35 31 -54.5 74t-19.5 92q0 56 21 96t55 66t76.5 38t85.5 12q35 0 52.5 -4t25.5 -15q0 -1 -1.5 -6 t-3 -11.5t-2.5 -13.5t-1 -11q5 -5 11.5 -8t11.5 -7q6 0 32 26zM264 128q15 24 15 67q0 13 -2 32t-8 36t-18 29t-31 12q-18 0 -30 -11t-18.5 -27.5t-9.5 -35.5t-3 -34q0 -12 1.5 -25.5t3.5 -29.5l-16 -15q-1 -1 -1 -5q0 -18 29 -45q17 17 88 52zM279 402q-7 0 -18 -2t-11 -10 q0 -10 9 -10q11 0 16.5 1t6.5 1q12 0 20 -4.5t10 -4.5q10 0 10 10q0 19 -43 19zM396 284q0 24 -4.5 42.5t-15.5 18.5t-11 -10q0 -3 5.5 -13.5t5.5 -37.5q0 -10 10 -10t10 10zM258 90q0 8 -9 10q0 -1 -7.5 -3t-16.5 -5t-16 -7t-7 -8q0 -10 10 -10q20 0 33 8t13 15zM150 157 q-7 18 -7 28t-10 10t-10 -11q0 -2 0.5 -8.5t2.5 -13.5t5 -13t9 -6q11 0 11 8q0 4 -1 6z" />
<glyph unicode="b" horiz-adv-x="421" d="M408 200q0 -47 -18 -85.5t-50 -65.5t-76.5 -41.5t-98.5 -14.5q-30 0 -56.5 4.5t-45.5 16.5t-30 32t-11 52v533q0 48 14.5 75t48.5 27q9 0 20 -6q-2 -13 -3 -23t-1 -18q0 -12 3 -18q6 0 42 17q8 -17 13 -68t5 -150q-7 -11 -33 -34q13 -37 49 -48q25 -8 47 -14t42.5 -15 t39 -23t38.5 -38q7 0 24 17q37 -33 37 -112zM256 128q18 37 18 82q0 16 -1 32t-6 28.5t-17 20t-33 7.5q-35 0 -48.5 -20.5t-13.5 -55.5q0 -12 2 -29.5t2 -30.5q0 -19 -3.5 -27.5t-24.5 -8.5q22 -43 39 -49q16 16 86 51zM262 398q9 -2 9 -11q0 -10 -9 -10q-16 0 -39 10 q-14 6 -22.5 9.5t-13 5.5t-6 3t-1.5 2q0 17 10 17q6 0 26.5 -9t45.5 -17zM146 606q0 25 -5 43t-12 18q-11 0 -11 -10q0 -33 5.5 -48t11.5 -15q11 0 11 10v2zM141 189q0 11 -10 11t-10 -11v-36q0 -10 10 -10t10 10v36zM244 80q5 2 5 9q0 8 -8 10l-6 -1.5t-14 -4.5t-14.5 -6.5 t-6.5 -8.5q0 -11 7 -11q5 0 14 4t23 9zM376 285q-3 6 -9 6q-11 0 -11 -11l1.5 -5.5t4.5 -12t7 -12t9 -5.5q10 0 10 10q0 4 -12 30zM93 694q0 11 -7 11q-14 0 -20.5 -8.5t-6.5 -13.5q0 -10 10 -10l4 1.5t8.5 4.5t8 7t3.5 8z" />
<glyph unicode="c" horiz-adv-x="372" d="M345 394q11 -14 11 -31q0 -9 -3 -19t-12 -18t-24.5 -13.5t-39.5 -5.5q-50 -1 -73 -5t-37 -17q-15 -14 -19.5 -30.5t-4.5 -40.5q0 -12 3 -30t3 -26q0 -23 -23 -38q11 -26 38 -42.5t76 -16.5q15 0 31.5 1.5t36.5 5.5q12 0 19.5 -6.5t7.5 -19.5q0 -16 -13.5 -25.5t-32 -15 t-38.5 -7t-33 -1.5q-41 0 -77.5 15.5t-63.5 43t-42.5 65.5t-15.5 82q0 70 18.5 113t51.5 66.5t77.5 31.5t96.5 8q14 0 24 -7.5t10 -21.5q0 -7 -3 -14q28 0 51 19zM338 359q-2 9 -10 9q-10 0 -10 -9v-3q0 -4 -16 -10l-21 -8q-6 -2 -6 -9q0 -10 11 -10q6 0 15 3t17.5 8.5 t14 13t5.5 15.5zM205 101q8 -2 8 -10q0 -11 -8 -11q-4 0 -13 3.5t-18 9t-15.5 12t-6.5 13.5q0 10 11 10q5 0 16.5 -12t25.5 -15zM271 405q-15 3 -47 3q-10 0 -10 -11q0 -8 16 -10t29 -2t17 2.5t4 7.5q0 8 -9 10z" />
<glyph unicode="d" horiz-adv-x="428" d="M406 373q0 -88 -3 -151t-10.5 -105t-20.5 -66.5t-33.5 -37.5t-48.5 -16.5t-65 -3.5q-44 0 -83 12t-68.5 38t-47 66.5t-17.5 97.5q0 51 10 86.5t28 59.5t44.5 38t59.5 22q51 11 77.5 27t26.5 40q0 103 3.5 159.5t16.5 70.5q9 11 20.5 17t35.5 6q2 -3 3 -12.5t2 -19.5 t2 -19.5t2 -12.5q8 8 20.5 12t21.5 4q7 -14 12 -30.5t7.5 -49.5t3.5 -87.5t1 -144.5zM245 140q13 20 13 70q0 20 -1.5 36.5t-7 28t-16 18t-27.5 6.5q-40 0 -53.5 -20t-13.5 -61q0 -6 1.5 -19.5t1.5 -28.5q0 -3 -0.5 -5.5t-0.5 -4.5q0 -4 -3 -11t-6 -15t-6 -15t-3 -11 q14 -16 26 -22t23 -6q0 11 9.5 19.5t21.5 15l24 13t18 12.5zM395 580q-1 8 -2.5 18.5t-5.5 22.5l-12 40q-1 7 -10 7q-10 0 -10 -10q0 -2 2.5 -16t7 -30t9.5 -29t11 -13q10 0 10 10zM250 94q6 1 6 9q0 10 -10 10q-7 0 -16 -3t-17 -6.5t-13.5 -7.5t-5.5 -7q0 -10 10 -10 q9 0 21 4.5t25 10.5zM126 151q-2 4 -2.5 12t-1.5 16t-3 14t-7 6q-12 0 -12 -10q0 -31 5.5 -40t10.5 -9q10 0 10 9v2zM316 694q11 0 11 10q0 11 -11 11t-20 -6l-5 -2q-4 -4 -4 -10q0 -10 10 -10q3 0 6 1l3 3q4 3 10 3z" />
<glyph unicode="e" horiz-adv-x="417" d="M367 316q20 -8 29 -26t9 -40q0 -29 -13.5 -50t-38.5 -28l-95 -25q-29 -8 -47.5 -24t-26.5 -35q23 -26 68 -26q43 0 57 30q17 -5 17 -26q0 -10 -6 -22q-50 -51 -114 -51q-31 0 -64.5 15t-61 43t-45.5 66.5t-18 86.5q0 45 14.5 84.5t40.5 68t63.5 45t84.5 16.5q33 0 33 -19 q0 -2 -2 -11.5t-7 -14.5q16 -8 39 -26t52 -48q13 0 32 17zM241 255q10 8 13 17.5t3 23.5q0 7 -10 20t-34 13q-30 0 -48.5 -9.5t-22.5 -20.5l-4 -42q-14 -23 -14 -28q6 -20 29 -29q16 9 42 23.5t46 31.5zM223 60q-11 1 -21.5 9t-18.5 8q-10 0 -10 -10q0 -5 5.5 -10t13 -9 t16.5 -6.5t15 -2.5q9 0 9 11q0 8 -9 10zM388 257q0 11 -9 25.5t-18 14.5q-10 0 -10 -10q0 -7 8.5 -14t8.5 -15q0 -3 -1 -6t-1 -5q0 -8 11 -8t11 18zM214 406q-11 0 -23 -4t-12 -14t10 -10q2 0 8.5 4t16.5 4q1 0 5 -1.5t11 -1.5q9 0 9 11q0 12 -25 12zM146 189q-11 0 -11 -11 q0 -10 11 -10q22 0 31 4.5t9 12.5q0 12 -10 12q-3 0 -7 -4t-23 -4zM120 249q2 6 2 7q0 8 -12 8q-5 0 -8 -5t-5 -11t-3 -11.5t-1 -7.5q0 -11 11 -11q5 0 6.5 1.5t2.5 5.5t2 10t5 14zM127 193q0 13 -11 13t-11 -13q0 -12 11 -12t11 12z" />
<glyph unicode="f" horiz-adv-x="321" d="M315 706q-4 -35 -18 -48t-49 -22q-23 -6 -36.5 -14t-21 -20t-10 -30t-2.5 -43q0 -28 4 -53t4 -26q0 -13 -35 -31q4 -26 27.5 -41.5t52.5 -15.5q26 0 46 11q10 -12 10 -22q0 -6 -5.5 -15.5t-16.5 -14.5q-30 -13 -48 -24t-28.5 -26t-14 -36t-3.5 -53q0 -5 0.5 -16t1 -23.5 t1 -23.5t0.5 -15q0 -51 -13.5 -81t-51.5 -30q-20 0 -34 7.5t-25 30.5q-11 20 -11 141v27t-0.5 31t-1.5 30.5t-2 24.5q-2 12 -6 21t-8.5 17t-8 16t-3.5 18q0 18 8 31t18 36q4 11 6 31t3.5 44t3.5 50.5t7 50.5q13 57 59 95t121 38q6 0 20.5 -1.5t23.5 -9.5l-29 -20q9 -3 20 -3 q10 0 21.5 2t23.5 5zM166 495q0 10 -10 10t-10 -10v-54q0 -11 10 -11t10 11v54zM295 682q0 10 -10 10q-3 -2 -8 -5t-10 -7t-9 -7.5t-4 -5.5q0 -12 7 -12q16 0 25 11t9 16zM229 704q10 1 10 11t-10 10h-2q-2 0 -7.5 -1t-11 -3t-9.5 -5.5t-4 -7.5q0 -11 7 -11q5 0 8 2z" />
<glyph unicode="g" horiz-adv-x="428" d="M381 368q12 -2 16.5 -12.5t4.5 -30.5q1 -31 1.5 -89t0.5 -145q0 -38 -1.5 -66.5t-4 -50t-6 -38.5t-8.5 -32q-17 -56 -71.5 -88.5t-132.5 -32.5q-32 0 -54 10.5t-22 30.5q0 15 11.5 25t29 17t38 12.5t38 13t29 17.5t11.5 26q0 10 -3.5 18t-15.5 15.5t-33.5 14.5t-57.5 16 q-18 4 -41 16.5t-43 35.5t-34 57.5t-14 84.5q0 88 48 151q19 24 40 39t43.5 22.5t47 10t50.5 2.5q45 0 64 -5t31 -14q0 -2 -2.5 -7t-6 -10t-6 -10t-2.5 -6l21 -23q25 25 34 25zM257 124q18 30 18 74q0 14 -2.5 30.5t-8.5 30.5t-15 23.5t-21 9.5q-30 0 -49.5 -15.5 t-19.5 -59.5q0 -22 -1 -45t-3 -43q-14 -23 -14 -28l29 -28q6 4 16.5 10.5t26.5 15.5zM145 192q0 10 -11 10q-9 0 -12 -19t-3 -48q0 -8 11 -8t11.5 18t3.5 44v3zM387 285q0 2 -0.5 12t-1.5 21.5t-4 20.5t-9 9q-10 0 -10 -9l5 -56q1 -9 10 -9q10 0 10 9v2zM309 398 q-6 1 -18 1.5t-31 0.5q-11 0 -11 -10q0 -5 8.5 -7.5t19 -4t20 -1.5h11.5q8 0 8 10q0 8 -7 11zM254 76q3 3 3 7q0 11 -10 11q-3 0 -7 -3q-2 -2 -9 -3.5t-14.5 -3t-13.5 -4.5t-6 -7q0 -10 10 -10q33 0 47 13z" />
<glyph unicode="h" horiz-adv-x="420" d="M399 49q0 -56 -62 -56q-18 0 -30.5 7.5t-19.5 19t-10 23.5t-3 21v35.5t0.5 24.5t0.5 21.5v25.5q0 18 -3 38.5t-9 37.5t-15.5 28.5t-22.5 11.5q-11 0 -23 -1.5t-24 -6.5q-31 -40 -31 -126v-35q0 -10 1 -19.5t1 -28.5q0 -39 -16.5 -58t-45.5 -19q-35 0 -51 19.5t-16 57.5 v603q0 26 14 43t40 17q21 0 21 -12v-12q0 -30 6 -43l24 25q11 -10 20 -10q3 -11 4.5 -23.5t2.5 -38t1 -68v-112.5q-17 0 -24 -6q5 -27 18 -40t29.5 -19t35.5 -7.5t36 -5.5q27 -7 50.5 -26t45.5 -48q16 16 28 16q12 -17 19.5 -48.5t7.5 -78.5v-127zM265 388q7 -1 7 -9 q0 -11 -7 -11q-3 0 -7 2q-2 0 -12.5 3t-23 7.5t-22.5 9.5t-10 11q0 11 7 11q6 0 26 -8t42 -16zM77 691q10 0 10 10q0 11 -10 11q-17 0 -31.5 -12.5t-14.5 -38.5q0 -10 11 -10q3 0 5.5 6t6 13.5t9 14t14.5 6.5zM135 662q0 10 -10 10q-11 0 -11 -10v-41q0 -11 11 -11 q10 0 10 11v41zM384 241l-1.5 7t-4.5 15.5t-7 15.5t-8 7q-11 0 -11 -8q0 -4 1 -6t2.5 -8.5t4 -14t6 -13.5t8.5 -6q10 0 10 7v4zM144 484q0 9 -10 9q-9 0 -11 -12.5t-2 -19.5t1.5 -10.5t8.5 -3.5q9 0 10 6t3 29v2z" />
<glyph unicode="i" horiz-adv-x="181" d="M152 54q0 -29 -19.5 -45t-42.5 -16q-34 0 -49 19t-15 42v288q0 40 17.5 58t57.5 18v-8q0 -22 -7 -37q3 -4 4.5 -9t6.5 -8q11 3 19 13.5t19 10.5q9 0 9 -12v-314zM138 311q7 0 8 9q0 4 -0.5 10.5t-2.5 13t-5 11.5t-9 5q-11 0 -11 -9q0 -3 1 -5q14 -35 19 -35zM81 377 q8 2 8 10q0 10 -8 10q-7 0 -15 -4l-4 -3q-9 -3 -9 -13q0 -8 8 -8q4 0 6 1l8 5zM152 568q0 -30 -19.5 -45t-43.5 -15q-32 0 -48 18.5t-16 46.5q0 26 15 43t43 19q0 -13 4 -25t12 -29q5 9 15.5 17.5t19.5 11.5q8 -9 13 -18.5t5 -23.5zM130 559q0 23 -16 23q-10 0 -10 -10 q0 -3 3.5 -6t3.5 -8q0 -2 -0.5 -4t-0.5 -5q0 -8 10 -8t10 18z" />
<glyph unicode="j" horiz-adv-x="189" d="M165 568q0 -30 -19.5 -45t-43.5 -15q-32 0 -48 18.5t-16 46.5q0 26 15 43t43 19q0 -13 4 -25t12 -29q5 9 15.5 17.5t19.5 11.5q8 -9 13 -18.5t5 -23.5zM143 559q0 23 -16 23q-10 0 -10 -10q0 -3 3.5 -6t3.5 -8q0 -2 -0.5 -4t-0.5 -5q0 -8 10 -8t10 18zM162 -37 q0 -47 -19.5 -80.5t-51.5 -56t-73 -33t-85 -10.5q-23 0 -36 4.5t-19.5 10.5t-8.5 13.5t-2 13.5q0 17 8.5 26t22.5 14t31.5 9.5t36.5 13.5q69 31 69 71v398q0 7 2.5 17.5t9 20.5t18 16.5t29.5 6.5q9 0 17 -3q0 -32 -8 -48l14 -13q3 0 14 4.5t19 4.5q6 0 12 -3v-397zM152 284 q0 34 -1.5 48.5t-11.5 14.5q-5 0 -8 -3t-3 -13q0 -25 2.5 -41t10.5 -16q11 0 11 10zM93 379q6 3 6 9q0 10 -10 10q-6 0 -11.5 -5t-10.5 -11t-8 -12.5t-3 -9.5q0 -8 11 -8q8 0 12 10.5t14 16.5z" />
<glyph unicode="k" horiz-adv-x="359" d="M300 93q20 -5 37 -19t17 -39q0 -20 -12 -31t-23 -11q-15 0 -35.5 7t-40 15t-35 15t-21.5 7q-7 0 -20 -7t-28.5 -15t-31 -15t-27.5 -7q-36 0 -49 23t-13 50v570q0 45 22 71t63 26q-2 -12 -3.5 -22t-1.5 -18q0 -14 4 -19q6 0 42 17q3 -15 6 -51t6 -78t4.5 -83t1.5 -65 q0 -10 -10.5 -21.5t-22.5 -30.5q9 -17 36 -29q7 7 8 14t3 17q23 20 52 37t72 17q-2 -8 -4 -17t-2 -17t4 -15q2 2 13 8t30 16q1 -5 1 -15q0 -22 -13 -46t-32 -47q-7 -8 -12 -16t-8.5 -17.5t-5.5 -22t-2 -30.5q0 -39 10 -66q-2 -1 -5 -1q-6 0 -11 4t-10 4t-6 -4t-1 -8 q0 -5 4.5 -12t11.5 -13.5t14.5 -11.5t14.5 -5q3 0 9 7zM145 439q0 10 -10 10q-8 0 -10 -6.5t-2 -16.5v-15q0 -9 -1 -12q0 -10 10 -10q8 0 10 6.5t2 16.5v15q0 9 1 12zM140 627q0 15 -2.5 30.5t-12.5 15.5t-10 -10q0 -3 0.5 -11t2 -15.5t4.5 -13.5t8 -6q10 0 10 10zM253 193 q0 10 -10 10t-10 -10v-33q0 -10 10 -10t10 10v33zM83 692q5 2 5 8q0 10 -10 10q-3 0 -14 -9.5t-11 -27.5q0 -7 11 -7q7 0 9 7.5t10 18.5zM194 336q8 0 21 4.5t13 15.5q0 10 -10 10q-3 0 -8.5 -1.5t-11.5 -4.5t-10 -6.5t-4 -7.5q0 -10 10 -10zM309 80q-1 1 -5 1 q-10 0 -10 -10q0 -2 8.5 -11.5t24.5 -9.5q7 0 7 11q0 7 -25 19zM288 390q0 10 -11 10q-3 0 -13 -5t-10 -15t10 -10q2 2 11.5 6.5t12.5 13.5z" />
<glyph unicode="l" horiz-adv-x="178" d="M152 54q0 -29 -19.5 -45t-42.5 -16q-34 0 -49 19t-15 42v603q0 40 17.5 58t57.5 18v-8q0 -22 -7 -37q3 -4 4.5 -9t6.5 -8q11 3 19 13.5t19 10.5q9 0 9 -12v-629zM138 626q7 0 8 9q0 4 -0.5 10.5t-2.5 13t-5 11.5t-9 5q-11 0 -11 -9q0 -3 1 -5q14 -35 19 -35zM81 692 q8 2 8 10q0 10 -8 10q-7 0 -15 -4l-4 -3q-9 -3 -9 -13q0 -8 8 -8q4 0 6 1l8 5z" />
<glyph unicode="m" horiz-adv-x="688" d="M666 63q0 -70 -68 -70q-35 0 -55 19.5t-20 64.5q0 33 1.5 71t1.5 72q0 32 -12.5 52.5t-38.5 20.5q-23 0 -36 -7t-19.5 -19t-8 -27.5t-1.5 -32.5v-123q0 -17 -1.5 -33t-7.5 -29t-18.5 -21t-35.5 -8q-35 0 -52 22t-17 64q0 32 1.5 68.5t1.5 68.5q0 29 -14 51t-48 22 q-63 0 -63 -76v-44.5t0.5 -45.5t0.5 -39v-25t-3 -19t-10.5 -21.5t-20.5 -18t-34 -7.5q-42 0 -53.5 44t-11.5 136q0 74 5.5 121.5t23 75t50 38t86.5 10.5h207q61 0 85.5 -10.5t24.5 -31.5q28 -18 55 -44.5t44 -44.5q5 0 24 17q37 -37 37 -140v-101zM645 228l-1.5 7.5 t-4.5 16.5t-6.5 16.5t-8.5 7.5q-12 0 -12 -9q0 -3 1 -5t3 -9t5 -14.5t6.5 -14t7.5 -6.5q11 0 11 7q0 3 -1 5v-2zM477 371q10 0 10 11q0 10 -10 10h-26q-11 0 -11 -10q0 -11 11 -11h26zM582 351q0 -10 -10 -10q-5 0 -10 4l-4 2q-14 11 -14 15q0 11 10 11q5 0 16 -8l4 -4 q8 -6 8 -10z" />
<glyph unicode="n" horiz-adv-x="436" d="M402 290q5 -37 7.5 -74.5t2.5 -91.5q0 -63 -9.5 -97t-46.5 -34q-27 0 -41 9.5t-20.5 31t-7.5 56t-1 84.5q0 69 -18 96.5t-46 27.5q-35 0 -50.5 -30.5t-15.5 -95.5q0 -6 0.5 -15.5t0.5 -20.5t0.5 -20.5t0.5 -15.5q0 -26 -2.5 -46t-9.5 -33.5t-20 -20.5t-34 -7 q-24 0 -37.5 9t-20 30t-8 54.5t-1.5 83.5q0 69 3.5 116t17 76.5t41 42.5t74.5 13q44 0 66.5 -6t41.5 -23l-17 -17q30 -14 60 -38.5t44 -50.5q4 9 24 9h10.5t11.5 -2zM183 405q-10 0 -10 -10q0 -3 8 -6.5t18 -7t19 -5.5t11 -2q10 0 10 11q0 8 -16.5 14t-39.5 6zM397 232 q0 16 -4.5 32t-13.5 16q-10 0 -10 -10q2 0 3 -8t2.5 -17t4 -16.5t7.5 -7.5q11 0 11 11z" />
<glyph unicode="o" horiz-adv-x="420" d="M401 197q0 -41 -13.5 -77.5t-39 -65t-61.5 -45t-81 -16.5q-32 0 -65.5 12.5t-61.5 38t-45.5 63.5t-17.5 90q0 53 16 94t42 69.5t60.5 43t70.5 14.5q25 0 39.5 -6.5t22.5 -16.5q0 -2 -7.5 -6.5t-15.5 -12.5q40 -16 97 -80q16 16 28 16q14 -16 23 -41.5t9 -73.5zM260 138 q4 23 6 40t2 28q0 13 -2.5 28.5t-8.5 29t-14.5 22.5t-20.5 9q-15 0 -26.5 -1.5t-20.5 -9t-14.5 -22t-7.5 -41.5l-4 -89q-1 -13 -5 -19t-9 -8q5 -14 12 -20t17 -9q5 7 18 14.5t28 15t29 15.5t21 17zM216 379q10 0 10 10q0 9 -12 11t-21 2q-7 0 -19 -4t-12 -13q0 -11 11 -11 q5 0 8.5 3.5t11.5 3.5q11 0 14.5 -1t8.5 -1zM139 181q0 10 -11 10q-10 0 -10 -10v-42q0 -11 10 -11q11 0 11 11v42zM386 243q-1 2 -3 9.5t-6 16t-8.5 15t-9.5 6.5q-10 0 -10 -10l2 -8t6 -17t9 -17t11 -8q10 0 10 7q0 4 -1 6zM247 85q4 4 4 9q0 11 -10 11q-3 0 -8 -4t-13 -8 q-9 -5 -18 -6t-9 -7q0 -11 10 -11q16 0 44 16z" />
<glyph unicode="p" horiz-adv-x="426" d="M378 309q28 -22 28 -108q0 -64 -21.5 -105t-56.5 -70q-18 -15 -36.5 -21.5t-36.5 -11.5t-36 -11.5t-35 -19.5q-14 -11 -19.5 -35t-9.5 -54q-11 -90 -62 -90q-29 0 -48 15.5t-19 53.5v486q0 80 144 80q31 0 48.5 -3t26 -7t10.5 -9.5t2 -9.5q0 -5 -3 -8q17 -11 42 -32.5 t55 -56.5q17 17 27 17zM270 135q3 23 5.5 40t2.5 28q0 16 -3.5 32.5t-11 30.5t-18 23t-25.5 9q-29 0 -43.5 -25t-14.5 -60q0 -13 1 -30.5t1 -28.5q0 -17 -3.5 -24t-12.5 -7h-2q-4 -4 -4 -11q0 -5 1 -13t6 -15.5t15.5 -13t29.5 -5.5q0 27 8 35q53 17 68 35zM391 235 q0 3 -1 12t-3.5 18.5t-6.5 16.5t-9 7q-11 0 -11 -7q0 -20 7.5 -38.5t12.5 -18.5q11 0 11 10zM236 393q-17 11 -47 11q-10 0 -10 -11q0 -4 8 -7.5t17.5 -6t17.5 -4l8 -1.5q10 0 10 10q0 6 -4 9zM261 87q4 3 4 9q0 10 -10 10q-3 0 -6 -1l-36 -21q-6 -3 -6 -9q0 -11 10 -11 q4 0 44 23zM153 184q0 10 -11 10q-10 0 -10 -10v-39q0 -10 10 -10q11 0 11 10v39zM335 356q0 -11 -11 -11l-5 2t-10 5.5t-9.5 9t-4.5 12.5q0 10 10 10q5 0 7 -2l12 -12q11 -11 11 -14z" />
<glyph unicode="q" horiz-adv-x="417" d="M397 -140q0 -35 -14 -56t-49 -21q-27 0 -41.5 17.5t-20.5 60.5q-4 31 -8 52.5t-13.5 36.5t-27.5 25.5t-50 21.5q-45 15 -75.5 36t-48.5 49t-25.5 64t-7.5 80q0 38 12.5 73t36 61.5t57.5 42t76 15.5q15 0 25.5 -3.5t30.5 -17.5q0 -1 -17 -18q29 -15 59.5 -39t46.5 -50 q6 5 13 9.5t15 4.5q9 0 17 -7q1 -1 2 -5.5t2 -19t2 -42.5t1.5 -76.5t1 -120t0.5 -173.5zM251 140q16 28 16 67q0 42 -15 71t-44 29q-15 0 -26.5 -8t-19.5 -21.5t-12 -30t-4 -33.5t4 -38t4 -41q0 -14 -17 -17q0 -3 3 -9t8 -12t11 -11.5t12 -6.5q4 5 15.5 14t24.5 18t24.5 17 t15.5 12zM204 399q-18 0 -32 -3t-14 -12q0 -11 7 -11q4 0 13.5 3t26.5 3h10q11 0 11 10t-11 10h-11zM139 146q0 5 -0.5 13t-2 15t-4 12t-6.5 5q-10 0 -10 -10q0 -14 3 -30t10 -16q10 0 10 9v2zM377 273q0 10 -10 10q-11 0 -11 -10v-35q0 -11 11 -11q10 0 10 11v35zM240 91 q5 3 5 8q0 10 -10 10q-1 0 -7.5 -3t-14 -6.5t-13.5 -8t-6 -7.5q0 -11 7 -11q8 0 18.5 5t20.5 13z" />
<glyph unicode="r" horiz-adv-x="318" d="M309 395q3 -9 3 -19q0 -25 -9 -38t-23 -20t-31 -9.5t-34 -6t-32 -10t-24 -21.5q-6 -11 -10.5 -26.5t-6.5 -33t-3 -36t-1 -34.5q0 -6 1 -24.5t1 -55.5q0 -25 -15.5 -46.5t-47.5 -21.5q-36 0 -48 27t-12 95q0 60 2 100.5t10 75.5q7 34 25 58.5t42.5 39.5t54.5 22t62 7 q13 0 21.5 -2.5t25.5 -15.5l-17 -17q10 -2 18 -2q20 0 48 14zM188 372q6 3 13 5t13 4t10 5t4 8q0 10 -9 10q-6 0 -13.5 -1.5t-14.5 -4.5t-12 -7t-5 -10q0 -11 7 -11q1 0 7 2zM261 340q5 0 12 5.5t7 12.5q0 11 -10 11q-4 0 -7 -3l-9 -8q-4 -3 -4 -8q0 -10 11 -10z" />
<glyph unicode="s" horiz-adv-x="373" d="M354 134q-3 -33 -14 -59t-33.5 -44.5t-59 -28t-90.5 -9.5q-76 0 -106.5 15t-30.5 39q0 17 9.5 29.5t26.5 12.5q26 0 56.5 -10.5t61.5 -10.5q17 0 24.5 11t7.5 25q0 18 -13 30t-33.5 22.5t-45 22t-48.5 29.5q-47 35 -47 92q0 33 15.5 56t40 36.5t55.5 19.5t62 6 q4 0 15.5 -0.5t24 -2t25 -4t18.5 -7.5q-8 -11 -20 -15t-12 -5q0 -5 5.5 -9t11.5 -4q3 0 9.5 2.5t15 6t17.5 6t18 2.5q2 -6 3 -12t1 -13q0 -20 -10.5 -38t-34.5 -18q-16 0 -39 7.5t-56 7.5q-20 0 -27 -4t-7 -15q0 -6 7 -14t15 -15.5t15 -13.5t7 -7q0 -5 -4.5 -11t-13.5 -9 q8 -8 25.5 -19.5t37 -24t36.5 -24t24 -19.5q16 15 45 15q0 -17 10 -27zM330 132q0 10 -11 10q-3 0 -7 -7t-7 -16t-5 -17t-2 -10q0 -10 10 -10q6 0 14 13t8 37zM267 209q6 -5 6 -9q0 -10 -10 -10q0 1 -7 3.5t-15 6.5t-15 9.5t-7 12.5q0 5 6 7.5t11 2.5t14.5 -9t16.5 -14z M231 403q-3 1 -11.5 2.5t-18.5 2l-20 1t-17 0.5q-11 0 -11 -11q0 -10 11 -10q10 0 21 -1t20.5 -1.5t16.5 -1.5t9 -1q6 0 6 11q0 7 -6 9zM137 281q-10 0 -10 -10l2.5 -4.5t6.5 -10t10 -10t13 -4.5q10 0 10 11q0 4 -9 12q-13 10 -15.5 13t-7.5 3zM298 345q0 8 -2.5 16t-10.5 8 q-10 0 -10 -11q0 -2 1.5 -4.5t1.5 -6.5q0 -2 -0.5 -4.5t-0.5 -4.5q0 -9 10 -9q9 0 11 9v7z" />
<glyph unicode="t" horiz-adv-x="333" d="M310 59q13 -9 13 -21t-4 -20.5t-16 -14t-35 -8t-60 -2.5q-72 0 -110.5 37.5t-38.5 105.5v107q0 24 -6 37t-13 23.5t-13 23t-6 34.5q0 17 5.5 27.5t11.5 24t11.5 35t5.5 60.5q0 2 -0.5 18t-0.5 39q0 67 11 93t48 26q9 0 10 -4.5t3 -12.5q0 -7 -1 -19.5t-1 -17.5l14 -13 q16 15 36 15q7 -24 12.5 -69t5.5 -109q-25 -21 -25 -30q8 -22 27.5 -31.5t45.5 -9.5t42 10q5 -3 9 -11.5t4 -17.5q-1 -18 -12.5 -29.5t-28.5 -19.5q-24 -13 -38 -22t-21 -19.5t-8.5 -25.5t-1.5 -39q0 -14 2 -29t5 -32q0 -18 -25 -39q18 -32 39.5 -46t58.5 -14q29 0 45 10z M176 146q-1 8 -1.5 19.5t-1.5 22t-3.5 17.5t-7.5 7q-11 0 -11 -10v-18.5t1.5 -22t4.5 -18.5t9 -8q10 0 10 7v4zM106 637q4 3 4 8q0 10 -10 10q-17 0 -21 -14t-4 -38q0 -10 10 -10q11 0 11 10q1 18 3 24.5t7 9.5zM261 92q0 -10 -9 -10h-3q-2 0 -9.5 2.5t-15 6t-13.5 8.5 t-6 11q0 10 10 10q1 0 8.5 -3.5t15.5 -8.5t15 -9.5t7 -6.5zM168 570q0 5 -0.5 7.5t-0.5 16.5q0 8 -1.5 13.5t-9.5 5.5q-10 0 -10 -10q0 -12 2 -27.5t10 -15.5q10 0 10 10zM247 419q0 -11 -7 -11q-10 0 -17.5 3t-12.5 8q-6 5 -10 12q0 11 11 11q3 0 4.5 -1.5t20.5 -9.5 q11 -5 11 -12zM176 491q0 10 -10 10t-10 -10v-26q0 -11 10 -11t10 11v26z" />
<glyph unicode="u" horiz-adv-x="423" d="M395 374q4 -31 5.5 -74t1.5 -94q0 -40 -0.5 -66t-3 -44t-8 -31.5t-14.5 -27.5q-8 -11 -17 -19.5t-24 -14t-38 -8t-57 -2.5t-66 7t-59 22.5t-47.5 39.5t-31.5 59q-5 15 -8 29.5t-5 31t-2.5 37t-0.5 47.5q0 42 2.5 71t9 47t18 26t29.5 8q11 0 18.5 -3.5t7.5 -8.5 q-7 -3 -11 -10.5t-4 -12.5q0 -13 9 -25q12 10 23 13t21 3q11 -16 14 -30t3 -45v-114v-20t1 -14q-13 -13 -19 -23.5t-6 -15.5q5 -10 17.5 -19t26.5 -12q8 18 17 25.5t18.5 11l19 7t19.5 13.5q8 8 13 19.5t7.5 35t3.5 64t1 106.5q0 27 13 41t43 14q12 0 24 -3.5t17 -10.5 q-14 -2 -22.5 -10t-8.5 -16q0 -13 7 -20q4 9 19 12.5t24 3.5zM145 152q0 10 -0.5 21t-2 20t-4 14.5t-6.5 5.5q-10 0 -10 -10q0 -61 13 -61q10 0 10 10zM225 81q4 0 13 2.5t18 6.5t16 9t7 11q0 11 -10 11q-3 0 -6 -3q-12 -8 -21 -11l-15 -5t-9.5 -4t-3.5 -7q0 -10 11 -10z M136 317q-3 26 -3 35t-10 9q-8 0 -9 -4t-1 -15q0 -10 2 -23.5t10 -13.5q11 0 11 10v2zM328 376q10 0 10 10t-10 10q-11 0 -23 -8t-12 -25q0 -8 9 -8q3 0 6 3.5t5.5 7t6 7t8.5 3.5zM391 317q-3 11 -5.5 24t-10.5 13q-10 0 -10 -10q0 -41 16 -41q11 0 11 8q0 4 -1 6zM83 386 q0 10 -8 10h-4q-1 0 -5.5 -2t-10 -5.5t-9.5 -8t-4 -8.5q0 -10 11 -10q2 2 7 4.5t10 5.5t9 6.5t4 7.5zM163 130q5 0 11 -4.5t6 -10.5q0 -10 -10 -10q-5 0 -11 4.5t-6 10.5q0 10 10 10z" />
<glyph unicode="v" horiz-adv-x="349" d="M130 354q0 -4 -7 -4q-2 0 -5.5 0.5t-8.5 1.5l-3 4q-9 13 -9 17q0 11 10 11q6 0 16 -16l3 -6q4 -3 4 -8zM339 375q-3 -45 -17 -97.5t-29 -98.5q-14 -42 -29 -77.5t-26 -57.5q-26 -51 -67 -51q-21 0 -37 7.5t-27 31.5q-20 42 -35 83t-26 81q-17 60 -26 105.5t-9 75.5 q0 23 8 32t26 9q21 0 32 -12q1 -16 11 -42t25 -50q11 -18 23.5 -32t14.5 -39q14 4 26 12t22 31q9 22 17 45t17 42.5t21.5 32t30.5 12.5q17 0 23 -8q-8 -9 -12 -20t-4 -18q0 -9 3 -13q5 11 19.5 13.5t24.5 2.5zM294 274q4 0 8 9t7 21t5 22.5t2 13.5q0 7 -11 7 q-7 0 -14.5 -15.5t-7.5 -47.5q0 -10 11 -10zM44 403q-6 2 -7 2q-6 0 -6 -11q0 -8 7 -9l17 -7q4 -2 6 -2q7 0 7 11q0 8 -7 9z" />
<glyph unicode="w" horiz-adv-x="672" d="M637 374q4 -31 13 -74t9 -94q0 -103 -42.5 -158t-134.5 -55q-36 0 -66.5 8.5t-61.5 8.5q-12 0 -22.5 -2.5t-23.5 -6t-29.5 -6t-39.5 -2.5q-34 0 -66 7t-59 22.5t-47.5 39.5t-31.5 59q-5 15 -8 29.5t-5 31t-2.5 37t-0.5 47.5q0 42 2.5 71t9 47t18 26t29.5 8 q11 0 18.5 -3.5t7.5 -8.5q-7 -3 -11 -10.5t-4 -12.5q0 -13 9 -25q12 10 23 13t21 3q11 -16 14 -30t3 -45v-114v-20t1 -14q-13 -13 -19 -23.5t-6 -15.5q5 -10 17.5 -19t26.5 -12q8 18 17 25.5t18.5 11l19 7t19.5 13.5q7 7 12 19t8 34.5t4 58t1 90.5q0 38 8.5 58t47.5 20 q12 0 24 -3.5t17 -10.5q-14 -2 -22.5 -10t-8.5 -16q0 -13 7 -20q4 9 19 12.5t24 3.5q6 -19 7 -42.5t1 -65.5v-57.5v-33.5t0.5 -16.5t0.5 -7.5q-13 -13 -19 -23.5t-6 -15.5q5 -10 17.5 -19t26.5 -12q8 18 17 25.5t18.5 11l19 7t19.5 13.5q8 8 13 19.5t7.5 35t3.5 64t1 106.5 q0 27 13 41t43 14q12 0 24 -3.5t17 -10.5q-14 -2 -22.5 -10t-8.5 -16q0 -13 7 -20q4 9 19 12.5t24 3.5zM144 152q0 10 -0.5 21t-2 20t-4 14.5t-6.5 5.5q-10 0 -10 -10q0 -61 13 -61q10 0 10 10zM224 81q4 0 13 2.5t18 6.5t16 9t7 11q0 11 -10 11q-3 0 -6 -3q-12 -8 -21 -11 l-15 -5t-9.5 -4t-3.5 -7q0 -10 11 -10zM135 317q-3 26 -3 35t-10 9q-8 0 -9 -4t-1 -15q0 -10 2 -23.5t10 -13.5q11 0 11 10v2zM327 376q10 0 10 10t-10 10q-11 0 -23 -8t-12 -25q0 -8 9 -8q3 0 6 3.5t5.5 7t6 7t8.5 3.5zM390 317q-3 11 -5.5 24t-10.5 13q-10 0 -10 -10 q0 -41 16 -41q11 0 11 8q0 4 -1 6zM82 386q0 10 -8 10h-4q-1 0 -5.5 -2t-10 -5.5t-9.5 -8t-4 -8.5q0 -10 11 -10q2 2 7 4.5t10 5.5t9 6.5t4 7.5zM162 130q5 0 11 -4.5t6 -10.5q0 -10 -10 -10q-5 0 -11 4.5t-6 10.5q0 10 10 10zM482 81q4 0 13 2.5t18 6.5t16 9t7 11 q0 11 -10 11q-3 0 -6 -3q-12 -8 -21 -11l-15 -5t-9.5 -4t-3.5 -7q0 -10 11 -10zM391 173q0 10 -0.5 21t-2 20t-4 14.5t-6.5 5.5q-10 0 -10 -10q0 -61 13 -61q10 0 10 10zM572 384q10 0 10 10t-10 10q-11 0 -23 -8t-12 -25q0 -8 9 -8q3 0 6 3.5t5.5 7t6 7t8.5 3.5zM641 310 q-3 11 -5.5 24t-10.5 13q-10 0 -10 -10q0 -41 16 -41q11 0 11 8q0 4 -1 6zM420 130q5 0 11 -4.5t6 -10.5q0 -10 -10 -10q-5 0 -11 4.5t-6 10.5q0 10 10 10z" />
<glyph unicode="x" horiz-adv-x="321" d="M306 50q0 -57 -41 -57q-13 0 -25 4t-24 9.5t-24 9.5t-25 4q-24 0 -40.5 -4t-30 -9.5t-26.5 -9.5t-30 -4q-11 0 -17 6.5t-6 17.5q0 36 48 146q7 17 7 37q0 24 -9 48t-19.5 47t-19 45t-8.5 42t9.5 28t31.5 8q13 0 22.5 -6t17.5 -12.5t17 -12.5t23 -6t25.5 6t23 12.5 t24.5 12.5t30 6q18 0 28.5 -3.5t19.5 -11.5q-10 -4 -22 -13t-14 -19q23 16 51 16q2 -10 2 -16q0 -19 -9.5 -37t-21.5 -37.5t-21.5 -42t-9.5 -50.5q0 -23 10 -43.5t21.5 -39.5t21.5 -36.5t10 -34.5zM97 380q-1 0 -5.5 3.5t-9.5 7.5t-10.5 7t-8.5 3q-10 0 -10 -10q0 -4 3 -8 q31 -23 35 -23q11 0 11 11q0 4 -5 9zM276 351q0 11 -11 11q-5 0 -13.5 -9.5t-8.5 -27.5q0 -8 11 -8q4 0 13 12t9 22zM253 97q-10 0 -10 -9q0 -2 2 -8t5 -12.5t7.5 -12t9.5 -5.5q10 0 10 10q0 3 -2 9t-5.5 12t-8 11t-8.5 5zM240 389q0 10 -9 10q-17 0 -26 -7.5t-9 -9.5 q0 -10 9 -10q17 0 26 6t9 11z" />
<glyph unicode="y" horiz-adv-x="428" d="M145 152q0 10 -0.5 21t-2 20t-4 14.5t-6.5 5.5q-10 0 -10 -10q0 -61 13 -61q10 0 10 10zM225 81q4 0 13 2.5t18 6.5t16 9t7 11q0 11 -10 11q-3 0 -6 -3q-12 -8 -21 -11l-15 -5t-9.5 -4t-3.5 -7q0 -10 11 -10zM136 317q-3 26 -3 35t-10 9q-8 0 -9 -4t-1 -15q0 -10 2 -23.5 t10 -13.5q11 0 11 10v2zM328 376q10 0 10 10t-10 10q-11 0 -23 -8t-12 -25q0 -8 9 -8q3 0 6 3.5t5.5 7t6 7t8.5 3.5zM391 317q-3 11 -5.5 24t-10.5 13q-10 0 -10 -10q0 -41 16 -41q11 0 11 8q0 4 -1 6zM83 386q0 10 -8 10h-4q-1 0 -5.5 -2t-10 -5.5t-9.5 -8t-4 -8.5 q0 -10 11 -10q2 2 7 4.5t10 5.5t9 6.5t4 7.5zM163 130q5 0 11 -4.5t6 -10.5q0 -10 -10 -10q-5 0 -11 4.5t-6 10.5q0 10 10 10zM395 374q2 -8 3.5 -17t2.5 -25t1.5 -43t1 -70t1 -105.5t0.5 -150.5q0 -47 -19.5 -80.5t-51.5 -56t-73 -33t-85 -10.5q-23 0 -36 4.5t-19.5 10.5 t-8.5 13.5t-2 13.5q0 17 8.5 26t22.5 14t31.5 9.5t36.5 13.5q69 31 69 71q0 14 -8 24t-30 10q-34 0 -66 7t-59 22.5t-47.5 39.5t-31.5 59q-5 15 -8 29.5t-5 31t-2.5 37t-0.5 47.5q0 42 2.5 71t9 47t18 26t29.5 8q11 0 18.5 -3.5t7.5 -8.5q-7 -3 -11 -10.5t-4 -12.5 q0 -13 9 -25q12 10 23 13t21 3q11 -16 14 -30t3 -45v-114v-20t1 -14q-13 -13 -19 -23.5t-6 -15.5q5 -10 17.5 -19t26.5 -12q8 18 17 25.5t18.5 11l19 7t19.5 13.5q8 8 13 19.5t7.5 35t3.5 64t1 106.5q0 27 13 41t43 14q12 0 24 -3.5t17 -10.5q-14 -2 -22.5 -10t-8.5 -16 q0 -13 7 -20q4 9 19 12.5t24 3.5z" />
<glyph unicode="z" horiz-adv-x="373" d="M356 67q6 -9 6 -20q0 -7 -2 -15t-7 -16q-3 -5 -11.5 -9t-26 -7t-46 -5t-70.5 -2q-19 0 -46 1t-51.5 6.5t-42 17.5t-17.5 34q0 19 14.5 44.5t36.5 64.5q23 40 33.5 63.5t10.5 40.5q0 18 -11.5 25.5t-29 12.5t-36.5 11t-34 21q-10 12 -10 22q0 29 42.5 45t116.5 16 q36 0 59 -1t37 -3t21.5 -5t11.5 -7q-11 -6 -21.5 -21.5t-11.5 -26.5q10 10 26.5 14.5t38.5 13.5q2 -8 2 -13q0 -28 -13.5 -61t-29.5 -63.5t-29.5 -55.5t-13.5 -37q0 -5 2 -15q-18 -14 -34 -33q25 -45 93 -45q24 0 43 8zM248 174q2 4 2 6q0 7 -11 7q-1 0 -5 -5t-8 -12.5 t-7 -15.5t-3 -14q0 -8 2.5 -10t8.5 -2q9 0 21 46zM254 400q-5 1 -16 2.5t-24 1.5q-9 0 -9 -10q0 -5 6 -8t14.5 -4.5t16.5 -2t12 -0.5q9 0 9 10q0 9 -9 11zM318 346q0 9 -11 9q-3 0 -7 -6t-8 -14t-6.5 -15t-2.5 -8q0 -10 11 -10q4 0 8 5.5t7.5 12.5t6 14.5t2.5 11.5zM274 112 q5 0 12.5 -4t7.5 -11q0 -10 -11 -10q-5 0 -12 4.5t-7 10.5q0 10 10 10z" />
<glyph unicode="|" horiz-adv-x="383" d="M241 -58q0 -23 -16 -36.5t-35 -13.5q-28 0 -40.5 16t-12.5 34v828q0 33 14.5 48t47.5 15v-7q0 -17 -6 -30q2 -3 3 -7.5t6 -6.5q9 2 15.5 11t16.5 9q7 0 7 -10v-850zM230 745q5 0 6 7q0 6 -2.5 19.5t-11.5 13.5t-9 -7q0 -3 1 -5q10 -28 16 -28zM182 799q7 1 7 8q0 9 -7 9 q-5 0 -12 -4l-3 -2q-8 -3 -8 -11q0 -7 7 -7q3 0 5 1l6 4q1 0 2 0.5t2 0.5t1 1z" />
<glyph unicode="&#xa1;" horiz-adv-x="183" d="M152 -96q0 -29 -19.5 -45t-42.5 -16q-34 0 -49 19t-15 42v408q0 40 17.5 58t57.5 18v-8q0 -22 -7 -37q3 -4 4.5 -9t6.5 -8q11 3 19 13.5t19 10.5q9 0 9 -12v-434zM138 281q7 0 8 9q0 4 -0.5 10.5t-2.5 13t-5 11.5t-9 5q-11 0 -11 -9q0 -3 1 -5q14 -35 19 -35zM81 347 q8 2 8 10q0 10 -8 10q-7 0 -15 -4l-4 -3q-9 -3 -9 -13q0 -8 8 -8q4 0 6 1l8 5zM152 515q0 -30 -19.5 -45t-43.5 -15q-32 0 -48 18.5t-16 46.5q0 26 15 43t43 19q0 -13 4 -25t12 -29q5 9 15.5 17.5t19.5 11.5q8 -9 13 -18.5t5 -23.5zM130 506q0 23 -16 23q-10 0 -10 -10 q0 -3 3.5 -6t3.5 -8q0 -2 -0.5 -4t-0.5 -5q0 -8 10 -8t10 18z" />
<glyph unicode="&#xa2;" horiz-adv-x="378" d="M352 544q11 -14 11 -31q0 -9 -3 -19t-12 -18t-24.5 -13.5t-39.5 -5.5q-50 -1 -73 -5t-37 -17q-15 -14 -19.5 -30.5t-4.5 -40.5q0 -12 3 -30t3 -26q0 -23 -23 -38q11 -26 38 -42.5t76 -16.5q15 0 31.5 1.5t36.5 5.5q12 0 19.5 -6.5t7.5 -19.5q0 -12 -8.5 -21t-21 -14.5 t-28 -8.5t-29.5 -4v-101q0 -23 -16 -36.5t-35 -13.5q-28 0 -40.5 16t-12.5 34v114q-56 22 -90.5 73t-34.5 119q0 48 9 82.5t25 59t39 40t52 23.5v116q0 33 14.5 48t47.5 15v-7q0 -17 -6 -30q2 -3 3 -7.5t6 -6.5q9 2 15.5 11t16.5 9q7 0 7 -10v-124h15q14 0 24 -7.5t10 -21.5 q0 -7 -3 -14q28 0 51 19zM345 509q-2 9 -10 9q-10 0 -10 -9v-3q0 -4 -16 -10l-21 -8q-6 -2 -6 -9q0 -10 11 -10q6 0 15 3t17.5 8.5t14 13t5.5 15.5zM212 251q8 -2 8 -10q0 -11 -8 -11q-4 0 -13 3.5t-18 9t-15.5 12t-6.5 13.5q0 10 11 10q5 0 16.5 -12t25.5 -15zM244 645 q5 0 6 7q0 6 -2.5 19.5t-11.5 13.5t-9 -7q0 -3 1 -5q10 -28 16 -28zM196 699q7 1 7 8q0 9 -7 9q-5 0 -12 -4l-3 -2q-8 -3 -8 -11q0 -7 7 -7q3 0 5 1l6 4q1 0 2 0.5t2 0.5t1 1zM278 555q-15 3 -47 3q-10 0 -10 -11q0 -8 16 -10t29 -2t17 2.5t4 7.5q0 8 -9 10z" />
<glyph unicode="&#xa3;" horiz-adv-x="369" d="M351 370q1 -5 1 -9v-8q0 -20 -15.5 -32.5t-44.5 -12.5h-121v-177q-17 0 -24 -15q13 -30 48 -45t91 -15q14 0 25 1.5t21 3.5q0 -4 5 -15t5 -15q-5 -14 -14.5 -21.5t-27 -11.5t-43.5 -4.5t-64 -0.5q-155 0 -155 82v238q-26 12 -26 50q0 31 26 46v130q0 43 10.5 79 t34.5 61.5t63 39.5t95 14q25 0 49 -3q3 -4 5 -18.5t11 -24.5q8 0 18.5 4t28.5 12v-47q-10 -17 -35.5 -22t-53.5 -5q-21 0 -37.5 -2t-28 -10t-18 -24.5t-9.5 -44.5v-133h120q28 0 36 -8q-12 -7 -22.5 -17t-13.5 -19q5 1 10.5 1h11.5h17.5t20.5 -2zM266 374q10 0 10 10 q0 9 -19.5 12t-43.5 3q-10 0 -10 -10q0 -5 8.5 -8t19 -4.5t21 -2t14.5 -0.5zM266 697q11 0 11 10t-11 10h-30q-11 0 -11 -10t11 -10h30zM265 87q0 -11 -9 -11q-8 0 -21.5 5t-13.5 13q0 11 10 11q1 -2 6.5 -3.5t11.5 -3t11 -4t5 -7.5zM164 155q0 27 -13 27q-11 0 -11 -8 q0 -11 3 -20t11 -9q10 0 10 10z" />
<glyph unicode="&#xa8;" horiz-adv-x="369" d="M341 570q0 -30 -19.5 -45t-43.5 -15q-32 0 -48 18.5t-16 46.5q0 26 15 43t43 19q0 -13 4 -25t12 -29q5 9 15.5 17.5t19.5 11.5q8 -9 13 -18.5t5 -23.5zM319 561q0 23 -16 23q-10 0 -10 -10q0 -3 3.5 -6t3.5 -8q0 -2 -0.5 -4t-0.5 -5q0 -8 10 -8t10 18zM161 570 q0 -30 -19.5 -45t-43.5 -15q-32 0 -48 18.5t-16 46.5q0 26 15 43t43 19q0 -13 4 -25t12 -29q5 9 15.5 17.5t19.5 11.5q8 -9 13 -18.5t5 -23.5zM139 561q0 23 -16 23q-10 0 -10 -10q0 -3 3.5 -6t3.5 -8q0 -2 -0.5 -4t-0.5 -5q0 -8 10 -8t10 18z" />
<glyph unicode="&#xa9;" horiz-adv-x="651" d="M628 201q0 -61 -30.5 -101t-76 -64t-98.5 -33.5t-99 -9.5q-47 0 -100 8t-97.5 31t-74 63t-29.5 105v295q0 114 78.5 176t232.5 62q11 0 19 -1.5t16 -3.5l31 -19q0 -4 -7 -12t-7 -12q95 -16 156 -82q28 16 42 16q9 -4 17 -11t14 -19t9.5 -31t3.5 -48v-309zM535 531 q-3 15 -14.5 29.5t-34 26t-58.5 19t-89 7.5q-54 0 -94 -8t-66.5 -21t-40 -29.5t-13.5 -32.5q0 -125 4 -198.5t9.5 -112.5t9.5 -52.5t4 -17.5q-24 -16 -24 -21q0 -19 37 -36q27 4 64 10.5t81.5 14t94.5 17t102 20.5q8 7 14 17t10 35.5t6 71t2 122.5q0 32 -0.5 66.5t-3.5 72.5 zM609 491q0 6 1 12t1 11q0 14 -3 29t-9 27t-14.5 20t-19.5 8q-16 0 -16 -10q0 -8 5 -14.5t13 -16.5t18.5 -26t22.5 -42zM113 157q-1 2 -2 13.5t-2.5 24t-3 23t-2.5 10.5q-8 -3 -12.5 -15t-4.5 -38q0 -17 2.5 -25t13.5 -8q14 0 14 7q0 3 -3 8zM354 707q-30 8 -47 8 q-13 0 -27 -2t-25.5 -5t-19 -6.5t-7.5 -6.5h8q4 0 9.5 0.5t13.5 0.5q24 0 45 -5t49 -5q14 0 14 10q0 8 -13 11zM314 84q0 -4 1.5 -6t7.5 -2q21 0 50 4t55.5 9t45 10.5t18.5 8.5q0 10 -30 10q-5 0 -20.5 -3t-35.5 -9q-41 -12 -66.5 -14t-25.5 -8zM431 497q8 -9 8 -23t-11 -27 t-47 -14q-37 -1 -53.5 -4t-27.5 -12q-11 -11 -14.5 -23t-3.5 -29q0 -9 2.5 -22.5t2.5 -19.5q0 -16 -17 -28q8 -19 28 -31t56 -12q11 0 23.5 1t26.5 4q8 0 14 -5t6 -14q0 -12 -10 -19t-24 -11t-28.5 -5t-24.5 -1q-30 0 -57 11.5t-46.5 32t-31 48t-11.5 60.5q0 51 14 83t38 49 t57 23t71 6q11 0 18 -5.5t7 -16.5q0 -4 -3 -10q11 0 20 3.5t18 10.5zM426 471q-1 7 -8 7t-7 -7v-2q0 -3 -12 -7l-15 -6q-5 -2 -5 -7q0 -7 8 -7q10 0 24.5 8.5t14.5 20.5zM328 281q6 0 6 -7q0 -8 -6 -8q-3 0 -9.5 2.5t-13 6.5t-11.5 9t-5 10q0 7 8 7q4 0 12 -9t19 -11z M376 505q-5 2 -14 2h-20q-8 0 -8 -8q0 -6 12 -7t22 -1q9 0 12 1.5t3 5.5q0 7 -7 7z" />
<glyph unicode="&#xab;" horiz-adv-x="506" d="M40 279q-15 11 -21 24t-6 31q0 29 27 47l129 90q11 8 17 9.5t11 1.5q10 0 19 -7q-2 -8 -7.5 -17t-10.5 -14q4 -3 13 -3q11 0 22 4q2 -5 3 -8.5t1 -8.5q0 -9 -4.5 -23t-19.5 -24l-76 -51l76 -51q13 -8 17 -18q-1 -7 -9.5 -17.5t-20.5 -14.5q10 -2 15 -2q13 0 22 5 q0 -24 -12.5 -38t-29.5 -14q-13 0 -26 9zM156 444q0 -10 8 -10q5 0 13.5 6.5t8.5 11.5q0 10 -8 10q-4 0 -13 -7.5t-9 -10.5zM115 308q0 -2 11 -10t24.5 -17t25 -16.5t13.5 -7.5q8 0 8 10q0 4 -10.5 12.5t-24 17t-25.5 15t-14 6.5q-8 0 -8 -10zM293 279q-15 11 -21 24t-6 31 q0 29 27 47l129 90q11 8 17 9.5t11 1.5q10 0 19 -7q-2 -8 -7.5 -17t-10.5 -14q4 -3 13 -3q11 0 22 4q2 -5 3 -8.5t1 -8.5q0 -9 -4.5 -23t-19.5 -24l-76 -51l76 -51q13 -8 17 -18q-1 -7 -9.5 -17.5t-20.5 -14.5q10 -2 15 -2q13 0 22 5q0 -24 -12.5 -38t-29.5 -14q-13 0 -26 9 zM409 444q0 -10 8 -10q5 0 13.5 6.5t8.5 11.5q0 10 -8 10q-4 0 -13 -7.5t-9 -10.5zM368 308q0 -2 11 -10t24.5 -17t25 -16.5t13.5 -7.5q8 0 8 10q0 4 -10.5 12.5t-24 17t-25.5 15t-14 6.5q-8 0 -8 -10z" />
<glyph unicode="&#xae;" horiz-adv-x="651" d="M425 502q12 -9 16 -23t4 -30q0 -34 -14.5 -61.5t-51.5 -49.5q8 -19 19.5 -49.5t22.5 -65.5q2 -4 2.5 -7.5t0.5 -5.5q0 -17 -19 -17q-15 0 -24.5 4.5t-17.5 13.5t-18 21.5t-27 27.5q-9 -5 -14.5 -16t-11 -22.5t-13 -20t-21.5 -8.5q-23 0 -31.5 11.5t-8.5 28.5v267 q0 23 16.5 37.5t54.5 14.5q19 0 31.5 -0.5t21 -2t13 -3t8.5 -3.5q0 -2 -2 -6.5t-5 -6.5q17 -9 30 -18t24 -18l7.5 5t7.5 3zM365 422q1 2 1 6v7q0 26 -5.5 43.5t-29.5 17.5q-17 0 -24.5 -13t-7.5 -34v-32q0 -20 -16 -20q8 -8 16.5 -10.5t17.5 -2.5q1 4 7 9t13.5 10t15 9.5 t12.5 9.5zM340 542q-5 2 -11 3.5t-11 1.5t-5 -6q0 -3 3.5 -4.5t8 -2t8.5 -1t5 -1.5q6 0 6 4q0 5 -4 6zM426 466q7 0 7 4v2q-1 0 -1.5 3.5t-2 7t-3.5 7t-5 3.5q-7 0 -7 -3q0 -2 1 -3q1 -2 3.5 -11.5t7.5 -9.5zM353 394q0 5 -5 5q0 -1 -10.5 -4t-10.5 -8q0 -6 6 -6q10 0 15 7 t5 6zM415 220q-3 15 -11 15q-6 0 -6 -4q0 -8 4 -12.5t7 -4.5q6 0 6 4v2zM289 427q0 5 -7 5q-5 0 -5 -5v-12q0 -5 5 -5q7 0 7 5v12zM628 201q0 -61 -30.5 -101t-76 -64t-98.5 -33.5t-99 -9.5q-47 0 -100 8t-97.5 31t-74 63t-29.5 105v295q0 114 78.5 176t232.5 62 q11 0 19 -1.5t16 -3.5l31 -19q0 -4 -7 -12t-7 -12q95 -16 156 -82q28 16 42 16q9 -4 17 -11t14 -19t9.5 -31t3.5 -48v-309zM535 531q-3 15 -14.5 29.5t-34 26t-58.5 19t-89 7.5q-54 0 -94 -8t-66.5 -21t-40 -29.5t-13.5 -32.5q0 -125 4 -198.5t9.5 -112.5t9.5 -52.5t4 -17.5 q-24 -16 -24 -21q0 -19 37 -36q27 4 64 10.5t81.5 14t94.5 17t102 20.5q8 7 14 17t10 35.5t6 71t2 122.5q0 32 -0.5 66.5t-3.5 72.5zM609 491q0 6 1 12t1 11q0 14 -3 29t-9 27t-14.5 20t-19.5 8q-16 0 -16 -10q0 -8 5 -14.5t13 -16.5t18.5 -26t22.5 -42zM113 157 q-1 2 -2 13.5t-2.5 24t-3 23t-2.5 10.5q-8 -3 -12.5 -15t-4.5 -38q0 -17 2.5 -25t13.5 -8q14 0 14 7q0 3 -3 8zM354 707q-30 8 -47 8q-13 0 -27 -2t-25.5 -5t-19 -6.5t-7.5 -6.5h8q4 0 9.5 0.5t13.5 0.5q24 0 45 -5t49 -5q14 0 14 10q0 8 -13 11zM314 84q0 -4 1.5 -6t7.5 -2 q21 0 50 4t55.5 9t45 10.5t18.5 8.5q0 10 -30 10q-5 0 -20.5 -3t-35.5 -9q-41 -12 -66.5 -14t-25.5 -8z" />
<glyph unicode="&#xaf;" horiz-adv-x="382" d="M353 577q1 -5 1 -9v-8q0 -20 -15.5 -32.5t-44.5 -12.5h-207q-53 0 -53 55q0 23 14.5 37.5t37.5 14.5h207q28 0 36 -8q-12 -7 -22.5 -17t-13.5 -19q5 1 10.5 1h11.5h17.5t20.5 -2zM268 581q10 0 10 10q0 9 -19.5 12t-43.5 3q-10 0 -10 -10q0 -5 8.5 -8t19 -4.5t21 -2 t14.5 -0.5z" />
<glyph unicode="&#xb0;" horiz-adv-x="287" d="M268 587q0 -27 -9 -51t-26 -42.5t-40.5 -29.5t-53.5 -11q-21 0 -43 8t-40.5 24.5t-30 42t-11.5 59.5q0 35 10.5 62t28 46t40 28.5t46.5 9.5q16 0 25.5 -4.5t15.5 -10.5q0 -2 -5.5 -5t-10.5 -8q28 -10 64 -52q11 10 19 10q9 -11 15 -27.5t6 -48.5zM175 548q2 15 3.5 26 t1.5 19q0 9 -1.5 19t-5.5 19t-9.5 15t-13.5 6q-10 0 -17.5 -1t-13.5 -6t-10 -14.5t-5 -27.5l-2 -59q-1 -8 -3.5 -11.5t-6.5 -5.5q3 -9 8 -13.5t12 -6.5q3 5 11.5 9.5t18 9.5t19 10.5t14.5 11.5zM146 707q7 0 7 7q0 6 -8 7t-14 1q-5 0 -13 -2.5t-8 -8.5q0 -7 8 -7q3 0 5 2.5 t8 2.5q7 0 9 -1t6 -1zM95 577q0 6 -7 6t-7 -6v-28q0 -7 7 -7t7 7v28zM258 618q0 1 -2 6t-4 10.5t-5.5 10t-6.5 4.5q-6 0 -6 -7q2 -10 5 -17q2 -6 5 -11t8 -5q7 0 7 5q0 2 -1 4zM166 513q3 3 3 6q0 8 -7 8q-2 0 -5 -3t-8 -5q-6 -3 -12 -4t-6 -5q0 -7 6 -7q12 0 29 10z" />
<glyph unicode="&#xb4;" horiz-adv-x="257" d="M222 647q7 -9 7 -19q0 -5 -1.5 -11t-9.5 -17l-90 -129q-11 -15 -23 -21t-28 -6q-22 0 -32.5 15.5t-10.5 32.5q0 14 8 25l86 127q10 15 24 19.5t23 4.5q5 0 8.5 -1t8.5 -3q-4 -11 -4 -22q0 -9 3 -13q5 5 14 10.5t17 7.5zM191 587q3 0 10.5 9t7.5 13q0 8 -10 8 q-5 0 -11.5 -8.5t-6.5 -13.5q0 -8 10 -8z" />
<glyph unicode="&#xb7;" horiz-adv-x="189" d="M161 347q0 -30 -19.5 -45t-43.5 -15q-32 0 -48 18.5t-16 46.5q0 26 15 43t43 19q0 -13 4 -25t12 -29q5 9 15.5 17.5t19.5 11.5q8 -9 13 -18.5t5 -23.5zM139 338q0 23 -16 23q-10 0 -10 -10q0 -3 3.5 -6t3.5 -8q0 -2 -0.5 -4t-0.5 -5q0 -8 10 -8t10 18z" />
<glyph unicode="&#xb8;" horiz-adv-x="189" d="M141 -43q11 -6 15.5 -19.5t4.5 -22.5q0 -30 -8.5 -54.5t-20.5 -41.5t-26 -26.5t-24 -9.5q-12 0 -16.5 5.5t-4.5 14.5q0 8 3 15t3 15q0 10 -7 18q-15 19 -20.5 33t-5.5 34t13 41.5t44 23.5q0 -2 -0.5 -4.5t-0.5 -4.5q0 -23 17 -46q3 11 13.5 20t20.5 9zM131 -123 q10 0 11.5 13.5t1.5 21.5q0 10 -10 10q-8 0 -11 -10.5t-3 -27.5q0 -7 11 -7z" />
<glyph unicode="&#xbb;" horiz-adv-x="512" d="M88 205q-14 -9 -26 -9q-17 0 -29.5 14t-12.5 38q0 17 9 30t15 17l76 51l-76 51q-15 10 -23 24t-8 23q0 8 2.5 17.5t8.5 17.5t15 13.5t21 5.5q5 0 11 -1.5t17 -9.5l129 -90q14 -10 20 -21.5t7 -25.5q0 -18 -6 -31t-21 -24zM77 461q0 -2 19 -16t42.5 -30.5t43.5 -30 t22 -13.5q8 0 8 10q0 4 -19 18.5t-42.5 30.5t-43.5 28.5t-22 12.5q-8 0 -8 -10zM344 205q-14 -9 -26 -9q-17 0 -29.5 14t-12.5 38q0 17 9 30t15 17l76 51l-76 51q-15 10 -23 24t-8 23q0 8 2.5 17.5t8.5 17.5t15 13.5t21 5.5q5 0 11 -1.5t17 -9.5l129 -90q14 -10 20 -21.5 t7 -25.5q0 -18 -6 -31t-21 -24zM333 461q0 -2 19 -16t42.5 -30.5t43.5 -30t22 -13.5q8 0 8 10q0 4 -19 18.5t-42.5 30.5t-43.5 28.5t-22 12.5q-8 0 -8 -10z" />
<glyph unicode="&#xbf;" horiz-adv-x="395" d="M281 -157q-55 0 -102.5 13.5t-83 40t-55.5 66t-20 92.5q0 24 5.5 49t17.5 44q20 32 39.5 47.5t41.5 26.5t49 24t62 41q12 10 18 23t12.5 25t15.5 20.5t27 8.5q17 0 28 -6.5t17 -16.5t8 -22.5t2 -23.5q0 -16 -7.5 -33t-25 -34.5t-46 -33.5t-71.5 -29q-40 -12 -52.5 -41 t-12.5 -61q0 -27 9 -52.5t32 -43.5q10 -8 20.5 -13.5t25 -8.5t36 -4.5t53.5 -1.5q31 0 43.5 -12t12.5 -29q0 -27 -19.5 -41t-79.5 -14zM337 322q-3 8 -11 8q-10 0 -10 -10q0 -4 1 -7.5t1 -7.5q0 -14 -6 -26t-6 -14q0 -10 10 -10q6 0 10 7t7 16.5t4 18.5t1 13q0 8 -1 12z M356 -94q-26 13 -42 13q-9 0 -9 -11q0 -5 6.5 -8t14.5 -5.5t16 -4.5t10 -4q10 0 10 11q0 4 -6 9zM375 516q0 -30 -19.5 -45t-43.5 -15q-32 0 -48 18.5t-16 46.5q0 26 15 43t43 19q0 -13 4 -25t12 -29q5 9 15.5 17.5t19.5 11.5q8 -9 13 -18.5t5 -23.5zM353 507q0 23 -16 23 q-10 0 -10 -10q0 -3 3.5 -6t3.5 -8q0 -2 -0.5 -4t-0.5 -5q0 -8 10 -8t10 18z" />
<glyph unicode="&#xc0;" horiz-adv-x="437" d="M409 60q0 -30 -13 -48.5t-51 -18.5q-21 0 -33.5 10t-19 26t-8.5 36.5t-2 41.5v67q0 54 -14 87.5t-55 33.5q-22 0 -34.5 -12t-18.5 -30.5t-7.5 -41t-1.5 -43.5q0 -5 0.5 -12t0.5 -15v-32q0 -20 -2.5 -40.5t-9.5 -37.5t-19.5 -27.5t-33.5 -10.5q-22 0 -40 16t-18 47v506 q0 48 19.5 80.5t49.5 52.5t66 29t69 9q23 0 27.5 -12.5t4.5 -26.5v-5q29 -11 50.5 -30t38.5 -44q17 17 26 17q13 -5 21 -15.5t8 -21.5v-535zM264 447q16 33 16 79q0 23 -2.5 41t-10.5 31t-24 19.5t-43 6.5q-15 -5 -23.5 -15.5t-12.5 -25t-4.5 -32.5t-0.5 -39q0 -27 5 -52 l-7.5 -5t-10 -7t-10 -7.5t-5.5 -5.5q1 -8 8.5 -16t17.5 -15t21 -11.5t19 -4.5q0 26 8 34zM143 509q0 8 -10 8q-5 0 -8.5 -5t-3.5 -16v-31q0 -8 10 -8t11 6.5t1 11.5v34zM257 395q7 3 7 10q0 12 -9 12q-5 0 -12.5 -2t-14 -4.5t-11 -6t-4.5 -6.5q0 -10 10 -10q13 0 34 7z M388 573q0 1 -1 6t-3 11t-5 10.5t-8 4.5q-11 0 -11 -8q0 -4 1 -6l7 -18q0 -11 10 -11t10 11zM239 697q10 0 10 10t-10 10h-24q-10 0 -10 -10t10 -10h24zM101 915q-9 13 -9 26q0 17 14 29.5t38 12.5q-5 -9 -5 -22q0 -5 2 -15q4 12 14.5 20.5t17.5 9.5q10 -4 18 -17l86 -127 q8 -11 8 -25q0 -17 -10.5 -32.5t-32.5 -15.5q-15 0 -27.5 6t-23.5 21zM220 861q10 0 10 8q0 2 -6.5 14t-15 25.5t-17 24t-12.5 10.5q-10 0 -10 -8q0 -2 7.5 -13.5t16.5 -25t17 -24.5t10 -11z" />
<glyph unicode="&#xc1;" horiz-adv-x="437" d="M409 60q0 -30 -13 -48.5t-51 -18.5q-21 0 -33.5 10t-19 26t-8.5 36.5t-2 41.5v67q0 54 -14 87.5t-55 33.5q-22 0 -34.5 -12t-18.5 -30.5t-7.5 -41t-1.5 -43.5q0 -5 0.5 -12t0.5 -15v-32q0 -20 -2.5 -40.5t-9.5 -37.5t-19.5 -27.5t-33.5 -10.5q-22 0 -40 16t-18 47v506 q0 48 19.5 80.5t49.5 52.5t66 29t69 9q23 0 27.5 -12.5t4.5 -26.5v-5q29 -11 50.5 -30t38.5 -44q17 17 26 17q13 -5 21 -15.5t8 -21.5v-535zM264 447q16 33 16 79q0 23 -2.5 41t-10.5 31t-24 19.5t-43 6.5q-15 -5 -23.5 -15.5t-12.5 -25t-4.5 -32.5t-0.5 -39q0 -27 5 -52 l-7.5 -5t-10 -7t-10 -7.5t-5.5 -5.5q1 -8 8.5 -16t17.5 -15t21 -11.5t19 -4.5q0 26 8 34zM143 509q0 8 -10 8q-5 0 -8.5 -5t-3.5 -16v-31q0 -8 10 -8t11 6.5t1 11.5v34zM257 395q7 3 7 10q0 12 -9 12q-5 0 -12.5 -2t-14 -4.5t-11 -6t-4.5 -6.5q0 -10 10 -10q13 0 34 7z M388 573q0 1 -1 6t-3 11t-5 10.5t-8 4.5q-11 0 -11 -8q0 -4 1 -6l7 -18q0 -11 10 -11t10 11zM239 697q10 0 10 10t-10 10h-24q-10 0 -10 -10t10 -10h24zM339 962q7 -9 7 -19q0 -5 -1.5 -11t-9.5 -17l-90 -129q-11 -15 -23 -21t-28 -6q-22 0 -32.5 15.5t-10.5 32.5q0 14 8 25 l86 127q10 15 24 19.5t23 4.5q5 0 8.5 -1t8.5 -3q-4 -11 -4 -22q0 -9 3 -13q5 5 14 10.5t17 7.5zM308 902q3 0 10.5 9t7.5 13q0 8 -10 8q-5 0 -11.5 -8.5t-6.5 -13.5q0 -8 10 -8z" />
<glyph unicode="&#xc2;" horiz-adv-x="437" d="M409 60q0 -30 -13 -48.5t-51 -18.5q-21 0 -33.5 10t-19 26t-8.5 36.5t-2 41.5v67q0 54 -14 87.5t-55 33.5q-22 0 -34.5 -12t-18.5 -30.5t-7.5 -41t-1.5 -43.5q0 -5 0.5 -12t0.5 -15v-32q0 -20 -2.5 -40.5t-9.5 -37.5t-19.5 -27.5t-33.5 -10.5q-22 0 -40 16t-18 47v506 q0 48 19.5 80.5t49.5 52.5t66 29t69 9q23 0 27.5 -12.5t4.5 -26.5v-5q29 -11 50.5 -30t38.5 -44q17 17 26 17q13 -5 21 -15.5t8 -21.5v-535zM264 447q16 33 16 79q0 23 -2.5 41t-10.5 31t-24 19.5t-43 6.5q-15 -5 -23.5 -15.5t-12.5 -25t-4.5 -32.5t-0.5 -39q0 -27 5 -52 l-7.5 -5t-10 -7t-10 -7.5t-5.5 -5.5q1 -8 8.5 -16t17.5 -15t21 -11.5t19 -4.5q0 26 8 34zM143 509q0 8 -10 8q-5 0 -8.5 -5t-3.5 -16v-31q0 -8 10 -8t11 6.5t1 11.5v34zM257 395q7 3 7 10q0 12 -9 12q-5 0 -12.5 -2t-14 -4.5t-11 -6t-4.5 -6.5q0 -10 10 -10q13 0 34 7z M388 573q0 1 -1 6t-3 11t-5 10.5t-8 4.5q-11 0 -11 -8q0 -4 1 -6l7 -18q0 -11 10 -11t10 11zM239 697q10 0 10 10t-10 10h-24q-10 0 -10 -10t10 -10h24zM231 942q5 5 13.5 11t16.5 8q1 -1 3 -3.5t11 -15t26.5 -38.5t50.5 -74q8 -11 8 -25q0 -17 -10.5 -32.5t-32.5 -15.5 q-15 0 -27.5 6t-23.5 21l-49 70l-49 -70q-11 -15 -23 -21t-28 -6q-22 0 -32.5 15.5t-10.5 32.5q0 14 8 25l86 127q10 15 24 19.5t23 4.5q6 0 10 -1t7 -3q-4 -11 -4 -22q0 -9 3 -13zM295 859q10 0 10 8q0 2 -6.5 14t-15 25.5t-17 24t-12.5 10.5q-10 0 -10 -8q0 -2 7.5 -13.5 t16.5 -25t17 -24.5t10 -11z" />
<glyph unicode="&#xc3;" horiz-adv-x="437" d="M409 60q0 -30 -13 -48.5t-51 -18.5q-21 0 -33.5 10t-19 26t-8.5 36.5t-2 41.5v67q0 54 -14 87.5t-55 33.5q-22 0 -34.5 -12t-18.5 -30.5t-7.5 -41t-1.5 -43.5q0 -5 0.5 -12t0.5 -15v-32q0 -20 -2.5 -40.5t-9.5 -37.5t-19.5 -27.5t-33.5 -10.5q-22 0 -40 16t-18 47v506 q0 48 19.5 80.5t49.5 52.5t66 29t69 9q23 0 27.5 -12.5t4.5 -26.5v-5q29 -11 50.5 -30t38.5 -44q17 17 26 17q13 -5 21 -15.5t8 -21.5v-535zM264 447q16 33 16 79q0 23 -2.5 41t-10.5 31t-24 19.5t-43 6.5q-15 -5 -23.5 -15.5t-12.5 -25t-4.5 -32.5t-0.5 -39q0 -27 5 -52 l-7.5 -5t-10 -7t-10 -7.5t-5.5 -5.5q1 -8 8.5 -16t17.5 -15t21 -11.5t19 -4.5q0 26 8 34zM143 509q0 8 -10 8q-5 0 -8.5 -5t-3.5 -16v-31q0 -8 10 -8t11 6.5t1 11.5v34zM257 395q7 3 7 10q0 12 -9 12q-5 0 -12.5 -2t-14 -4.5t-11 -6t-4.5 -6.5q0 -10 10 -10q13 0 34 7z M388 573q0 1 -1 6t-3 11t-5 10.5t-8 4.5q-11 0 -11 -8q0 -4 1 -6l7 -18q0 -11 10 -11t10 11zM239 697q10 0 10 10t-10 10h-24q-10 0 -10 -10t10 -10h24zM377 892q1 -5 1 -9v-8q0 -20 -15.5 -32.5t-44.5 -12.5h-207q-53 0 -53 55q0 23 14.5 37.5t37.5 14.5h207q28 0 36 -8 q-12 -7 -22.5 -17t-13.5 -19q5 1 10.5 1h11.5h17.5t20.5 -2zM292 896q10 0 10 10q0 9 -19.5 12t-43.5 3q-10 0 -10 -10q0 -5 8.5 -8t19 -4.5t21 -2t14.5 -0.5z" />
<glyph unicode="&#xc4;" horiz-adv-x="437" d="M409 60q0 -30 -13 -48.5t-51 -18.5q-21 0 -33.5 10t-19 26t-8.5 36.5t-2 41.5v67q0 54 -14 87.5t-55 33.5q-22 0 -34.5 -12t-18.5 -30.5t-7.5 -41t-1.5 -43.5q0 -5 0.5 -12t0.5 -15v-32q0 -20 -2.5 -40.5t-9.5 -37.5t-19.5 -27.5t-33.5 -10.5q-22 0 -40 16t-18 47v506 q0 48 19.5 80.5t49.5 52.5t66 29t69 9q23 0 27.5 -12.5t4.5 -26.5v-5q29 -11 50.5 -30t38.5 -44q17 17 26 17q13 -5 21 -15.5t8 -21.5v-535zM264 447q16 33 16 79q0 23 -2.5 41t-10.5 31t-24 19.5t-43 6.5q-15 -5 -23.5 -15.5t-12.5 -25t-4.5 -32.5t-0.5 -39q0 -27 5 -52 l-7.5 -5t-10 -7t-10 -7.5t-5.5 -5.5q1 -8 8.5 -16t17.5 -15t21 -11.5t19 -4.5q0 26 8 34zM143 509q0 8 -10 8q-5 0 -8.5 -5t-3.5 -16v-31q0 -8 10 -8t11 6.5t1 11.5v34zM257 395q7 3 7 10q0 12 -9 12q-5 0 -12.5 -2t-14 -4.5t-11 -6t-4.5 -6.5q0 -10 10 -10q13 0 34 7z M388 573q0 1 -1 6t-3 11t-5 10.5t-8 4.5q-11 0 -11 -8q0 -4 1 -6l7 -18q0 -11 10 -11t10 11zM239 697q10 0 10 10t-10 10h-24q-10 0 -10 -10t10 -10h24zM372 885q0 -30 -19.5 -45t-43.5 -15q-32 0 -48 18.5t-16 46.5q0 26 15 43t43 19q0 -13 4 -25t12 -29q5 9 15.5 17.5 t19.5 11.5q8 -9 13 -18.5t5 -23.5zM350 876q0 23 -16 23q-10 0 -10 -10q0 -3 3.5 -6t3.5 -8q0 -2 -0.5 -4t-0.5 -5q0 -8 10 -8t10 18zM192 885q0 -30 -19.5 -45t-43.5 -15q-32 0 -48 18.5t-16 46.5q0 26 15 43t43 19q0 -13 4 -25t12 -29q5 9 15.5 17.5t19.5 11.5 q8 -9 13 -18.5t5 -23.5zM170 876q0 23 -16 23q-10 0 -10 -10q0 -3 3.5 -6t3.5 -8q0 -2 -0.5 -4t-0.5 -5q0 -8 10 -8t10 18z" />
<glyph unicode="&#xc5;" horiz-adv-x="437" d="M409 60q0 -30 -13 -48.5t-51 -18.5q-21 0 -33.5 10t-19 26t-8.5 36.5t-2 41.5v67q0 54 -14 87.5t-55 33.5q-22 0 -34.5 -12t-18.5 -30.5t-7.5 -41t-1.5 -43.5q0 -5 0.5 -12t0.5 -15v-32q0 -20 -2.5 -40.5t-9.5 -37.5t-19.5 -27.5t-33.5 -10.5q-22 0 -40 16t-18 47v506 q0 48 19.5 80.5t49.5 52.5t66 29t69 9q23 0 27.5 -12.5t4.5 -26.5v-5q29 -11 50.5 -30t38.5 -44q17 17 26 17q13 -5 21 -15.5t8 -21.5v-535zM264 447q16 33 16 79q0 23 -2.5 41t-10.5 31t-24 19.5t-43 6.5q-15 -5 -23.5 -15.5t-12.5 -25t-4.5 -32.5t-0.5 -39q0 -27 5 -52 l-7.5 -5t-10 -7t-10 -7.5t-5.5 -5.5q1 -8 8.5 -16t17.5 -15t21 -11.5t19 -4.5q0 26 8 34zM143 509q0 8 -10 8q-5 0 -8.5 -5t-3.5 -16v-31q0 -8 10 -8t11 6.5t1 11.5v34zM257 395q7 3 7 10q0 12 -9 12q-5 0 -12.5 -2t-14 -4.5t-11 -6t-4.5 -6.5q0 -10 10 -10q13 0 34 7z M388 573q0 1 -1 6t-3 11t-5 10.5t-8 4.5q-11 0 -11 -8q0 -4 1 -6l7 -18q0 -11 10 -11t10 11zM239 697q10 0 10 10t-10 10h-24q-10 0 -10 -10t10 -10h24zM330 864q0 -22 -8 -42t-22.5 -35t-35.5 -24t-47 -9q-18 0 -37.5 6.5t-35.5 20t-26.5 34.5t-10.5 49t9.5 50.5t24.5 37.5 t35 23t41 8q14 0 22.5 -3.5t13.5 -8.5q0 -2 -4.5 -4t-9.5 -7q23 -8 56 -42q11 8 17 8q8 -9 13 -22.5t5 -39.5zM248 832l3.5 21t1.5 15q0 7 -1.5 15.5t-5 16t-8.5 12.5t-12 5q-17 0 -27 -6t-13 -34l-2 -49q-1 -11 -9 -13q3 -8 7.5 -11.5t10.5 -5.5q3 4 10 8t16 8t17 8.5 t12 9.5zM223 962q6 0 6 5t-7 6t-12 1t-12 -2t-7 -7q0 -6 7 -6q3 0 5 2t7 2q6 0 7.5 -0.5t5.5 -0.5zM178 855q0 5 -6 5t-6 -5v-22q0 -6 6 -6t6 6v22zM321 889q0 1 -1.5 5t-4 8.5t-5 8t-5.5 3.5q-5 0 -5 -5q1 -8 4 -14q2 -5 5 -9t7 -4q6 0 6 4v1zM240 803q3 3 3 5q0 7 -6 7 q-2 0 -4.5 -2.5t-6.5 -4.5q-6 -2 -11 -3t-5 -4q0 -6 5 -6t11 1.5t14 6.5z" />
<glyph unicode="&#xc6;" horiz-adv-x="663" d="M648 682q-4 -15 -10 -24.5t-16 -15.5t-25.5 -8.5t-38.5 -2.5h-33q-34 0 -55.5 -5.5t-34 -17.5t-17.5 -30.5t-5 -43.5l-4 -78v-40q11 -13 25.5 -23t24.5 -10q24 0 29 5q0 5 -8 14t-8 12q3 1 5.5 1.5t6.5 0.5q16 0 39 -12q-7 -3 -13 -7.5t-6 -15.5q54 0 63 27 q14 -14 14 -39q-9 -19 -36.5 -30t-57 -25t-52.5 -36.5t-23 -65.5q0 -7 0.5 -13.5t0.5 -15.5q0 -8 -1 -19.5t-3 -26.5v-53q17 -13 45 -14q9 6 9 23q23 5 46.5 8t48.5 3q20 0 25.5 -8t5.5 -36h59q0 -23 -10.5 -36.5t-34 -20t-61.5 -8.5t-92 -2q-22 0 -40 1.5t-34 3.5 q-15 -5 -31 -5q-21 0 -33.5 10t-19 26t-8.5 36.5t-2 41.5v67q0 54 -14 87.5t-55 33.5q-22 0 -34.5 -12t-18.5 -30.5t-7.5 -41t-1.5 -43.5q0 -5 0.5 -12t0.5 -15v-32q0 -20 -2.5 -40.5t-9.5 -37.5t-19.5 -27.5t-33.5 -10.5q-22 0 -40 16t-18 47v506q0 48 19.5 80.5t49.5 52.5 t66 29t69 9q23 0 27.5 -12.5t4.5 -26.5v-5q7 -3 13.5 -6t13.5 -7q10 22 33.5 33.5t57 17t74.5 6.5t85 1q16 0 29.5 -2.5t18.5 -11.5q-7 -2 -12 -7t-5 -13q0 -11 11 -11q22 0 40 2t24 6v-15zM264 447q16 33 16 79q0 23 -2.5 41t-10.5 31t-24 19.5t-43 6.5q-15 -5 -23.5 -15.5 t-12.5 -25t-4.5 -32.5t-0.5 -39q0 -27 5 -52l-7.5 -5t-10 -7t-10 -7.5t-5.5 -5.5q1 -8 8.5 -16t17.5 -15t21 -11.5t19 -4.5q0 26 8 34zM143 509q0 8 -10 8q-5 0 -8.5 -5t-3.5 -16v-31q0 -8 10 -8t11 6.5t1 11.5v34zM257 395q7 3 7 10q0 12 -9 12q-5 0 -12.5 -2t-14 -4.5 t-11 -6t-4.5 -6.5q0 -10 10 -10q13 0 34 7zM627 674q0 10 -10 10q-3 0 -7.5 -4t-8.5 -9t-7 -9.5t-3 -5.5q0 -10 10 -10q12 0 19 12.5t7 15.5zM509 68q10 0 10 11q0 10 -10 10h-24q-10 0 -10 -10q0 -11 10 -11h24zM239 697q10 0 10 10t-10 10h-24q-10 0 -10 -10t10 -10h24z M523 721q-10 0 -10 -10q0 -9 10 -10l25 -2q9 0 9 10q0 8 -9 10zM402 510q0 10 -10 10q-11 0 -11 -10v-39q0 -10 11 -10q10 0 10 10v39zM394 181q0 9 -10 9q-9 0 -11 -9.5t-2 -24.5q0 -19 10 -19q6 0 9.5 5.5t3.5 11.5v27z" />
<glyph unicode="&#xc7;" horiz-adv-x="392" d="M382 656q-10 -17 -35.5 -22t-53.5 -5q-27 0 -44.5 -2t-30.5 -4q-21 -4 -39 -23.5t-18 -51.5v-334q0 -55 8 -63q-8 -13 -13 -21.5t-7.5 -14t-3.5 -8.5t-1 -6q30 -27 66.5 -38t63.5 -11q13 0 20.5 5.5t13 12.5t10.5 12.5t14 5.5q11 0 18.5 -8t7.5 -21q0 -29 -37.5 -47.5 t-94.5 -18.5q-47 0 -84 15.5t-62.5 42t-39.5 61.5t-14 74v353q0 43 17 79t48.5 61.5t77 39.5t101.5 14q25 0 49 -3q3 -4 5 -18.5t11 -24.5q8 0 18.5 4t28.5 12v-47zM212 91q7 -2 19.5 -3.5l25 -3t22 -4t9.5 -6.5q0 -7 -8 -7q-6 0 -18.5 1t-25 3t-22 5.5t-9.5 8.5q0 6 7 6z M295 697q11 0 11 10t-11 10h-30q-11 0 -11 -10t11 -10h30zM154 149q-4 12 -4 20.5t-11 8.5q-10 0 -10 -11q0 -32 15 -32q11 0 11 8q0 4 -1 6zM259 -43q11 -6 15.5 -19.5t4.5 -22.5q0 -30 -8.5 -54.5t-20.5 -41.5t-26 -26.5t-24 -9.5q-12 0 -16.5 5.5t-4.5 14.5q0 8 3 15 t3 15q0 10 -7 18q-15 19 -20.5 33t-5.5 34t13 41.5t44 23.5q0 -2 -0.5 -4.5t-0.5 -4.5q0 -23 17 -46q3 11 13.5 20t20.5 9zM249 -123q10 0 11.5 13.5t1.5 21.5q0 10 -10 10q-8 0 -11 -10.5t-3 -27.5q0 -7 11 -7z" />
<glyph unicode="&#xc8;" horiz-adv-x="397" d="M390 682q-4 -15 -10 -24.5t-16 -15.5t-25.5 -8.5t-38.5 -2.5h-33q-34 0 -55.5 -5.5t-34 -17.5t-17.5 -30.5t-5 -43.5q0 -10 3 -26.5t3 -22.5q0 -25 -24 -41q1 -9 8 -19.5t17 -19.5t20.5 -15.5t18.5 -6.5q24 0 29 5q0 5 -8 14t-8 12q3 1 5.5 1.5t6.5 0.5q16 0 39 -12 q-7 -3 -13 -7.5t-6 -15.5q54 0 63 27q14 -14 14 -39q-9 -19 -36.5 -30t-57 -25t-52.5 -36.5t-23 -65.5q0 -25 9 -52q0 -14 -34 -45q14 -41 67 -45q9 6 9 23q23 5 46.5 8t48.5 3q20 0 25.5 -8t5.5 -36h59q0 -23 -10.5 -36.5t-34 -20t-61.5 -8.5t-92 -2q-164 0 -164 73v577 q0 37 23.5 56t63 26.5t90.5 7.5h106q14 0 21 -13q-7 -2 -12 -7t-5 -13q0 -11 11 -11q22 0 40 2t24 6v-15zM144 510q0 10 -10 10q-11 0 -11 -10v-39q0 -10 11 -10q10 0 10 10v39zM136 181q0 9 -10 9q-9 0 -11 -9.5t-2 -24.5q0 -19 10 -19q6 0 9.5 5.5t3.5 11.5v27zM369 674 q0 10 -10 10q-3 0 -7.5 -4t-8.5 -9t-7 -9.5t-3 -5.5q0 -10 10 -10q12 0 19 12.5t7 15.5zM251 68q10 0 10 11q0 10 -10 10h-24q-10 0 -10 -10q0 -11 10 -11h24zM265 721q-10 0 -10 -10q0 -9 10 -10l25 -2q9 0 9 10q0 8 -9 10zM81 915q-9 13 -9 26q0 17 14 29.5t38 12.5 q-5 -9 -5 -22q0 -5 2 -15q4 12 14.5 20.5t17.5 9.5q10 -4 18 -17l86 -127q8 -11 8 -25q0 -17 -10.5 -32.5t-32.5 -15.5q-15 0 -27.5 6t-23.5 21zM200 861q10 0 10 8q0 2 -6.5 14t-15 25.5t-17 24t-12.5 10.5q-10 0 -10 -8q0 -2 7.5 -13.5t16.5 -25t17 -24.5t10 -11z" />
<glyph unicode="&#xc9;" horiz-adv-x="397" d="M390 682q-4 -15 -10 -24.5t-16 -15.5t-25.5 -8.5t-38.5 -2.5h-33q-34 0 -55.5 -5.5t-34 -17.5t-17.5 -30.5t-5 -43.5q0 -10 3 -26.5t3 -22.5q0 -25 -24 -41q1 -9 8 -19.5t17 -19.5t20.5 -15.5t18.5 -6.5q24 0 29 5q0 5 -8 14t-8 12q3 1 5.5 1.5t6.5 0.5q16 0 39 -12 q-7 -3 -13 -7.5t-6 -15.5q54 0 63 27q14 -14 14 -39q-9 -19 -36.5 -30t-57 -25t-52.5 -36.5t-23 -65.5q0 -25 9 -52q0 -14 -34 -45q14 -41 67 -45q9 6 9 23q23 5 46.5 8t48.5 3q20 0 25.5 -8t5.5 -36h59q0 -23 -10.5 -36.5t-34 -20t-61.5 -8.5t-92 -2q-164 0 -164 73v577 q0 37 23.5 56t63 26.5t90.5 7.5h106q14 0 21 -13q-7 -2 -12 -7t-5 -13q0 -11 11 -11q22 0 40 2t24 6v-15zM144 510q0 10 -10 10q-11 0 -11 -10v-39q0 -10 11 -10q10 0 10 10v39zM136 181q0 9 -10 9q-9 0 -11 -9.5t-2 -24.5q0 -19 10 -19q6 0 9.5 5.5t3.5 11.5v27zM369 674 q0 10 -10 10q-3 0 -7.5 -4t-8.5 -9t-7 -9.5t-3 -5.5q0 -10 10 -10q12 0 19 12.5t7 15.5zM251 68q10 0 10 11q0 10 -10 10h-24q-10 0 -10 -10q0 -11 10 -11h24zM265 721q-10 0 -10 -10q0 -9 10 -10l25 -2q9 0 9 10q0 8 -9 10zM319 962q7 -9 7 -19q0 -5 -1.5 -11t-9.5 -17 l-90 -129q-11 -15 -23 -21t-28 -6q-22 0 -32.5 15.5t-10.5 32.5q0 14 8 25l86 127q10 15 24 19.5t23 4.5q5 0 8.5 -1t8.5 -3q-4 -11 -4 -22q0 -9 3 -13q5 5 14 10.5t17 7.5zM288 902q3 0 10.5 9t7.5 13q0 8 -10 8q-5 0 -11.5 -8.5t-6.5 -13.5q0 -8 10 -8z" />
<glyph unicode="&#xca;" horiz-adv-x="397" d="M390 682q-4 -15 -10 -24.5t-16 -15.5t-25.5 -8.5t-38.5 -2.5h-33q-34 0 -55.5 -5.5t-34 -17.5t-17.5 -30.5t-5 -43.5q0 -10 3 -26.5t3 -22.5q0 -25 -24 -41q1 -9 8 -19.5t17 -19.5t20.5 -15.5t18.5 -6.5q24 0 29 5q0 5 -8 14t-8 12q3 1 5.5 1.5t6.5 0.5q16 0 39 -12 q-7 -3 -13 -7.5t-6 -15.5q54 0 63 27q14 -14 14 -39q-9 -19 -36.5 -30t-57 -25t-52.5 -36.5t-23 -65.5q0 -25 9 -52q0 -14 -34 -45q14 -41 67 -45q9 6 9 23q23 5 46.5 8t48.5 3q20 0 25.5 -8t5.5 -36h59q0 -23 -10.5 -36.5t-34 -20t-61.5 -8.5t-92 -2q-164 0 -164 73v577 q0 37 23.5 56t63 26.5t90.5 7.5h106q14 0 21 -13q-7 -2 -12 -7t-5 -13q0 -11 11 -11q22 0 40 2t24 6v-15zM144 510q0 10 -10 10q-11 0 -11 -10v-39q0 -10 11 -10q10 0 10 10v39zM136 181q0 9 -10 9q-9 0 -11 -9.5t-2 -24.5q0 -19 10 -19q6 0 9.5 5.5t3.5 11.5v27zM369 674 q0 10 -10 10q-3 0 -7.5 -4t-8.5 -9t-7 -9.5t-3 -5.5q0 -10 10 -10q12 0 19 12.5t7 15.5zM251 68q10 0 10 11q0 10 -10 10h-24q-10 0 -10 -10q0 -11 10 -11h24zM265 721q-10 0 -10 -10q0 -9 10 -10l25 -2q9 0 9 10q0 8 -9 10zM211 942q5 5 13.5 11t16.5 8q1 -1 3 -3.5t11 -15 t26.5 -38.5t50.5 -74q8 -11 8 -25q0 -17 -10.5 -32.5t-32.5 -15.5q-15 0 -27.5 6t-23.5 21l-49 70l-49 -70q-11 -15 -23 -21t-28 -6q-22 0 -32.5 15.5t-10.5 32.5q0 14 8 25l86 127q10 15 24 19.5t23 4.5q6 0 10 -1t7 -3q-4 -11 -4 -22q0 -9 3 -13zM275 859q10 0 10 8 q0 2 -6.5 14t-15 25.5t-17 24t-12.5 10.5q-10 0 -10 -8q0 -2 7.5 -13.5t16.5 -25t17 -24.5t10 -11z" />
<glyph unicode="&#xcb;" horiz-adv-x="397" d="M390 682q-4 -15 -10 -24.5t-16 -15.5t-25.5 -8.5t-38.5 -2.5h-33q-34 0 -55.5 -5.5t-34 -17.5t-17.5 -30.5t-5 -43.5q0 -10 3 -26.5t3 -22.5q0 -25 -24 -41q1 -9 8 -19.5t17 -19.5t20.5 -15.5t18.5 -6.5q24 0 29 5q0 5 -8 14t-8 12q3 1 5.5 1.5t6.5 0.5q16 0 39 -12 q-7 -3 -13 -7.5t-6 -15.5q54 0 63 27q14 -14 14 -39q-9 -19 -36.5 -30t-57 -25t-52.5 -36.5t-23 -65.5q0 -25 9 -52q0 -14 -34 -45q14 -41 67 -45q9 6 9 23q23 5 46.5 8t48.5 3q20 0 25.5 -8t5.5 -36h59q0 -23 -10.5 -36.5t-34 -20t-61.5 -8.5t-92 -2q-164 0 -164 73v577 q0 37 23.5 56t63 26.5t90.5 7.5h106q14 0 21 -13q-7 -2 -12 -7t-5 -13q0 -11 11 -11q22 0 40 2t24 6v-15zM144 510q0 10 -10 10q-11 0 -11 -10v-39q0 -10 11 -10q10 0 10 10v39zM136 181q0 9 -10 9q-9 0 -11 -9.5t-2 -24.5q0 -19 10 -19q6 0 9.5 5.5t3.5 11.5v27zM369 674 q0 10 -10 10q-3 0 -7.5 -4t-8.5 -9t-7 -9.5t-3 -5.5q0 -10 10 -10q12 0 19 12.5t7 15.5zM251 68q10 0 10 11q0 10 -10 10h-24q-10 0 -10 -10q0 -11 10 -11h24zM265 721q-10 0 -10 -10q0 -9 10 -10l25 -2q9 0 9 10q0 8 -9 10zM352 885q0 -30 -19.5 -45t-43.5 -15 q-32 0 -48 18.5t-16 46.5q0 26 15 43t43 19q0 -13 4 -25t12 -29q5 9 15.5 17.5t19.5 11.5q8 -9 13 -18.5t5 -23.5zM330 876q0 23 -16 23q-10 0 -10 -10q0 -3 3.5 -6t3.5 -8q0 -2 -0.5 -4t-0.5 -5q0 -8 10 -8t10 18zM172 885q0 -30 -19.5 -45t-43.5 -15q-32 0 -48 18.5 t-16 46.5q0 26 15 43t43 19q0 -13 4 -25t12 -29q5 9 15.5 17.5t19.5 11.5q8 -9 13 -18.5t5 -23.5zM150 876q0 23 -16 23q-10 0 -10 -10q0 -3 3.5 -6t3.5 -8q0 -2 -0.5 -4t-0.5 -5q0 -8 10 -8t10 18z" />
<glyph unicode="&#xcc;" horiz-adv-x="178" d="M152 54q0 -29 -19.5 -45t-42.5 -16q-34 0 -49 19t-15 42v603q0 40 17.5 58t57.5 18v-8q0 -22 -7 -37q3 -4 4.5 -9t6.5 -8q11 3 19 13.5t19 10.5q9 0 9 -12v-629zM138 626q7 0 8 9q0 4 -0.5 10.5t-2.5 13t-5 11.5t-9 5q-11 0 -11 -9q0 -3 1 -5q14 -35 19 -35zM81 692 q8 2 8 10q0 10 -8 10q-7 0 -15 -4l-4 -3q-9 -3 -9 -13q0 -8 8 -8q4 0 6 1l8 5zM-27 915q-9 13 -9 26q0 17 14 29.5t38 12.5q-5 -9 -5 -22q0 -5 2 -15q4 12 14.5 20.5t17.5 9.5q10 -4 18 -17l86 -127q8 -11 8 -25q0 -17 -10.5 -32.5t-32.5 -15.5q-15 0 -27.5 6t-23.5 21z M92 861q10 0 10 8q0 2 -6.5 14t-15 25.5t-17 24t-12.5 10.5q-10 0 -10 -8q0 -2 7.5 -13.5t16.5 -25t17 -24.5t10 -11z" />
<glyph unicode="&#xcd;" horiz-adv-x="178" d="M152 54q0 -29 -19.5 -45t-42.5 -16q-34 0 -49 19t-15 42v603q0 40 17.5 58t57.5 18v-8q0 -22 -7 -37q3 -4 4.5 -9t6.5 -8q11 3 19 13.5t19 10.5q9 0 9 -12v-629zM138 626q7 0 8 9q0 4 -0.5 10.5t-2.5 13t-5 11.5t-9 5q-11 0 -11 -9q0 -3 1 -5q14 -35 19 -35zM81 692 q8 2 8 10q0 10 -8 10q-7 0 -15 -4l-4 -3q-9 -3 -9 -13q0 -8 8 -8q4 0 6 1l8 5zM211 962q7 -9 7 -19q0 -5 -1.5 -11t-9.5 -17l-90 -129q-11 -15 -23 -21t-28 -6q-22 0 -32.5 15.5t-10.5 32.5q0 14 8 25l86 127q10 15 24 19.5t23 4.5q5 0 8.5 -1t8.5 -3q-4 -11 -4 -22 q0 -9 3 -13q5 5 14 10.5t17 7.5zM180 902q3 0 10.5 9t7.5 13q0 8 -10 8q-5 0 -11.5 -8.5t-6.5 -13.5q0 -8 10 -8z" />
<glyph unicode="&#xce;" horiz-adv-x="178" d="M152 54q0 -29 -19.5 -45t-42.5 -16q-34 0 -49 19t-15 42v603q0 40 17.5 58t57.5 18v-8q0 -22 -7 -37q3 -4 4.5 -9t6.5 -8q11 3 19 13.5t19 10.5q9 0 9 -12v-629zM138 626q7 0 8 9q0 4 -0.5 10.5t-2.5 13t-5 11.5t-9 5q-11 0 -11 -9q0 -3 1 -5q14 -35 19 -35zM81 692 q8 2 8 10q0 10 -8 10q-7 0 -15 -4l-4 -3q-9 -3 -9 -13q0 -8 8 -8q4 0 6 1l8 5zM103 942q5 5 13.5 11t16.5 8q1 -1 3 -3.5t11 -15t26.5 -38.5t50.5 -74q8 -11 8 -25q0 -17 -10.5 -32.5t-32.5 -15.5q-15 0 -27.5 6t-23.5 21l-49 70l-49 -70q-11 -15 -23 -21t-28 -6 q-22 0 -32.5 15.5t-10.5 32.5q0 14 8 25l86 127q10 15 24 19.5t23 4.5q6 0 10 -1t7 -3q-4 -11 -4 -22q0 -9 3 -13zM167 859q10 0 10 8q0 2 -6.5 14t-15 25.5t-17 24t-12.5 10.5q-10 0 -10 -8q0 -2 7.5 -13.5t16.5 -25t17 -24.5t10 -11z" />
<glyph unicode="&#xcf;" horiz-adv-x="178" d="M152 54q0 -29 -19.5 -45t-42.5 -16q-34 0 -49 19t-15 42v603q0 40 17.5 58t57.5 18v-8q0 -22 -7 -37q3 -4 4.5 -9t6.5 -8q11 3 19 13.5t19 10.5q9 0 9 -12v-629zM138 626q7 0 8 9q0 4 -0.5 10.5t-2.5 13t-5 11.5t-9 5q-11 0 -11 -9q0 -3 1 -5q14 -35 19 -35zM81 692 q8 2 8 10q0 10 -8 10q-7 0 -15 -4l-4 -3q-9 -3 -9 -13q0 -8 8 -8q4 0 6 1l8 5zM244 885q0 -30 -19.5 -45t-43.5 -15q-32 0 -48 18.5t-16 46.5q0 26 15 43t43 19q0 -13 4 -25t12 -29q5 9 15.5 17.5t19.5 11.5q8 -9 13 -18.5t5 -23.5zM222 876q0 23 -16 23q-10 0 -10 -10 q0 -3 3.5 -6t3.5 -8q0 -2 -0.5 -4t-0.5 -5q0 -8 10 -8t10 18zM64 885q0 -30 -19.5 -45t-43.5 -15q-32 0 -48 18.5t-16 46.5q0 26 15 43t43 19q0 -13 4 -25t12 -29q5 9 15.5 17.5t19.5 11.5q8 -9 13 -18.5t5 -23.5zM42 876q0 23 -16 23q-10 0 -10 -10q0 -3 3.5 -6t3.5 -8 q0 -2 -0.5 -4t-0.5 -5q0 -8 10 -8t10 18z" />
<glyph unicode="&#xd0;" horiz-adv-x="454" d="M426 158q0 -40 -17.5 -70.5t-50.5 -51.5t-79 -32t-103 -11q-23 0 -46 4t-41.5 14.5t-30 28t-11.5 45.5v180q0 24 -6.5 37.5t-14 23t-14 18.5t-6.5 23t6.5 22.5t14 18t14 22.5t6.5 36v203q0 64 114 64q83 0 121 -18q0 -4 -16 -19q32 -19 61 -44t45 -46q17 17 26 17 q11 -9 19.5 -26.5t8.5 -57.5v-381zM287 374q1 -5 1 -9v-8q0 -20 -15.5 -32.5t-44.5 -12.5h-54v-131q2 -18 5 -27.5t3 -10.5q-25 -25 -25 -36q26 -26 45 -26q1 0 3.5 4.5t6.5 10.5t10 12t13 9q17 8 29 13t20 11.5t12 16t5 25.5v347q0 16 -3 31t-9.5 26.5t-18 18.5t-28.5 7 q-42 0 -55 -22.5t-13 -57.5v-114h53q28 0 36 -8q-12 -7 -22.5 -17t-13.5 -19q5 1 10.5 1h11.5h17.5t20.5 -2zM414 547q0 4 -1.5 12.5t-4.5 16.5t-7 14t-9 6q-10 0 -10 -11q0 -3 2.5 -11t6 -16t7 -14t6.5 -6q10 0 10 9zM352 674q4 -3 4 -8q0 -10 -10 -10q-5 0 -10.5 4 t-10.5 9.5t-8 10l-3 4.5q0 11 10 11q2 0 28 -21zM245 716q-18 3 -22 3q-11 0 -11 -11q0 -7 5.5 -9.5t27.5 -2.5q10 0 10 10q0 9 -10 10zM162 164q0 10 -10 10t-10 -10v-22q0 -10 10 -10t10 10v22zM255 93q0 10 -11 10q-25 0 -25 -15q0 -10 10 -10q26 0 26 15zM202 378 q10 0 10 10q0 9 -9.5 12t-33.5 3q-10 0 -10 -10q0 -5 5 -8t12 -4.5t14.5 -2t11.5 -0.5z" />
<glyph unicode="&#xd1;" horiz-adv-x="434" d="M412 87q0 -24 -1.5 -41.5t-7.5 -29t-18.5 -17.5t-34.5 -6q-19 0 -39 15t-31 46l-59 162q-13 35 -24 47.5t-26 12.5q-11 0 -16.5 -10t-7.5 -35t-2.5 -68.5t-0.5 -110.5q0 -32 -18 -45.5t-38 -13.5q-24 0 -37 8.5t-19 21t-7 26.5t-1 24v588q0 38 23.5 55t62.5 17q6 0 6 -6 q0 -22 -8 -38q9 -13 37 -31l2.5 4t6 8.5t6.5 8.5t5 4q26 -54 26 -74l-6 2q-2 1 -5 2t-6 1t-7 -4q0 -9 12.5 -28.5t29.5 -39t33.5 -34.5t24.5 -15q0 9 -1 36t-1 57q0 14 1.5 39t10 49t25.5 41.5t49 17.5q0 -49 7 -66l24 25q13 -10 20 -10q2 -76 5 -169q2 -80 3.5 -188.5 t1.5 -237.5zM396 605q0 3 -1.5 14t-4 23t-7 21t-10.5 9q-2 0 -4.5 -3.5t-2.5 -9.5q0 -3 0.5 -13.5t3 -22t6.5 -20t10 -8.5q10 0 10 10zM341 700q0 10 -9 10q-11 0 -23 -8t-12 -21q0 -4 3 -4q1 0 7.5 1.5t14 4.5t13.5 7t6 10zM85 690q9 1 9 10q0 10 -9 10q-5 0 -11.5 -2.5 t-12.5 -6.5t-10.5 -9.5t-4.5 -10.5q0 -3 4 -3q3 0 8 2t11 4t10.5 4t5.5 2zM376 892q1 -5 1 -9v-8q0 -20 -15.5 -32.5t-44.5 -12.5h-207q-53 0 -53 55q0 23 14.5 37.5t37.5 14.5h207q28 0 36 -8q-12 -7 -22.5 -17t-13.5 -19q5 1 10.5 1h11.5h17.5t20.5 -2zM291 896 q10 0 10 10q0 9 -19.5 12t-43.5 3q-10 0 -10 -10q0 -5 8.5 -8t19 -4.5t21 -2t14.5 -0.5z" />
<glyph unicode="&#xd2;" d="M403 153q0 -43 -19 -73t-48 -49.5t-62.5 -28.5t-61.5 -9q-30 0 -63 7.5t-61 25t-46.5 47t-18.5 74.5v433q0 25 12.5 52t37 49.5t61 37t84.5 14.5q12 0 22 -5l20 -19q0 -4 -4.5 -12t-4.5 -12q59 -16 98 -82q16 16 26 16q11 -8 19.5 -25t8.5 -47v-394zM277 531 q-1 15 -5 29.5t-11.5 26t-19.5 19t-30 7.5t-29.5 -8t-19 -21t-10.5 -29.5t-3 -32.5q0 -86 1.5 -154.5t3 -117.5t3 -77t1.5 -32l-15 -16q-3 -2 -3 -5q0 -17 22 -36q18 9 44.5 24.5t61.5 37.5q3 7 4.5 17t3 35.5t2 71t0.5 122.5v66.5t-1 72.5zM391 491q0 6 0.5 12t0.5 11 q0 14 -2 29t-5.5 27t-9 20t-12.5 8q-10 0 -10 -10q0 -8 3 -14.5t8.5 -16.5t12 -26t13.5 -41q0 -1 0.5 -0.5t0.5 1.5zM144 157q-1 2 -2 13.5t-2 24t-2 23t-2 10.5q-7 -3 -11 -15t-4 -38q0 -33 14 -33q11 0 11 7q0 2 -2 8zM231 707q-19 8 -30 8q-17 0 -33 -6.5t-16 -13.5h5 q2 0 5.5 0.5t8.5 0.5q15 0 28.5 -5t30.5 -5q9 0 9 10q0 8 -8 11zM203 84q0 -8 8 -8q26 0 39 13t13 19q0 10 -10 10q-6 0 -19 -12q-14 -12 -22.5 -14t-8.5 -8zM94 915q-9 13 -9 26q0 17 14 29.5t38 12.5q-5 -9 -5 -22q0 -5 2 -15q4 12 14.5 20.5t17.5 9.5q10 -4 18 -17 l86 -127q8 -11 8 -25q0 -17 -10.5 -32.5t-32.5 -15.5q-15 0 -27.5 6t-23.5 21zM213 861q10 0 10 8q0 2 -6.5 14t-15 25.5t-17 24t-12.5 10.5q-10 0 -10 -8q0 -2 7.5 -13.5t16.5 -25t17 -24.5t10 -11z" />
<glyph unicode="&#xd3;" d="M403 153q0 -43 -19 -73t-48 -49.5t-62.5 -28.5t-61.5 -9q-30 0 -63 7.5t-61 25t-46.5 47t-18.5 74.5v433q0 25 12.5 52t37 49.5t61 37t84.5 14.5q12 0 22 -5l20 -19q0 -4 -4.5 -12t-4.5 -12q59 -16 98 -82q16 16 26 16q11 -8 19.5 -25t8.5 -47v-394zM277 531 q-1 15 -5 29.5t-11.5 26t-19.5 19t-30 7.5t-29.5 -8t-19 -21t-10.5 -29.5t-3 -32.5q0 -86 1.5 -154.5t3 -117.5t3 -77t1.5 -32l-15 -16q-3 -2 -3 -5q0 -17 22 -36q18 9 44.5 24.5t61.5 37.5q3 7 4.5 17t3 35.5t2 71t0.5 122.5v66.5t-1 72.5zM391 491q0 6 0.5 12t0.5 11 q0 14 -2 29t-5.5 27t-9 20t-12.5 8q-10 0 -10 -10q0 -8 3 -14.5t8.5 -16.5t12 -26t13.5 -41q0 -1 0.5 -0.5t0.5 1.5zM144 157q-1 2 -2 13.5t-2 24t-2 23t-2 10.5q-7 -3 -11 -15t-4 -38q0 -33 14 -33q11 0 11 7q0 2 -2 8zM231 707q-19 8 -30 8q-17 0 -33 -6.5t-16 -13.5h5 q2 0 5.5 0.5t8.5 0.5q15 0 28.5 -5t30.5 -5q9 0 9 10q0 8 -8 11zM203 84q0 -8 8 -8q26 0 39 13t13 19q0 10 -10 10q-6 0 -19 -12q-14 -12 -22.5 -14t-8.5 -8zM332 962q7 -9 7 -19q0 -5 -1.5 -11t-9.5 -17l-90 -129q-11 -15 -23 -21t-28 -6q-22 0 -32.5 15.5t-10.5 32.5 q0 14 8 25l86 127q10 15 24 19.5t23 4.5q5 0 8.5 -1t8.5 -3q-4 -11 -4 -22q0 -9 3 -13q5 5 14 10.5t17 7.5zM301 902q3 0 10.5 9t7.5 13q0 8 -10 8q-5 0 -11.5 -8.5t-6.5 -13.5q0 -8 10 -8z" />
<glyph unicode="&#xd4;" d="M403 153q0 -43 -19 -73t-48 -49.5t-62.5 -28.5t-61.5 -9q-30 0 -63 7.5t-61 25t-46.5 47t-18.5 74.5v433q0 25 12.5 52t37 49.5t61 37t84.5 14.5q12 0 22 -5l20 -19q0 -4 -4.5 -12t-4.5 -12q59 -16 98 -82q16 16 26 16q11 -8 19.5 -25t8.5 -47v-394zM277 531 q-1 15 -5 29.5t-11.5 26t-19.5 19t-30 7.5t-29.5 -8t-19 -21t-10.5 -29.5t-3 -32.5q0 -86 1.5 -154.5t3 -117.5t3 -77t1.5 -32l-15 -16q-3 -2 -3 -5q0 -17 22 -36q18 9 44.5 24.5t61.5 37.5q3 7 4.5 17t3 35.5t2 71t0.5 122.5v66.5t-1 72.5zM391 491q0 6 0.5 12t0.5 11 q0 14 -2 29t-5.5 27t-9 20t-12.5 8q-10 0 -10 -10q0 -8 3 -14.5t8.5 -16.5t12 -26t13.5 -41q0 -1 0.5 -0.5t0.5 1.5zM144 157q-1 2 -2 13.5t-2 24t-2 23t-2 10.5q-7 -3 -11 -15t-4 -38q0 -33 14 -33q11 0 11 7q0 2 -2 8zM231 707q-19 8 -30 8q-17 0 -33 -6.5t-16 -13.5h5 q2 0 5.5 0.5t8.5 0.5q15 0 28.5 -5t30.5 -5q9 0 9 10q0 8 -8 11zM203 84q0 -8 8 -8q26 0 39 13t13 19q0 10 -10 10q-6 0 -19 -12q-14 -12 -22.5 -14t-8.5 -8zM225 942q5 5 13.5 11t16.5 8q1 -1 3 -3.5t11 -15t26.5 -38.5t50.5 -74q8 -11 8 -25q0 -17 -10.5 -32.5 t-32.5 -15.5q-15 0 -27.5 6t-23.5 21l-49 70l-49 -70q-11 -15 -23 -21t-28 -6q-22 0 -32.5 15.5t-10.5 32.5q0 14 8 25l86 127q10 15 24 19.5t23 4.5q6 0 10 -1t7 -3q-4 -11 -4 -22q0 -9 3 -13zM289 859q10 0 10 8q0 2 -6.5 14t-15 25.5t-17 24t-12.5 10.5q-10 0 -10 -8 q0 -2 7.5 -13.5t16.5 -25t17 -24.5t10 -11z" />
<glyph unicode="&#xd5;" d="M403 153q0 -43 -19 -73t-48 -49.5t-62.5 -28.5t-61.5 -9q-30 0 -63 7.5t-61 25t-46.5 47t-18.5 74.5v433q0 25 12.5 52t37 49.5t61 37t84.5 14.5q12 0 22 -5l20 -19q0 -4 -4.5 -12t-4.5 -12q59 -16 98 -82q16 16 26 16q11 -8 19.5 -25t8.5 -47v-394zM277 531 q-1 15 -5 29.5t-11.5 26t-19.5 19t-30 7.5t-29.5 -8t-19 -21t-10.5 -29.5t-3 -32.5q0 -86 1.5 -154.5t3 -117.5t3 -77t1.5 -32l-15 -16q-3 -2 -3 -5q0 -17 22 -36q18 9 44.5 24.5t61.5 37.5q3 7 4.5 17t3 35.5t2 71t0.5 122.5v66.5t-1 72.5zM391 491q0 6 0.5 12t0.5 11 q0 14 -2 29t-5.5 27t-9 20t-12.5 8q-10 0 -10 -10q0 -8 3 -14.5t8.5 -16.5t12 -26t13.5 -41q0 -1 0.5 -0.5t0.5 1.5zM144 157q-1 2 -2 13.5t-2 24t-2 23t-2 10.5q-7 -3 -11 -15t-4 -38q0 -33 14 -33q11 0 11 7q0 2 -2 8zM231 707q-19 8 -30 8q-17 0 -33 -6.5t-16 -13.5h5 q2 0 5.5 0.5t8.5 0.5q15 0 28.5 -5t30.5 -5q9 0 9 10q0 8 -8 11zM203 84q0 -8 8 -8q26 0 39 13t13 19q0 10 -10 10q-6 0 -19 -12q-14 -12 -22.5 -14t-8.5 -8zM371 892q1 -5 1 -9v-8q0 -20 -15.5 -32.5t-44.5 -12.5h-207q-53 0 -53 55q0 23 14.5 37.5t37.5 14.5h207 q28 0 36 -8q-12 -7 -22.5 -17t-13.5 -19q5 1 10.5 1h11.5h17.5t20.5 -2zM286 896q10 0 10 10q0 9 -19.5 12t-43.5 3q-10 0 -10 -10q0 -5 8.5 -8t19 -4.5t21 -2t14.5 -0.5z" />
<glyph unicode="&#xd6;" d="M403 153q0 -43 -19 -73t-48 -49.5t-62.5 -28.5t-61.5 -9q-30 0 -63 7.5t-61 25t-46.5 47t-18.5 74.5v433q0 25 12.5 52t37 49.5t61 37t84.5 14.5q12 0 22 -5l20 -19q0 -4 -4.5 -12t-4.5 -12q59 -16 98 -82q16 16 26 16q11 -8 19.5 -25t8.5 -47v-394zM277 531 q-1 15 -5 29.5t-11.5 26t-19.5 19t-30 7.5t-29.5 -8t-19 -21t-10.5 -29.5t-3 -32.5q0 -86 1.5 -154.5t3 -117.5t3 -77t1.5 -32l-15 -16q-3 -2 -3 -5q0 -17 22 -36q18 9 44.5 24.5t61.5 37.5q3 7 4.5 17t3 35.5t2 71t0.5 122.5v66.5t-1 72.5zM391 491q0 6 0.5 12t0.5 11 q0 14 -2 29t-5.5 27t-9 20t-12.5 8q-10 0 -10 -10q0 -8 3 -14.5t8.5 -16.5t12 -26t13.5 -41q0 -1 0.5 -0.5t0.5 1.5zM144 157q-1 2 -2 13.5t-2 24t-2 23t-2 10.5q-7 -3 -11 -15t-4 -38q0 -33 14 -33q11 0 11 7q0 2 -2 8zM231 707q-19 8 -30 8q-17 0 -33 -6.5t-16 -13.5h5 q2 0 5.5 0.5t8.5 0.5q15 0 28.5 -5t30.5 -5q9 0 9 10q0 8 -8 11zM203 84q0 -8 8 -8q26 0 39 13t13 19q0 10 -10 10q-6 0 -19 -12q-14 -12 -22.5 -14t-8.5 -8zM365 885q0 -30 -19.5 -45t-43.5 -15q-32 0 -48 18.5t-16 46.5q0 26 15 43t43 19q0 -13 4 -25t12 -29 q5 9 15.5 17.5t19.5 11.5q8 -9 13 -18.5t5 -23.5zM343 876q0 23 -16 23q-10 0 -10 -10q0 -3 3.5 -6t3.5 -8q0 -2 -0.5 -4t-0.5 -5q0 -8 10 -8t10 18zM185 885q0 -30 -19.5 -45t-43.5 -15q-32 0 -48 18.5t-16 46.5q0 26 15 43t43 19q0 -13 4 -25t12 -29q5 9 15.5 17.5 t19.5 11.5q8 -9 13 -18.5t5 -23.5zM163 876q0 23 -16 23q-10 0 -10 -10q0 -3 3.5 -6t3.5 -8q0 -2 -0.5 -4t-0.5 -5q0 -8 10 -8t10 18z" />
<glyph unicode="&#xd8;" horiz-adv-x="456" d="M404 491q0 6 0.5 12t0.5 11q0 14 -2 29t-5.5 27t-9 20t-12.5 8q-10 0 -10 -10q0 -8 3 -14.5t8.5 -16.5t12 -26t13.5 -41q0 -1 0.5 -0.5t0.5 1.5zM157 157q-1 2 -2 13.5t-2 24t-2 23t-2 10.5q-7 -3 -11 -15t-4 -38q0 -33 14 -33q11 0 11 7q0 2 -2 8zM244 707q-19 8 -30 8 q-17 0 -33 -6.5t-16 -13.5h5q2 0 5.5 0.5t8.5 0.5q15 0 28.5 -5t30.5 -5q9 0 9 10q0 8 -8 11zM216 84q0 -8 8 -8q26 0 39 13t13 19q0 10 -10 10q-6 0 -19 -12q-14 -12 -22.5 -14t-8.5 -8zM419 633q1 0 4 3.5t6 8t5 9t2 6.5q0 10 -10 10q-4 0 -10.5 -10.5t-6.5 -16.5 q0 -10 10 -10zM449 708q2 -5 4.5 -11t2.5 -13q0 -5 -1.5 -12.5t-9.5 -21.5l-35 -64q6 -17 6 -39v-394q0 -43 -19 -73t-48 -49.5t-62.5 -28.5t-61.5 -9q-29 0 -60.5 6.5t-59.5 22.5l-13 -24q-11 -19 -22 -26t-27 -7q-20 0 -30.5 19t-10.5 40q0 18 7 31l30 57q-3 16 -3 35v433 q0 25 12.5 52t37 49.5t61 37t84.5 14.5q12 0 22 -5l20 -19q0 -4 -4.5 -12t-4.5 -12q37 -11 63 -37l31 56q10 19 23.5 24t21.5 5q5 0 8.5 -1t8.5 -3q-4 -15 -4 -27q0 -11 3 -17q5 7 13.5 14t16.5 9zM162 522v-96t1 -83l120 223q-6 20 -20 33.5t-39 13.5q-18 0 -29.5 -8 t-19 -21t-10.5 -29.5t-3 -32.5zM281 146q2 6 4 16t3 32.5t2 63t1 107.5l-120 -222v-2l-4 -4l-13 -25q3 -13 21 -28q18 9 44.5 24.5t61.5 37.5z" />
<glyph unicode="&#xd9;" horiz-adv-x="430" d="M404 178q0 -53 -18.5 -88t-47 -57t-62 -31t-64.5 -9t-64.5 10t-61 31t-45 53.5t-17.5 77.5v506q0 29 19.5 45.5t54.5 16.5q1 -5 1 -15q0 -17 -7 -30q4 -4 6 -10.5t6 -11.5l25 26q13 -10 21 -10v-500q0 -6 7 -20.5t7 -22.5q0 -20 -30 -29q27 -33 44 -33q27 11 49 26 q19 13 34.5 31t15.5 41v494q0 32 22.5 48t48.5 16q2 0 3 -3t1 -6q0 -23 -8 -36q5 -4 7 -10.5t6 -11.5l25 25q8 5 12 5q10 0 10 -13v-505zM393 593q5 20 5 33q0 11 -4.5 25.5t-12.5 14.5q-10 0 -10 -10q0 -6 3.5 -13.5t3.5 -15.5t-3 -16.5t-3 -16.5t11 -8q9 0 10 7zM138 656 q0 10 -10 10t-10 -10v-48q0 -10 10 -10t10 10v48zM271 91q4 3 4 8q0 8 -9 10q0 -1 -7.5 -3.5t-17 -6t-17 -8t-7.5 -9.5q0 -11 7 -11q13 0 26.5 7t20.5 13zM142 148q-1 3 -0.5 8t-0.5 9t-3 7t-8 3q-10 0 -10 -10q0 -16 4 -29.5t13 -13.5t10 8q-2 -2 -5 18zM77 689q4 3 4 9 q0 10 -10 10q-4 0 -9 -4.5t-9.5 -10.5t-7.5 -12t-3 -9q0 -8 11 -8q8 0 10 9t14 16zM328 688q11 0 11 10t-11 10t-20 -6l-5 -2q-4 -3 -4 -9q0 -10 10 -10q3 0 6 1l3 2q4 4 10 4zM97 915q-9 13 -9 26q0 17 14 29.5t38 12.5q-5 -9 -5 -22q0 -5 2 -15q4 12 14.5 20.5t17.5 9.5 q10 -4 18 -17l86 -127q8 -11 8 -25q0 -17 -10.5 -32.5t-32.5 -15.5q-15 0 -27.5 6t-23.5 21zM216 861q10 0 10 8q0 2 -6.5 14t-15 25.5t-17 24t-12.5 10.5q-10 0 -10 -8q0 -2 7.5 -13.5t16.5 -25t17 -24.5t10 -11z" />
<glyph unicode="&#xda;" horiz-adv-x="430" d="M404 178q0 -53 -18.5 -88t-47 -57t-62 -31t-64.5 -9t-64.5 10t-61 31t-45 53.5t-17.5 77.5v506q0 29 19.5 45.5t54.5 16.5q1 -5 1 -15q0 -17 -7 -30q4 -4 6 -10.5t6 -11.5l25 26q13 -10 21 -10v-500q0 -6 7 -20.5t7 -22.5q0 -20 -30 -29q27 -33 44 -33q27 11 49 26 q19 13 34.5 31t15.5 41v494q0 32 22.5 48t48.5 16q2 0 3 -3t1 -6q0 -23 -8 -36q5 -4 7 -10.5t6 -11.5l25 25q8 5 12 5q10 0 10 -13v-505zM393 593q5 20 5 33q0 11 -4.5 25.5t-12.5 14.5q-10 0 -10 -10q0 -6 3.5 -13.5t3.5 -15.5t-3 -16.5t-3 -16.5t11 -8q9 0 10 7zM138 656 q0 10 -10 10t-10 -10v-48q0 -10 10 -10t10 10v48zM271 91q4 3 4 8q0 8 -9 10q0 -1 -7.5 -3.5t-17 -6t-17 -8t-7.5 -9.5q0 -11 7 -11q13 0 26.5 7t20.5 13zM142 148q-1 3 -0.5 8t-0.5 9t-3 7t-8 3q-10 0 -10 -10q0 -16 4 -29.5t13 -13.5t10 8q-2 -2 -5 18zM77 689q4 3 4 9 q0 10 -10 10q-4 0 -9 -4.5t-9.5 -10.5t-7.5 -12t-3 -9q0 -8 11 -8q8 0 10 9t14 16zM328 688q11 0 11 10t-11 10t-20 -6l-5 -2q-4 -3 -4 -9q0 -10 10 -10q3 0 6 1l3 2q4 4 10 4zM335 962q7 -9 7 -19q0 -5 -1.5 -11t-9.5 -17l-90 -129q-11 -15 -23 -21t-28 -6 q-22 0 -32.5 15.5t-10.5 32.5q0 14 8 25l86 127q10 15 24 19.5t23 4.5q5 0 8.5 -1t8.5 -3q-4 -11 -4 -22q0 -9 3 -13q5 5 14 10.5t17 7.5zM304 902q3 0 10.5 9t7.5 13q0 8 -10 8q-5 0 -11.5 -8.5t-6.5 -13.5q0 -8 10 -8z" />
<glyph unicode="&#xdb;" horiz-adv-x="430" d="M404 178q0 -53 -18.5 -88t-47 -57t-62 -31t-64.5 -9t-64.5 10t-61 31t-45 53.5t-17.5 77.5v506q0 29 19.5 45.5t54.5 16.5q1 -5 1 -15q0 -17 -7 -30q4 -4 6 -10.5t6 -11.5l25 26q13 -10 21 -10v-500q0 -6 7 -20.5t7 -22.5q0 -20 -30 -29q27 -33 44 -33q27 11 49 26 q19 13 34.5 31t15.5 41v494q0 32 22.5 48t48.5 16q2 0 3 -3t1 -6q0 -23 -8 -36q5 -4 7 -10.5t6 -11.5l25 25q8 5 12 5q10 0 10 -13v-505zM393 593q5 20 5 33q0 11 -4.5 25.5t-12.5 14.5q-10 0 -10 -10q0 -6 3.5 -13.5t3.5 -15.5t-3 -16.5t-3 -16.5t11 -8q9 0 10 7zM138 656 q0 10 -10 10t-10 -10v-48q0 -10 10 -10t10 10v48zM271 91q4 3 4 8q0 8 -9 10q0 -1 -7.5 -3.5t-17 -6t-17 -8t-7.5 -9.5q0 -11 7 -11q13 0 26.5 7t20.5 13zM142 148q-1 3 -0.5 8t-0.5 9t-3 7t-8 3q-10 0 -10 -10q0 -16 4 -29.5t13 -13.5t10 8q-2 -2 -5 18zM77 689q4 3 4 9 q0 10 -10 10q-4 0 -9 -4.5t-9.5 -10.5t-7.5 -12t-3 -9q0 -8 11 -8q8 0 10 9t14 16zM328 688q11 0 11 10t-11 10t-20 -6l-5 -2q-4 -3 -4 -9q0 -10 10 -10q3 0 6 1l3 2q4 4 10 4zM228 942q5 5 13.5 11t16.5 8q1 -1 3 -3.5t11 -15t26.5 -38.5t50.5 -74q8 -11 8 -25 q0 -17 -10.5 -32.5t-32.5 -15.5q-15 0 -27.5 6t-23.5 21l-49 70l-49 -70q-11 -15 -23 -21t-28 -6q-22 0 -32.5 15.5t-10.5 32.5q0 14 8 25l86 127q10 15 24 19.5t23 4.5q6 0 10 -1t7 -3q-4 -11 -4 -22q0 -9 3 -13zM292 859q10 0 10 8q0 2 -6.5 14t-15 25.5t-17 24 t-12.5 10.5q-10 0 -10 -8q0 -2 7.5 -13.5t16.5 -25t17 -24.5t10 -11z" />
<glyph unicode="&#xdc;" horiz-adv-x="430" d="M404 178q0 -53 -18.5 -88t-47 -57t-62 -31t-64.5 -9t-64.5 10t-61 31t-45 53.5t-17.5 77.5v506q0 29 19.5 45.5t54.5 16.5q1 -5 1 -15q0 -17 -7 -30q4 -4 6 -10.5t6 -11.5l25 26q13 -10 21 -10v-500q0 -6 7 -20.5t7 -22.5q0 -20 -30 -29q27 -33 44 -33q27 11 49 26 q19 13 34.5 31t15.5 41v494q0 32 22.5 48t48.5 16q2 0 3 -3t1 -6q0 -23 -8 -36q5 -4 7 -10.5t6 -11.5l25 25q8 5 12 5q10 0 10 -13v-505zM393 593q5 20 5 33q0 11 -4.5 25.5t-12.5 14.5q-10 0 -10 -10q0 -6 3.5 -13.5t3.5 -15.5t-3 -16.5t-3 -16.5t11 -8q9 0 10 7zM138 656 q0 10 -10 10t-10 -10v-48q0 -10 10 -10t10 10v48zM271 91q4 3 4 8q0 8 -9 10q0 -1 -7.5 -3.5t-17 -6t-17 -8t-7.5 -9.5q0 -11 7 -11q13 0 26.5 7t20.5 13zM142 148q-1 3 -0.5 8t-0.5 9t-3 7t-8 3q-10 0 -10 -10q0 -16 4 -29.5t13 -13.5t10 8q-2 -2 -5 18zM77 689q4 3 4 9 q0 10 -10 10q-4 0 -9 -4.5t-9.5 -10.5t-7.5 -12t-3 -9q0 -8 11 -8q8 0 10 9t14 16zM328 688q11 0 11 10t-11 10t-20 -6l-5 -2q-4 -3 -4 -9q0 -10 10 -10q3 0 6 1l3 2q4 4 10 4zM368 885q0 -30 -19.5 -45t-43.5 -15q-32 0 -48 18.5t-16 46.5q0 26 15 43t43 19q0 -13 4 -25 t12 -29q5 9 15.5 17.5t19.5 11.5q8 -9 13 -18.5t5 -23.5zM346 876q0 23 -16 23q-10 0 -10 -10q0 -3 3.5 -6t3.5 -8q0 -2 -0.5 -4t-0.5 -5q0 -8 10 -8t10 18zM188 885q0 -30 -19.5 -45t-43.5 -15q-32 0 -48 18.5t-16 46.5q0 26 15 43t43 19q0 -13 4 -25t12 -29q5 9 15.5 17.5 t19.5 11.5q8 -9 13 -18.5t5 -23.5zM166 876q0 23 -16 23q-10 0 -10 -10q0 -3 3.5 -6t3.5 -8q0 -2 -0.5 -4t-0.5 -5q0 -8 10 -8t10 18z" />
<glyph unicode="&#xdd;" d="M395 682q0 -8 2 -94t2 -254q0 -53 -1 -86t-2.5 -54t-4.5 -35.5t-6 -31.5q-6 -29 -23.5 -53.5t-44.5 -42.5t-63 -28t-78 -10q-32 0 -53.5 10t-21.5 36q0 20 12.5 31t31.5 18.5t41.5 14t41.5 17.5t31.5 29.5t12.5 49.5q0 34 -6.5 55.5t-18 35t-27.5 21.5t-36 15t-42.5 15.5 t-47.5 23.5q-30 18 -46 36.5t-23 42.5t-8 56t-1 77q0 25 1.5 52.5t6 50.5t14 38t24.5 15q32 0 32 -12q-1 -6 -1 -11.5v-10.5q0 -23 5 -33l24 25q13 -9 21 -9q0 -6 1 -27t2.5 -46t3 -49t1.5 -35q0 -67 -15 -98q21 -23 36 -23q4 11 15.5 16.5t25 9.5t25 9t14.5 15q18 20 23 55 t5 72q0 16 -0.5 34t-0.5 52q0 11 1.5 22.5t7.5 21t19.5 16t37.5 6.5q0 -48 6 -67l24 25q12 -9 20 -9zM139 623q0 1 -0.5 9.5t-2 18.5t-5 18t-9.5 8q-10 0 -10 -9v-3q7 -31 7 -41.5t10 -10.5t10 10zM390 615q-2 6 -2 15.5t-0.5 17.5t-2.5 14t-8 6q-11 0 -11 -10q2 -10 2 -19 q0 -2 -0.5 -3.5t-0.5 -3.5q0 -11 2 -19t10 -8q11 0 11 10zM201 411q-9 0 -9 -10q0 -5 9.5 -11.5t29.5 -6.5q7 0 7 11q0 8 -7 10t-27 7h-3zM85 705q0 10 -11 10q-28 0 -28 -19q0 -11 10 -11l5 2t10 4.5t9.5 6t4.5 7.5zM337 705q0 10 -9 10q-14 0 -21 -6t-7 -11q0 -10 9 -10 q8 0 14 3q5 2 9.5 5.5t4.5 8.5zM332 962q7 -9 7 -19q0 -5 -1.5 -11t-9.5 -17l-90 -129q-11 -15 -23 -21t-28 -6q-22 0 -32.5 15.5t-10.5 32.5q0 14 8 25l86 127q10 15 24 19.5t23 4.5q5 0 8.5 -1t8.5 -3q-4 -11 -4 -22q0 -9 3 -13q5 5 14 10.5t17 7.5zM301 902q3 0 10.5 9 t7.5 13q0 8 -10 8q-5 0 -11.5 -8.5t-6.5 -13.5q0 -8 10 -8z" />
<glyph unicode="&#xde;" horiz-adv-x="419" d="M371 469q8 -6 15 -13.5t12 -19.5t8 -30t3 -46q0 -43 -10 -74.5t-32 -55t-56.5 -40t-83.5 -30.5q-20 -6 -34.5 -13.5t-23.5 -19.5t-13 -29.5t-4 -43.5q0 -29 -19.5 -45t-42.5 -16q-34 0 -49 19t-15 42v603q0 40 17.5 58t57.5 18v-8q0 -22 -7 -37q3 -4 4.5 -9t6.5 -8 q11 3 19 13.5t19 10.5q9 0 9 -12v-53q0 -17 6.5 -32t31.5 -17q20 -2 36.5 -5.5t33.5 -11.5q0 -4 -16 -20q32 -17 61.5 -41.5t44.5 -46.5q14 13 21 13zM277 362q0 42 -12.5 71t-47.5 29q-26 0 -40 -16.5t-18 -61.5q2 2 2 -83q-3 -2 -8 -5.5t-10.5 -7.5t-10 -7.5t-6.5 -5.5 q3 -6 6.5 -12.5t9 -12t15 -9t26.5 -3.5q1 25 36 33q19 4 30.5 13t17.5 21t8 26.5t2 30.5zM141 308v11t-1 15.5t-3.5 13.5t-7.5 6q-11 0 -11 -10q0 -18 1.5 -33t11.5 -15t10 10v2zM388 411q-1 12 -5.5 28.5t-13.5 16.5q-11 0 -11 -7q0 -2 1.5 -10t4.5 -16.5t6.5 -15.5t7.5 -7 q10 0 10 9v2zM241 245q6 1 6 9q0 11 -7 11q-2 0 -8 -2q-18 -8 -27 -8t-9 -10t10 -10q14 0 35 10zM138 626q7 0 8 9q0 4 -0.5 10.5t-2.5 13t-5 11.5t-9 5q-11 0 -11 -9q0 -3 1 -5q14 -35 19 -35zM222 543q10 0 10 10q0 11 -10 11h-23q-10 0 -10 -11q0 -10 10 -10h23zM81 692 q8 2 8 10q0 10 -8 10q-7 0 -15 -4l-4 -3q-9 -3 -9 -13q0 -8 8 -8q4 0 6 1l8 5z" />
<glyph unicode="&#xdf;" horiz-adv-x="532" d="M495 598q8 -27 8 -69q0 -38 -12.5 -80t-37.5 -76q20 -23 35.5 -71t15.5 -121q0 -40 -16.5 -74.5t-44 -59.5t-63.5 -39.5t-74 -14.5q-26 0 -43 8.5t-17 34.5q0 33 16.5 47t38.5 21.5t43.5 14t32.5 23.5q6 17 7 34.5t1 35.5q0 15 -1 26.5t-4.5 21t-11.5 18.5t-22 19 q-12 9 -21 14.5t-14 11.5t-7.5 13.5t-2.5 20.5q0 14 6.5 27t25.5 21q35 33 45 56t10 38q0 34 -11 59t-28.5 41.5t-38.5 25t-41 8.5q-18 0 -36 -6t-31.5 -18.5t-22 -32t-8.5 -47.5t4 -53t4 -26q0 -13 -35 -31v-3t2 -7q4 -13 8 -27.5t7 -47.5t4.5 -94t1.5 -167 q0 -37 -19 -58.5t-50 -21.5q-27 0 -41.5 19t-16.5 53q-1 13 -2 48.5t-2 80.5t-2.5 93.5t-2.5 88.5t-1.5 66l-0.5 26q0 49 9 97t32.5 85t64 60t102.5 23q65 0 97 -9t45 -22q-8 -11 -8 -24q29 -14 47.5 -32.5t32.5 -37.5q2 5 10 10t12 5q7 -4 12.5 -10.5t9.5 -14.5zM159 495 q0 10 -10 10t-10 -10v-54q0 -11 10 -11t10 11v54zM492 199q-6 40 -14 40q-9 0 -9 -10q0 -13 3.5 -27t10.5 -14q9 0 9 11zM241 704q10 3 10 11q0 10 -10 10q-2 0 -7.5 -1t-11.5 -3t-10.5 -5.5t-4.5 -7.5q0 -12 7 -12q5 0 9 2.5t18 5.5zM481 567q-2 6 -5 18t-10 12 q-9 0 -9 -10q0 -8 4.5 -19.5t9.5 -11.5q10 0 10 11z" />
<glyph unicode="&#xe0;" horiz-adv-x="440" d="M387 368q3 -1 7 -3t7.5 -8t5.5 -16.5t2 -28.5q0 -67 -0.5 -109t-1.5 -69t-2.5 -43.5t-3.5 -32.5q-2 -19 -7.5 -31.5t-17.5 -20t-32 -10.5t-53 -3q-63 0 -112 9t-81 38q-35 31 -54.5 74t-19.5 92q0 56 21 96t55 66t76.5 38t85.5 12q35 0 52.5 -4t25.5 -15q0 -1 -1.5 -6 t-3 -11.5t-2.5 -13.5t-1 -11q5 -5 11.5 -8t11.5 -7q6 0 32 26zM264 128q15 24 15 67q0 13 -2 32t-8 36t-18 29t-31 12q-18 0 -30 -11t-18.5 -27.5t-9.5 -35.5t-3 -34q0 -12 1.5 -25.5t3.5 -29.5l-16 -15q-1 -1 -1 -5q0 -18 29 -45q17 17 88 52zM279 402q-7 0 -18 -2t-11 -10 q0 -10 9 -10q11 0 16.5 1t6.5 1q12 0 20 -4.5t10 -4.5q10 0 10 10q0 19 -43 19zM396 284q0 24 -4.5 42.5t-15.5 18.5t-11 -10q0 -3 5.5 -13.5t5.5 -37.5q0 -10 10 -10t10 10zM258 90q0 8 -9 10q0 -1 -7.5 -3t-16.5 -5t-16 -7t-7 -8q0 -10 10 -10q20 0 33 8t13 15zM150 157 q-7 18 -7 28t-10 10t-10 -11q0 -2 0.5 -8.5t2.5 -13.5t5 -13t9 -6q11 0 11 8q0 4 -1 6zM122 600q-9 13 -9 26q0 17 14 29.5t38 12.5q-5 -9 -5 -22q0 -5 2 -15q4 12 14.5 20.5t17.5 9.5q10 -4 18 -17l86 -127q8 -11 8 -25q0 -17 -10.5 -32.5t-32.5 -15.5q-15 0 -27.5 6 t-23.5 21zM241 546q10 0 10 8q0 2 -6.5 14t-15 25.5t-17 24t-12.5 10.5q-10 0 -10 -8q0 -2 7.5 -13.5t16.5 -25t17 -24.5t10 -11z" />
<glyph unicode="&#xe1;" horiz-adv-x="440" d="M387 368q3 -1 7 -3t7.5 -8t5.5 -16.5t2 -28.5q0 -67 -0.5 -109t-1.5 -69t-2.5 -43.5t-3.5 -32.5q-2 -19 -7.5 -31.5t-17.5 -20t-32 -10.5t-53 -3q-63 0 -112 9t-81 38q-35 31 -54.5 74t-19.5 92q0 56 21 96t55 66t76.5 38t85.5 12q35 0 52.5 -4t25.5 -15q0 -1 -1.5 -6 t-3 -11.5t-2.5 -13.5t-1 -11q5 -5 11.5 -8t11.5 -7q6 0 32 26zM264 128q15 24 15 67q0 13 -2 32t-8 36t-18 29t-31 12q-18 0 -30 -11t-18.5 -27.5t-9.5 -35.5t-3 -34q0 -12 1.5 -25.5t3.5 -29.5l-16 -15q-1 -1 -1 -5q0 -18 29 -45q17 17 88 52zM279 402q-7 0 -18 -2t-11 -10 q0 -10 9 -10q11 0 16.5 1t6.5 1q12 0 20 -4.5t10 -4.5q10 0 10 10q0 19 -43 19zM396 284q0 24 -4.5 42.5t-15.5 18.5t-11 -10q0 -3 5.5 -13.5t5.5 -37.5q0 -10 10 -10t10 10zM258 90q0 8 -9 10q0 -1 -7.5 -3t-16.5 -5t-16 -7t-7 -8q0 -10 10 -10q20 0 33 8t13 15zM150 157 q-7 18 -7 28t-10 10t-10 -11q0 -2 0.5 -8.5t2.5 -13.5t5 -13t9 -6q11 0 11 8q0 4 -1 6zM360 647q7 -9 7 -19q0 -5 -1.5 -11t-9.5 -17l-90 -129q-11 -15 -23 -21t-28 -6q-22 0 -32.5 15.5t-10.5 32.5q0 14 8 25l86 127q10 15 24 19.5t23 4.5q5 0 8.5 -1t8.5 -3q-4 -11 -4 -22 q0 -9 3 -13q5 5 14 10.5t17 7.5zM329 587q3 0 10.5 9t7.5 13q0 8 -10 8q-5 0 -11.5 -8.5t-6.5 -13.5q0 -8 10 -8z" />
<glyph unicode="&#xe2;" horiz-adv-x="440" d="M387 368q3 -1 7 -3t7.5 -8t5.5 -16.5t2 -28.5q0 -67 -0.5 -109t-1.5 -69t-2.5 -43.5t-3.5 -32.5q-2 -19 -7.5 -31.5t-17.5 -20t-32 -10.5t-53 -3q-63 0 -112 9t-81 38q-35 31 -54.5 74t-19.5 92q0 56 21 96t55 66t76.5 38t85.5 12q35 0 52.5 -4t25.5 -15q0 -1 -1.5 -6 t-3 -11.5t-2.5 -13.5t-1 -11q5 -5 11.5 -8t11.5 -7q6 0 32 26zM264 128q15 24 15 67q0 13 -2 32t-8 36t-18 29t-31 12q-18 0 -30 -11t-18.5 -27.5t-9.5 -35.5t-3 -34q0 -12 1.5 -25.5t3.5 -29.5l-16 -15q-1 -1 -1 -5q0 -18 29 -45q17 17 88 52zM279 402q-7 0 -18 -2t-11 -10 q0 -10 9 -10q11 0 16.5 1t6.5 1q12 0 20 -4.5t10 -4.5q10 0 10 10q0 19 -43 19zM396 284q0 24 -4.5 42.5t-15.5 18.5t-11 -10q0 -3 5.5 -13.5t5.5 -37.5q0 -10 10 -10t10 10zM258 90q0 8 -9 10q0 -1 -7.5 -3t-16.5 -5t-16 -7t-7 -8q0 -10 10 -10q20 0 33 8t13 15zM150 157 q-7 18 -7 28t-10 10t-10 -11q0 -2 0.5 -8.5t2.5 -13.5t5 -13t9 -6q11 0 11 8q0 4 -1 6zM253 627q5 5 13.5 11t16.5 8q1 -1 3 -3.5t11 -15t26.5 -38.5t50.5 -74q8 -11 8 -25q0 -17 -10.5 -32.5t-32.5 -15.5q-15 0 -27.5 6t-23.5 21l-49 70l-49 -70q-11 -15 -23 -21t-28 -6 q-22 0 -32.5 15.5t-10.5 32.5q0 14 8 25l86 127q10 15 24 19.5t23 4.5q6 0 10 -1t7 -3q-4 -11 -4 -22q0 -9 3 -13zM317 544q10 0 10 8q0 2 -6.5 14t-15 25.5t-17 24t-12.5 10.5q-10 0 -10 -8q0 -2 7.5 -13.5t16.5 -25t17 -24.5t10 -11z" />
<glyph unicode="&#xe3;" horiz-adv-x="440" d="M387 368q3 -1 7 -3t7.5 -8t5.5 -16.5t2 -28.5q0 -67 -0.5 -109t-1.5 -69t-2.5 -43.5t-3.5 -32.5q-2 -19 -7.5 -31.5t-17.5 -20t-32 -10.5t-53 -3q-63 0 -112 9t-81 38q-35 31 -54.5 74t-19.5 92q0 56 21 96t55 66t76.5 38t85.5 12q35 0 52.5 -4t25.5 -15q0 -1 -1.5 -6 t-3 -11.5t-2.5 -13.5t-1 -11q5 -5 11.5 -8t11.5 -7q6 0 32 26zM264 128q15 24 15 67q0 13 -2 32t-8 36t-18 29t-31 12q-18 0 -30 -11t-18.5 -27.5t-9.5 -35.5t-3 -34q0 -12 1.5 -25.5t3.5 -29.5l-16 -15q-1 -1 -1 -5q0 -18 29 -45q17 17 88 52zM279 402q-7 0 -18 -2t-11 -10 q0 -10 9 -10q11 0 16.5 1t6.5 1q12 0 20 -4.5t10 -4.5q10 0 10 10q0 19 -43 19zM396 284q0 24 -4.5 42.5t-15.5 18.5t-11 -10q0 -3 5.5 -13.5t5.5 -37.5q0 -10 10 -10t10 10zM258 90q0 8 -9 10q0 -1 -7.5 -3t-16.5 -5t-16 -7t-7 -8q0 -10 10 -10q20 0 33 8t13 15zM150 157 q-7 18 -7 28t-10 10t-10 -11q0 -2 0.5 -8.5t2.5 -13.5t5 -13t9 -6q11 0 11 8q0 4 -1 6zM399 577q1 -5 1 -9v-8q0 -20 -15.5 -32.5t-44.5 -12.5h-207q-53 0 -53 55q0 23 14.5 37.5t37.5 14.5h207q28 0 36 -8q-12 -7 -22.5 -17t-13.5 -19q5 1 10.5 1h11.5h17.5t20.5 -2z M314 581q10 0 10 10q0 9 -19.5 12t-43.5 3q-10 0 -10 -10q0 -5 8.5 -8t19 -4.5t21 -2t14.5 -0.5z" />
<glyph unicode="&#xe4;" horiz-adv-x="440" d="M387 368q3 -1 7 -3t7.5 -8t5.5 -16.5t2 -28.5q0 -67 -0.5 -109t-1.5 -69t-2.5 -43.5t-3.5 -32.5q-2 -19 -7.5 -31.5t-17.5 -20t-32 -10.5t-53 -3q-63 0 -112 9t-81 38q-35 31 -54.5 74t-19.5 92q0 56 21 96t55 66t76.5 38t85.5 12q35 0 52.5 -4t25.5 -15q0 -1 -1.5 -6 t-3 -11.5t-2.5 -13.5t-1 -11q5 -5 11.5 -8t11.5 -7q6 0 32 26zM264 128q15 24 15 67q0 13 -2 32t-8 36t-18 29t-31 12q-18 0 -30 -11t-18.5 -27.5t-9.5 -35.5t-3 -34q0 -12 1.5 -25.5t3.5 -29.5l-16 -15q-1 -1 -1 -5q0 -18 29 -45q17 17 88 52zM279 402q-7 0 -18 -2t-11 -10 q0 -10 9 -10q11 0 16.5 1t6.5 1q12 0 20 -4.5t10 -4.5q10 0 10 10q0 19 -43 19zM396 284q0 24 -4.5 42.5t-15.5 18.5t-11 -10q0 -3 5.5 -13.5t5.5 -37.5q0 -10 10 -10t10 10zM258 90q0 8 -9 10q0 -1 -7.5 -3t-16.5 -5t-16 -7t-7 -8q0 -10 10 -10q20 0 33 8t13 15zM150 157 q-7 18 -7 28t-10 10t-10 -11q0 -2 0.5 -8.5t2.5 -13.5t5 -13t9 -6q11 0 11 8q0 4 -1 6zM393 570q0 -30 -19.5 -45t-43.5 -15q-32 0 -48 18.5t-16 46.5q0 26 15 43t43 19q0 -13 4 -25t12 -29q5 9 15.5 17.5t19.5 11.5q8 -9 13 -18.5t5 -23.5zM371 561q0 23 -16 23 q-10 0 -10 -10q0 -3 3.5 -6t3.5 -8q0 -2 -0.5 -4t-0.5 -5q0 -8 10 -8t10 18zM213 570q0 -30 -19.5 -45t-43.5 -15q-32 0 -48 18.5t-16 46.5q0 26 15 43t43 19q0 -13 4 -25t12 -29q5 9 15.5 17.5t19.5 11.5q8 -9 13 -18.5t5 -23.5zM191 561q0 23 -16 23q-10 0 -10 -10 q0 -3 3.5 -6t3.5 -8q0 -2 -0.5 -4t-0.5 -5q0 -8 10 -8t10 18z" />
<glyph unicode="&#xe5;" horiz-adv-x="440" d="M387 368q3 -1 7 -3t7.5 -8t5.5 -16.5t2 -28.5q0 -67 -0.5 -109t-1.5 -69t-2.5 -43.5t-3.5 -32.5q-2 -19 -7.5 -31.5t-17.5 -20t-32 -10.5t-53 -3q-63 0 -112 9t-81 38q-35 31 -54.5 74t-19.5 92q0 56 21 96t55 66t76.5 38t85.5 12q35 0 52.5 -4t25.5 -15q0 -1 -1.5 -6 t-3 -11.5t-2.5 -13.5t-1 -11q5 -5 11.5 -8t11.5 -7q6 0 32 26zM264 128q15 24 15 67q0 13 -2 32t-8 36t-18 29t-31 12q-18 0 -30 -11t-18.5 -27.5t-9.5 -35.5t-3 -34q0 -12 1.5 -25.5t3.5 -29.5l-16 -15q-1 -1 -1 -5q0 -18 29 -45q17 17 88 52zM279 402q-7 0 -18 -2t-11 -10 q0 -10 9 -10q11 0 16.5 1t6.5 1q12 0 20 -4.5t10 -4.5q10 0 10 10q0 19 -43 19zM396 284q0 24 -4.5 42.5t-15.5 18.5t-11 -10q0 -3 5.5 -13.5t5.5 -37.5q0 -10 10 -10t10 10zM258 90q0 8 -9 10q0 -1 -7.5 -3t-16.5 -5t-16 -7t-7 -8q0 -10 10 -10q20 0 33 8t13 15zM150 157 q-7 18 -7 28t-10 10t-10 -11q0 -2 0.5 -8.5t2.5 -13.5t5 -13t9 -6q11 0 11 8q0 4 -1 6zM351 549q0 -22 -8 -42t-22.5 -35t-35.5 -24t-47 -9q-18 0 -37.5 6.5t-35.5 20t-26.5 34.5t-10.5 49t9.5 50.5t24.5 37.5t35 23t41 8q14 0 22.5 -3.5t13.5 -8.5q0 -2 -4.5 -4t-9.5 -7 q23 -8 56 -42q11 8 17 8q8 -9 13 -22.5t5 -39.5zM269 517l3.5 21t1.5 15q0 7 -1.5 15.5t-5 16t-8.5 12.5t-12 5q-17 0 -27 -6t-13 -34l-2 -49q-1 -11 -9 -13q3 -8 7.5 -11.5t10.5 -5.5q3 4 10 8t16 8t17 8.5t12 9.5zM244 647q6 0 6 5t-7 6t-12 1t-12 -2t-7 -7q0 -6 7 -6 q3 0 5 2t7 2q6 0 7.5 -0.5t5.5 -0.5zM199 540q0 5 -6 5t-6 -5v-22q0 -6 6 -6t6 6v22zM342 574q0 1 -1.5 5t-4 8.5t-5 8t-5.5 3.5q-5 0 -5 -5q1 -8 4 -14q2 -5 5 -9t7 -4q6 0 6 4v1zM261 488q3 3 3 5q0 7 -6 7q-2 0 -4.5 -2.5t-6.5 -4.5q-6 -2 -11 -3t-5 -4q0 -6 5 -6t11 1.5 t14 6.5z" />
<glyph unicode="&#xe6;" horiz-adv-x="701" d="M639 316q20 -8 29 -26t9 -40q0 -29 -13.5 -50t-38.5 -28l-95 -25q-29 -8 -47.5 -24t-26.5 -35q23 -26 68 -26q43 0 57 30q17 -5 17 -26q0 -10 -6 -22q-50 -51 -114 -51q-21 0 -43.5 6.5t-44.5 20.5q-9 -15 -31.5 -21t-67.5 -6q-63 0 -112 9t-81 38q-35 31 -54.5 74 t-19.5 92q0 56 21 96t55 66t76.5 38t85.5 12q35 0 52.5 -4t25.5 -15q0 -1 -1.5 -6t-3 -11.5t-2.5 -13.5t-1 -11q2 -4 7 -6q27 31 65.5 49t87.5 18q33 0 33 -19q0 -2 -2 -11.5t-7 -14.5q16 -8 39 -26t52 -48q13 0 32 17zM264 128q15 24 15 67q0 13 -2 32t-8 36t-18 29t-31 12 q-18 0 -30 -11t-18.5 -27.5t-9.5 -35.5t-3 -34q0 -12 1.5 -25.5t3.5 -29.5l-16 -15q-1 -1 -1 -5q0 -18 29 -45q17 17 88 52zM513 255q10 8 13 17.5t3 23.5q0 7 -10 20t-34 13q-30 0 -48.5 -9.5t-22.5 -20.5l-4 -42q-1 -1 -1 -2q0 -13 -0.5 -24t-0.5 -22q8 -6 17 -9 q16 9 42 23.5t46 31.5zM279 402q-7 0 -18 -2t-11 -10q0 -10 9 -10q11 0 16.5 1t6.5 1q12 0 20 -4.5t10 -4.5q10 0 10 10q0 19 -43 19zM495 60q-11 1 -21.5 9t-18.5 8q-10 0 -10 -10q0 -5 5.5 -10t13 -9t16.5 -6.5t15 -2.5q9 0 9 11q0 8 -9 10zM660 257q0 11 -9 25.5 t-18 14.5q-10 0 -10 -10q0 -7 8.5 -14t8.5 -15q0 -3 -1 -6t-1 -5q0 -8 11 -8t11 18zM486 406q-11 0 -23 -4t-12 -14t10 -10q2 0 8.5 4t16.5 4q1 0 5 -1.5t11 -1.5q9 0 9 11q0 12 -25 12zM258 90q0 8 -9 10q0 -1 -7.5 -3t-16.5 -5t-16 -7t-7 -8q0 -10 10 -10q20 0 33 8t13 15 zM150 157q-7 18 -7 28t-10 10t-10 -11q0 -2 0.5 -8.5t2.5 -13.5t5 -13t9 -6q11 0 11 8q0 4 -1 6zM418 189q-11 0 -11 -11q0 -10 11 -10q22 0 31 4.5t9 12.5q0 12 -10 12q-3 0 -7 -4t-23 -4zM399 193q0 13 -11 13t-11 -13q0 -12 11 -12t11 12z" />
<glyph unicode="&#xe7;" horiz-adv-x="372" d="M345 394q11 -14 11 -31q0 -9 -3 -19t-12 -18t-24.5 -13.5t-39.5 -5.5q-50 -1 -73 -5t-37 -17q-15 -14 -19.5 -30.5t-4.5 -40.5q0 -12 3 -30t3 -26q0 -23 -23 -38q11 -26 38 -42.5t76 -16.5q15 0 31.5 1.5t36.5 5.5q12 0 19.5 -6.5t7.5 -19.5q0 -16 -13.5 -25.5t-32 -15 t-38.5 -7t-33 -1.5q-41 0 -77.5 15.5t-63.5 43t-42.5 65.5t-15.5 82q0 70 18.5 113t51.5 66.5t77.5 31.5t96.5 8q14 0 24 -7.5t10 -21.5q0 -7 -3 -14q28 0 51 19zM338 359q-2 9 -10 9q-10 0 -10 -9v-3q0 -4 -16 -10l-21 -8q-6 -2 -6 -9q0 -10 11 -10q6 0 15 3t17.5 8.5 t14 13t5.5 15.5zM205 101q8 -2 8 -10q0 -11 -8 -11q-4 0 -13 3.5t-18 9t-15.5 12t-6.5 13.5q0 10 11 10q5 0 16.5 -12t25.5 -15zM271 405q-15 3 -47 3q-10 0 -10 -11q0 -8 16 -10t29 -2t17 2.5t4 7.5q0 8 -9 10zM249 -43q11 -6 15.5 -19.5t4.5 -22.5q0 -30 -8.5 -54.5 t-20.5 -41.5t-26 -26.5t-24 -9.5q-12 0 -16.5 5.5t-4.5 14.5q0 8 3 15t3 15q0 10 -7 18q-15 19 -20.5 33t-5.5 34t13 41.5t44 23.5q0 -2 -0.5 -4.5t-0.5 -4.5q0 -23 17 -46q3 11 13.5 20t20.5 9zM239 -123q10 0 11.5 13.5t1.5 21.5q0 10 -10 10q-8 0 -11 -10.5t-3 -27.5 q0 -7 11 -7z" />
<glyph unicode="&#xe8;" horiz-adv-x="417" d="M367 316q20 -8 29 -26t9 -40q0 -29 -13.5 -50t-38.5 -28l-95 -25q-29 -8 -47.5 -24t-26.5 -35q23 -26 68 -26q43 0 57 30q17 -5 17 -26q0 -10 -6 -22q-50 -51 -114 -51q-31 0 -64.5 15t-61 43t-45.5 66.5t-18 86.5q0 45 14.5 84.5t40.5 68t63.5 45t84.5 16.5q33 0 33 -19 q0 -2 -2 -11.5t-7 -14.5q16 -8 39 -26t52 -48q13 0 32 17zM241 255q10 8 13 17.5t3 23.5q0 7 -10 20t-34 13q-30 0 -48.5 -9.5t-22.5 -20.5l-4 -42q-14 -23 -14 -28q6 -20 29 -29q16 9 42 23.5t46 31.5zM223 60q-11 1 -21.5 9t-18.5 8q-10 0 -10 -10q0 -5 5.5 -10t13 -9 t16.5 -6.5t15 -2.5q9 0 9 11q0 8 -9 10zM388 257q0 11 -9 25.5t-18 14.5q-10 0 -10 -10q0 -7 8.5 -14t8.5 -15q0 -3 -1 -6t-1 -5q0 -8 11 -8t11 18zM214 406q-11 0 -23 -4t-12 -14t10 -10q2 0 8.5 4t16.5 4q1 0 5 -1.5t11 -1.5q9 0 9 11q0 12 -25 12zM146 189q-11 0 -11 -11 q0 -10 11 -10q22 0 31 4.5t9 12.5q0 12 -10 12q-3 0 -7 -4t-23 -4zM120 249q2 6 2 7q0 8 -12 8q-5 0 -8 -5t-5 -11t-3 -11.5t-1 -7.5q0 -11 11 -11q5 0 6.5 1.5t2.5 5.5t2 10t5 14zM127 193q0 13 -11 13t-11 -13q0 -12 11 -12t11 12zM91 600q-9 13 -9 26q0 17 14 29.5 t38 12.5q-5 -9 -5 -22q0 -5 2 -15q4 12 14.5 20.5t17.5 9.5q10 -4 18 -17l86 -127q8 -11 8 -25q0 -17 -10.5 -32.5t-32.5 -15.5q-15 0 -27.5 6t-23.5 21zM210 546q10 0 10 8q0 2 -6.5 14t-15 25.5t-17 24t-12.5 10.5q-10 0 -10 -8q0 -2 7.5 -13.5t16.5 -25t17 -24.5t10 -11z " />
<glyph unicode="&#xe9;" horiz-adv-x="417" d="M367 316q20 -8 29 -26t9 -40q0 -29 -13.5 -50t-38.5 -28l-95 -25q-29 -8 -47.5 -24t-26.5 -35q23 -26 68 -26q43 0 57 30q17 -5 17 -26q0 -10 -6 -22q-50 -51 -114 -51q-31 0 -64.5 15t-61 43t-45.5 66.5t-18 86.5q0 45 14.5 84.5t40.5 68t63.5 45t84.5 16.5q33 0 33 -19 q0 -2 -2 -11.5t-7 -14.5q16 -8 39 -26t52 -48q13 0 32 17zM241 255q10 8 13 17.5t3 23.5q0 7 -10 20t-34 13q-30 0 -48.5 -9.5t-22.5 -20.5l-4 -42q-14 -23 -14 -28q6 -20 29 -29q16 9 42 23.5t46 31.5zM223 60q-11 1 -21.5 9t-18.5 8q-10 0 -10 -10q0 -5 5.5 -10t13 -9 t16.5 -6.5t15 -2.5q9 0 9 11q0 8 -9 10zM388 257q0 11 -9 25.5t-18 14.5q-10 0 -10 -10q0 -7 8.5 -14t8.5 -15q0 -3 -1 -6t-1 -5q0 -8 11 -8t11 18zM214 406q-11 0 -23 -4t-12 -14t10 -10q2 0 8.5 4t16.5 4q1 0 5 -1.5t11 -1.5q9 0 9 11q0 12 -25 12zM146 189q-11 0 -11 -11 q0 -10 11 -10q22 0 31 4.5t9 12.5q0 12 -10 12q-3 0 -7 -4t-23 -4zM120 249q2 6 2 7q0 8 -12 8q-5 0 -8 -5t-5 -11t-3 -11.5t-1 -7.5q0 -11 11 -11q5 0 6.5 1.5t2.5 5.5t2 10t5 14zM127 193q0 13 -11 13t-11 -13q0 -12 11 -12t11 12zM329 647q7 -9 7 -19q0 -5 -1.5 -11 t-9.5 -17l-90 -129q-11 -15 -23 -21t-28 -6q-22 0 -32.5 15.5t-10.5 32.5q0 14 8 25l86 127q10 15 24 19.5t23 4.5q5 0 8.5 -1t8.5 -3q-4 -11 -4 -22q0 -9 3 -13q5 5 14 10.5t17 7.5zM298 587q3 0 10.5 9t7.5 13q0 8 -10 8q-5 0 -11.5 -8.5t-6.5 -13.5q0 -8 10 -8z" />
<glyph unicode="&#xea;" horiz-adv-x="417" d="M367 316q20 -8 29 -26t9 -40q0 -29 -13.5 -50t-38.5 -28l-95 -25q-29 -8 -47.5 -24t-26.5 -35q23 -26 68 -26q43 0 57 30q17 -5 17 -26q0 -10 -6 -22q-50 -51 -114 -51q-31 0 -64.5 15t-61 43t-45.5 66.5t-18 86.5q0 45 14.5 84.5t40.5 68t63.5 45t84.5 16.5q33 0 33 -19 q0 -2 -2 -11.5t-7 -14.5q16 -8 39 -26t52 -48q13 0 32 17zM241 255q10 8 13 17.5t3 23.5q0 7 -10 20t-34 13q-30 0 -48.5 -9.5t-22.5 -20.5l-4 -42q-14 -23 -14 -28q6 -20 29 -29q16 9 42 23.5t46 31.5zM223 60q-11 1 -21.5 9t-18.5 8q-10 0 -10 -10q0 -5 5.5 -10t13 -9 t16.5 -6.5t15 -2.5q9 0 9 11q0 8 -9 10zM388 257q0 11 -9 25.5t-18 14.5q-10 0 -10 -10q0 -7 8.5 -14t8.5 -15q0 -3 -1 -6t-1 -5q0 -8 11 -8t11 18zM214 406q-11 0 -23 -4t-12 -14t10 -10q2 0 8.5 4t16.5 4q1 0 5 -1.5t11 -1.5q9 0 9 11q0 12 -25 12zM146 189q-11 0 -11 -11 q0 -10 11 -10q22 0 31 4.5t9 12.5q0 12 -10 12q-3 0 -7 -4t-23 -4zM120 249q2 6 2 7q0 8 -12 8q-5 0 -8 -5t-5 -11t-3 -11.5t-1 -7.5q0 -11 11 -11q5 0 6.5 1.5t2.5 5.5t2 10t5 14zM127 193q0 13 -11 13t-11 -13q0 -12 11 -12t11 12zM221 627q5 5 13.5 11t16.5 8 q1 -1 3 -3.5t11 -15t26.5 -38.5t50.5 -74q8 -11 8 -25q0 -17 -10.5 -32.5t-32.5 -15.5q-15 0 -27.5 6t-23.5 21l-49 70l-49 -70q-11 -15 -23 -21t-28 -6q-22 0 -32.5 15.5t-10.5 32.5q0 14 8 25l86 127q10 15 24 19.5t23 4.5q6 0 10 -1t7 -3q-4 -11 -4 -22q0 -9 3 -13z M285 544q10 0 10 8q0 2 -6.5 14t-15 25.5t-17 24t-12.5 10.5q-10 0 -10 -8q0 -2 7.5 -13.5t16.5 -25t17 -24.5t10 -11z" />
<glyph unicode="&#xeb;" horiz-adv-x="417" d="M367 316q20 -8 29 -26t9 -40q0 -29 -13.5 -50t-38.5 -28l-95 -25q-29 -8 -47.5 -24t-26.5 -35q23 -26 68 -26q43 0 57 30q17 -5 17 -26q0 -10 -6 -22q-50 -51 -114 -51q-31 0 -64.5 15t-61 43t-45.5 66.5t-18 86.5q0 45 14.5 84.5t40.5 68t63.5 45t84.5 16.5q33 0 33 -19 q0 -2 -2 -11.5t-7 -14.5q16 -8 39 -26t52 -48q13 0 32 17zM241 255q10 8 13 17.5t3 23.5q0 7 -10 20t-34 13q-30 0 -48.5 -9.5t-22.5 -20.5l-4 -42q-14 -23 -14 -28q6 -20 29 -29q16 9 42 23.5t46 31.5zM223 60q-11 1 -21.5 9t-18.5 8q-10 0 -10 -10q0 -5 5.5 -10t13 -9 t16.5 -6.5t15 -2.5q9 0 9 11q0 8 -9 10zM388 257q0 11 -9 25.5t-18 14.5q-10 0 -10 -10q0 -7 8.5 -14t8.5 -15q0 -3 -1 -6t-1 -5q0 -8 11 -8t11 18zM214 406q-11 0 -23 -4t-12 -14t10 -10q2 0 8.5 4t16.5 4q1 0 5 -1.5t11 -1.5q9 0 9 11q0 12 -25 12zM146 189q-11 0 -11 -11 q0 -10 11 -10q22 0 31 4.5t9 12.5q0 12 -10 12q-3 0 -7 -4t-23 -4zM120 249q2 6 2 7q0 8 -12 8q-5 0 -8 -5t-5 -11t-3 -11.5t-1 -7.5q0 -11 11 -11q5 0 6.5 1.5t2.5 5.5t2 10t5 14zM127 193q0 13 -11 13t-11 -13q0 -12 11 -12t11 12zM362 570q0 -30 -19.5 -45t-43.5 -15 q-32 0 -48 18.5t-16 46.5q0 26 15 43t43 19q0 -13 4 -25t12 -29q5 9 15.5 17.5t19.5 11.5q8 -9 13 -18.5t5 -23.5zM340 561q0 23 -16 23q-10 0 -10 -10q0 -3 3.5 -6t3.5 -8q0 -2 -0.5 -4t-0.5 -5q0 -8 10 -8t10 18zM182 570q0 -30 -19.5 -45t-43.5 -15q-32 0 -48 18.5 t-16 46.5q0 26 15 43t43 19q0 -13 4 -25t12 -29q5 9 15.5 17.5t19.5 11.5q8 -9 13 -18.5t5 -23.5zM160 561q0 23 -16 23q-10 0 -10 -10q0 -3 3.5 -6t3.5 -8q0 -2 -0.5 -4t-0.5 -5q0 -8 10 -8t10 18z" />
<glyph unicode="&#xec;" horiz-adv-x="209" d="M180 54q0 -29 -19.5 -45t-42.5 -16q-34 0 -49 19t-15 42v288q0 40 17.5 58t57.5 18v-8q0 -22 -7 -37q3 -4 4.5 -9t6.5 -8q11 3 19 13.5t19 10.5q9 0 9 -12v-314zM166 311q7 0 8 9q0 4 -0.5 10.5t-2.5 13t-5 11.5t-9 5q-11 0 -11 -9q0 -3 1 -5q14 -35 19 -35zM109 377 q8 2 8 10q0 10 -8 10q-7 0 -15 -4l-4 -3q-9 -3 -9 -13q0 -8 8 -8q4 0 6 1l8 5zM2 600q-9 13 -9 26q0 17 14 29.5t38 12.5q-5 -9 -5 -22q0 -5 2 -15q4 12 14.5 20.5t17.5 9.5q10 -4 18 -17l86 -127q8 -11 8 -25q0 -17 -10.5 -32.5t-32.5 -15.5q-15 0 -27.5 6t-23.5 21z M121 546q10 0 10 8q0 2 -6.5 14t-15 25.5t-17 24t-12.5 10.5q-10 0 -10 -8q0 -2 7.5 -13.5t16.5 -25t17 -24.5t10 -11z" />
<glyph unicode="&#xed;" horiz-adv-x="209" d="M152 54q0 -29 -19.5 -45t-42.5 -16q-34 0 -49 19t-15 42v288q0 40 17.5 58t57.5 18v-8q0 -22 -7 -37q3 -4 4.5 -9t6.5 -8q11 3 19 13.5t19 10.5q9 0 9 -12v-314zM138 311q7 0 8 9q0 4 -0.5 10.5t-2.5 13t-5 11.5t-9 5q-11 0 -11 -9q0 -3 1 -5q14 -35 19 -35zM81 377 q8 2 8 10q0 10 -8 10q-7 0 -15 -4l-4 -3q-9 -3 -9 -13q0 -8 8 -8q4 0 6 1l8 5zM212 647q7 -9 7 -19q0 -5 -1.5 -11t-9.5 -17l-90 -129q-11 -15 -23 -21t-28 -6q-22 0 -32.5 15.5t-10.5 32.5q0 14 8 25l86 127q10 15 24 19.5t23 4.5q5 0 8.5 -1t8.5 -3q-4 -11 -4 -22 q0 -9 3 -13q5 5 14 10.5t17 7.5zM181 587q3 0 10.5 9t7.5 13q0 8 -10 8q-5 0 -11.5 -8.5t-6.5 -13.5q0 -8 10 -8z" />
<glyph unicode="&#xee;" horiz-adv-x="261" d="M191 54q0 -29 -19.5 -45t-42.5 -16q-34 0 -49 19t-15 42v288q0 40 17.5 58t57.5 18v-8q0 -22 -7 -37q3 -4 4.5 -9t6.5 -8q11 3 19 13.5t19 10.5q9 0 9 -12v-314zM177 311q7 0 8 9q0 4 -0.5 10.5t-2.5 13t-5 11.5t-9 5q-11 0 -11 -9q0 -3 1 -5q14 -35 19 -35zM120 377 q8 2 8 10q0 10 -8 10q-7 0 -15 -4l-4 -3q-9 -3 -9 -13q0 -8 8 -8q4 0 6 1l8 5zM144 627q5 5 13.5 11t16.5 8q1 -1 3 -3.5t11 -15t26.5 -38.5t50.5 -74q8 -11 8 -25q0 -17 -10.5 -32.5t-32.5 -15.5q-15 0 -27.5 6t-23.5 21l-49 70l-49 -70q-11 -15 -23 -21t-28 -6 q-22 0 -32.5 15.5t-10.5 32.5q0 14 8 25l86 127q10 15 24 19.5t23 4.5q6 0 10 -1t7 -3q-4 -11 -4 -22q0 -9 3 -13zM208 544q10 0 10 8q0 2 -6.5 14t-15 25.5t-17 24t-12.5 10.5q-10 0 -10 -8q0 -2 7.5 -13.5t16.5 -25t17 -24.5t10 -11z" />
<glyph unicode="&#xef;" horiz-adv-x="262" d="M195 54q0 -29 -19.5 -45t-42.5 -16q-34 0 -49 19t-15 42v288q0 40 17.5 58t57.5 18v-8q0 -22 -7 -37q3 -4 4.5 -9t6.5 -8q11 3 19 13.5t19 10.5q9 0 9 -12v-314zM181 311q7 0 8 9q0 4 -0.5 10.5t-2.5 13t-5 11.5t-9 5q-11 0 -11 -9q0 -3 1 -5q14 -35 19 -35zM124 377 q8 2 8 10q0 10 -8 10q-7 0 -15 -4l-4 -3q-9 -3 -9 -13q0 -8 8 -8q4 0 6 1l8 5zM288 570q0 -30 -19.5 -45t-43.5 -15q-32 0 -48 18.5t-16 46.5q0 26 15 43t43 19q0 -13 4 -25t12 -29q5 9 15.5 17.5t19.5 11.5q8 -9 13 -18.5t5 -23.5zM266 561q0 23 -16 23q-10 0 -10 -10 q0 -3 3.5 -6t3.5 -8q0 -2 -0.5 -4t-0.5 -5q0 -8 10 -8t10 18zM108 570q0 -30 -19.5 -45t-43.5 -15q-32 0 -48 18.5t-16 46.5q0 26 15 43t43 19q0 -13 4 -25t12 -29q5 9 15.5 17.5t19.5 11.5q8 -9 13 -18.5t5 -23.5zM86 561q0 23 -16 23q-10 0 -10 -10q0 -3 3.5 -6t3.5 -8 q0 -2 -0.5 -4t-0.5 -5q0 -8 10 -8t10 18z" />
<glyph unicode="&#xf0;" horiz-adv-x="428" d="M426 708q2 -6 2 -10t-1.5 -8.5t-12.5 -15.5l-64 -56q23 -33 39.5 -90.5t16.5 -154.5q0 -104 -13 -176t-38.5 -117.5t-64.5 -66t-90 -20.5q-42 0 -77 12t-60.5 38t-39.5 66.5t-14 97.5q0 79 38 121t104 57q25 6 44.5 10.5t32.5 11t20 17.5t7 30q0 20 -2.5 38t-7.5 34 l-64 -55q-13 -12 -29 -12q-19 0 -27.5 10.5t-8.5 24.5q0 16 12 27l84 74q-17 27 -32.5 46.5t-15.5 38.5q0 8 3 17t10.5 17t20 13.5t32.5 5.5q2 -3 3 -12.5t2 -19.5t2 -19.5t2 -12.5q8 8 20.5 12t21.5 4l18 -13l58 51q7 6 14 8t13 2q16 0 23 -7q-7 -13 -7 -22q0 -2 1 -3 q4 3 11.5 5t13.5 2zM245 140q13 20 13 70q0 63 -52 63q-40 0 -53.5 -13.5t-13.5 -41.5q0 -6 1.5 -19.5t1.5 -28.5q0 -3 -0.5 -5.5t-0.5 -4.5q0 -4 -3 -11t-6 -15t-6 -15t-3 -11q14 -16 26 -22t23 -6q0 11 9.5 19.5t21.5 15l24 13t18 12.5zM250 94q6 1 6 9q0 10 -10 10 q-7 0 -16 -3t-17 -6.5t-13.5 -7.5t-5.5 -7q0 -10 10 -10q9 0 21 4.5t25 10.5zM126 151q-2 4 -2.5 12t-1.5 16t-3 14t-7 6q-12 0 -12 -10q0 -31 5.5 -40t10.5 -9q10 0 10 9v2zM215 694q11 0 11 10q0 11 -11 11t-20 -6l-5 -2q-4 -4 -4 -10q0 -10 10 -10q3 0 6 1l3 3q4 3 10 3z M393 670q4 0 10 6.5t6 8.5q0 3 -6 6q-8 0 -12.5 -7.5t-4.5 -8.5q0 -4 7 -5z" />
<glyph unicode="&#xf1;" horiz-adv-x="436" d="M402 290q5 -37 7.5 -74.5t2.5 -91.5q0 -63 -9.5 -97t-46.5 -34q-27 0 -41 9.5t-20.5 31t-7.5 56t-1 84.5q0 69 -18 96.5t-46 27.5q-35 0 -50.5 -30.5t-15.5 -95.5q0 -6 0.5 -15.5t0.5 -20.5t0.5 -20.5t0.5 -15.5q0 -26 -2.5 -46t-9.5 -33.5t-20 -20.5t-34 -7 q-24 0 -37.5 9t-20 30t-8 54.5t-1.5 83.5q0 69 3.5 116t17 76.5t41 42.5t74.5 13q44 0 66.5 -6t41.5 -23l-17 -17q30 -14 60 -38.5t44 -50.5q4 9 24 9h10.5t11.5 -2zM183 405q-10 0 -10 -10q0 -3 8 -6.5t18 -7t19 -5.5t11 -2q10 0 10 11q0 8 -16.5 14t-39.5 6zM397 232 q0 16 -4.5 32t-13.5 16q-10 0 -10 -10q2 0 3 -8t2.5 -17t4 -16.5t7.5 -7.5q11 0 11 11zM377 577q1 -5 1 -9v-8q0 -20 -15.5 -32.5t-44.5 -12.5h-207q-53 0 -53 55q0 23 14.5 37.5t37.5 14.5h207q28 0 36 -8q-12 -7 -22.5 -17t-13.5 -19q5 1 10.5 1h11.5h17.5t20.5 -2z M292 581q10 0 10 10q0 9 -19.5 12t-43.5 3q-10 0 -10 -10q0 -5 8.5 -8t19 -4.5t21 -2t14.5 -0.5z" />
<glyph unicode="&#xf2;" horiz-adv-x="420" d="M401 197q0 -41 -13.5 -77.5t-39 -65t-61.5 -45t-81 -16.5q-32 0 -65.5 12.5t-61.5 38t-45.5 63.5t-17.5 90q0 53 16 94t42 69.5t60.5 43t70.5 14.5q25 0 39.5 -6.5t22.5 -16.5q0 -2 -7.5 -6.5t-15.5 -12.5q40 -16 97 -80q16 16 28 16q14 -16 23 -41.5t9 -73.5zM260 138 q4 23 6 40t2 28q0 13 -2.5 28.5t-8.5 29t-14.5 22.5t-20.5 9q-15 0 -26.5 -1.5t-20.5 -9t-14.5 -22t-7.5 -41.5l-4 -89q-1 -13 -5 -19t-9 -8q5 -14 12 -20t17 -9q5 7 18 14.5t28 15t29 15.5t21 17zM216 379q10 0 10 10q0 9 -12 11t-21 2q-7 0 -19 -4t-12 -13q0 -11 11 -11 q5 0 8.5 3.5t11.5 3.5q11 0 14.5 -1t8.5 -1zM139 181q0 10 -11 10q-10 0 -10 -10v-42q0 -11 10 -11q11 0 11 11v42zM386 243q-1 2 -3 9.5t-6 16t-8.5 15t-9.5 6.5q-10 0 -10 -10l2 -8t6 -17t9 -17t11 -8q10 0 10 7q0 4 -1 6zM247 85q4 4 4 9q0 11 -10 11q-3 0 -8 -4t-13 -8 q-9 -5 -18 -6t-9 -7q0 -11 10 -11q16 0 44 16zM92 600q-9 13 -9 26q0 17 14 29.5t38 12.5q-5 -9 -5 -22q0 -5 2 -15q4 12 14.5 20.5t17.5 9.5q10 -4 18 -17l86 -127q8 -11 8 -25q0 -17 -10.5 -32.5t-32.5 -15.5q-15 0 -27.5 6t-23.5 21zM211 546q10 0 10 8q0 2 -6.5 14 t-15 25.5t-17 24t-12.5 10.5q-10 0 -10 -8q0 -2 7.5 -13.5t16.5 -25t17 -24.5t10 -11z" />
<glyph unicode="&#xf3;" horiz-adv-x="420" d="M401 197q0 -41 -13.5 -77.5t-39 -65t-61.5 -45t-81 -16.5q-32 0 -65.5 12.5t-61.5 38t-45.5 63.5t-17.5 90q0 53 16 94t42 69.5t60.5 43t70.5 14.5q25 0 39.5 -6.5t22.5 -16.5q0 -2 -7.5 -6.5t-15.5 -12.5q40 -16 97 -80q16 16 28 16q14 -16 23 -41.5t9 -73.5zM260 138 q4 23 6 40t2 28q0 13 -2.5 28.5t-8.5 29t-14.5 22.5t-20.5 9q-15 0 -26.5 -1.5t-20.5 -9t-14.5 -22t-7.5 -41.5l-4 -89q-1 -13 -5 -19t-9 -8q5 -14 12 -20t17 -9q5 7 18 14.5t28 15t29 15.5t21 17zM216 379q10 0 10 10q0 9 -12 11t-21 2q-7 0 -19 -4t-12 -13q0 -11 11 -11 q5 0 8.5 3.5t11.5 3.5q11 0 14.5 -1t8.5 -1zM139 181q0 10 -11 10q-10 0 -10 -10v-42q0 -11 10 -11q11 0 11 11v42zM386 243q-1 2 -3 9.5t-6 16t-8.5 15t-9.5 6.5q-10 0 -10 -10l2 -8t6 -17t9 -17t11 -8q10 0 10 7q0 4 -1 6zM247 85q4 4 4 9q0 11 -10 11q-3 0 -8 -4t-13 -8 q-9 -5 -18 -6t-9 -7q0 -11 10 -11q16 0 44 16zM330 647q7 -9 7 -19q0 -5 -1.5 -11t-9.5 -17l-90 -129q-11 -15 -23 -21t-28 -6q-22 0 -32.5 15.5t-10.5 32.5q0 14 8 25l86 127q10 15 24 19.5t23 4.5q5 0 8.5 -1t8.5 -3q-4 -11 -4 -22q0 -9 3 -13q5 5 14 10.5t17 7.5z M299 587q3 0 10.5 9t7.5 13q0 8 -10 8q-5 0 -11.5 -8.5t-6.5 -13.5q0 -8 10 -8z" />
<glyph unicode="&#xf4;" horiz-adv-x="420" d="M401 197q0 -41 -13.5 -77.5t-39 -65t-61.5 -45t-81 -16.5q-32 0 -65.5 12.5t-61.5 38t-45.5 63.5t-17.5 90q0 53 16 94t42 69.5t60.5 43t70.5 14.5q25 0 39.5 -6.5t22.5 -16.5q0 -2 -7.5 -6.5t-15.5 -12.5q40 -16 97 -80q16 16 28 16q14 -16 23 -41.5t9 -73.5zM260 138 q4 23 6 40t2 28q0 13 -2.5 28.5t-8.5 29t-14.5 22.5t-20.5 9q-15 0 -26.5 -1.5t-20.5 -9t-14.5 -22t-7.5 -41.5l-4 -89q-1 -13 -5 -19t-9 -8q5 -14 12 -20t17 -9q5 7 18 14.5t28 15t29 15.5t21 17zM216 379q10 0 10 10q0 9 -12 11t-21 2q-7 0 -19 -4t-12 -13q0 -11 11 -11 q5 0 8.5 3.5t11.5 3.5q11 0 14.5 -1t8.5 -1zM139 181q0 10 -11 10q-10 0 -10 -10v-42q0 -11 10 -11q11 0 11 11v42zM386 243q-1 2 -3 9.5t-6 16t-8.5 15t-9.5 6.5q-10 0 -10 -10l2 -8t6 -17t9 -17t11 -8q10 0 10 7q0 4 -1 6zM247 85q4 4 4 9q0 11 -10 11q-3 0 -8 -4t-13 -8 q-9 -5 -18 -6t-9 -7q0 -11 10 -11q16 0 44 16zM223 627q5 5 13.5 11t16.5 8q1 -1 3 -3.5t11 -15t26.5 -38.5t50.5 -74q8 -11 8 -25q0 -17 -10.5 -32.5t-32.5 -15.5q-15 0 -27.5 6t-23.5 21l-49 70l-49 -70q-11 -15 -23 -21t-28 -6q-22 0 -32.5 15.5t-10.5 32.5q0 14 8 25 l86 127q10 15 24 19.5t23 4.5q6 0 10 -1t7 -3q-4 -11 -4 -22q0 -9 3 -13zM287 544q10 0 10 8q0 2 -6.5 14t-15 25.5t-17 24t-12.5 10.5q-10 0 -10 -8q0 -2 7.5 -13.5t16.5 -25t17 -24.5t10 -11z" />
<glyph unicode="&#xf5;" horiz-adv-x="420" d="M401 197q0 -41 -13.5 -77.5t-39 -65t-61.5 -45t-81 -16.5q-32 0 -65.5 12.5t-61.5 38t-45.5 63.5t-17.5 90q0 53 16 94t42 69.5t60.5 43t70.5 14.5q25 0 39.5 -6.5t22.5 -16.5q0 -2 -7.5 -6.5t-15.5 -12.5q40 -16 97 -80q16 16 28 16q14 -16 23 -41.5t9 -73.5zM260 138 q4 23 6 40t2 28q0 13 -2.5 28.5t-8.5 29t-14.5 22.5t-20.5 9q-15 0 -26.5 -1.5t-20.5 -9t-14.5 -22t-7.5 -41.5l-4 -89q-1 -13 -5 -19t-9 -8q5 -14 12 -20t17 -9q5 7 18 14.5t28 15t29 15.5t21 17zM216 379q10 0 10 10q0 9 -12 11t-21 2q-7 0 -19 -4t-12 -13q0 -11 11 -11 q5 0 8.5 3.5t11.5 3.5q11 0 14.5 -1t8.5 -1zM139 181q0 10 -11 10q-10 0 -10 -10v-42q0 -11 10 -11q11 0 11 11v42zM386 243q-1 2 -3 9.5t-6 16t-8.5 15t-9.5 6.5q-10 0 -10 -10l2 -8t6 -17t9 -17t11 -8q10 0 10 7q0 4 -1 6zM247 85q4 4 4 9q0 11 -10 11q-3 0 -8 -4t-13 -8 q-9 -5 -18 -6t-9 -7q0 -11 10 -11q16 0 44 16zM369 577q1 -5 1 -9v-8q0 -20 -15.5 -32.5t-44.5 -12.5h-207q-53 0 -53 55q0 23 14.5 37.5t37.5 14.5h207q28 0 36 -8q-12 -7 -22.5 -17t-13.5 -19q5 1 10.5 1h11.5h17.5t20.5 -2zM284 581q10 0 10 10q0 9 -19.5 12t-43.5 3 q-10 0 -10 -10q0 -5 8.5 -8t19 -4.5t21 -2t14.5 -0.5z" />
<glyph unicode="&#xf6;" horiz-adv-x="420" d="M401 197q0 -41 -13.5 -77.5t-39 -65t-61.5 -45t-81 -16.5q-32 0 -65.5 12.5t-61.5 38t-45.5 63.5t-17.5 90q0 53 16 94t42 69.5t60.5 43t70.5 14.5q25 0 39.5 -6.5t22.5 -16.5q0 -2 -7.5 -6.5t-15.5 -12.5q40 -16 97 -80q16 16 28 16q14 -16 23 -41.5t9 -73.5zM260 138 q4 23 6 40t2 28q0 13 -2.5 28.5t-8.5 29t-14.5 22.5t-20.5 9q-15 0 -26.5 -1.5t-20.5 -9t-14.5 -22t-7.5 -41.5l-4 -89q-1 -13 -5 -19t-9 -8q5 -14 12 -20t17 -9q5 7 18 14.5t28 15t29 15.5t21 17zM216 379q10 0 10 10q0 9 -12 11t-21 2q-7 0 -19 -4t-12 -13q0 -11 11 -11 q5 0 8.5 3.5t11.5 3.5q11 0 14.5 -1t8.5 -1zM139 181q0 10 -11 10q-10 0 -10 -10v-42q0 -11 10 -11q11 0 11 11v42zM386 243q-1 2 -3 9.5t-6 16t-8.5 15t-9.5 6.5q-10 0 -10 -10l2 -8t6 -17t9 -17t11 -8q10 0 10 7q0 4 -1 6zM247 85q4 4 4 9q0 11 -10 11q-3 0 -8 -4t-13 -8 q-9 -5 -18 -6t-9 -7q0 -11 10 -11q16 0 44 16zM363 570q0 -30 -19.5 -45t-43.5 -15q-32 0 -48 18.5t-16 46.5q0 26 15 43t43 19q0 -13 4 -25t12 -29q5 9 15.5 17.5t19.5 11.5q8 -9 13 -18.5t5 -23.5zM341 561q0 23 -16 23q-10 0 -10 -10q0 -3 3.5 -6t3.5 -8q0 -2 -0.5 -4 t-0.5 -5q0 -8 10 -8t10 18zM183 570q0 -30 -19.5 -45t-43.5 -15q-32 0 -48 18.5t-16 46.5q0 26 15 43t43 19q0 -13 4 -25t12 -29q5 9 15.5 17.5t19.5 11.5q8 -9 13 -18.5t5 -23.5zM161 561q0 23 -16 23q-10 0 -10 -10q0 -3 3.5 -6t3.5 -8q0 -2 -0.5 -4t-0.5 -5q0 -8 10 -8 t10 18z" />
<glyph unicode="&#xf8;" horiz-adv-x="420" d="M216 379q10 0 10 10q0 9 -12 11t-21 2q-7 0 -19 -4t-12 -13q0 -11 11 -11q5 0 8.5 3.5t11.5 3.5q11 0 14.5 -1t8.5 -1zM139 181q0 10 -11 10q-10 0 -10 -10v-42q0 -11 10 -11q11 0 11 11v42zM386 243q-1 2 -3 9.5t-6 16t-8.5 15t-9.5 6.5q-10 0 -10 -10l2 -8t6 -17t9 -17 t11 -8q10 0 10 7q0 4 -1 6zM247 85q4 4 4 9q0 11 -10 11q-3 0 -8 -4t-13 -8q-9 -5 -18 -6t-9 -7q0 -11 10 -11q16 0 44 16zM385 400q3 0 9.5 8t6.5 12q0 8 -9 8q-4 0 -10 -8t-6 -12q0 -8 9 -8zM413 455q2 -3 4.5 -7.5t2.5 -9.5t-1.5 -10t-8.5 -16l-75 -110l6 -6q16 16 28 16 q14 -16 23 -41.5t9 -73.5q0 -41 -13.5 -77.5t-39 -65t-61.5 -45t-81 -16.5q-34 0 -71 14l-52 -77q-10 -14 -21 -19t-25 -5q-20 0 -29 14t-9 29q0 12 6 23l59 87q-22 25 -35 59t-13 79q0 53 16 94t42 69.5t60.5 43t70.5 14.5q25 0 39.5 -6.5t22.5 -16.5q0 -2 -7.5 -6.5 t-15.5 -12.5q8 -4 24 -14l61 90q9 14 21.5 18t20.5 4q4 0 7.5 -1t7.5 -2q-3 -12 -3 -20q0 -7 2 -13q5 5 13 10t15 7zM151 189l72 106h-1q-15 0 -26.5 -1.5t-20.5 -9t-14.5 -22t-7.5 -41.5zM260 138q3 21 5 37t3 27l-71 -104q17 9 35.5 19t27.5 21z" />
<glyph unicode="&#xf9;" horiz-adv-x="423" d="M395 374q4 -31 5.5 -74t1.5 -94q0 -40 -0.5 -66t-3 -44t-8 -31.5t-14.5 -27.5q-8 -11 -17 -19.5t-24 -14t-38 -8t-57 -2.5t-66 7t-59 22.5t-47.5 39.5t-31.5 59q-5 15 -8 29.5t-5 31t-2.5 37t-0.5 47.5q0 42 2.5 71t9 47t18 26t29.5 8q11 0 18.5 -3.5t7.5 -8.5 q-7 -3 -11 -10.5t-4 -12.5q0 -13 9 -25q12 10 23 13t21 3q11 -16 14 -30t3 -45v-114v-20t1 -14q-13 -13 -19 -23.5t-6 -15.5q5 -10 17.5 -19t26.5 -12q8 18 17 25.5t18.5 11l19 7t19.5 13.5q8 8 13 19.5t7.5 35t3.5 64t1 106.5q0 27 13 41t43 14q12 0 24 -3.5t17 -10.5 q-14 -2 -22.5 -10t-8.5 -16q0 -13 7 -20q4 9 19 12.5t24 3.5zM145 152q0 10 -0.5 21t-2 20t-4 14.5t-6.5 5.5q-10 0 -10 -10q0 -61 13 -61q10 0 10 10zM225 81q4 0 13 2.5t18 6.5t16 9t7 11q0 11 -10 11q-3 0 -6 -3q-12 -8 -21 -11l-15 -5t-9.5 -4t-3.5 -7q0 -10 11 -10z M136 317q-3 26 -3 35t-10 9q-8 0 -9 -4t-1 -15q0 -10 2 -23.5t10 -13.5q11 0 11 10v2zM328 376q10 0 10 10t-10 10q-11 0 -23 -8t-12 -25q0 -8 9 -8q3 0 6 3.5t5.5 7t6 7t8.5 3.5zM391 317q-3 11 -5.5 24t-10.5 13q-10 0 -10 -10q0 -41 16 -41q11 0 11 8q0 4 -1 6zM83 386 q0 10 -8 10h-4q-1 0 -5.5 -2t-10 -5.5t-9.5 -8t-4 -8.5q0 -10 11 -10q2 2 7 4.5t10 5.5t9 6.5t4 7.5zM163 130q5 0 11 -4.5t6 -10.5q0 -10 -10 -10q-5 0 -11 4.5t-6 10.5q0 10 10 10zM94 600q-9 13 -9 26q0 17 14 29.5t38 12.5q-5 -9 -5 -22q0 -5 2 -15q4 12 14.5 20.5 t17.5 9.5q10 -4 18 -17l86 -127q8 -11 8 -25q0 -17 -10.5 -32.5t-32.5 -15.5q-15 0 -27.5 6t-23.5 21zM213 546q10 0 10 8q0 2 -6.5 14t-15 25.5t-17 24t-12.5 10.5q-10 0 -10 -8q0 -2 7.5 -13.5t16.5 -25t17 -24.5t10 -11z" />
<glyph unicode="&#xfa;" horiz-adv-x="423" d="M395 374q4 -31 5.5 -74t1.5 -94q0 -40 -0.5 -66t-3 -44t-8 -31.5t-14.5 -27.5q-8 -11 -17 -19.5t-24 -14t-38 -8t-57 -2.5t-66 7t-59 22.5t-47.5 39.5t-31.5 59q-5 15 -8 29.5t-5 31t-2.5 37t-0.5 47.5q0 42 2.5 71t9 47t18 26t29.5 8q11 0 18.5 -3.5t7.5 -8.5 q-7 -3 -11 -10.5t-4 -12.5q0 -13 9 -25q12 10 23 13t21 3q11 -16 14 -30t3 -45v-114v-20t1 -14q-13 -13 -19 -23.5t-6 -15.5q5 -10 17.5 -19t26.5 -12q8 18 17 25.5t18.5 11l19 7t19.5 13.5q8 8 13 19.5t7.5 35t3.5 64t1 106.5q0 27 13 41t43 14q12 0 24 -3.5t17 -10.5 q-14 -2 -22.5 -10t-8.5 -16q0 -13 7 -20q4 9 19 12.5t24 3.5zM145 152q0 10 -0.5 21t-2 20t-4 14.5t-6.5 5.5q-10 0 -10 -10q0 -61 13 -61q10 0 10 10zM225 81q4 0 13 2.5t18 6.5t16 9t7 11q0 11 -10 11q-3 0 -6 -3q-12 -8 -21 -11l-15 -5t-9.5 -4t-3.5 -7q0 -10 11 -10z M136 317q-3 26 -3 35t-10 9q-8 0 -9 -4t-1 -15q0 -10 2 -23.5t10 -13.5q11 0 11 10v2zM328 376q10 0 10 10t-10 10q-11 0 -23 -8t-12 -25q0 -8 9 -8q3 0 6 3.5t5.5 7t6 7t8.5 3.5zM391 317q-3 11 -5.5 24t-10.5 13q-10 0 -10 -10q0 -41 16 -41q11 0 11 8q0 4 -1 6zM83 386 q0 10 -8 10h-4q-1 0 -5.5 -2t-10 -5.5t-9.5 -8t-4 -8.5q0 -10 11 -10q2 2 7 4.5t10 5.5t9 6.5t4 7.5zM163 130q5 0 11 -4.5t6 -10.5q0 -10 -10 -10q-5 0 -11 4.5t-6 10.5q0 10 10 10zM332 647q7 -9 7 -19q0 -5 -1.5 -11t-9.5 -17l-90 -129q-11 -15 -23 -21t-28 -6 q-22 0 -32.5 15.5t-10.5 32.5q0 14 8 25l86 127q10 15 24 19.5t23 4.5q5 0 8.5 -1t8.5 -3q-4 -11 -4 -22q0 -9 3 -13q5 5 14 10.5t17 7.5zM301 587q3 0 10.5 9t7.5 13q0 8 -10 8q-5 0 -11.5 -8.5t-6.5 -13.5q0 -8 10 -8z" />
<glyph unicode="&#xfb;" horiz-adv-x="423" d="M395 374q4 -31 5.5 -74t1.5 -94q0 -40 -0.5 -66t-3 -44t-8 -31.5t-14.5 -27.5q-8 -11 -17 -19.5t-24 -14t-38 -8t-57 -2.5t-66 7t-59 22.5t-47.5 39.5t-31.5 59q-5 15 -8 29.5t-5 31t-2.5 37t-0.5 47.5q0 42 2.5 71t9 47t18 26t29.5 8q11 0 18.5 -3.5t7.5 -8.5 q-7 -3 -11 -10.5t-4 -12.5q0 -13 9 -25q12 10 23 13t21 3q11 -16 14 -30t3 -45v-114v-20t1 -14q-13 -13 -19 -23.5t-6 -15.5q5 -10 17.5 -19t26.5 -12q8 18 17 25.5t18.5 11l19 7t19.5 13.5q8 8 13 19.5t7.5 35t3.5 64t1 106.5q0 27 13 41t43 14q12 0 24 -3.5t17 -10.5 q-14 -2 -22.5 -10t-8.5 -16q0 -13 7 -20q4 9 19 12.5t24 3.5zM145 152q0 10 -0.5 21t-2 20t-4 14.5t-6.5 5.5q-10 0 -10 -10q0 -61 13 -61q10 0 10 10zM225 81q4 0 13 2.5t18 6.5t16 9t7 11q0 11 -10 11q-3 0 -6 -3q-12 -8 -21 -11l-15 -5t-9.5 -4t-3.5 -7q0 -10 11 -10z M136 317q-3 26 -3 35t-10 9q-8 0 -9 -4t-1 -15q0 -10 2 -23.5t10 -13.5q11 0 11 10v2zM328 376q10 0 10 10t-10 10q-11 0 -23 -8t-12 -25q0 -8 9 -8q3 0 6 3.5t5.5 7t6 7t8.5 3.5zM391 317q-3 11 -5.5 24t-10.5 13q-10 0 -10 -10q0 -41 16 -41q11 0 11 8q0 4 -1 6zM83 386 q0 10 -8 10h-4q-1 0 -5.5 -2t-10 -5.5t-9.5 -8t-4 -8.5q0 -10 11 -10q2 2 7 4.5t10 5.5t9 6.5t4 7.5zM163 130q5 0 11 -4.5t6 -10.5q0 -10 -10 -10q-5 0 -11 4.5t-6 10.5q0 10 10 10zM224 627q5 5 13.5 11t16.5 8q1 -1 3 -3.5t11 -15t26.5 -38.5t50.5 -74q8 -11 8 -25 q0 -17 -10.5 -32.5t-32.5 -15.5q-15 0 -27.5 6t-23.5 21l-49 70l-49 -70q-11 -15 -23 -21t-28 -6q-22 0 -32.5 15.5t-10.5 32.5q0 14 8 25l86 127q10 15 24 19.5t23 4.5q6 0 10 -1t7 -3q-4 -11 -4 -22q0 -9 3 -13zM288 544q10 0 10 8q0 2 -6.5 14t-15 25.5t-17 24 t-12.5 10.5q-10 0 -10 -8q0 -2 7.5 -13.5t16.5 -25t17 -24.5t10 -11z" />
<glyph unicode="&#xfc;" horiz-adv-x="423" d="M395 374q4 -31 5.5 -74t1.5 -94q0 -40 -0.5 -66t-3 -44t-8 -31.5t-14.5 -27.5q-8 -11 -17 -19.5t-24 -14t-38 -8t-57 -2.5t-66 7t-59 22.5t-47.5 39.5t-31.5 59q-5 15 -8 29.5t-5 31t-2.5 37t-0.5 47.5q0 42 2.5 71t9 47t18 26t29.5 8q11 0 18.5 -3.5t7.5 -8.5 q-7 -3 -11 -10.5t-4 -12.5q0 -13 9 -25q12 10 23 13t21 3q11 -16 14 -30t3 -45v-114v-20t1 -14q-13 -13 -19 -23.5t-6 -15.5q5 -10 17.5 -19t26.5 -12q8 18 17 25.5t18.5 11l19 7t19.5 13.5q8 8 13 19.5t7.5 35t3.5 64t1 106.5q0 27 13 41t43 14q12 0 24 -3.5t17 -10.5 q-14 -2 -22.5 -10t-8.5 -16q0 -13 7 -20q4 9 19 12.5t24 3.5zM145 152q0 10 -0.5 21t-2 20t-4 14.5t-6.5 5.5q-10 0 -10 -10q0 -61 13 -61q10 0 10 10zM225 81q4 0 13 2.5t18 6.5t16 9t7 11q0 11 -10 11q-3 0 -6 -3q-12 -8 -21 -11l-15 -5t-9.5 -4t-3.5 -7q0 -10 11 -10z M136 317q-3 26 -3 35t-10 9q-8 0 -9 -4t-1 -15q0 -10 2 -23.5t10 -13.5q11 0 11 10v2zM328 376q10 0 10 10t-10 10q-11 0 -23 -8t-12 -25q0 -8 9 -8q3 0 6 3.5t5.5 7t6 7t8.5 3.5zM391 317q-3 11 -5.5 24t-10.5 13q-10 0 -10 -10q0 -41 16 -41q11 0 11 8q0 4 -1 6zM83 386 q0 10 -8 10h-4q-1 0 -5.5 -2t-10 -5.5t-9.5 -8t-4 -8.5q0 -10 11 -10q2 2 7 4.5t10 5.5t9 6.5t4 7.5zM163 130q5 0 11 -4.5t6 -10.5q0 -10 -10 -10q-5 0 -11 4.5t-6 10.5q0 10 10 10zM365 570q0 -30 -19.5 -45t-43.5 -15q-32 0 -48 18.5t-16 46.5q0 26 15 43t43 19 q0 -13 4 -25t12 -29q5 9 15.5 17.5t19.5 11.5q8 -9 13 -18.5t5 -23.5zM343 561q0 23 -16 23q-10 0 -10 -10q0 -3 3.5 -6t3.5 -8q0 -2 -0.5 -4t-0.5 -5q0 -8 10 -8t10 18zM185 570q0 -30 -19.5 -45t-43.5 -15q-32 0 -48 18.5t-16 46.5q0 26 15 43t43 19q0 -13 4 -25t12 -29 q5 9 15.5 17.5t19.5 11.5q8 -9 13 -18.5t5 -23.5zM163 561q0 23 -16 23q-10 0 -10 -10q0 -3 3.5 -6t3.5 -8q0 -2 -0.5 -4t-0.5 -5q0 -8 10 -8t10 18z" />
<glyph unicode="&#xfd;" horiz-adv-x="428" d="M145 152q0 10 -0.5 21t-2 20t-4 14.5t-6.5 5.5q-10 0 -10 -10q0 -61 13 -61q10 0 10 10zM225 81q4 0 13 2.5t18 6.5t16 9t7 11q0 11 -10 11q-3 0 -6 -3q-12 -8 -21 -11l-15 -5t-9.5 -4t-3.5 -7q0 -10 11 -10zM136 317q-3 26 -3 35t-10 9q-8 0 -9 -4t-1 -15q0 -10 2 -23.5 t10 -13.5q11 0 11 10v2zM328 376q10 0 10 10t-10 10q-11 0 -23 -8t-12 -25q0 -8 9 -8q3 0 6 3.5t5.5 7t6 7t8.5 3.5zM391 317q-3 11 -5.5 24t-10.5 13q-10 0 -10 -10q0 -41 16 -41q11 0 11 8q0 4 -1 6zM83 386q0 10 -8 10h-4q-1 0 -5.5 -2t-10 -5.5t-9.5 -8t-4 -8.5 q0 -10 11 -10q2 2 7 4.5t10 5.5t9 6.5t4 7.5zM163 130q5 0 11 -4.5t6 -10.5q0 -10 -10 -10q-5 0 -11 4.5t-6 10.5q0 10 10 10zM395 374q2 -8 3.5 -17t2.5 -25t1.5 -43t1 -70t1 -105.5t0.5 -150.5q0 -47 -19.5 -80.5t-51.5 -56t-73 -33t-85 -10.5q-23 0 -36 4.5t-19.5 10.5 t-8.5 13.5t-2 13.5q0 17 8.5 26t22.5 14t31.5 9.5t36.5 13.5q69 31 69 71q0 14 -8 24t-30 10q-34 0 -66 7t-59 22.5t-47.5 39.5t-31.5 59q-5 15 -8 29.5t-5 31t-2.5 37t-0.5 47.5q0 42 2.5 71t9 47t18 26t29.5 8q11 0 18.5 -3.5t7.5 -8.5q-7 -3 -11 -10.5t-4 -12.5 q0 -13 9 -25q12 10 23 13t21 3q11 -16 14 -30t3 -45v-114v-20t1 -14q-13 -13 -19 -23.5t-6 -15.5q5 -10 17.5 -19t26.5 -12q8 18 17 25.5t18.5 11l19 7t19.5 13.5q8 8 13 19.5t7.5 35t3.5 64t1 106.5q0 27 13 41t43 14q12 0 24 -3.5t17 -10.5q-14 -2 -22.5 -10t-8.5 -16 q0 -13 7 -20q4 9 19 12.5t24 3.5zM334 647q7 -9 7 -19q0 -5 -1.5 -11t-9.5 -17l-90 -129q-11 -15 -23 -21t-28 -6q-22 0 -32.5 15.5t-10.5 32.5q0 14 8 25l86 127q10 15 24 19.5t23 4.5q5 0 8.5 -1t8.5 -3q-4 -11 -4 -22q0 -9 3 -13q5 5 14 10.5t17 7.5zM303 587q3 0 10.5 9 t7.5 13q0 8 -10 8q-5 0 -11.5 -8.5t-6.5 -13.5q0 -8 10 -8z" />
<glyph unicode="&#xfe;" horiz-adv-x="421" d="M371 312q17 -17 27 -43.5t10 -64.5q0 -64 -24.5 -106.5t-59.5 -71.5q-18 -15 -36.5 -21.5t-36.5 -11.5t-36 -11.5t-35 -19.5q-14 -11 -19.5 -35t-9.5 -54q-11 -90 -62 -90q-29 0 -48 15.5t-19 53.5v779q0 48 14.5 75t48.5 27q9 0 20 -6q-2 -13 -3 -23t-1 -18q0 -12 3 -18 q6 0 42 17q8 -17 13 -68t5 -150q-7 -11 -33 -34q13 -37 49 -48q25 -8 47 -14t42.5 -15t39 -23t38.5 -38q7 0 24 17zM266 135q3 5 5.5 20t2.5 55q0 16 -1 32t-6 28.5t-17 20t-33 7.5q-35 0 -47.5 -20.5t-12.5 -55.5v-19q0 -13 1.5 -26.5t1.5 -22.5q0 -17 -3.5 -24t-12.5 -7 h-2q-4 -4 -4 -11q0 -5 1 -13t6 -15.5t15.5 -13t29.5 -5.5q0 27 8 35q53 17 68 35zM262 398q9 -2 9 -11q0 -10 -9 -10q-16 0 -39 10q-14 6 -22.5 9.5t-13 5.5t-6 3t-1.5 2q0 17 10 17q6 0 26.5 -9t45.5 -17zM146 606q0 25 -5 43t-12 18q-11 0 -11 -10q0 -33 5.5 -48t11.5 -15 q11 0 11 10v2zM257 87q4 3 4 9q0 10 -10 10q-3 0 -6 -1l-36 -21q-6 -3 -6 -9q0 -11 10 -11q4 0 44 23zM149 184q0 10 -11 10q-10 0 -10 -10v-39q0 -10 10 -10q11 0 11 10v39zM376 285q-3 6 -9 6q-11 0 -11 -11l1.5 -5.5t4.5 -12t7 -12t9 -5.5q10 0 10 10q0 4 -12 30zM93 694 q0 11 -7 11q-14 0 -20.5 -8.5t-6.5 -13.5q0 -10 10 -10l4 1.5t8.5 4.5t8 7t3.5 8z" />
<glyph unicode="&#xff;" horiz-adv-x="428" d="M145 152q0 10 -0.5 21t-2 20t-4 14.5t-6.5 5.5q-10 0 -10 -10q0 -61 13 -61q10 0 10 10zM225 81q4 0 13 2.5t18 6.5t16 9t7 11q0 11 -10 11q-3 0 -6 -3q-12 -8 -21 -11l-15 -5t-9.5 -4t-3.5 -7q0 -10 11 -10zM136 317q-3 26 -3 35t-10 9q-8 0 -9 -4t-1 -15q0 -10 2 -23.5 t10 -13.5q11 0 11 10v2zM328 376q10 0 10 10t-10 10q-11 0 -23 -8t-12 -25q0 -8 9 -8q3 0 6 3.5t5.5 7t6 7t8.5 3.5zM391 317q-3 11 -5.5 24t-10.5 13q-10 0 -10 -10q0 -41 16 -41q11 0 11 8q0 4 -1 6zM83 386q0 10 -8 10h-4q-1 0 -5.5 -2t-10 -5.5t-9.5 -8t-4 -8.5 q0 -10 11 -10q2 2 7 4.5t10 5.5t9 6.5t4 7.5zM163 130q5 0 11 -4.5t6 -10.5q0 -10 -10 -10q-5 0 -11 4.5t-6 10.5q0 10 10 10zM395 374q2 -8 3.5 -17t2.5 -25t1.5 -43t1 -70t1 -105.5t0.5 -150.5q0 -47 -19.5 -80.5t-51.5 -56t-73 -33t-85 -10.5q-23 0 -36 4.5t-19.5 10.5 t-8.5 13.5t-2 13.5q0 17 8.5 26t22.5 14t31.5 9.5t36.5 13.5q69 31 69 71q0 14 -8 24t-30 10q-34 0 -66 7t-59 22.5t-47.5 39.5t-31.5 59q-5 15 -8 29.5t-5 31t-2.5 37t-0.5 47.5q0 42 2.5 71t9 47t18 26t29.5 8q11 0 18.5 -3.5t7.5 -8.5q-7 -3 -11 -10.5t-4 -12.5 q0 -13 9 -25q12 10 23 13t21 3q11 -16 14 -30t3 -45v-114v-20t1 -14q-13 -13 -19 -23.5t-6 -15.5q5 -10 17.5 -19t26.5 -12q8 18 17 25.5t18.5 11l19 7t19.5 13.5q8 8 13 19.5t7.5 35t3.5 64t1 106.5q0 27 13 41t43 14q12 0 24 -3.5t17 -10.5q-14 -2 -22.5 -10t-8.5 -16 q0 -13 7 -20q4 9 19 12.5t24 3.5zM367 570q0 -30 -19.5 -45t-43.5 -15q-32 0 -48 18.5t-16 46.5q0 26 15 43t43 19q0 -13 4 -25t12 -29q5 9 15.5 17.5t19.5 11.5q8 -9 13 -18.5t5 -23.5zM345 561q0 23 -16 23q-10 0 -10 -10q0 -3 3.5 -6t3.5 -8q0 -2 -0.5 -4t-0.5 -5 q0 -8 10 -8t10 18zM187 570q0 -30 -19.5 -45t-43.5 -15q-32 0 -48 18.5t-16 46.5q0 26 15 43t43 19q0 -13 4 -25t12 -29q5 9 15.5 17.5t19.5 11.5q8 -9 13 -18.5t5 -23.5zM165 561q0 23 -16 23q-10 0 -10 -10q0 -3 3.5 -6t3.5 -8q0 -2 -0.5 -4t-0.5 -5q0 -8 10 -8t10 18z " />
<glyph unicode="&#x100;" horiz-adv-x="437" d="M409 60q0 -30 -13 -48.5t-51 -18.5q-21 0 -33.5 10t-19 26t-8.5 36.5t-2 41.5v67q0 54 -14 87.5t-55 33.5q-22 0 -34.5 -12t-18.5 -30.5t-7.5 -41t-1.5 -43.5q0 -5 0.5 -12t0.5 -15v-32q0 -20 -2.5 -40.5t-9.5 -37.5t-19.5 -27.5t-33.5 -10.5q-22 0 -40 16t-18 47v506 q0 48 19.5 80.5t49.5 52.5t66 29t69 9q23 0 27.5 -12.5t4.5 -26.5v-5q29 -11 50.5 -30t38.5 -44q17 17 26 17q13 -5 21 -15.5t8 -21.5v-535zM264 447q16 33 16 79q0 23 -2.5 41t-10.5 31t-24 19.5t-43 6.5q-15 -5 -23.5 -15.5t-12.5 -25t-4.5 -32.5t-0.5 -39q0 -27 5 -52 l-7.5 -5t-10 -7t-10 -7.5t-5.5 -5.5q1 -8 8.5 -16t17.5 -15t21 -11.5t19 -4.5q0 26 8 34zM143 509q0 8 -10 8q-5 0 -8.5 -5t-3.5 -16v-31q0 -8 10 -8t11 6.5t1 11.5v34zM257 395q7 3 7 10q0 12 -9 12q-5 0 -12.5 -2t-14 -4.5t-11 -6t-4.5 -6.5q0 -10 10 -10q13 0 34 7z M388 573q0 1 -1 6t-3 11t-5 10.5t-8 4.5q-11 0 -11 -8q0 -4 1 -6l7 -18q0 -11 10 -11t10 11zM239 697q10 0 10 10t-10 10h-24q-10 0 -10 -10t10 -10h24zM377 892q1 -5 1 -9v-8q0 -20 -15.5 -32.5t-44.5 -12.5h-207q-53 0 -53 55q0 23 14.5 37.5t37.5 14.5h207q28 0 36 -8 q-12 -7 -22.5 -17t-13.5 -19q5 1 10.5 1h11.5h17.5t20.5 -2zM292 896q10 0 10 10q0 9 -19.5 12t-43.5 3q-10 0 -10 -10q0 -5 8.5 -8t19 -4.5t21 -2t14.5 -0.5z" />
<glyph unicode="&#x101;" horiz-adv-x="440" d="M387 368q3 -1 7 -3t7.5 -8t5.5 -16.5t2 -28.5q0 -67 -0.5 -109t-1.5 -69t-2.5 -43.5t-3.5 -32.5q-2 -19 -7.5 -31.5t-17.5 -20t-32 -10.5t-53 -3q-63 0 -112 9t-81 38q-35 31 -54.5 74t-19.5 92q0 56 21 96t55 66t76.5 38t85.5 12q35 0 52.5 -4t25.5 -15q0 -1 -1.5 -6 t-3 -11.5t-2.5 -13.5t-1 -11q5 -5 11.5 -8t11.5 -7q6 0 32 26zM264 128q15 24 15 67q0 13 -2 32t-8 36t-18 29t-31 12q-18 0 -30 -11t-18.5 -27.5t-9.5 -35.5t-3 -34q0 -12 1.5 -25.5t3.5 -29.5l-16 -15q-1 -1 -1 -5q0 -18 29 -45q17 17 88 52zM279 402q-7 0 -18 -2t-11 -10 q0 -10 9 -10q11 0 16.5 1t6.5 1q12 0 20 -4.5t10 -4.5q10 0 10 10q0 19 -43 19zM396 284q0 24 -4.5 42.5t-15.5 18.5t-11 -10q0 -3 5.5 -13.5t5.5 -37.5q0 -10 10 -10t10 10zM258 90q0 8 -9 10q0 -1 -7.5 -3t-16.5 -5t-16 -7t-7 -8q0 -10 10 -10q20 0 33 8t13 15zM150 157 q-7 18 -7 28t-10 10t-10 -11q0 -2 0.5 -8.5t2.5 -13.5t5 -13t9 -6q11 0 11 8q0 4 -1 6zM399 577q1 -5 1 -9v-8q0 -20 -15.5 -32.5t-44.5 -12.5h-207q-53 0 -53 55q0 23 14.5 37.5t37.5 14.5h207q28 0 36 -8q-12 -7 -22.5 -17t-13.5 -19q5 1 10.5 1h11.5h17.5t20.5 -2z M314 581q10 0 10 10q0 9 -19.5 12t-43.5 3q-10 0 -10 -10q0 -5 8.5 -8t19 -4.5t21 -2t14.5 -0.5z" />
<glyph unicode="&#x102;" horiz-adv-x="437" d="M409 60q0 -30 -13 -48.5t-51 -18.5q-21 0 -33.5 10t-19 26t-8.5 36.5t-2 41.5v67q0 54 -14 87.5t-55 33.5q-22 0 -34.5 -12t-18.5 -30.5t-7.5 -41t-1.5 -43.5q0 -5 0.5 -12t0.5 -15v-32q0 -20 -2.5 -40.5t-9.5 -37.5t-19.5 -27.5t-33.5 -10.5q-22 0 -40 16t-18 47v506 q0 48 19.5 80.5t49.5 52.5t66 29t69 9q23 0 27.5 -12.5t4.5 -26.5v-5q29 -11 50.5 -30t38.5 -44q17 17 26 17q13 -5 21 -15.5t8 -21.5v-535zM264 447q16 33 16 79q0 23 -2.5 41t-10.5 31t-24 19.5t-43 6.5q-15 -5 -23.5 -15.5t-12.5 -25t-4.5 -32.5t-0.5 -39q0 -27 5 -52 l-7.5 -5t-10 -7t-10 -7.5t-5.5 -5.5q1 -8 8.5 -16t17.5 -15t21 -11.5t19 -4.5q0 26 8 34zM143 509q0 8 -10 8q-5 0 -8.5 -5t-3.5 -16v-31q0 -8 10 -8t11 6.5t1 11.5v34zM257 395q7 3 7 10q0 12 -9 12q-5 0 -12.5 -2t-14 -4.5t-11 -6t-4.5 -6.5q0 -10 10 -10q13 0 34 7z M388 573q0 1 -1 6t-3 11t-5 10.5t-8 4.5q-11 0 -11 -8q0 -4 1 -6l7 -18q0 -11 10 -11t10 11zM239 697q10 0 10 10t-10 10h-24q-10 0 -10 -10t10 -10h24zM342 895q0 -30 -12 -50.5t-30.5 -32.5t-40.5 -17.5t-42 -5.5t-41.5 5.5t-39.5 17.5t-29.5 30.5t-11.5 44.5v60 q0 17 12.5 26.5t35.5 9.5q1 -3 1 -9q0 -9 -5 -17q2 -2 4 -5.5t4 -6.5l16 15q7 -6 14 -6v-57q0 -4 4.5 -12t4.5 -13q0 -11 -20 -16q19 -19 29 -19q18 6 32 15q12 8 22 17.5t10 23.5v54q0 18 15 27t32 9q2 0 2 -5q0 -14 -5 -21q3 -2 4.5 -5.5t4.5 -6.5l16 14q4 3 8 3q6 0 6 -7 v-60zM335 903q3 10 3 19q0 6 -3 14.5t-8 8.5q-6 0 -6 -6q0 -3 2 -7t2 -9t-2 -10t-2 -10q0 -4 8 -4q4 0 6 4zM169 939q0 6 -6 6q-7 0 -7 -6v-27q0 -6 7 -6q6 0 6 6v27zM256 845q2 1 2 4q0 4 -6 6l-5 -1.5t-11 -4t-11 -5t-5 -5.5q0 -5 5 -5q8 0 17 3.5t14 7.5zM175 867 q-2 7 -4 16.5t-7 9.5q-7 0 -7 -6q0 -9 3 -16.5t9 -7.5q5 0 6 4zM130 958q2 2 2 5q0 6 -7 6q-5 0 -11.5 -8.5t-6.5 -12.5t7 -4q5 0 6.5 4.5t9.5 9.5zM292 957q8 0 8 6t-8 6q-6 0 -12 -4h-4q-2 -2 -2 -6q0 -6 6 -6q3 0 4 1l2 1q2 2 6 2z" />
<glyph unicode="&#x103;" horiz-adv-x="440" d="M387 368q3 -1 7 -3t7.5 -8t5.5 -16.5t2 -28.5q0 -67 -0.5 -109t-1.5 -69t-2.5 -43.5t-3.5 -32.5q-2 -19 -7.5 -31.5t-17.5 -20t-32 -10.5t-53 -3q-63 0 -112 9t-81 38q-35 31 -54.5 74t-19.5 92q0 56 21 96t55 66t76.5 38t85.5 12q35 0 52.5 -4t25.5 -15q0 -1 -1.5 -6 t-3 -11.5t-2.5 -13.5t-1 -11q5 -5 11.5 -8t11.5 -7q6 0 32 26zM264 128q15 24 15 67q0 13 -2 32t-8 36t-18 29t-31 12q-18 0 -30 -11t-18.5 -27.5t-9.5 -35.5t-3 -34q0 -12 1.5 -25.5t3.5 -29.5l-16 -15q-1 -1 -1 -5q0 -18 29 -45q17 17 88 52zM279 402q-7 0 -18 -2t-11 -10 q0 -10 9 -10q11 0 16.5 1t6.5 1q12 0 20 -4.5t10 -4.5q10 0 10 10q0 19 -43 19zM396 284q0 24 -4.5 42.5t-15.5 18.5t-11 -10q0 -3 5.5 -13.5t5.5 -37.5q0 -10 10 -10t10 10zM258 90q0 8 -9 10q0 -1 -7.5 -3t-16.5 -5t-16 -7t-7 -8q0 -10 10 -10q20 0 33 8t13 15zM150 157 q-7 18 -7 28t-10 10t-10 -11q0 -2 0.5 -8.5t2.5 -13.5t5 -13t9 -6q11 0 11 8q0 4 -1 6zM363 580q0 -30 -12 -50.5t-30.5 -32.5t-40.5 -17.5t-42 -5.5t-41.5 5.5t-39.5 17.5t-29.5 30.5t-11.5 44.5v60q0 17 12.5 26.5t35.5 9.5q1 -3 1 -9q0 -9 -5 -17q2 -2 4 -5.5t4 -6.5 l16 15q7 -6 14 -6v-57q0 -4 4.5 -12t4.5 -13q0 -11 -20 -16q19 -19 29 -19q18 6 32 15q12 8 22 17.5t10 23.5v54q0 18 15 27t32 9q2 0 2 -5q0 -14 -5 -21q3 -2 4.5 -5.5t4.5 -6.5l16 14q4 3 8 3q6 0 6 -7v-60zM356 588q3 10 3 19q0 6 -3 14.5t-8 8.5q-6 0 -6 -6q0 -3 2 -7 t2 -9t-2 -10t-2 -10q0 -4 8 -4q4 0 6 4zM190 624q0 6 -6 6q-7 0 -7 -6v-27q0 -6 7 -6q6 0 6 6v27zM277 530q2 1 2 4q0 4 -6 6l-5 -1.5t-11 -4t-11 -5t-5 -5.5q0 -5 5 -5q8 0 17 3.5t14 7.5zM196 552q-2 7 -4 16.5t-7 9.5q-7 0 -7 -6q0 -9 3 -16.5t9 -7.5q5 0 6 4zM151 643 q2 2 2 5q0 6 -7 6q-5 0 -11.5 -8.5t-6.5 -12.5t7 -4q5 0 6.5 4.5t9.5 9.5zM313 642q8 0 8 6t-8 6q-6 0 -12 -4h-4q-2 -2 -2 -6q0 -6 6 -6q3 0 4 1l2 1q2 2 6 2z" />
<glyph unicode="&#x104;" horiz-adv-x="437" d="M155 -114q0 35 26.5 62.5t72.5 41.5q17 5 22.5 29.5t5.5 87.5v67q0 54 -14 87.5t-55 33.5q-22 0 -34.5 -12t-18.5 -30.5t-7.5 -41t-1.5 -43.5q0 -5 0.5 -12t0.5 -15v-32q0 -20 -2.5 -40.5t-9.5 -37.5t-19.5 -27.5t-33.5 -10.5q-22 0 -40 16t-18 47v506q0 48 19.5 80.5 t49.5 52.5t66 29t69 9q23 0 27.5 -12.5t4.5 -26.5v-5q29 -11 50.5 -30t38.5 -44q17 17 26 17q13 -5 21 -15.5t8 -21.5v-535q0 -26 -11.5 -47t-35.5 -27q-38 -9 -61 -19.5t-35.5 -22.5t-17 -25.5t-4.5 -29.5q0 -23 20.5 -34.5t44.5 -11.5q14 0 22 6t15 13.5t15.5 13.5t24.5 6 q13 0 22.5 -6.5t9.5 -28.5q0 -33 -33.5 -48.5t-90.5 -15.5q-24 0 -49 5.5t-45 18t-32.5 32t-12.5 47.5zM264 447q16 33 16 79q0 23 -2.5 41t-10.5 31t-24 19.5t-43 6.5q-15 -5 -23.5 -15.5t-12.5 -25t-4.5 -32.5t-0.5 -39q0 -27 5 -52l-7.5 -5t-10 -7t-10 -7.5t-5.5 -5.5 q1 -8 8.5 -16t17.5 -15t21 -11.5t19 -4.5q0 26 8 34zM143 509q0 8 -10 8q-5 0 -8.5 -5t-3.5 -16v-31q0 -8 10 -8t11 6.5t1 11.5v34zM257 395q7 3 7 10q0 12 -9 12q-5 0 -12.5 -2t-14 -4.5t-11 -6t-4.5 -6.5q0 -10 10 -10q13 0 34 7zM310 -127q6 -2 6 -8q0 -9 -6 -9 q-4 0 -11 2.5t-14.5 7t-13 10t-5.5 11.5q0 9 9 9q4 0 13.5 -10t21.5 -13zM388 573q0 1 -1 6t-3 11t-5 10.5t-8 4.5q-11 0 -11 -8q0 -4 1 -6l7 -18q0 -11 10 -11t10 11zM239 697q10 0 10 10t-10 10h-24q-10 0 -10 -10t10 -10h24zM403 -153q0 23 -16 23q-10 0 -10 -10 q0 -3 3.5 -6t3.5 -8q0 -2 -0.5 -4t-0.5 -5q0 -8 10 -8t10 18z" />
<glyph unicode="&#x105;" horiz-adv-x="440" d="M146 -114q0 24 13.5 45t37.5 37q6 3 6 14q0 7 -3 12.5t-11 6.5q-39 4 -69.5 23t-52 47.5t-32.5 63.5t-11 71q0 56 21 96t55 66t76.5 38t85.5 12q35 0 52.5 -4t25.5 -15q0 -1 -1.5 -6t-3 -11.5t-2.5 -13.5t-1 -11q5 -5 11.5 -8t11.5 -7q6 0 32 26q3 -1 7 -3t7.5 -8 t5.5 -16.5t2 -28.5q0 -67 -0.5 -109t-2 -69t-3 -43.5t-2.5 -32.5q-3 -34 -17.5 -51t-30.5 -21q-38 -9 -61 -19.5t-35.5 -22.5t-17 -25.5t-4.5 -29.5q0 -23 20.5 -34.5t44.5 -11.5q14 0 22 6t15 13.5t15.5 13.5t24.5 6q13 0 22.5 -6.5t9.5 -28.5q0 -33 -33.5 -48.5 t-90.5 -15.5q-24 0 -49 5.5t-45 18t-32.5 32t-12.5 47.5zM264 128q15 24 15 67q0 13 -2 32t-8 36t-18 29t-31 12q-18 0 -30 -11t-18.5 -27.5t-9.5 -35.5t-3 -34q0 -12 1.5 -25.5t3.5 -29.5l-16 -15q-1 -1 -1 -5q0 -18 29 -45q17 17 88 52zM279 402q-7 0 -18 -2t-11 -10 q0 -10 9 -10q11 0 16.5 1t6.5 1q12 0 20 -4.5t10 -4.5q10 0 10 10q0 19 -43 19zM396 284q0 24 -4.5 42.5t-15.5 18.5t-11 -10q0 -3 5.5 -13.5t5.5 -37.5q0 -10 10 -10t10 10zM258 90q0 8 -9 10q0 -1 -7.5 -3t-16.5 -5t-16 -7t-7 -8q0 -10 10 -10q20 0 33 8t13 15zM150 157 q-7 18 -7 28t-10 10t-10 -11q0 -2 0.5 -8.5t2.5 -13.5t5 -13t9 -6q11 0 11 8q0 4 -1 6zM301 -127q6 -2 6 -8q0 -9 -6 -9q-4 0 -11 2.5t-14.5 7t-13 10t-5.5 11.5q0 9 9 9q4 0 13.5 -10t21.5 -13zM394 -153q0 23 -16 23q-10 0 -10 -10q0 -3 3.5 -6t3.5 -8q0 -2 -0.5 -4 t-0.5 -5q0 -8 10 -8t10 18z" />
<glyph unicode="&#x106;" horiz-adv-x="392" d="M382 656q-10 -17 -35.5 -22t-53.5 -5q-27 0 -44.5 -2t-30.5 -4q-21 -4 -39 -23.5t-18 -51.5v-334q0 -55 8 -63q-8 -13 -13 -21.5t-7.5 -14t-3.5 -8.5t-1 -6q30 -27 66.5 -38t63.5 -11q13 0 20.5 5.5t13 12.5t10.5 12.5t14 5.5q11 0 18.5 -8t7.5 -21q0 -29 -37.5 -47.5 t-94.5 -18.5q-47 0 -84 15.5t-62.5 42t-39.5 61.5t-14 74v353q0 43 17 79t48.5 61.5t77 39.5t101.5 14q25 0 49 -3q3 -4 5 -18.5t11 -24.5q8 0 18.5 4t28.5 12v-47zM212 91q7 -2 19.5 -3.5l25 -3t22 -4t9.5 -6.5q0 -7 -8 -7q-6 0 -18.5 1t-25 3t-22 5.5t-9.5 8.5q0 6 7 6z M295 697q11 0 11 10t-11 10h-30q-11 0 -11 -10t11 -10h30zM154 149q-4 12 -4 20.5t-11 8.5q-10 0 -10 -11q0 -32 15 -32q11 0 11 8q0 4 -1 6zM336 962q7 -9 7 -19q0 -5 -1.5 -11t-9.5 -17l-90 -129q-11 -15 -23 -21t-28 -6q-22 0 -32.5 15.5t-10.5 32.5q0 14 8 25l86 127 q10 15 24 19.5t23 4.5q5 0 8.5 -1t8.5 -3q-4 -11 -4 -22q0 -9 3 -13q5 5 14 10.5t17 7.5zM305 902q3 0 10.5 9t7.5 13q0 8 -10 8q-5 0 -11.5 -8.5t-6.5 -13.5q0 -8 10 -8z" />
<glyph unicode="&#x107;" horiz-adv-x="372" d="M345 394q11 -14 11 -31q0 -9 -3 -19t-12 -18t-24.5 -13.5t-39.5 -5.5q-50 -1 -73 -5t-37 -17q-15 -14 -19.5 -30.5t-4.5 -40.5q0 -12 3 -30t3 -26q0 -23 -23 -38q11 -26 38 -42.5t76 -16.5q15 0 31.5 1.5t36.5 5.5q12 0 19.5 -6.5t7.5 -19.5q0 -16 -13.5 -25.5t-32 -15 t-38.5 -7t-33 -1.5q-41 0 -77.5 15.5t-63.5 43t-42.5 65.5t-15.5 82q0 70 18.5 113t51.5 66.5t77.5 31.5t96.5 8q14 0 24 -7.5t10 -21.5q0 -7 -3 -14q28 0 51 19zM338 359q-2 9 -10 9q-10 0 -10 -9v-3q0 -4 -16 -10l-21 -8q-6 -2 -6 -9q0 -10 11 -10q6 0 15 3t17.5 8.5 t14 13t5.5 15.5zM205 101q8 -2 8 -10q0 -11 -8 -11q-4 0 -13 3.5t-18 9t-15.5 12t-6.5 13.5q0 10 11 10q5 0 16.5 -12t25.5 -15zM271 405q-15 3 -47 3q-10 0 -10 -11q0 -8 16 -10t29 -2t17 2.5t4 7.5q0 8 -9 10zM326 647q7 -9 7 -19q0 -5 -1.5 -11t-9.5 -17l-90 -129 q-11 -15 -23 -21t-28 -6q-22 0 -32.5 15.5t-10.5 32.5q0 14 8 25l86 127q10 15 24 19.5t23 4.5q5 0 8.5 -1t8.5 -3q-4 -11 -4 -22q0 -9 3 -13q5 5 14 10.5t17 7.5zM295 587q3 0 10.5 9t7.5 13q0 8 -10 8q-5 0 -11.5 -8.5t-6.5 -13.5q0 -8 10 -8z" />
<glyph unicode="&#x10a;" horiz-adv-x="392" d="M382 656q-10 -17 -35.5 -22t-53.5 -5q-27 0 -44.5 -2t-30.5 -4q-21 -4 -39 -23.5t-18 -51.5v-334q0 -55 8 -63q-8 -13 -13 -21.5t-7.5 -14t-3.5 -8.5t-1 -6q30 -27 66.5 -38t63.5 -11q13 0 20.5 5.5t13 12.5t10.5 12.5t14 5.5q11 0 18.5 -8t7.5 -21q0 -29 -37.5 -47.5 t-94.5 -18.5q-47 0 -84 15.5t-62.5 42t-39.5 61.5t-14 74v353q0 43 17 79t48.5 61.5t77 39.5t101.5 14q25 0 49 -3q3 -4 5 -18.5t11 -24.5q8 0 18.5 4t28.5 12v-47zM212 91q7 -2 19.5 -3.5l25 -3t22 -4t9.5 -6.5q0 -7 -8 -7q-6 0 -18.5 1t-25 3t-22 5.5t-9.5 8.5q0 6 7 6z M295 697q11 0 11 10t-11 10h-30q-11 0 -11 -10t11 -10h30zM154 149q-4 12 -4 20.5t-11 8.5q-10 0 -10 -11q0 -32 15 -32q11 0 11 8q0 4 -1 6zM279 885q0 -30 -19.5 -45t-43.5 -15q-32 0 -48 18.5t-16 46.5q0 26 15 43t43 19q0 -13 4 -25t12 -29q5 9 15.5 17.5t19.5 11.5 q8 -9 13 -18.5t5 -23.5zM257 876q0 23 -16 23q-10 0 -10 -10q0 -3 3.5 -6t3.5 -8q0 -2 -0.5 -4t-0.5 -5q0 -8 10 -8t10 18z" />
<glyph unicode="&#x10b;" horiz-adv-x="372" d="M345 394q11 -14 11 -31q0 -9 -3 -19t-12 -18t-24.5 -13.5t-39.5 -5.5q-50 -1 -73 -5t-37 -17q-15 -14 -19.5 -30.5t-4.5 -40.5q0 -12 3 -30t3 -26q0 -23 -23 -38q11 -26 38 -42.5t76 -16.5q15 0 31.5 1.5t36.5 5.5q12 0 19.5 -6.5t7.5 -19.5q0 -16 -13.5 -25.5t-32 -15 t-38.5 -7t-33 -1.5q-41 0 -77.5 15.5t-63.5 43t-42.5 65.5t-15.5 82q0 70 18.5 113t51.5 66.5t77.5 31.5t96.5 8q14 0 24 -7.5t10 -21.5q0 -7 -3 -14q28 0 51 19zM338 359q-2 9 -10 9q-10 0 -10 -9v-3q0 -4 -16 -10l-21 -8q-6 -2 -6 -9q0 -10 11 -10q6 0 15 3t17.5 8.5 t14 13t5.5 15.5zM205 101q8 -2 8 -10q0 -11 -8 -11q-4 0 -13 3.5t-18 9t-15.5 12t-6.5 13.5q0 10 11 10q5 0 16.5 -12t25.5 -15zM271 405q-15 3 -47 3q-10 0 -10 -11q0 -8 16 -10t29 -2t17 2.5t4 7.5q0 8 -9 10zM269 570q0 -30 -19.5 -45t-43.5 -15q-32 0 -48 18.5t-16 46.5 q0 26 15 43t43 19q0 -13 4 -25t12 -29q5 9 15.5 17.5t19.5 11.5q8 -9 13 -18.5t5 -23.5zM247 561q0 23 -16 23q-10 0 -10 -10q0 -3 3.5 -6t3.5 -8q0 -2 -0.5 -4t-0.5 -5q0 -8 10 -8t10 18z" />
<glyph unicode="&#x10c;" horiz-adv-x="392" d="M382 656q-10 -17 -35.5 -22t-53.5 -5q-27 0 -44.5 -2t-30.5 -4q-21 -4 -39 -23.5t-18 -51.5v-334q0 -55 8 -63q-8 -13 -13 -21.5t-7.5 -14t-3.5 -8.5t-1 -6q30 -27 66.5 -38t63.5 -11q13 0 20.5 5.5t13 12.5t10.5 12.5t14 5.5q11 0 18.5 -8t7.5 -21q0 -29 -37.5 -47.5 t-94.5 -18.5q-47 0 -84 15.5t-62.5 42t-39.5 61.5t-14 74v353q0 43 17 79t48.5 61.5t77 39.5t101.5 14q25 0 49 -3q3 -4 5 -18.5t11 -24.5q8 0 18.5 4t28.5 12v-47zM212 91q7 -2 19.5 -3.5l25 -3t22 -4t9.5 -6.5q0 -7 -8 -7q-6 0 -18.5 1t-25 3t-22 5.5t-9.5 8.5q0 6 7 6z M295 697q11 0 11 10t-11 10h-30q-11 0 -11 -10t11 -10h30zM154 149q-4 12 -4 20.5t-11 8.5q-10 0 -10 -11q0 -32 15 -32q11 0 11 8q0 4 -1 6zM74 915q-9 13 -9 26q0 17 14 29.5t38 12.5q-5 -9 -5 -22q0 -5 2 -15q4 12 14.5 20.5t17.5 9.5q10 -4 18 -17l51 -76l51 76 q10 15 24 19.5t23 4.5q5 0 8.5 -1t8.5 -3q-4 -11 -4 -22q0 -9 3 -13q5 5 14 10.5t17 7.5q7 -9 7 -19q0 -5 -1.5 -11t-9.5 -17l-90 -129q-11 -14 -22 -20t-25 -7q-18 0 -31 6t-24 21zM329 902q3 0 10.5 9t7.5 13q0 8 -10 8q-5 0 -11.5 -8.5t-6.5 -13.5q0 -8 10 -8zM193 861 q10 0 10 8q0 2 -6.5 14t-15 25.5t-17 24t-12.5 10.5q-10 0 -10 -8q0 -2 7.5 -13.5t16.5 -25t17 -24.5t10 -11z" />
<glyph unicode="&#x10d;" horiz-adv-x="372" d="M345 394q11 -14 11 -31q0 -9 -3 -19t-12 -18t-24.5 -13.5t-39.5 -5.5q-50 -1 -73 -5t-37 -17q-15 -14 -19.5 -30.5t-4.5 -40.5q0 -12 3 -30t3 -26q0 -23 -23 -38q11 -26 38 -42.5t76 -16.5q15 0 31.5 1.5t36.5 5.5q12 0 19.5 -6.5t7.5 -19.5q0 -16 -13.5 -25.5t-32 -15 t-38.5 -7t-33 -1.5q-41 0 -77.5 15.5t-63.5 43t-42.5 65.5t-15.5 82q0 70 18.5 113t51.5 66.5t77.5 31.5t96.5 8q14 0 24 -7.5t10 -21.5q0 -7 -3 -14q28 0 51 19zM338 359q-2 9 -10 9q-10 0 -10 -9v-3q0 -4 -16 -10l-21 -8q-6 -2 -6 -9q0 -10 11 -10q6 0 15 3t17.5 8.5 t14 13t5.5 15.5zM205 101q8 -2 8 -10q0 -11 -8 -11q-4 0 -13 3.5t-18 9t-15.5 12t-6.5 13.5q0 10 11 10q5 0 16.5 -12t25.5 -15zM271 405q-15 3 -47 3q-10 0 -10 -11q0 -8 16 -10t29 -2t17 2.5t4 7.5q0 8 -9 10zM64 600q-9 13 -9 26q0 17 14 29.5t38 12.5q-5 -9 -5 -22 q0 -5 2 -15q4 12 14.5 20.5t17.5 9.5q10 -4 18 -17l51 -76l51 76q10 15 24 19.5t23 4.5q5 0 8.5 -1t8.5 -3q-4 -11 -4 -22q0 -9 3 -13q5 5 14 10.5t17 7.5q7 -9 7 -19q0 -5 -1.5 -11t-9.5 -17l-90 -129q-11 -14 -22 -20t-25 -7q-18 0 -31 6t-24 21zM319 587q3 0 10.5 9 t7.5 13q0 8 -10 8q-5 0 -11.5 -8.5t-6.5 -13.5q0 -8 10 -8zM183 546q10 0 10 8q0 2 -6.5 14t-15 25.5t-17 24t-12.5 10.5q-10 0 -10 -8q0 -2 7.5 -13.5t16.5 -25t17 -24.5t10 -11z" />
<glyph unicode="&#x10e;" horiz-adv-x="434" d="M406 158q0 -40 -17.5 -70.5t-50.5 -51.5t-79 -32t-103 -11q-23 0 -46 4t-41.5 14.5t-30 28t-11.5 45.5v584q0 64 114 64q83 0 121 -18q0 -4 -16 -19q32 -19 61 -44t45 -46q17 17 26 17q11 -9 19.5 -26.5t8.5 -57.5v-381zM222 613q-42 0 -55 -22.5t-13 -57.5v-352 q2 -18 5 -27.5t3 -10.5q-25 -25 -25 -36q26 -26 45 -26q1 0 3.5 4.5t6.5 10.5t10 12t13 9q17 8 29 13t20 11.5t12 16t5 25.5v347q0 16 -3 31t-9.5 26.5t-18 18.5t-28.5 7zM394 547q0 4 -1.5 12.5t-4.5 16.5t-7 14t-9 6q-10 0 -10 -11q0 -3 2.5 -11t6 -16t7 -14t6.5 -6 q10 0 10 9zM332 674q4 -3 4 -8q0 -10 -10 -10q-5 0 -10.5 4t-10.5 9.5t-8 10l-3 4.5q0 11 10 11q2 0 28 -21zM225 716q-18 3 -22 3q-11 0 -11 -11q0 -7 5.5 -9.5t27.5 -2.5q10 0 10 10q0 9 -10 10zM142 164q0 10 -10 10t-10 -10v-22q0 -10 10 -10t10 10v22zM235 93 q0 10 -11 10q-25 0 -25 -15q0 -10 10 -10q26 0 26 15zM55 915q-9 13 -9 26q0 17 14 29.5t38 12.5q-5 -9 -5 -22q0 -5 2 -15q4 12 14.5 20.5t17.5 9.5q10 -4 18 -17l51 -76l51 76q10 15 24 19.5t23 4.5q5 0 8.5 -1t8.5 -3q-4 -11 -4 -22q0 -9 3 -13q5 5 14 10.5t17 7.5 q7 -9 7 -19q0 -5 -1.5 -11t-9.5 -17l-90 -129q-11 -14 -22 -20t-25 -7q-18 0 -31 6t-24 21zM310 902q3 0 10.5 9t7.5 13q0 8 -10 8q-5 0 -11.5 -8.5t-6.5 -13.5q0 -8 10 -8zM174 861q10 0 10 8q0 2 -6.5 14t-15 25.5t-17 24t-12.5 10.5q-10 0 -10 -8q0 -2 7.5 -13.5 t16.5 -25t17 -24.5t10 -11z" />
<glyph unicode="&#x10f;" horiz-adv-x="546" d="M406 373q0 -88 -3 -151t-10.5 -105t-20.5 -66.5t-33.5 -37.5t-48.5 -16.5t-65 -3.5q-44 0 -83 12t-68.5 38t-47 66.5t-17.5 97.5q0 51 10 86.5t28 59.5t44.5 38t59.5 22q51 11 77.5 27t26.5 40q0 103 3.5 159.5t16.5 70.5q9 11 20.5 17t35.5 6q2 -3 3 -12.5t2 -19.5 t2 -19.5t2 -12.5q8 8 20.5 12t21.5 4q7 -14 12 -30.5t7.5 -49.5t3.5 -87.5t1 -144.5zM245 140q13 20 13 70q0 20 -1.5 36.5t-7 28t-16 18t-27.5 6.5q-40 0 -53.5 -20t-13.5 -61q0 -6 1.5 -19.5t1.5 -28.5q0 -3 -0.5 -5.5t-0.5 -4.5q0 -4 -3 -11t-6 -15t-6 -15t-3 -11 q14 -16 26 -22t23 -6q0 11 9.5 19.5t21.5 15l24 13t18 12.5zM395 580q-1 8 -2.5 18.5t-5.5 22.5l-12 40q-1 7 -10 7q-10 0 -10 -10q0 -2 2.5 -16t7 -30t9.5 -29t11 -13q10 0 10 10zM250 94q6 1 6 9q0 10 -10 10q-7 0 -16 -3t-17 -6.5t-13.5 -7.5t-5.5 -7q0 -10 10 -10 q9 0 21 4.5t25 10.5zM126 151q-2 4 -2.5 12t-1.5 16t-3 14t-7 6q-12 0 -12 -10q0 -31 5.5 -40t10.5 -9q10 0 10 9v2zM316 694q11 0 11 10q0 11 -11 11t-20 -6l-5 -2q-4 -4 -4 -10q0 -10 10 -10q3 0 6 1l3 3q4 3 10 3zM524 707q11 -6 15.5 -19.5t4.5 -22.5q0 -30 -8.5 -54.5 t-20.5 -41.5t-26 -26.5t-24 -9.5q-12 0 -16.5 5.5t-4.5 14.5q0 8 3 15t3 15q0 10 -7 18q-15 19 -20.5 33t-5.5 34t13 41.5t44 23.5q0 -2 -0.5 -4.5t-0.5 -4.5q0 -23 17 -46q3 11 13.5 20t20.5 9zM514 627q10 0 11.5 13.5t1.5 21.5q0 10 -10 10q-8 0 -11 -10.5t-3 -27.5 q0 -7 11 -7z" />
<glyph unicode="&#x110;" horiz-adv-x="454" d="M426 158q0 -40 -17.5 -70.5t-50.5 -51.5t-79 -32t-103 -11q-23 0 -46 4t-41.5 14.5t-30 28t-11.5 45.5v180q0 24 -6.5 37.5t-14 23t-14 18.5t-6.5 23t6.5 22.5t14 18t14 22.5t6.5 36v203q0 64 114 64q83 0 121 -18q0 -4 -16 -19q32 -19 61 -44t45 -46q17 17 26 17 q11 -9 19.5 -26.5t8.5 -57.5v-381zM287 374q1 -5 1 -9v-8q0 -20 -15.5 -32.5t-44.5 -12.5h-54v-131q2 -18 5 -27.5t3 -10.5q-25 -25 -25 -36q26 -26 45 -26q1 0 3.5 4.5t6.5 10.5t10 12t13 9q17 8 29 13t20 11.5t12 16t5 25.5v347q0 16 -3 31t-9.5 26.5t-18 18.5t-28.5 7 q-42 0 -55 -22.5t-13 -57.5v-114h53q28 0 36 -8q-12 -7 -22.5 -17t-13.5 -19q5 1 10.5 1h11.5h17.5t20.5 -2zM414 547q0 4 -1.5 12.5t-4.5 16.5t-7 14t-9 6q-10 0 -10 -11q0 -3 2.5 -11t6 -16t7 -14t6.5 -6q10 0 10 9zM352 674q4 -3 4 -8q0 -10 -10 -10q-5 0 -10.5 4 t-10.5 9.5t-8 10l-3 4.5q0 11 10 11q2 0 28 -21zM245 716q-18 3 -22 3q-11 0 -11 -11q0 -7 5.5 -9.5t27.5 -2.5q10 0 10 10q0 9 -10 10zM162 164q0 10 -10 10t-10 -10v-22q0 -10 10 -10t10 10v22zM255 93q0 10 -11 10q-25 0 -25 -15q0 -10 10 -10q26 0 26 15zM202 378 q10 0 10 10q0 9 -9.5 12t-33.5 3q-10 0 -10 -10q0 -5 5 -8t12 -4.5t14.5 -2t11.5 -0.5z" />
<glyph unicode="&#x111;" horiz-adv-x="428" d="M475 575q1 -5 1 -9v-8q0 -20 -15.5 -32.5t-44.5 -12.5h-11q1 -28 1 -62.5v-77.5q0 -88 -3 -151t-10.5 -105t-20.5 -66.5t-33.5 -37.5t-48.5 -16.5t-65 -3.5q-44 0 -83 12t-68.5 38t-47 66.5t-17.5 97.5q0 51 10 86.5t28 59.5t44.5 38t59.5 22q51 11 77.5 27t26.5 40v33 h-46q-53 0 -53 55q0 23 14.5 37.5t37.5 14.5h49q5 75 18 90q9 11 20.5 17t35.5 6q2 -3 3 -12.5t2 -19.5t2 -19.5t2 -12.5q8 8 20.5 12t21.5 4q7 -12 11.5 -26t6.5 -39h15q28 0 36 -8q-12 -7 -22.5 -17t-13.5 -19q5 1 10.5 1h11.5h17.5t20.5 -2zM245 140q13 20 13 70 q0 20 -1.5 36.5t-7 28t-16 18t-27.5 6.5q-40 0 -53.5 -20t-13.5 -61q0 -6 1.5 -19.5t1.5 -28.5q0 -3 -0.5 -5.5t-0.5 -4.5q0 -4 -3 -11t-6 -15t-6 -15t-3 -11q14 -16 26 -22t23 -6q0 11 9.5 19.5t21.5 15l24 13t18 12.5zM250 94q6 1 6 9q0 10 -10 10q-7 0 -16 -3t-17 -6.5 t-13.5 -7.5t-5.5 -7q0 -10 10 -10q9 0 21 4.5t25 10.5zM126 151q-2 4 -2.5 12t-1.5 16t-3 14t-7 6q-12 0 -12 -10q0 -31 5.5 -40t10.5 -9q10 0 10 9v2zM316 694q11 0 11 10q0 11 -11 11t-20 -6l-5 -2q-4 -4 -4 -10q0 -10 10 -10q3 0 6 1l3 3q4 3 10 3zM395 580 q-1 8 -2.5 18.5t-5.5 22.5l-12 40q-1 7 -10 7q-10 0 -10 -10q0 -2 2.5 -16t7 -30t9.5 -29t11 -13q10 0 10 10z" />
<glyph unicode="&#x112;" horiz-adv-x="397" d="M390 682q-4 -15 -10 -24.5t-16 -15.5t-25.5 -8.5t-38.5 -2.5h-33q-34 0 -55.5 -5.5t-34 -17.5t-17.5 -30.5t-5 -43.5q0 -10 3 -26.5t3 -22.5q0 -25 -24 -41q1 -9 8 -19.5t17 -19.5t20.5 -15.5t18.5 -6.5q24 0 29 5q0 5 -8 14t-8 12q3 1 5.5 1.5t6.5 0.5q16 0 39 -12 q-7 -3 -13 -7.5t-6 -15.5q54 0 63 27q14 -14 14 -39q-9 -19 -36.5 -30t-57 -25t-52.5 -36.5t-23 -65.5q0 -25 9 -52q0 -14 -34 -45q14 -41 67 -45q9 6 9 23q23 5 46.5 8t48.5 3q20 0 25.5 -8t5.5 -36h59q0 -23 -10.5 -36.5t-34 -20t-61.5 -8.5t-92 -2q-164 0 -164 73v577 q0 37 23.5 56t63 26.5t90.5 7.5h106q14 0 21 -13q-7 -2 -12 -7t-5 -13q0 -11 11 -11q22 0 40 2t24 6v-15zM144 510q0 10 -10 10q-11 0 -11 -10v-39q0 -10 11 -10q10 0 10 10v39zM136 181q0 9 -10 9q-9 0 -11 -9.5t-2 -24.5q0 -19 10 -19q6 0 9.5 5.5t3.5 11.5v27zM369 674 q0 10 -10 10q-3 0 -7.5 -4t-8.5 -9t-7 -9.5t-3 -5.5q0 -10 10 -10q12 0 19 12.5t7 15.5zM251 68q10 0 10 11q0 10 -10 10h-24q-10 0 -10 -10q0 -11 10 -11h24zM265 721q-10 0 -10 -10q0 -9 10 -10l25 -2q9 0 9 10q0 8 -9 10zM357 892q1 -5 1 -9v-8q0 -20 -15.5 -32.5 t-44.5 -12.5h-207q-53 0 -53 55q0 23 14.5 37.5t37.5 14.5h207q28 0 36 -8q-12 -7 -22.5 -17t-13.5 -19q5 1 10.5 1h11.5h17.5t20.5 -2zM272 896q10 0 10 10q0 9 -19.5 12t-43.5 3q-10 0 -10 -10q0 -5 8.5 -8t19 -4.5t21 -2t14.5 -0.5z" />
<glyph unicode="&#x113;" horiz-adv-x="417" d="M367 316q20 -8 29 -26t9 -40q0 -29 -13.5 -50t-38.5 -28l-95 -25q-29 -8 -47.5 -24t-26.5 -35q23 -26 68 -26q43 0 57 30q17 -5 17 -26q0 -10 -6 -22q-50 -51 -114 -51q-31 0 -64.5 15t-61 43t-45.5 66.5t-18 86.5q0 45 14.5 84.5t40.5 68t63.5 45t84.5 16.5q33 0 33 -19 q0 -2 -2 -11.5t-7 -14.5q16 -8 39 -26t52 -48q13 0 32 17zM241 255q10 8 13 17.5t3 23.5q0 7 -10 20t-34 13q-30 0 -48.5 -9.5t-22.5 -20.5l-4 -42q-14 -23 -14 -28q6 -20 29 -29q16 9 42 23.5t46 31.5zM223 60q-11 1 -21.5 9t-18.5 8q-10 0 -10 -10q0 -5 5.5 -10t13 -9 t16.5 -6.5t15 -2.5q9 0 9 11q0 8 -9 10zM388 257q0 11 -9 25.5t-18 14.5q-10 0 -10 -10q0 -7 8.5 -14t8.5 -15q0 -3 -1 -6t-1 -5q0 -8 11 -8t11 18zM214 406q-11 0 -23 -4t-12 -14t10 -10q2 0 8.5 4t16.5 4q1 0 5 -1.5t11 -1.5q9 0 9 11q0 12 -25 12zM146 189q-11 0 -11 -11 q0 -10 11 -10q22 0 31 4.5t9 12.5q0 12 -10 12q-3 0 -7 -4t-23 -4zM120 249q2 6 2 7q0 8 -12 8q-5 0 -8 -5t-5 -11t-3 -11.5t-1 -7.5q0 -11 11 -11q5 0 6.5 1.5t2.5 5.5t2 10t5 14zM127 193q0 13 -11 13t-11 -13q0 -12 11 -12t11 12zM367 577q1 -5 1 -9v-8 q0 -20 -15.5 -32.5t-44.5 -12.5h-207q-53 0 -53 55q0 23 14.5 37.5t37.5 14.5h207q28 0 36 -8q-12 -7 -22.5 -17t-13.5 -19q5 1 10.5 1h11.5h17.5t20.5 -2zM282 581q10 0 10 10q0 9 -19.5 12t-43.5 3q-10 0 -10 -10q0 -5 8.5 -8t19 -4.5t21 -2t14.5 -0.5z" />
<glyph unicode="&#x114;" horiz-adv-x="397" d="M390 682q-4 -15 -10 -24.5t-16 -15.5t-25.5 -8.5t-38.5 -2.5h-33q-34 0 -55.5 -5.5t-34 -17.5t-17.5 -30.5t-5 -43.5q0 -10 3 -26.5t3 -22.5q0 -25 -24 -41q1 -9 8 -19.5t17 -19.5t20.5 -15.5t18.5 -6.5q24 0 29 5q0 5 -8 14t-8 12q3 1 5.5 1.5t6.5 0.5q16 0 39 -12 q-7 -3 -13 -7.5t-6 -15.5q54 0 63 27q14 -14 14 -39q-9 -19 -36.5 -30t-57 -25t-52.5 -36.5t-23 -65.5q0 -25 9 -52q0 -14 -34 -45q14 -41 67 -45q9 6 9 23q23 5 46.5 8t48.5 3q20 0 25.5 -8t5.5 -36h59q0 -23 -10.5 -36.5t-34 -20t-61.5 -8.5t-92 -2q-164 0 -164 73v577 q0 37 23.5 56t63 26.5t90.5 7.5h106q14 0 21 -13q-7 -2 -12 -7t-5 -13q0 -11 11 -11q22 0 40 2t24 6v-15zM144 510q0 10 -10 10q-11 0 -11 -10v-39q0 -10 11 -10q10 0 10 10v39zM136 181q0 9 -10 9q-9 0 -11 -9.5t-2 -24.5q0 -19 10 -19q6 0 9.5 5.5t3.5 11.5v27zM369 674 q0 10 -10 10q-3 0 -7.5 -4t-8.5 -9t-7 -9.5t-3 -5.5q0 -10 10 -10q12 0 19 12.5t7 15.5zM251 68q10 0 10 11q0 10 -10 10h-24q-10 0 -10 -10q0 -11 10 -11h24zM265 721q-10 0 -10 -10q0 -9 10 -10l25 -2q9 0 9 10q0 8 -9 10zM322 895q0 -30 -12 -50.5t-30.5 -32.5 t-40.5 -17.5t-42 -5.5t-41.5 5.5t-39.5 17.5t-29.5 30.5t-11.5 44.5v60q0 17 12.5 26.5t35.5 9.5q1 -3 1 -9q0 -9 -5 -17q2 -2 4 -5.5t4 -6.5l16 15q7 -6 14 -6v-57q0 -4 4.5 -12t4.5 -13q0 -11 -20 -16q19 -19 29 -19q18 6 32 15q12 8 22 17.5t10 23.5v54q0 18 15 27t32 9 q2 0 2 -5q0 -14 -5 -21q3 -2 4.5 -5.5t4.5 -6.5l16 14q4 3 8 3q6 0 6 -7v-60zM315 903q3 10 3 19q0 6 -3 14.5t-8 8.5q-6 0 -6 -6q0 -3 2 -7t2 -9t-2 -10t-2 -10q0 -4 8 -4q4 0 6 4zM149 939q0 6 -6 6q-7 0 -7 -6v-27q0 -6 7 -6q6 0 6 6v27zM236 845q2 1 2 4q0 4 -6 6 l-5 -1.5t-11 -4t-11 -5t-5 -5.5q0 -5 5 -5q8 0 17 3.5t14 7.5zM155 867q-2 7 -4 16.5t-7 9.5q-7 0 -7 -6q0 -9 3 -16.5t9 -7.5q5 0 6 4zM110 958q2 2 2 5q0 6 -7 6q-5 0 -11.5 -8.5t-6.5 -12.5t7 -4q5 0 6.5 4.5t9.5 9.5zM272 957q8 0 8 6t-8 6q-6 0 -12 -4h-4q-2 -2 -2 -6 q0 -6 6 -6q3 0 4 1l2 1q2 2 6 2z" />
<glyph unicode="&#x115;" horiz-adv-x="417" d="M367 316q20 -8 29 -26t9 -40q0 -29 -13.5 -50t-38.5 -28l-95 -25q-29 -8 -47.5 -24t-26.5 -35q23 -26 68 -26q43 0 57 30q17 -5 17 -26q0 -10 -6 -22q-50 -51 -114 -51q-31 0 -64.5 15t-61 43t-45.5 66.5t-18 86.5q0 45 14.5 84.5t40.5 68t63.5 45t84.5 16.5q33 0 33 -19 q0 -2 -2 -11.5t-7 -14.5q16 -8 39 -26t52 -48q13 0 32 17zM241 255q10 8 13 17.5t3 23.5q0 7 -10 20t-34 13q-30 0 -48.5 -9.5t-22.5 -20.5l-4 -42q-14 -23 -14 -28q6 -20 29 -29q16 9 42 23.5t46 31.5zM223 60q-11 1 -21.5 9t-18.5 8q-10 0 -10 -10q0 -5 5.5 -10t13 -9 t16.5 -6.5t15 -2.5q9 0 9 11q0 8 -9 10zM388 257q0 11 -9 25.5t-18 14.5q-10 0 -10 -10q0 -7 8.5 -14t8.5 -15q0 -3 -1 -6t-1 -5q0 -8 11 -8t11 18zM214 406q-11 0 -23 -4t-12 -14t10 -10q2 0 8.5 4t16.5 4q1 0 5 -1.5t11 -1.5q9 0 9 11q0 12 -25 12zM146 189q-11 0 -11 -11 q0 -10 11 -10q22 0 31 4.5t9 12.5q0 12 -10 12q-3 0 -7 -4t-23 -4zM120 249q2 6 2 7q0 8 -12 8q-5 0 -8 -5t-5 -11t-3 -11.5t-1 -7.5q0 -11 11 -11q5 0 6.5 1.5t2.5 5.5t2 10t5 14zM127 193q0 13 -11 13t-11 -13q0 -12 11 -12t11 12zM332 580q0 -30 -12 -50.5t-30.5 -32.5 t-40.5 -17.5t-42 -5.5t-41.5 5.5t-39.5 17.5t-29.5 30.5t-11.5 44.5v60q0 17 12.5 26.5t35.5 9.5q1 -3 1 -9q0 -9 -5 -17q2 -2 4 -5.5t4 -6.5l16 15q7 -6 14 -6v-57q0 -4 4.5 -12t4.5 -13q0 -11 -20 -16q19 -19 29 -19q18 6 32 15q12 8 22 17.5t10 23.5v54q0 18 15 27t32 9 q2 0 2 -5q0 -14 -5 -21q3 -2 4.5 -5.5t4.5 -6.5l16 14q4 3 8 3q6 0 6 -7v-60zM325 588q3 10 3 19q0 6 -3 14.5t-8 8.5q-6 0 -6 -6q0 -3 2 -7t2 -9t-2 -10t-2 -10q0 -4 8 -4q4 0 6 4zM159 624q0 6 -6 6q-7 0 -7 -6v-27q0 -6 7 -6q6 0 6 6v27zM246 530q2 1 2 4q0 4 -6 6 l-5 -1.5t-11 -4t-11 -5t-5 -5.5q0 -5 5 -5q8 0 17 3.5t14 7.5zM165 552q-2 7 -4 16.5t-7 9.5q-7 0 -7 -6q0 -9 3 -16.5t9 -7.5q5 0 6 4zM120 643q2 2 2 5q0 6 -7 6q-5 0 -11.5 -8.5t-6.5 -12.5t7 -4q5 0 6.5 4.5t9.5 9.5zM282 642q8 0 8 6t-8 6q-6 0 -12 -4h-4q-2 -2 -2 -6 q0 -6 6 -6q3 0 4 1l2 1q2 2 6 2z" />
<glyph unicode="&#x116;" horiz-adv-x="397" d="M390 682q-4 -15 -10 -24.5t-16 -15.5t-25.5 -8.5t-38.5 -2.5h-33q-34 0 -55.5 -5.5t-34 -17.5t-17.5 -30.5t-5 -43.5q0 -10 3 -26.5t3 -22.5q0 -25 -24 -41q1 -9 8 -19.5t17 -19.5t20.5 -15.5t18.5 -6.5q24 0 29 5q0 5 -8 14t-8 12q3 1 5.5 1.5t6.5 0.5q16 0 39 -12 q-7 -3 -13 -7.5t-6 -15.5q54 0 63 27q14 -14 14 -39q-9 -19 -36.5 -30t-57 -25t-52.5 -36.5t-23 -65.5q0 -25 9 -52q0 -14 -34 -45q14 -41 67 -45q9 6 9 23q23 5 46.5 8t48.5 3q20 0 25.5 -8t5.5 -36h59q0 -23 -10.5 -36.5t-34 -20t-61.5 -8.5t-92 -2q-164 0 -164 73v577 q0 37 23.5 56t63 26.5t90.5 7.5h106q14 0 21 -13q-7 -2 -12 -7t-5 -13q0 -11 11 -11q22 0 40 2t24 6v-15zM144 510q0 10 -10 10q-11 0 -11 -10v-39q0 -10 11 -10q10 0 10 10v39zM136 181q0 9 -10 9q-9 0 -11 -9.5t-2 -24.5q0 -19 10 -19q6 0 9.5 5.5t3.5 11.5v27zM369 674 q0 10 -10 10q-3 0 -7.5 -4t-8.5 -9t-7 -9.5t-3 -5.5q0 -10 10 -10q12 0 19 12.5t7 15.5zM251 68q10 0 10 11q0 10 -10 10h-24q-10 0 -10 -10q0 -11 10 -11h24zM265 721q-10 0 -10 -10q0 -9 10 -10l25 -2q9 0 9 10q0 8 -9 10zM262 885q0 -30 -19.5 -45t-43.5 -15 q-32 0 -48 18.5t-16 46.5q0 26 15 43t43 19q0 -13 4 -25t12 -29q5 9 15.5 17.5t19.5 11.5q8 -9 13 -18.5t5 -23.5zM240 876q0 23 -16 23q-10 0 -10 -10q0 -3 3.5 -6t3.5 -8q0 -2 -0.5 -4t-0.5 -5q0 -8 10 -8t10 18z" />
<glyph unicode="&#x117;" horiz-adv-x="417" d="M367 316q20 -8 29 -26t9 -40q0 -29 -13.5 -50t-38.5 -28l-95 -25q-29 -8 -47.5 -24t-26.5 -35q23 -26 68 -26q43 0 57 30q17 -5 17 -26q0 -10 -6 -22q-50 -51 -114 -51q-31 0 -64.5 15t-61 43t-45.5 66.5t-18 86.5q0 45 14.5 84.5t40.5 68t63.5 45t84.5 16.5q33 0 33 -19 q0 -2 -2 -11.5t-7 -14.5q16 -8 39 -26t52 -48q13 0 32 17zM241 255q10 8 13 17.5t3 23.5q0 7 -10 20t-34 13q-30 0 -48.5 -9.5t-22.5 -20.5l-4 -42q-14 -23 -14 -28q6 -20 29 -29q16 9 42 23.5t46 31.5zM223 60q-11 1 -21.5 9t-18.5 8q-10 0 -10 -10q0 -5 5.5 -10t13 -9 t16.5 -6.5t15 -2.5q9 0 9 11q0 8 -9 10zM388 257q0 11 -9 25.5t-18 14.5q-10 0 -10 -10q0 -7 8.5 -14t8.5 -15q0 -3 -1 -6t-1 -5q0 -8 11 -8t11 18zM214 406q-11 0 -23 -4t-12 -14t10 -10q2 0 8.5 4t16.5 4q1 0 5 -1.5t11 -1.5q9 0 9 11q0 12 -25 12zM146 189q-11 0 -11 -11 q0 -10 11 -10q22 0 31 4.5t9 12.5q0 12 -10 12q-3 0 -7 -4t-23 -4zM120 249q2 6 2 7q0 8 -12 8q-5 0 -8 -5t-5 -11t-3 -11.5t-1 -7.5q0 -11 11 -11q5 0 6.5 1.5t2.5 5.5t2 10t5 14zM127 193q0 13 -11 13t-11 -13q0 -12 11 -12t11 12zM272 570q0 -30 -19.5 -45t-43.5 -15 q-32 0 -48 18.5t-16 46.5q0 26 15 43t43 19q0 -13 4 -25t12 -29q5 9 15.5 17.5t19.5 11.5q8 -9 13 -18.5t5 -23.5zM250 561q0 23 -16 23q-10 0 -10 -10q0 -3 3.5 -6t3.5 -8q0 -2 -0.5 -4t-0.5 -5q0 -8 10 -8t10 18z" />
<glyph unicode="&#x118;" horiz-adv-x="397" d="M127 -114q0 29 17.5 52t48.5 39q6 3 6 9q0 7 -7 7q-164 0 -164 73v577q0 34 21 53t56 27t82 9.5t98 1.5q16 0 29 -2.5t18 -11.5q-7 -2 -12 -7t-5 -13q0 -11 11 -11q22 0 40 2t24 6v-15q-4 -15 -10 -24.5t-16 -15.5t-25.5 -8.5t-38.5 -2.5h-33q-34 0 -55.5 -5.5t-34 -17.5 t-17.5 -30.5t-5 -43.5q0 -10 3 -26.5t3 -22.5q0 -25 -24 -41q1 -9 8 -19.5t17 -19.5t20.5 -15.5t18.5 -6.5q24 0 29 5q0 5 -8 14t-8 12q3 1 5.5 1.5t6.5 0.5q16 0 39 -12q-7 -3 -13 -7.5t-6 -15.5q54 0 63 27q14 -14 14 -39q-9 -19 -36.5 -30t-57 -25t-52.5 -36.5t-23 -65.5 q0 -25 9 -52q0 -14 -34 -45q14 -41 67 -45q9 6 9 23q23 5 46.5 8t48.5 3q20 0 25.5 -8t5.5 -36h59q1 -4 1 -13q0 -20 -15 -37t-42 -24q-38 -9 -61 -19.5t-35.5 -22.5t-17 -25.5t-4.5 -29.5q0 -23 20.5 -34.5t44.5 -11.5q14 0 22 6t15 13.5t15.5 13.5t24.5 6q13 0 22.5 -6.5 t9.5 -28.5q0 -33 -33.5 -48.5t-90.5 -15.5q-24 0 -49 5.5t-45 18t-32.5 32t-12.5 47.5zM144 510q0 10 -10 10q-11 0 -11 -10v-39q0 -10 11 -10q10 0 10 10v39zM136 181q0 9 -10 9q-9 0 -11 -9.5t-2 -24.5q0 -19 10 -19q6 0 9.5 5.5t3.5 11.5v27zM282 -127q6 -2 6 -8 q0 -9 -6 -9q-4 0 -11 2.5t-14.5 7t-13 10t-5.5 11.5q0 9 9 9q4 0 13.5 -10t21.5 -13zM369 674q0 10 -10 10q-3 0 -7.5 -4t-8.5 -9t-7 -9.5t-3 -5.5q0 -10 10 -10q12 0 19 12.5t7 15.5zM251 68q10 0 10 11q0 10 -10 10h-24q-10 0 -10 -10q0 -11 10 -11h24zM265 721 q-10 0 -10 -10q0 -9 10 -10l25 -2q9 0 9 10q0 8 -9 10zM375 -153q0 23 -16 23q-10 0 -10 -10q0 -3 3.5 -6t3.5 -8q0 -2 -0.5 -4t-0.5 -5q0 -8 10 -8t10 18z" />
<glyph unicode="&#x119;" horiz-adv-x="417" d="M72 -114q0 34 25 65t69 48q-28 8 -54.5 26t-47.5 44.5t-34 60.5t-13 74q0 45 14.5 84.5t40.5 68t63.5 45t84.5 16.5q33 0 33 -19q0 -2 -2 -11.5t-7 -14.5q16 -8 39 -26t52 -48q13 0 32 17q20 -8 29 -26t9 -40q0 -29 -13.5 -50t-38.5 -28l-95 -25q-29 -8 -47.5 -24 t-26.5 -35q23 -26 68 -26q43 0 57 30q17 -5 17 -26q0 -23 -9 -40.5t-38 -25.5q-38 -10 -61 -22.5t-35.5 -27t-17 -30t-4.5 -31.5q0 -23 20.5 -34.5t44.5 -11.5q14 0 22 6t15 13.5t15.5 13.5t24.5 6q13 0 22.5 -6.5t9.5 -28.5q0 -33 -33.5 -48.5t-90.5 -15.5q-24 0 -49 5.5 t-45 18t-32.5 32t-12.5 47.5zM241 255q10 8 13 17.5t3 23.5q0 7 -10 20t-34 13q-30 0 -48.5 -9.5t-22.5 -20.5l-4 -42q-14 -23 -14 -28q6 -20 29 -29q16 9 42 23.5t46 31.5zM223 60q-11 1 -21.5 9t-18.5 8q-10 0 -10 -10q0 -5 5.5 -10t13 -9t16.5 -6.5t15 -2.5q9 0 9 11 q0 8 -9 10zM388 257q0 11 -9 25.5t-18 14.5q-10 0 -10 -10q0 -7 8.5 -14t8.5 -15q0 -3 -1 -6t-1 -5q0 -8 11 -8t11 18zM214 406q-11 0 -23 -4t-12 -14t10 -10q2 0 8.5 4t16.5 4q1 0 5 -1.5t11 -1.5q9 0 9 11q0 12 -25 12zM146 189q-11 0 -11 -11q0 -10 11 -10q22 0 31 4.5 t9 12.5q0 12 -10 12q-3 0 -7 -4t-23 -4zM227 -127q6 -2 6 -8q0 -9 -6 -9q-4 0 -11 2.5t-14.5 7t-13 10t-5.5 11.5q0 9 9 9q4 0 13.5 -10t21.5 -13zM120 249q2 6 2 7q0 8 -12 8q-5 0 -8 -5t-5 -11t-3 -11.5t-1 -7.5q0 -11 11 -11q5 0 6.5 1.5t2.5 5.5t2 10t5 14zM320 -153 q0 23 -16 23q-10 0 -10 -10q0 -3 3.5 -6t3.5 -8q0 -2 -0.5 -4t-0.5 -5q0 -8 10 -8t10 18zM127 193q0 13 -11 13t-11 -13q0 -12 11 -12t11 12z" />
<glyph unicode="&#x11a;" horiz-adv-x="397" d="M390 682q-4 -15 -10 -24.5t-16 -15.5t-25.5 -8.5t-38.5 -2.5h-33q-34 0 -55.5 -5.5t-34 -17.5t-17.5 -30.5t-5 -43.5q0 -10 3 -26.5t3 -22.5q0 -25 -24 -41q1 -9 8 -19.5t17 -19.5t20.5 -15.5t18.5 -6.5q24 0 29 5q0 5 -8 14t-8 12q3 1 5.5 1.5t6.5 0.5q16 0 39 -12 q-7 -3 -13 -7.5t-6 -15.5q54 0 63 27q14 -14 14 -39q-9 -19 -36.5 -30t-57 -25t-52.5 -36.5t-23 -65.5q0 -25 9 -52q0 -14 -34 -45q14 -41 67 -45q9 6 9 23q23 5 46.5 8t48.5 3q20 0 25.5 -8t5.5 -36h59q0 -23 -10.5 -36.5t-34 -20t-61.5 -8.5t-92 -2q-164 0 -164 73v577 q0 37 23.5 56t63 26.5t90.5 7.5h106q14 0 21 -13q-7 -2 -12 -7t-5 -13q0 -11 11 -11q22 0 40 2t24 6v-15zM144 510q0 10 -10 10q-11 0 -11 -10v-39q0 -10 11 -10q10 0 10 10v39zM136 181q0 9 -10 9q-9 0 -11 -9.5t-2 -24.5q0 -19 10 -19q6 0 9.5 5.5t3.5 11.5v27zM369 674 q0 10 -10 10q-3 0 -7.5 -4t-8.5 -9t-7 -9.5t-3 -5.5q0 -10 10 -10q12 0 19 12.5t7 15.5zM251 68q10 0 10 11q0 10 -10 10h-24q-10 0 -10 -10q0 -11 10 -11h24zM265 721q-10 0 -10 -10q0 -9 10 -10l25 -2q9 0 9 10q0 8 -9 10zM56 915q-9 13 -9 26q0 17 14 29.5t38 12.5 q-5 -9 -5 -22q0 -5 2 -15q4 12 14.5 20.5t17.5 9.5q10 -4 18 -17l51 -76l51 76q10 15 24 19.5t23 4.5q5 0 8.5 -1t8.5 -3q-4 -11 -4 -22q0 -9 3 -13q5 5 14 10.5t17 7.5q7 -9 7 -19q0 -5 -1.5 -11t-9.5 -17l-90 -129q-11 -14 -22 -20t-25 -7q-18 0 -31 6t-24 21zM311 902 q3 0 10.5 9t7.5 13q0 8 -10 8q-5 0 -11.5 -8.5t-6.5 -13.5q0 -8 10 -8zM175 861q10 0 10 8q0 2 -6.5 14t-15 25.5t-17 24t-12.5 10.5q-10 0 -10 -8q0 -2 7.5 -13.5t16.5 -25t17 -24.5t10 -11z" />
<glyph unicode="&#x11b;" horiz-adv-x="417" d="M367 316q20 -8 29 -26t9 -40q0 -29 -13.5 -50t-38.5 -28l-95 -25q-29 -8 -47.5 -24t-26.5 -35q23 -26 68 -26q43 0 57 30q17 -5 17 -26q0 -10 -6 -22q-50 -51 -114 -51q-31 0 -64.5 15t-61 43t-45.5 66.5t-18 86.5q0 45 14.5 84.5t40.5 68t63.5 45t84.5 16.5q33 0 33 -19 q0 -2 -2 -11.5t-7 -14.5q16 -8 39 -26t52 -48q13 0 32 17zM241 255q10 8 13 17.5t3 23.5q0 7 -10 20t-34 13q-30 0 -48.5 -9.5t-22.5 -20.5l-4 -42q-14 -23 -14 -28q6 -20 29 -29q16 9 42 23.5t46 31.5zM223 60q-11 1 -21.5 9t-18.5 8q-10 0 -10 -10q0 -5 5.5 -10t13 -9 t16.5 -6.5t15 -2.5q9 0 9 11q0 8 -9 10zM388 257q0 11 -9 25.5t-18 14.5q-10 0 -10 -10q0 -7 8.5 -14t8.5 -15q0 -3 -1 -6t-1 -5q0 -8 11 -8t11 18zM214 406q-11 0 -23 -4t-12 -14t10 -10q2 0 8.5 4t16.5 4q1 0 5 -1.5t11 -1.5q9 0 9 11q0 12 -25 12zM146 189q-11 0 -11 -11 q0 -10 11 -10q22 0 31 4.5t9 12.5q0 12 -10 12q-3 0 -7 -4t-23 -4zM120 249q2 6 2 7q0 8 -12 8q-5 0 -8 -5t-5 -11t-3 -11.5t-1 -7.5q0 -11 11 -11q5 0 6.5 1.5t2.5 5.5t2 10t5 14zM127 193q0 13 -11 13t-11 -13q0 -12 11 -12t11 12zM66 600q-9 13 -9 26q0 17 14 29.5 t38 12.5q-5 -9 -5 -22q0 -5 2 -15q4 12 14.5 20.5t17.5 9.5q10 -4 18 -17l51 -76l51 76q10 15 24 19.5t23 4.5q5 0 8.5 -1t8.5 -3q-4 -11 -4 -22q0 -9 3 -13q5 5 14 10.5t17 7.5q7 -9 7 -19q0 -5 -1.5 -11t-9.5 -17l-90 -129q-11 -14 -22 -20t-25 -7q-18 0 -31 6t-24 21z M321 587q3 0 10.5 9t7.5 13q0 8 -10 8q-5 0 -11.5 -8.5t-6.5 -13.5q0 -8 10 -8zM185 546q10 0 10 8q0 2 -6.5 14t-15 25.5t-17 24t-12.5 10.5q-10 0 -10 -8q0 -2 7.5 -13.5t16.5 -25t17 -24.5t10 -11z" />
<glyph unicode="&#x11e;" horiz-adv-x="427" d="M403 362q-2 -10 -2 -20.5v-23.5q0 -27 0.5 -51.5t1.5 -45t1.5 -34.5t0.5 -18q0 -42 -2 -72.5t-19 -54.5q-17 -25 -49.5 -37t-70.5 -12q-113 0 -177 46t-64 126v384q0 82 63 133t182 51q20 0 32.5 -3t26.5 -14l-17 -17q0 -12 15 -12q3 0 11.5 1t17.5 2l18 2t14 1 q-1 -16 -4.5 -27t-14.5 -18t-31.5 -11.5t-54.5 -7.5q-23 -2 -46 -10.5t-41 -24t-29 -38.5t-11 -56v-369q-12 -5 -12 -24q22 -22 36 -22q5 5 13.5 14t25.5 14q19 6 31 13.5t18.5 18.5t8.5 27t2 39q0 28 -5.5 46t-12 30.5t-12 23t-5.5 25.5q0 32 22.5 55t74.5 23q3 0 5 -9 t3 -21t2 -23.5t2 -15.5q5 0 31 27q13 -10 21 -10zM392 270q0 9 -0.5 22t-2 25.5t-4 21t-7.5 8.5q-11 0 -11 -11q0 -32 3 -54t12 -22q10 0 10 10zM283 697q10 0 10 10t-10 10q-4 0 -14 -0.5t-20.5 -3t-18.5 -6.5t-8 -10q0 -11 7 -11q16 0 29.5 5.5t24.5 5.5zM258 89q5 5 5 9 q0 11 -11 11q1 0 -8 -2.5t-20 -6t-20 -7.5t-9 -7q0 -10 11 -10q29 0 52 13zM142 137q-2 6 -3 14t-2 15.5t-3.5 12.5t-7.5 5q-10 0 -10 -11q0 -6 1 -15t3 -16.5t5 -13t8 -5.5q11 0 11 7q0 1 -2 7zM331 361q10 0 10 11q0 8 -9 10q-1 0 -7.5 -1.5t-14 -3.5t-14 -5.5t-6.5 -9.5 q0 -11 9 -11q17 0 25 5t7 5zM357 895q0 -30 -12 -50.5t-30.5 -32.5t-40.5 -17.5t-42 -5.5t-41.5 5.5t-39.5 17.5t-29.5 30.5t-11.5 44.5v60q0 17 12.5 26.5t35.5 9.5q1 -3 1 -9q0 -9 -5 -17q2 -2 4 -5.5t4 -6.5l16 15q7 -6 14 -6v-57q0 -4 4.5 -12t4.5 -13q0 -11 -20 -16 q19 -19 29 -19q18 6 32 15q12 8 22 17.5t10 23.5v54q0 18 15 27t32 9q2 0 2 -5q0 -14 -5 -21q3 -2 4.5 -5.5t4.5 -6.5l16 14q4 3 8 3q6 0 6 -7v-60zM350 903q3 10 3 19q0 6 -3 14.5t-8 8.5q-6 0 -6 -6q0 -3 2 -7t2 -9t-2 -10t-2 -10q0 -4 8 -4q4 0 6 4zM184 939q0 6 -6 6 q-7 0 -7 -6v-27q0 -6 7 -6q6 0 6 6v27zM271 845q2 1 2 4q0 4 -6 6l-5 -1.5t-11 -4t-11 -5t-5 -5.5q0 -5 5 -5q8 0 17 3.5t14 7.5zM190 867q-2 7 -4 16.5t-7 9.5q-7 0 -7 -6q0 -9 3 -16.5t9 -7.5q5 0 6 4zM145 958q2 2 2 5q0 6 -7 6q-5 0 -11.5 -8.5t-6.5 -12.5t7 -4 q5 0 6.5 4.5t9.5 9.5zM307 957q8 0 8 6t-8 6q-6 0 -12 -4h-4q-2 -2 -2 -6q0 -6 6 -6q3 0 4 1l2 1q2 2 6 2z" />
<glyph unicode="&#x11f;" horiz-adv-x="428" d="M381 368q12 -2 16.5 -12.5t4.5 -30.5q1 -31 1.5 -89t0.5 -145q0 -38 -1.5 -66.5t-4 -50t-6 -38.5t-8.5 -32q-17 -56 -71.5 -88.5t-132.5 -32.5q-32 0 -54 10.5t-22 30.5q0 15 11.5 25t29 17t38 12.5t38 13t29 17.5t11.5 26q0 10 -3.5 18t-15.5 15.5t-33.5 14.5t-57.5 16 q-18 4 -41 16.5t-43 35.5t-34 57.5t-14 84.5q0 88 48 151q19 24 40 39t43.5 22.5t47 10t50.5 2.5q45 0 64 -5t31 -14q0 -2 -2.5 -7t-6 -10t-6 -10t-2.5 -6l21 -23q25 25 34 25zM257 124q18 30 18 74q0 14 -2.5 30.5t-8.5 30.5t-15 23.5t-21 9.5q-30 0 -49.5 -15.5 t-19.5 -59.5q0 -22 -1 -45t-3 -43q-14 -23 -14 -28l29 -28q6 4 16.5 10.5t26.5 15.5zM145 192q0 10 -11 10q-9 0 -12 -19t-3 -48q0 -8 11 -8t11.5 18t3.5 44v3zM387 285q0 2 -0.5 12t-1.5 21.5t-4 20.5t-9 9q-10 0 -10 -9l5 -56q1 -9 10 -9q10 0 10 9v2zM309 398 q-6 1 -18 1.5t-31 0.5q-11 0 -11 -10q0 -5 8.5 -7.5t19 -4t20 -1.5h11.5q8 0 8 10q0 8 -7 11zM254 76q3 3 3 7q0 11 -10 11q-3 0 -7 -3q-2 -2 -9 -3.5t-14.5 -3t-13.5 -4.5t-6 -7q0 -10 10 -10q33 0 47 13zM337 580q0 -30 -12 -50.5t-30.5 -32.5t-40.5 -17.5t-42 -5.5 t-41.5 5.5t-39.5 17.5t-29.5 30.5t-11.5 44.5v60q0 17 12.5 26.5t35.5 9.5q1 -3 1 -9q0 -9 -5 -17q2 -2 4 -5.5t4 -6.5l16 15q7 -6 14 -6v-57q0 -4 4.5 -12t4.5 -13q0 -11 -20 -16q19 -19 29 -19q18 6 32 15q12 8 22 17.5t10 23.5v54q0 18 15 27t32 9q2 0 2 -5q0 -14 -5 -21 q3 -2 4.5 -5.5t4.5 -6.5l16 14q4 3 8 3q6 0 6 -7v-60zM330 588q3 10 3 19q0 6 -3 14.5t-8 8.5q-6 0 -6 -6q0 -3 2 -7t2 -9t-2 -10t-2 -10q0 -4 8 -4q4 0 6 4zM164 624q0 6 -6 6q-7 0 -7 -6v-27q0 -6 7 -6q6 0 6 6v27zM251 530q2 1 2 4q0 4 -6 6l-5 -1.5t-11 -4t-11 -5 t-5 -5.5q0 -5 5 -5q8 0 17 3.5t14 7.5zM170 552q-2 7 -4 16.5t-7 9.5q-7 0 -7 -6q0 -9 3 -16.5t9 -7.5q5 0 6 4zM125 643q2 2 2 5q0 6 -7 6q-5 0 -11.5 -8.5t-6.5 -12.5t7 -4q5 0 6.5 4.5t9.5 9.5zM287 642q8 0 8 6t-8 6q-6 0 -12 -4h-4q-2 -2 -2 -6q0 -6 6 -6q3 0 4 1l2 1 q2 2 6 2z" />
</font>
</defs>
</svg>
